<?xml version="1.0" encoding="utf-8"?>
<!-- Generator: Adobe Illustrator 16.0.0, SVG Export Plug-In . SVG Version: 6.00 Build 0)  -->
<!DOCTYPE svg PUBLIC "-//W3C//DTD SVG 1.1//EN" "http://www.w3.org/Graphics/SVG/1.1/DTD/svg11.dtd">
<svg version="1.1" id="Layer_1" xmlns="http://www.w3.org/2000/svg" xmlns:xlink="http://www.w3.org/1999/xlink" x="0px" y="0px"
	 width="330px" height="110px" viewBox="0 0 330 110" enable-background="new 0 0 330 110" xml:space="preserve">
<g>
	<path fill="#FFFFFF" d="M110.9,44.419c-1.795,2.864-3.559,5.707-5.291,8.529c-1.73,2.821-3.41,5.708-5.033,8.657h11.992
		c-0.215-2.607-0.439-5.387-0.674-8.337C111.658,50.318,111.328,47.369,110.9,44.419z"/>
	<path fill="#FFFFFF" d="M305.801,5h-281.6C13.596,5,5,10.373,5,17.001V93c0,6.627,8.596,12,19.201,12h281.6
		C316.404,105,325,99.627,325,93V17.001C325,10.373,316.404,5,305.801,5z M175.832,33.934c0.363-0.791,0.844-1.476,1.443-2.053
		c0.598-0.577,1.291-1.036,2.084-1.378c0.791-0.342,1.635-0.514,2.533-0.514c1.324,0,2.521,0.396,3.59,1.187
		c1.068,0.792,1.604,1.999,1.604,3.623c0,0.898-0.182,1.743-0.545,2.533c-0.363,0.792-0.844,1.476-1.443,2.053
		c-0.598,0.577-1.293,1.037-2.084,1.379c-0.791,0.343-1.635,0.513-2.533,0.513c-1.324,0-2.521-0.395-3.59-1.187
		c-1.07-0.79-1.604-1.998-1.604-3.623C175.287,35.568,175.469,34.725,175.832,33.934z M52.104,97.262l-22.99-16.098l-9.969-6.98
		v-0.119V59.133v-0.117l32.959-23.079v15.05L29.806,66.6l22.298,15.613V97.262z M52.104,59.016L74.4,43.401L52.104,27.789v-15.05
		l22.99,16.098l9.969,6.981v0.117v14.932v0.118L52.104,74.064V59.016z M113.85,79.113c-0.086-1.666-0.182-3.303-0.287-4.906
		c-0.107-1.602-0.225-3.195-0.354-4.777H96.535c-0.855,1.582-1.754,3.176-2.693,4.777c-0.941,1.604-1.838,3.24-2.693,4.906H80.695
		c2.779-4.787,5.375-9.213,7.791-13.273c2.416-4.063,4.746-7.889,6.99-11.48c2.246-3.592,4.436-7.001,6.574-10.229
		c2.137-3.228,4.318-6.381,6.541-9.459h8.914c0.684,3.078,1.336,6.488,1.955,10.229c0.621,3.742,1.197,7.567,1.732,11.479
		c0.533,3.912,1.025,7.824,1.475,11.736s0.865,7.578,1.252,10.998H113.85z M162.719,60.9l-4.361,18.213h-9.557l4.232-17.828
		c0.258-1.111,0.459-2.189,0.609-3.238c0.15-1.047,0.139-1.965-0.031-2.758c-0.172-0.791-0.566-1.432-1.188-1.924
		c-0.619-0.491-1.57-0.737-2.854-0.737c-1.24,0-2.5,0.128-3.783,0.385l-6.221,26.101h-9.555l7.76-32.193
		c0.727-0.214,1.527-0.459,2.404-0.737c0.875-0.277,1.859-0.534,2.949-0.77c1.092-0.234,2.309-0.427,3.656-0.577
		c1.348-0.149,2.875-0.225,4.586-0.225c5.043,0,8.506,1.454,10.389,4.36C163.637,51.88,163.957,55.856,162.719,60.9z
		 M175.863,79.113h-9.49l8.016-33.732h9.555L175.863,79.113z M235.729,58.336c-0.107,0.855-0.268,1.711-0.48,2.564l-4.361,18.213
		h-9.555l4.232-17.828c0.129-0.598,0.268-1.271,0.416-2.02c0.15-0.748,0.225-1.484,0.225-2.213c0-1.196-0.277-2.233-0.832-3.11
		c-0.557-0.876-1.646-1.314-3.271-1.314c-0.898,0-1.754,0.16-2.564,0.48c-0.814,0.32-1.539,0.652-2.182,0.994
		c0.086,0.343,0.129,0.663,0.129,0.962c0,0.3,0,0.577,0,0.834c0,0.77-0.055,1.582-0.16,2.438c-0.107,0.855-0.268,1.711-0.482,2.564
		l-4.359,18.213h-9.557l4.232-17.828c0.129-0.598,0.268-1.271,0.418-2.02c0.148-0.748,0.225-1.484,0.225-2.213
		c0-1.196-0.279-2.233-0.834-3.11c-0.557-0.876-1.646-1.314-3.271-1.314c-0.684,0-1.262,0.031-1.73,0.096
		c-0.471,0.064-1.027,0.16-1.668,0.289l-6.221,26.101h-9.555l7.76-32.193c0.727-0.214,1.506-0.459,2.34-0.737
		c0.834-0.277,1.773-0.534,2.822-0.77c1.047-0.234,2.223-0.427,3.527-0.577c1.303-0.149,2.811-0.225,4.521-0.225
		c2.051,0,3.752,0.257,5.098,0.77c1.348,0.513,2.576,1.282,3.688,2.309c1.582-0.897,3.152-1.636,4.713-2.213
		s3.389-0.865,5.484-0.865c2.01,0,3.729,0.268,5.162,0.802c1.432,0.535,2.619,1.305,3.559,2.309
		c0.941,1.005,1.625,2.202,2.053,3.591c0.428,1.391,0.641,2.918,0.641,4.586C235.889,56.668,235.836,57.48,235.729,58.336z
		 M269.879,71.898c0.256,2.459,0.746,4.65,1.475,6.574l-8.529,1.219c-0.258-0.514-0.492-1.004-0.705-1.475
		c-0.215-0.471-0.428-1.006-0.643-1.604c-1.197,0.982-2.523,1.795-3.977,2.436c-1.453,0.643-3.078,0.963-4.873,0.963
		c-2.139,0-3.967-0.375-5.482-1.123c-1.52-0.746-2.758-1.752-3.721-3.014c-0.961-1.26-1.656-2.736-2.084-4.426
		c-0.428-1.688-0.641-3.494-0.641-5.418c0-2.949,0.523-5.729,1.57-8.336c1.047-2.608,2.502-4.886,4.361-6.831
		s4.051-3.474,6.574-4.586c2.521-1.111,5.258-1.667,8.207-1.667c0.385,0,1.059,0.021,2.021,0.064
		c0.961,0.043,2.063,0.139,3.303,0.288c1.238,0.15,2.543,0.396,3.912,0.737c1.367,0.343,2.67,0.813,3.912,1.411l-4.17,17.444
		C269.793,66.992,269.621,69.441,269.879,71.898z M309.318,51.729c-0.984,0.856-2.266,2.021-3.848,3.495
		c-1.582,1.477-3.293,3.102-5.131,4.875s-3.719,3.635-5.643,5.578c-1.924,1.947-3.721,3.816-5.387,5.611h15.646l-1.924,7.824
		h-27.191l1.348-5.578c1.24-1.539,2.662-3.207,4.264-5.004c1.604-1.795,3.271-3.611,5.004-5.449c1.73-1.838,3.463-3.602,5.193-5.291
		c1.732-1.689,3.346-3.218,4.842-4.586H282.77l1.924-7.824h26.164L309.318,51.729z"/>
	<path fill="#FFFFFF" d="M260.58,52.499c-1.455,0-2.813,0.364-4.072,1.091c-1.262,0.728-2.363,1.678-3.303,2.854
		c-0.941,1.178-1.68,2.533-2.213,4.072c-0.535,1.539-0.803,3.143-0.803,4.811c0,2.051,0.342,3.678,1.027,4.873
		c0.684,1.197,1.943,1.797,3.783,1.797c0.982,0,1.869-0.193,2.662-0.578c0.789-0.385,1.635-1.025,2.533-1.924
		c0.084-1.068,0.223-2.191,0.416-3.367c0.191-1.174,0.395-2.254,0.609-3.238l2.5-10.133c-0.555-0.085-1.057-0.149-1.506-0.192
		C261.766,52.521,261.221,52.499,260.58,52.499z"/>
</g>
</svg>
