<?xml version="1.0" encoding="utf-8"?>
<!-- Generator: Adobe Illustrator 16.0.0, SVG Export Plug-In . SVG Version: 6.00 Build 0)  -->
<!DOCTYPE svg PUBLIC "-//W3C//DTD SVG 1.1//EN" "http://www.w3.org/Graphics/SVG/1.1/DTD/svg11.dtd">
<svg version="1.1" id="Layer_1" xmlns="http://www.w3.org/2000/svg" xmlns:xlink="http://www.w3.org/1999/xlink" x="0px" y="0px"
	 width="100px" height="100px" viewBox="0 0 100 100" enable-background="new 0 0 100 100" xml:space="preserve">
<g>
	<path fill="#0AE2C3" d="M57.418,32.681c1.746,0,3.164,1.418,3.164,3.158c0,1.752-1.418,3.164-3.164,3.164
		c-1.752,0-3.164-1.412-3.164-3.164C54.254,34.099,55.666,32.681,57.418,32.681z"/>
	<path fill="#0AE2C3" d="M52.619,65.604c1.74,0,3.158,1.418,3.158,3.164s-1.418,3.158-3.158,3.158c-1.746,0-3.165-1.412-3.165-3.158
		S50.873,65.604,52.619,65.604z"/>
	<path fill="#0AE2C3" d="M27.127,75.712c-0.776-0.41-1.497-0.908-2.183-1.465c-1.523-1.242-2.771-2.701-3.498-4.547
		c-0.888-2.238-0.738-4.488,0.097-6.715c0.882-2.35,2.32-4.348,4.002-6.176c2.587-2.83,5.599-5.145,8.786-7.248
		c4.462-2.947,9.208-5.373,14.08-7.553c1.383-0.621,2.784-1.184,4.173-1.787c0.246-0.105,0.416-0.07,0.621,0.111
		c2.314,2.039,5.572,2.133,7.928,0.141c1.951-1.646,2.625-3.803,1.969-6.258c-0.645-2.402-2.291-3.902-4.734-4.371
		c-3.352-0.639-6.439,1.529-7.066,4.887c-0.053,0.299-0.193,0.422-0.457,0.51c-3.496,1.195-6.892,2.637-10.19,4.307
		c-2.827,1.43-5.569,3.012-8.212,4.758c-1.884,1.248-3.706,2.578-5.479,3.984c-0.079,0.059-0.164,0.117-0.278,0.193
		c-0.082-0.873-0.076-1.711-0.105-2.543c-0.07-1.664-0.018-3.328,0.047-4.992c0.012-0.416-0.179-0.24-0.346-0.17
		c-1.734,0.756-3.387,1.658-4.989,2.66c-2.186,1.365-4.266,2.877-6.176,4.611c-0.188,0.17-0.299,0.158-0.498,0.012
		c-1.772-1.395-3.234-3.082-4.597-4.857c-1.963-2.561-3.577-5.338-4.96-8.25c-0.1-0.205-0.082-0.322,0.091-0.475
		c0.729-0.65,1.447-1.313,2.168-1.975c0.149-0.135,0.231-0.199,0.322,0.064c1.201,3.457,3.085,6.539,5.224,9.48
		c0.29,0.404,0.595,0.797,0.911,1.213c0.097-0.141,0.021-0.217-0.018-0.281c-1.752-3.545-3.053-7.248-3.964-11.092
		c-0.199-0.832,0.003-1.471,0.671-2.01c3.064-2.449,6.199-4.805,9.396-7.09c3.114-2.227,6.278-4.389,9.519-6.434
		c1.002-0.627,1.538-0.609,2.481,0.082c3.117,2.273,6.586,3.674,10.409,4.213c2.886,0.398,5.733,0.27,8.538-0.574
		c0.838-0.252,1.641-0.58,2.408-1.014c0.094-0.059,0.217-0.094,0.281-0.234c-0.627,0.164-1.242,0.352-1.857,0.48
		c-4.34,0.908-8.567,0.521-12.669-1.172c-2.065-0.855-3.92-2.033-5.604-3.498c-0.076-0.07-0.149-0.146-0.234-0.211
		c-0.188-0.141-0.182-0.24,0.038-0.363c1.11-0.615,2.238-1.201,3.396-1.717c0.17-0.076,0.284-0.064,0.434,0.053
		c2.355,1.934,5.071,2.936,8.083,3.217c2.813,0.258,5.532-0.135,8.122-1.289c1.729-0.768,3.246-1.852,4.465-3.328
		c0.135-0.164,0.252-0.217,0.469-0.17c4.207,0.838,8.273,2.145,12.217,3.814c4.09,1.746,7.975,3.873,11.719,6.264
		c0.984,0.621,1.945,1.283,2.9,1.945c0.855,0.592,1.049,1.342,0.615,2.279c-1.359,2.982-2.279,6.1-2.918,9.311
		c-0.029,0.129-0.088,0.264,0.012,0.457c0.234-0.551,0.451-1.066,0.68-1.564c1.271-2.807,2.76-5.49,4.512-8.027
		c0.123-0.176,0.205-0.258,0.41-0.1c0.855,0.656,1.723,1.301,2.596,1.939c0.188,0.141,0.094,0.246,0.018,0.381
		c-1.137,1.98-2.273,3.961-3.398,5.941c-1.266,2.215-2.531,4.43-3.785,6.65c-0.129,0.223-0.234,0.264-0.486,0.164
		c-3.639-1.488-7.289-2.965-11.01-4.236c-0.182-0.064-0.422-0.234-0.551-0.117c-0.141,0.123,0.041,0.357,0.1,0.539
		c0.721,2.467,1.5,4.916,2.297,7.365c0.398,1.236,0.85,2.467,1.248,3.703c0.703,2.174,1.512,4.301,2.344,6.428
		c0.1,0.264,0.006,0.369-0.188,0.498c-3.68,2.443-7.559,4.506-11.561,6.357c-2.801,1.301-5.648,2.473-8.525,3.586
		c-0.293,0.111-0.475,0.076-0.703-0.135c-1.74-1.6-3.785-2.027-6-1.318c-2.222,0.715-3.596,2.303-4.082,4.6
		c-0.712,3.357,1.688,6.727,5.084,7.178c3.217,0.428,6.07-1.559,6.785-4.729c0.064-0.305,0.188-0.469,0.498-0.568
		c4.037-1.242,7.934-2.848,11.707-4.734c5.443-2.713,10.57-5.941,15.193-9.926c2.027-1.746,3.914-3.627,5.566-5.73
		c1.43-1.822,2.672-3.756,3.469-5.947c0.012-0.029,0.035-0.053,0.1-0.135c0.006,0.521-0.1,0.967-0.188,1.412
		c-0.504,2.695-1.605,5.15-3.006,7.482c-2.555,4.254-5.895,7.805-9.691,10.963c-0.223,0.182-0.258,0.305-0.117,0.563
		c1.336,2.414,2.818,4.723,4.658,6.779c0.17,0.193,0.158,0.316,0.023,0.51c-1.998,2.965-4.541,5.379-7.43,7.453
		c-3.492,2.514-7.318,4.395-11.32,5.924c-4.447,1.711-9.035,2.912-13.717,3.768c-3.832,0.703-7.694,1.137-11.585,1.307
		c-1.702,0.076-3.398,0.064-5.098,0.053c-0.193,0-0.299-0.059-0.381-0.229c-0.234-0.469-0.475-0.932-0.721-1.395
		c-0.126-0.229-0.044-0.275,0.17-0.293c1.175-0.088,2.347-0.176,3.516-0.293c2.669-0.258,5.314-0.656,7.948-1.137
		c3.713-0.662,7.375-1.57,10.984-2.684c4.318-1.336,8.52-2.982,12.574-4.992c1.734-0.861,3.422-1.793,5.057-2.836
		c0.123-0.076,0.264-0.135,0.375-0.334c-0.275,0.117-0.498,0.205-0.715,0.311c-4.289,2.033-8.73,3.65-13.289,4.969
		c-3.844,1.107-7.734,1.975-11.672,2.66c-2.96,0.51-5.937,0.891-8.931,1.166c-2.01,0.182-4.014,0.34-6.026,0.434
		c-0.908,0.035-1.567-0.311-1.931-1.143c-0.677-1.535-1.277-3.1-1.854-4.676c-0.598-1.6-1.189-3.205-1.644-4.857
		c-1.061-3.832-2.024-7.693-2.716-11.607c-0.149-0.885-0.305-1.77-0.46-2.648c-0.021-0.088,0.023-0.211-0.076-0.246
		c-0.12-0.041-0.182,0.088-0.252,0.158c-0.612,0.609-1.166,1.266-1.688,1.951c-1.081,1.43-2.01,2.953-2.464,4.705
		c-0.732,2.83-0.229,5.396,1.729,7.629C25.68,74.505,26.395,75.114,27.127,75.712z"/>
	<path fill="#0AE2C3" d="M57.418,32.681c1.746,0,3.164,1.418,3.164,3.158c0,1.752-1.418,3.164-3.164,3.164
		c-1.752,0-3.164-1.412-3.164-3.164C54.254,34.099,55.666,32.681,57.418,32.681z"/>
	<path fill="#0AE2C3" d="M52.619,65.604c1.74,0,3.158,1.418,3.158,3.164s-1.418,3.158-3.158,3.158c-1.746,0-3.165-1.412-3.165-3.158
		S50.873,65.604,52.619,65.604z"/>
</g>
</svg>
