<?xml version="1.0" encoding="utf-8"?>
<!-- Generator: Adobe Illustrator 16.0.0, SVG Export Plug-In . SVG Version: 6.00 Build 0)  -->
<!DOCTYPE svg PUBLIC "-//W3C//DTD SVG 1.1//EN" "http://www.w3.org/Graphics/SVG/1.1/DTD/svg11.dtd">
<svg version="1.1" id="Layer_1" xmlns="http://www.w3.org/2000/svg" xmlns:xlink="http://www.w3.org/1999/xlink" x="0px" y="0px"
	 width="310px" height="64.667px" viewBox="-6.917 0 310 64.667" enable-background="new -6.917 0 310 64.667" xml:space="preserve"
	>
<g>
	<g>
		<g>
			<path fill="#FFFFFF" d="M54.584,31.881c-0.702,0-1.319-0.491-1.467-1.191c-0.005-0.021-0.014-0.068-0.017-0.089
				c-0.11-0.664,0.232-1.334,0.843-1.619c0.608-0.285,1.333-0.142,1.771,0.37c0.156,0.182,0.27,0.422,0.328,0.668h0.001h-0.001
				c0.028,0.121,0.043,0.244,0.043,0.362c0,0.769-0.581,1.413-1.345,1.492C54.688,31.878,54.636,31.881,54.584,31.881z
				 M53.085,30.381h1.428H53.085z"/>
		</g>
		<g>
			<path fill="#FFFFFF" d="M84.931,28.471L84.931,28.471c-0.063,0-0.15-0.006-0.229-0.015l0,0c-0.299-0.036-0.583-0.065-0.855-0.091
				c-0.49-0.045-0.983,0.013-1.405-0.211c-0.569-0.302-0.995-0.819-1.265-1.536c-0.204-0.548-0.302-1.205-0.302-2.015
				c0-0.911,0.437-1.898,1.333-3.018c0.715-0.89,1.393-1.449,2.089-1.716c0.245-0.298,0.519-0.623,0.82-0.975
				c0.079-0.092,0.169-0.174,0.268-0.245c0.326-0.232,0.71-0.409,1.175-0.542c0.446-0.12,0.919-0.177,1.429-0.177
				c0.828,0,1.496,0.214,1.985,0.637c0.543,0.477,0.837,1.161,0.837,1.934c0,0.106-0.012,0.212-0.034,0.316
				c-0.109,0.51-0.2,0.936-0.271,1.284c-0.008,0.035-0.016,0.069-0.025,0.104c-0.191,0.679-0.357,1.238-0.5,1.678
				c-0.153,0.464-0.266,0.79-0.347,0.995c-0.242,0.588-0.566,1.096-0.976,1.532c-0.371,0.4-0.816,0.754-1.357,1.077
				c-0.463,0.322-0.891,0.566-1.267,0.718C85.594,28.39,85.259,28.471,84.931,28.471z M83.932,25.362
				c0.063,0.005,0.126,0.01,0.189,0.016c0.231,0.021,0.471,0.046,0.719,0.074c0.016-0.006,0.032-0.013,0.05-0.021
				c0.111-0.045,0.334-0.154,0.79-0.467c0.369-0.224,0.605-0.409,0.783-0.599c0.167-0.179,0.289-0.37,0.386-0.604
				c0.058-0.15,0.152-0.424,0.278-0.809c0.127-0.392,0.276-0.897,0.449-1.508c0.031-0.152,0.066-0.318,0.104-0.5
				c-0.144,0.014-0.25,0.036-0.322,0.055c-0.055,0.016-0.099,0.031-0.133,0.044c-0.343,0.402-0.644,0.765-0.903,1.087
				c-0.247,0.305-0.604,0.502-0.993,0.548c0.021,0.002-0.257,0.131-0.782,0.784c-0.643,0.803-0.673,1.142-0.673,1.146
				C83.874,24.965,83.902,25.207,83.932,25.362z"/>
		</g>
		<g>
			<path fill="#FFFFFF" d="M101.22,52.158c-0.138,0-0.27-0.006-0.401-0.014c-0.344-0.032-0.634-0.121-0.95-0.277
				c-0.159-0.078-0.304-0.186-0.427-0.314l-0.467-0.493c-0.367-0.378-0.584-0.849-1.053-3.69l-0.818-4.971
				c-0.071,0.083-0.144,0.169-0.219,0.258c-0.355,0.403-0.85,0.809-1.532,1.26c-0.411,0.272-0.635,0.467-0.753,0.588
				c-0.054,0.082-0.116,0.158-0.187,0.229c-0.34,0.34-0.781,0.721-1.312,1.131c-0.488,0.383-1.087,0.829-1.779,1.336
				c-0.852,0.615-1.551,1.057-2.143,1.352c-0.783,0.389-1.362,0.56-1.882,0.56c-2.083,0-3.368-0.274-4.164-0.894
				c-0.757-0.59-1.391-1.729-2.113-3.807c-0.042-0.072-0.1-0.152-0.167-0.246c-0.149-0.203-0.326-0.461-0.522-0.752
				c-0.031-0.047-0.061-0.096-0.087-0.146c-0.015-0.028-0.029-0.056-0.043-0.082c-0.364,0.308-0.811,0.743-1.33,1.308
				c-0.099,0.151-0.225,0.286-0.378,0.396c-0.084,0.061-0.188,0.158-0.317,0.287c-0.216,0.219-0.485,0.459-0.801,0.72
				c-0.282,0.269-0.678,0.542-1.235,0.858c-0.533,0.301-1.194,0.609-2.027,0.951c-0.154,0.08-0.411,0.211-0.684,0.358
				c-0.259,0.138-0.498,0.259-0.725,0.374l-0.136,0.068c-0.453,0.223-0.842,0.379-1.206,0.484c-0.404,0.129-0.856,0.196-1.315,0.196
				c-0.703,0-1.248-0.062-1.714-0.192c-0.492-0.127-0.909-0.312-1.248-0.552c-0.065-0.047-0.127-0.101-0.184-0.155l-2.004-1.982
				c-0.185,0.166-0.389,0.367-0.611,0.604c-0.113,0.141-0.304,0.357-0.507,0.586l-0.639,0.693c-0.143,0.154-0.316,0.277-0.51,0.359
				c-0.266,0.113-0.58,0.271-0.944,0.461c-0.398,0.209-0.869,0.457-1.416,0.75c-0.218,0.115-0.46,0.178-0.707,0.178h-0.248
				c-0.688,0-1.144-0.268-1.403-0.492c-0.203-0.148-0.673-0.636-0.673-1.533c0-0.844,0.479-1.701,3.097-4.049
				c1.188-1.063,1.73-1.664,1.974-1.974c-0.108-0.249-0.232-0.509-0.373-0.776c-0.032-0.061-0.065-0.123-0.101-0.186
				c-0.28,0.32-0.619,0.672-1.03,1.064c-0.428,0.414-0.963,0.92-1.593,1.51c-0.099,0.092-0.21,0.172-0.33,0.233
				c-0.176,0.093-0.384,0.22-0.625,0.388c-0.259,0.178-0.54,0.399-0.847,0.658c-1.127,1.104-2.135,1.922-3.08,2.498
				c-0.931,0.573-1.842,0.905-2.711,0.987c-0.343,0.169-0.716,0.297-1.114,0.381c-0.47,0.104-1.013,0.158-1.646,0.158
				c-0.871,0-1.662-0.138-2.351-0.408c-0.729-0.278-1.363-0.707-1.87-1.269c-0.25-0.244-0.521-0.637-0.777-1.142
				c-0.154-0.299-0.315-0.646-0.486-1.051c-0.704,0.544-1.326,0.95-1.897,1.241c-0.724,0.377-1.39,0.563-2.026,0.563
				c-1.733,0-3.441-1.014-5.078-3.012c-1.145-1.391-1.743-1.783-1.948-1.889c-0.294,0.131-1.299,0.748-3.563,3.629
				c-3.502,4.443-4.452,4.797-5.33,4.797c-0.352,0-0.785-0.033-1.289-0.096c-0.109-0.015-0.217-0.041-0.32-0.078
				c-0.539-0.193-0.967-0.607-1.203-1.168c-0.151-0.354-0.229-0.76-0.229-1.203c0-0.414,0.068-0.889,0.209-1.451
				c0.115-0.469,0.269-1.018,0.457-1.648l0.12-0.383c0.189-0.609,0.346-1.109,0.472-1.496c0.153-0.484,0.178-0.64,0.18-0.656
				c0.007-0.045,0.021-0.145,0.032-0.188c0.051-0.215,0.118-0.639,0.21-1.271l0.05-0.348c-0.185,0.146-0.402,0.314-0.662,0.512
				l-1.866,2.127c-0.677,0.767-1.363,1.537-2.063,2.313c-1.127,1.313-2.021,2.28-2.711,2.933c-0.919,0.863-1.553,1.33-2.285,1.33
				c-0.796,0-1.396-0.107-1.887-0.336c-0.801-0.354-1.295-1.082-1.295-1.938c0-0.533,0.12-1.5,1.058-4.264
				c0.022-0.066,0.045-0.131,0.066-0.193c-0.284,0.289-0.606,0.611-0.969,0.961c-0.068,0.137-0.144,0.268-0.227,0.391
				c-0.125,0.186-0.263,0.365-0.415,0.54C8.604,45.072,8.041,45.257,7.5,45.13c-0.54-0.123-0.968-0.533-1.113-1.067
				c-0.035-0.131-0.117-0.373-0.305-0.787c-0.179-0.399-0.411-0.889-0.697-1.476c-0.26-0.534-0.181-1.172,0.202-1.625
				c0.087-0.104,0.188-0.235,0.304-0.401l0.498-0.708c0.882-1.105,1.703-2.05,2.496-2.882c0.775-0.812,1.527-1.552,2.236-2.202
				c0.315-0.298,0.718-0.704,1.188-1.204c0.507-0.531,1.092-1.139,1.757-1.821c0.152-0.156,0.337-0.277,0.541-0.354
				c0.646-0.246,1.355-0.54,2.13-0.864c0.184-0.077,0.38-0.116,0.579-0.116c0.963,0,1.781,0.386,2.303,1.088
				c0.437,0.595,0.654,1.362,0.654,2.289c0,0.445-0.027,0.92-0.081,1.414c0.489-0.521,1.039-1.115,1.654-1.793
				c1.184-1.298,2.202-2.251,3.116-2.915c1.123-0.806,2.03-1.179,2.863-1.179c1.047,0,1.913,0.459,2.438,1.294
				c0.405,0.647,0.601,1.478,0.601,2.543c0,1.087-0.074,2.151-0.22,3.163c0.229-0.179,0.465-0.358,0.71-0.542
				c0.605-0.472,1.257-0.852,1.91-1.109c0.707-0.279,1.42-0.42,2.121-0.42c0.372,0,0.74,0.105,1.066,0.309
				c0.106,0.061,0.259,0.164,0.413,0.285c0.523,0.457,0.913,0.834,1.219,1.166c0.363,0.402,0.623,0.76,0.803,1.102
				c0.683,1.408,1.271,2.428,1.768,3.075c0.034,0.044,0.066,0.083,0.097,0.12c0.135-0.174,0.28-0.352,0.438-0.529
				c0.304-0.342,0.654-0.686,1.047-1.023l0.082-0.529c0.046-0.303,0.076-0.616,0.094-0.936c0.005-0.076,0.015-0.149,0.03-0.225
				c0.068-0.33,0.174-0.699,0.313-1.096c0.119-0.346,0.254-0.73,0.402-1.143c0.199-0.486,0.432-1.016,0.729-1.646
				c0.302-0.645,0.692-1.357,1.193-2.175c0.048-0.079,0.104-0.153,0.165-0.221c0.372-0.413,0.765-0.86,1.173-1.35
				c0.419-0.5,0.836-1.003,1.252-1.514c0.067-0.083,0.144-0.158,0.228-0.225c0.248-0.198,0.519-0.392,0.809-0.571
				c0.202-0.125,0.403-0.269,0.608-0.421c0.12-0.089,0.252-0.16,0.393-0.21c0.285-0.101,0.6-0.184,0.963-0.254
				c0.958-0.185,2.02-0.136,2.753,0.095c0.573,0.19,1.036,0.501,1.399,0.933c0.234,0.272,0.439,0.625,0.617,1.066
				c0.151,0.382,0.287,0.805,0.405,1.265c0.012,0.046,0.021,0.092,0.028,0.139l0.021,0.136c0.038,0.239,0.078,0.497,0.123,0.769
				c0.052,0.152,0.079,0.314,0.079,0.484c0,0.288-0.081,0.558-0.222,0.786c-0.063,0.206-0.141,0.462-0.234,0.784l-0.244,0.869
				c-0.314,1.085-0.966,2.25-1.994,3.571c-0.938,1.207-2.207,2.591-3.771,4.113c-0.012,0.19,0.01,0.322,0.052,0.412
				c0.065,0.036,0.104,0.069,0.164,0.116c0.028,0.011,0.133,0.046,0.261,0.091c0.198,0.066,0.452,0.137,0.75,0.204
				c0.526-0.053,0.998-0.146,1.406-0.272c0.484-0.15,0.916-0.332,1.283-0.537c0.111-0.063,0.279-0.154,0.516-0.27
				c0.044-0.023,0.103-0.062,0.17-0.107c0.076-0.078,0.163-0.148,0.26-0.211c0.562-0.357,1.113-0.701,1.655-1.027
				c0.514-0.309,1.015-0.631,1.512-0.965c0.937-0.604,1.604-1.09,2.007-1.458c0.066-0.06,0.122-0.111,0.167-0.155
				c-0.056-0.164-0.149-0.412-0.311-0.764c-0.45-0.984-0.66-1.738-0.66-2.374c0-0.819,0.161-1.588,0.479-2.287
				c0.326-0.713,0.84-1.36,1.527-1.924c0.257-0.246,0.556-0.482,0.837-0.657c0.455-0.274,0.865-0.403,1.271-0.403
				c0.839,0,1.575,0.413,2.074,1.161c0.344,0.517,0.58,1.185,0.725,2.042c0.033,0.156,0.065,0.297,0.096,0.425
				c0.286-0.299,0.625-0.629,1.013-0.988c0.578-0.529,1.28-1.163,2.109-1.903c0.972-0.855,1.798-1.523,2.465-1.99
				c0.765-0.537,1.299-0.835,1.729-0.967c0.28-0.085,0.569-0.072,0.885-0.048c0.118-0.009,0.279-0.016,0.481-0.017
				c0.064-0.006,0.129-0.009,0.192-0.009c0.405,0,1.015,0.116,1.614,0.667c0.395,0.362,0.72,0.867,0.994,1.543
				c0.195,0.418,0.356,0.835,0.464,1.21c0.13,0.454,0.195,0.893,0.195,1.308c0,0.808-0.067,1.485-0.207,2.07
				c-0.151,0.654-0.415,1.204-0.783,1.627c-0.24,0.373-0.545,0.789-0.907,1.242c-0.396,0.5-0.878,1.074-1.444,1.721
				c-1.764,1.768-2.989,3.014-3.813,3.881c-0.269,0.283-0.469,0.502-0.617,0.668c0.057,0.064,0.127,0.137,0.213,0.219
				c0.312,0.297,0.505,0.4,0.583,0.434c0.665-0.082,1.285-0.174,1.851-0.271c0.373-0.234,0.76-0.497,1.159-0.782
				c0.411-0.295,0.838-0.608,1.278-0.94c0.048-0.133,0.113-0.258,0.196-0.371c0.561-0.771,1.489-1.719,2.84-2.902
				c1.154-1.012,1.944-1.816,2.348-2.391c0.281-0.453,0.686-0.844,1.158-1.094c0.457-0.244,0.936-0.369,1.418-0.369
				c0.963,0,1.807,0.26,2.507,0.772c0.733,0.532,1.226,1.313,1.457,2.317c0.133,0.593,0.257,1.183,0.37,1.781
				c0.106,0.547,0.197,1.113,0.271,1.685c0.132,0.403,0.281,0.942,0.454,1.642c0.075,0.309,0.133,0.518,0.175,0.657
				c0.13-0.013,0.267-0.042,0.411-0.092c0.183-0.063,0.398-0.192,0.624-0.373c0.247-0.214,0.546-0.468,0.856-0.722l0.745-0.604
				c0.1-0.1,0.274-0.253,0.726-0.572c0.316-0.222,0.72-0.482,1.216-0.777c0.081-0.047,0.292-0.184,0.694-0.623
				c0.344-0.371,0.748-0.893,1.207-1.559c0.418-0.561,0.771-1.07,1.079-1.564c0.296-0.473,0.532-0.893,0.702-1.25
				c0.759-1.602,1.517-2.772,2.313-3.578c0.958-0.971,2.018-1.463,3.146-1.463c0.785,0,1.301,0.314,1.595,0.577
				c0.341,0.325,0.704,0.855,0.704,1.727c0,0.562-0.048,1.414-0.144,2.533c-0.086,0.999-0.132,1.823-0.132,2.389
				c0,0.231,0.019,0.58,0.052,1.048l0.06,0.857c0.334-0.697,0.731-1.555,1.204-2.604c2.256-5.023,3.959-7.074,5.879-7.074
				c1.317,0,1.991,0.707,2.275,1.128c0.381,0.566,0.573,1.311,0.573,2.215c0,0.5-0.125,0.966-0.371,1.387
				c-0.141,0.237-0.311,0.448-0.511,0.635c-0.002,0.082-0.011,0.166-0.027,0.248c-0.106,0.543-0.218,1.104-0.336,1.676
				c0.031,0.068,0.072,0.16,0.112,0.259c0.09,0.194,0.141,0.411,0.141,0.639c0,0.123-0.015,0.243-0.043,0.358
				c-0.015,0.141-0.044,0.451-0.087,0.904c-0.049,0.524-0.104,1.226-0.17,2.103c0.557-0.957,1.203-2.175,1.931-3.634
				c0.079-0.377,0.181-0.772,0.312-1.207c0.145-0.485,0.343-1.01,0.605-1.592c0.166-0.463,0.36-0.926,0.58-1.376
				c0.122-0.25,0.241-0.5,0.355-0.747l-0.084-0.308c-0.059-0.22-0.065-0.45-0.022-0.674c0.047-0.241,0.099-0.482,0.149-0.725
				l0.074-0.356c0.08-0.39,0.168-0.772,0.271-1.138c0.195-0.703,0.514-1.275,0.943-1.694c0.515-0.505,1.162-0.773,1.871-0.773
				c0.904,0,1.459,0.377,1.767,0.693c0.304,0.326,0.642,0.862,0.642,1.689c0,1.031-0.1,2.103-0.297,3.185
				c-0.193,1.061-0.47,2.148-0.846,3.327c-0.396,1.271-0.859,2.481-1.378,3.589c-0.476,1.034-1.031,2.053-1.649,3.021
				c-0.063,0.16-0.131,0.324-0.201,0.488c0.672-0.65,1.066-1.152,1.365-1.531c0.135-0.172,0.249-0.314,0.35-0.43
				c0.293-0.332,0.644-0.676,1.045-1.021c0.029-0.182,0.058-0.361,0.086-0.539c0.043-0.289,0.074-0.609,0.095-0.936
				c0.004-0.068,0.013-0.138,0.026-0.205c0.06-0.297,0.156-0.644,0.305-1.086l0.064-0.188c0.106-0.308,0.222-0.636,0.349-0.981
				c0.2-0.484,0.434-1.009,0.728-1.636c0.279-0.609,0.66-1.305,1.192-2.177c0.05-0.082,0.106-0.158,0.171-0.229
				c0.376-0.412,0.764-0.859,1.173-1.347c0.414-0.496,0.832-1.001,1.248-1.511c0.067-0.083,0.146-0.159,0.229-0.226
				c0.248-0.197,0.514-0.387,0.799-0.565c0.22-0.133,0.412-0.273,0.607-0.42c0.12-0.091,0.254-0.163,0.396-0.214
				c0.287-0.103,0.605-0.187,0.974-0.256c0.375-0.072,0.776-0.11,1.187-0.11c0.613,0,1.127,0.067,1.566,0.207
				c0.567,0.188,1.045,0.511,1.4,0.941c0.222,0.255,0.421,0.597,0.605,1.051c0.146,0.357,0.281,0.772,0.41,1.267
				c0.014,0.054,0.024,0.109,0.032,0.164c0.039,0.271,0.085,0.567,0.138,0.885c0.051,0.152,0.078,0.314,0.078,0.483
				c0,0.285-0.078,0.551-0.217,0.778c-0.061,0.195-0.141,0.459-0.236,0.792l-0.244,0.868c-0.315,1.087-0.967,2.251-1.992,3.571
				c-0.938,1.207-2.17,2.55-3.766,4.107c0.002-0.002,0.004-0.004,0.004-0.004c0.002,0-0.016,0.026-0.039,0.074
				c0.015,0.126,0.037,0.26,0.08,0.354c0.064,0.037,0.102,0.063,0.16,0.109c0.031,0.012,0.133,0.047,0.258,0.088
				c0.207,0.07,0.459,0.141,0.756,0.209c0.527-0.054,1-0.146,1.406-0.272c0.493-0.154,0.926-0.335,1.282-0.536
				c0.088-0.053,0.267-0.148,0.511-0.27c0.057-0.029,0.125-0.071,0.196-0.123c0.026-0.039,0.06-0.084,0.097-0.139
				c0.111-0.175,0.258-0.419,0.43-0.707c0.117-0.197,0.275-0.363,0.467-0.49l2.354-1.551c0.047-0.052,0.098-0.109,0.153-0.178
				c0.03-0.037,0.131-0.175,0.276-0.438c0.216-0.4,0.517-0.76,0.885-1.056c0.236-0.18,0.479-0.336,0.729-0.473
				c0.143-0.158,0.313-0.341,0.517-0.543c0.284-0.29,0.659-0.64,1.12-1.037c0.084-0.072,0.176-0.136,0.271-0.188
				c0.167-0.09,0.372-0.221,0.625-0.395c0.271-0.184,0.547-0.41,0.838-0.69c1.772-1.671,3.283-2.89,4.629-3.733
				c1.512-0.95,2.812-1.411,3.974-1.411c0.845,0,1.53,0.224,2.04,0.664c0.564,0.498,0.867,1.201,0.867,1.991
				c0,0.593-0.117,1.147-0.35,1.646c-0.252,0.539-0.639,0.989-1.15,1.346c-0.383,0.277-0.814,0.6-1.281,0.951
				c-0.309,0.387-0.664,0.786-1.059,1.19c-0.022,0.022-0.045,0.046-0.068,0.069c1.023-0.099,1.943,0.278,2.494,1.1
				c0.354,0.525,0.55,1.191,0.611,2.09c0.004,0.059,0.006,0.115,0.002,0.174c-0.039,0.896-0.055,1.756-0.055,2.574
				c-0.009,0.305,0.053,0.506,0.193,0.701c0,0,0.007,0.008,0.017,0.018c0.047-0.059,0.095-0.115,0.14-0.172l0.123-0.15
				c0.157-0.194,0.291-0.354,0.437-0.518c0.112-0.125,0.243-0.229,0.391-0.311c0.039-0.066,0.081-0.141,0.122-0.213
				c0.049-0.082,0.096-0.164,0.139-0.238c0.043-0.086,0.094-0.167,0.151-0.245c0.281-0.37,0.563-0.751,0.843-1.156
				c0.08-0.116,0.176-0.221,0.285-0.31c1.262-1.034,2.301-2.036,3.088-2.979c0.625-0.75,1.106-1.445,1.438-2.076l-0.175-0.824
				c-0.071-0.342-0.021-0.699,0.143-1.008c0.37-0.702,1.094-1.393,2.273-2.174c1.205-0.796,2.229-1.183,3.129-1.183
				c0.986,0,1.848,0.307,2.555,0.912c0.439,0.374,0.84,0.741,1.217,1.116c0.204,0.13,0.354,0.239,0.454,0.321
				c0.911,0.683,1.636,1.676,2.104,2.913c0.428,1.145,0.644,2.516,0.644,4.08c0,0.813-0.235,1.836-0.722,3.111
				c0.496-0.441,0.701-0.572,0.861-0.656c0.067-0.035,0.213-0.113,0.5-0.346c0.369-0.299,0.856-0.404,1.316-0.285
				c0.459,0.119,0.836,0.447,1.016,0.887c0.137,0.336,0.297,0.703,0.486,1.098c0.217,0.457,0.426,0.942,0.624,1.451
				c0.228,0.58,0.069,1.241-0.394,1.658c-0.139,0.125-0.289,0.266-0.457,0.424l-0.092,0.084c-0.205,0.199-0.478,0.446-0.797,0.723
				c-0.027,0.025-0.056,0.048-0.085,0.068c-0.603,0.451-1.378,0.982-2.516,1.723c-1.111,0.725-2.333,1.488-3.634,2.271
				c-0.45,0.291-1,0.543-1.598,0.728c-0.143,0.045-0.291,0.065-0.441,0.065c-1.049,0-1.863-0.179-2.492-0.547
				c-0.855-0.519-1.316-1.371-1.316-2.412c0-0.351,0.063-0.731,0.187-1.139c0.11-0.353,0.253-0.709,0.426-1.072
				c0.108-0.243,0.241-0.515,0.388-0.789c0.088-0.17,0.172-0.364,0.244-0.563c0.371-1.06,0.663-2.08,0.861-3.019
				c0.189-0.87,0.283-1.659,0.283-2.356c0-0.816-0.123-1.219-0.205-1.396c-0.147,0.109-0.303,0.23-0.461,0.366
				c-0.41,0.353-0.838,0.798-1.264,1.317c-0.559,0.688-1.076,1.274-1.533,1.731c-0.377,0.384-0.722,0.681-1.041,0.897
				c-0.217,0.297-0.492,0.603-0.834,0.925c-0.344,0.327-0.778,0.676-1.321,1.057c-0.122,0.246-0.32,0.527-0.576,0.812
				c-0.03,0.033-0.063,0.063-0.095,0.096c-0.133,0.121-0.434,0.514-0.633,0.771c-0.277,0.362-0.541,0.705-0.793,0.961
				c-0.463,0.457-0.94,0.883-1.437,1.281c-0.707,0.538-1.339,0.913-1.968,1.172c-0.7,0.282-1.408,0.426-2.109,0.426
				c-1.613,0-2.906-0.5-3.84-1.486c-0.594-0.622-1.021-1.436-1.28-2.428c-0.282,0.221-0.596,0.47-0.942,0.75
				c-0.629,0.643-1.162,1.178-1.598,1.595c-0.431,0.409-0.73,0.704-0.91,0.884c-0.031,0.031-0.063,0.061-0.095,0.088
				c-0.435,0.365-0.92,0.721-1.442,1.053c-0.512,0.326-1.08,0.66-1.719,1.015c-0.447,0.233-0.809,0.403-1.104,0.534
				c-0.479,0.212-0.862,0.31-1.215,0.31c-1.293,0-2.313-0.368-3.026-1.095c-0.58-0.596-0.925-1.395-1.028-2.385
				c-0.662,0.316-1.311,0.507-1.936,0.564c-0.346,0.17-0.721,0.299-1.117,0.383c-0.458,0.103-1.018,0.156-1.643,0.156
				c-0.885,0-1.654-0.133-2.352-0.408c-0.719-0.273-1.354-0.699-1.865-1.257c-0.252-0.247-0.517-0.629-0.781-1.149
				c-0.172-0.336-0.346-0.713-0.516-1.119c-0.164,0.123-0.359,0.265-0.597,0.427c-1.062,0.722-7.61,4.153-9.119,4.153
				c-0.062,0-0.121-0.004-0.18-0.01c-0.015,0.01-0.029,0.019-0.044,0.026c-0.76,0.44-1.54,0.661-2.332,0.661
				c-0.783,0-2.21-0.34-2.975-2.613c-0.133-0.395-0.244-0.84-0.333-1.34c-0.039,0.074-0.079,0.15-0.122,0.225l-0.86,1.644
				c-0.156,0.351-0.328,0.694-0.512,1.036c-0.16,0.293-0.301,0.58-0.433,0.875c-0.059,0.132-0.136,0.255-0.229,0.363
				c-0.367,0.43-0.814,0.762-1.327,0.982C102.346,52.055,101.804,52.158,101.22,52.158z M98.108,37.767
				c0.217,0,0.434,0.047,0.636,0.141c0.448,0.211,0.764,0.627,0.845,1.115l1.294,7.855c0.23,1.404,0.371,2.02,0.441,2.277
				c0.139-0.009,0.256-0.033,0.352-0.072c0.036-0.017,0.073-0.037,0.109-0.064c0.13-0.277,0.267-0.551,0.416-0.826
				c0.152-0.281,0.297-0.57,0.427-0.865c0.014-0.031,0.028-0.062,0.044-0.092l0.909-1.732c0.133-0.235,0.178-0.371,0.195-0.435
				c0.039-0.146,0.067-0.271,0.077-0.381c0.02-0.22,0.088-0.435,0.2-0.624c0.153-0.262,0.301-0.516,0.442-0.764
				c-0.302,0.201-0.585,0.244-0.909,0.244c-0.342,0-0.674-0.117-0.94-0.33l-0.274-0.221c-0.091-0.074-0.174-0.158-0.245-0.25
				c-0.285-0.367-0.378-0.793-0.468-1.553c-0.058-0.482-0.122-1.148-0.199-2.016l-0.138-1.979c-0.041-0.56-0.06-0.979-0.06-1.26
				c0-0.658,0.048-1.549,0.144-2.646c0.043-0.512,0.073-0.923,0.093-1.255c-0.089,0.071-0.18,0.154-0.272,0.248
				c-0.549,0.554-1.133,1.481-1.737,2.755c-0.224,0.471-0.508,0.979-0.869,1.555c-0.246,0.396-0.516,0.796-0.804,1.201
				C97.913,37.777,98.011,37.767,98.108,37.767z M136.393,44.076c0.009,0.066,0.014,0.135,0.014,0.201
				c0,0.209-0.019,0.471-0.068,0.805c-0.047,0.318-0.195,0.613-0.424,0.842c-0.293,0.291-0.516,0.591-0.658,0.89
				c-0.109,0.235-0.168,0.494-0.168,0.769c0,0.545,0.105,0.846,0.203,0.946c0.041,0.04,0.217,0.177,0.768,0.193
				c0.035-0.015,0.074-0.03,0.118-0.05c0.245-0.108,0.55-0.254,0.899-0.437c0.547-0.303,1.063-0.606,1.526-0.901
				c0.392-0.25,0.752-0.51,1.073-0.776c0.193-0.192,0.496-0.488,0.912-0.888c0.191-0.183,0.402-0.389,0.632-0.617
				c-0.535,0.359-1.039,0.607-1.544,0.767c-0.592,0.187-1.238-0.014-1.623-0.502l-0.195-0.247c-0.414-0.523-0.432-1.259-0.044-1.802
				l1.29-1.81c0.473-0.646,0.684-0.908,0.881-1.098c1.049-0.922,1.846-1.67,2.416-2.266c0.68-0.711,0.878-1.074,0.922-1.168
				c0.106-0.227,0.268-0.424,0.469-0.571c0.373-0.274,0.668-0.513,0.877-0.71c0.183-0.168,0.313-0.293,0.408-0.383
				c0.123-0.172,0.266-0.365,0.426-0.573c0.084-0.106,0.183-0.203,0.291-0.284c0.516-0.382,0.955-0.758,1.307-1.119
				c0.369-0.377,0.691-0.746,0.958-1.092c0.082-0.106,0.178-0.201,0.284-0.281c0.543-0.411,1.045-0.784,1.51-1.121
				c0.133-0.093,0.156-0.145,0.168-0.167c0.004-0.008,0.008-0.017,0.011-0.025c-0.377,0.037-1.084,0.225-2.229,0.944
				c-1.16,0.728-2.559,1.861-4.153,3.367c-0.407,0.391-0.819,0.729-1.217,0.994c-0.278,0.192-0.524,0.35-0.735,0.471
				c-0.338,0.295-0.617,0.556-0.843,0.785c-0.251,0.248-0.435,0.451-0.567,0.607c-0.136,0.156-0.302,0.285-0.488,0.375
				c-0.178,0.085-0.336,0.182-0.473,0.283c-0.025,0.021-0.064,0.066-0.098,0.129c-0.2,0.361-0.395,0.66-0.584,0.896
				c-0.178,0.211-0.313,0.357-0.42,0.473c-0.078,0.08-0.164,0.152-0.258,0.214l-2.217,1.46c-0.123,0.203-0.232,0.383-0.332,0.535
				c-0.189,0.281-0.32,0.449-0.422,0.564c-0.021,0.023-0.046,0.049-0.068,0.07c0.189,0.003,0.381,0.041,0.563,0.117
				C135.983,43.095,136.325,43.55,136.393,44.076z M165.217,47.82c0.113,0.027,0.295,0.057,0.563,0.068
				c0.254-0.092,0.479-0.203,0.686-0.336c0.929-0.559,1.799-1.098,2.611-1.613c-0.617-0.005-1.027-0.264-1.263-0.48
				c-0.349-0.285-0.583-0.787-0.583-1.324c0-0.911,0.309-2.078,0.971-3.67c0.641-1.543,0.736-2.274,0.736-2.573
				c0-1.205-0.152-2.224-0.452-3.024c-0.265-0.699-0.642-1.229-1.149-1.611c-0.108-0.086-0.203-0.145-0.325-0.221
				c-0.103-0.063-0.197-0.138-0.282-0.224c-0.352-0.356-0.729-0.706-1.154-1.067c-0.113-0.097-0.271-0.194-0.607-0.194
				c-0.045,0-0.467,0.019-1.475,0.686c-0.492,0.326-0.801,0.575-0.99,0.751l0.135,0.636c0.064,0.307,0.031,0.623-0.094,0.91
				c-0.172,0.391-0.383,0.795-0.635,1.209c0.022-0.021,0.047-0.041,0.069-0.062c0.552-0.468,1.081-0.839,1.579-1.111
				c0.273-0.149,0.589-0.21,0.902-0.173c1.072,0.132,1.927,0.686,2.47,1.602c0.444,0.752,0.661,1.731,0.661,2.998
				c0,0.91-0.118,1.916-0.352,2.985c-0.224,1.058-0.55,2.201-0.969,3.396c-0.121,0.334-0.257,0.644-0.411,0.943
				c-0.126,0.238-0.229,0.451-0.325,0.664c-0.127,0.27-0.217,0.492-0.281,0.699C165.235,47.738,165.224,47.783,165.217,47.82z
				 M107.688,39.558c0.517,0,0.997,0.266,1.271,0.703l0.138,0.22c0.149,0.239,0.229,0.515,0.229,0.796
				c0,0.311-0.061,0.658-0.197,1.129c-0.075,0.258-0.077,0.372-0.077,0.385c0,2.438,0.249,3.689,0.459,4.312
				c0.105,0.313,0.201,0.481,0.259,0.563c0.219-0.021,0.443-0.102,0.684-0.242c0.211-0.125,0.483-0.354,0.797-0.676
				c0.334-0.342,0.787-0.492,1.245-0.442c-0.188-0.454-0.144-0.981,0.142-1.407c0.06-0.089,0.121-0.182,0.184-0.275
				c-0.649,0.321-1.484,0.275-1.985-0.254c-0.391-0.412-0.662-0.855-0.809-1.318c-0.01-0.033-0.02-0.065-0.027-0.098
				c-0.075-0.313-0.12-0.586-0.136-0.838c-0.01-0.201-0.014-0.436,0.02-0.679c0.129-1.853,0.232-3.22,0.314-4.099
				c0.032-0.348,0.056-0.596,0.074-0.772c-0.099-0.246-0.167-0.464-0.222-0.705c-0.048-0.211-0.05-0.43-0.005-0.644
				c0.137-0.645,0.263-1.275,0.383-1.885c0.01-0.322,0.054-0.604,0.131-0.856c0.062-0.202,0.143-0.383,0.242-0.545
				c-0.54,0.706-1.363,2.038-2.486,4.538c-0.621,1.383-1.14,2.498-1.58,3.396C106.987,39.69,107.305,39.558,107.688,39.558z
				 M24.9,42.496c-0.039,0.283-0.131,0.643-0.296,1.164c-0.127,0.389-0.278,0.875-0.463,1.469l-0.115,0.367
				c-0.161,0.541-0.298,1.026-0.403,1.447c0.476-0.449,1.35-1.388,2.882-3.331c0.73-0.931,1.391-1.71,1.994-2.353
				c-0.247,0.012-0.493-0.037-0.722-0.147c-1.063-0.513-1.179-1.366-1.179-1.708c0-0.17,0.012-0.365,0.044-0.578
				c0.031-0.229,0.104-0.486,0.224-0.793c0.369-0.869,0.621-1.754,0.767-2.672c0.152-0.949,0.229-1.959,0.229-3
				c0-0.432-0.048-0.683-0.088-0.817c-0.153,0.041-0.478,0.174-1.058,0.591c-0.73,0.53-1.626,1.375-2.654,2.501
				c-0.468,0.516-0.9,0.986-1.298,1.414c0.754-0.26,1.607-0.094,2.181,0.477c0.281,0.28,0.61,0.77,0.61,1.533
				c0,0.07-0.005,0.143-0.016,0.213l-0.399,2.775C25.017,41.91,24.945,42.292,24.9,42.496z M147.939,43.737
				c0.085,0.997,0.325,1.712,0.716,2.121c0.133,0.14,0.521,0.552,1.665,0.552c0.317,0,0.638-0.066,0.978-0.203
				c0.371-0.152,0.793-0.408,1.25-0.756c0.121-0.098,0.244-0.201,0.369-0.307c-1.148,0.176-2.234-0.34-2.922-1.295
				c-0.531-0.729-0.791-1.574-0.763-2.506c-0.001-0.791,0.013-1.664,0.054-2.574c-0.011-0.12-0.023-0.217-0.037-0.294
				c-0.265,0.067-0.572,0.216-0.908,0.438c-0.611,0.404-1.315,1.078-2.039,1.949c-0.102,0.122-0.221,0.229-0.355,0.313l-0.097,0.062
				c-0.035,0.021-0.069,0.044-0.104,0.063c0.141-0.031,0.282-0.043,0.43-0.034c0.425,0.024,0.816,0.229,1.082,0.562
				c0.274,0.346,0.466,0.713,0.564,1.094C147.897,43.238,147.934,43.492,147.939,43.737z M122.222,41.89
				c0.657,0,1.26,0.314,1.694,0.886c0.215,0.276,0.42,0.656,0.654,1.216c0.189,0.471,0.363,0.854,0.528,1.176
				c0.167,0.328,0.258,0.422,0.269,0.433c0.248,0.269,0.49,0.428,0.793,0.543c0.351,0.14,0.771,0.205,1.266,0.205
				c0.402,0,0.742-0.029,1.006-0.089c0.221-0.047,0.395-0.112,0.537-0.202c0.238-0.147,0.514-0.229,0.795-0.229
				c0.429,0,0.956-0.188,1.566-0.565c0.549-0.332,1.168-0.812,1.848-1.425c-0.448,0.22-0.934,0.41-1.454,0.572
				c-0.683,0.215-1.429,0.354-2.28,0.422c-0.15,0.012-0.294,0.002-0.438-0.029c-0.512-0.108-0.939-0.225-1.309-0.35
				c-0.453-0.154-0.783-0.312-1.051-0.5c-0.479-0.295-0.852-0.717-1.111-1.252c-0.238-0.518-0.354-1.072-0.354-1.676
				c0-0.439,0.098-0.876,0.282-1.264c0.17-0.352,0.375-0.648,0.615-0.893c0.146-0.142,0.287-0.281,0.426-0.42
				c-0.533-0.007-0.971-0.175-1.299-0.496c-0.242-0.242-0.519-0.652-0.519-1.302c0-0.813,0.385-1.778,1.249-3.134
				c0.729-1.129,1.641-2.275,2.893-2.275c0.645,0,1.209,0.308,1.553,0.845c0.221,0.346,0.332,0.75,0.332,1.202
				c0,0.023,0,0.047-0.002,0.07c0.164-0.314,0.287-0.605,0.363-0.873l0.243-0.868c0.11-0.378,0.197-0.664,0.261-0.87l0.012-0.039
				c-0.039-0.244-0.073-0.476-0.105-0.693c-0.086-0.321-0.173-0.591-0.261-0.804c-0.08-0.195-0.126-0.258-0.128-0.26
				c-0.072-0.03-0.266-0.077-0.672-0.077c-0.219,0-0.428,0.019-0.621,0.057c-0.123,0.023-0.235,0.048-0.34,0.076
				c-0.209,0.151-0.418,0.293-0.631,0.422c-0.125,0.079-0.256,0.169-0.383,0.265c-0.389,0.474-0.775,0.944-1.164,1.409
				c-0.404,0.481-0.787,0.922-1.156,1.332c-0.43,0.712-0.735,1.272-0.959,1.756c-0.276,0.593-0.492,1.077-0.655,1.466
				c-0.097,0.27-0.206,0.584-0.308,0.877l-0.061,0.17c-0.074,0.223-0.141,0.434-0.184,0.621c-0.024,0.369-0.063,0.733-0.115,1.094
				c-0.063,0.377-0.116,0.73-0.169,1.09c-0.056,0.378-0.253,0.721-0.552,0.957c-0.463,0.367-0.84,0.717-1.123,1.039
				c-0.071,0.082-0.149,0.182-0.244,0.303c-0.043,0.053-0.088,0.109-0.137,0.172C121.822,41.919,122.021,41.89,122.222,41.89z
				 M68.877,46.019c0.045,0.02,0.123,0.047,0.242,0.078c0.158,0.045,0.42,0.088,0.928,0.088c0.154,0,0.3-0.021,0.443-0.066
				c0.228-0.066,0.459-0.162,0.738-0.299l0.121-0.063c0.209-0.105,0.429-0.217,0.66-0.34c0.307-0.166,0.601-0.316,0.877-0.451
				c0.053-0.021,0.105-0.043,0.157-0.065c-0.568,0.093-1.181,0.179-1.828,0.257c-0.934,0.12-1.875-0.348-2.837-1.266
				c-0.923-0.885-1.37-1.73-1.37-2.588c0-0.414,0.115-0.727,0.503-1.225c-0.099,0.021-0.198,0.03-0.3,0.03
				c-0.428,0-1.055-0.155-1.61-0.892c-0.207-0.266-0.42-0.647-0.671-1.221c-0.171-0.356-0.318-0.709-0.425-1.008
				c-0.158-0.453-0.214-0.878-0.169-1.273v-0.079c0-0.229,0.052-0.451,0.148-0.652c-0.582-0.325-0.895-0.928-1.103-1.422
				c-0.204-0.489-0.385-1.123-0.556-1.943c-0.024-0.141-0.049-0.262-0.073-0.367c-0.351,0.305-0.561,0.569-0.684,0.838
				c-0.141,0.308-0.209,0.649-0.209,1.042c0,0.011,0.011,0.303,0.388,1.125c0.455,0.994,0.658,1.697,0.658,2.283
				c0,0.26-0.054,0.504-0.145,0.729c0.273,0.109,0.516,0.3,0.688,0.557c0.45,0.672,0.834,1.307,1.141,1.887
				c0.316,0.604,0.572,1.184,0.763,1.725c0.057,0.16,0.085,0.328,0.085,0.498c0,0.285-0.054,0.578-0.214,0.924
				c0.104,0.021,0.206,0.053,0.305,0.096l0.19,0.084c0.169,0.073,0.324,0.178,0.455,0.31L68.877,46.019z M12.47,37.435
				c0.531,0,1.024,0.206,1.39,0.579c0.354,0.358,0.552,0.845,0.552,1.362c0,0.975-0.337,2.418-1.061,4.543
				c-0.349,1.026-0.563,1.746-0.693,2.246c0.062-0.056,0.129-0.117,0.203-0.187c0.602-0.569,1.45-1.489,2.518-2.731
				c0.715-0.795,1.396-1.56,2.063-2.314l1-1.141c-0.064,0.008-0.129,0.014-0.193,0.014c-0.758,0-1.204-0.379-1.402-0.605
				c-0.316-0.4-0.455-0.82-0.455-1.279c0-0.117,0.014-0.235,0.042-0.352c0.116-0.48,0.26-0.982,0.427-1.49
				c0.128-0.545,0.229-1.092,0.303-1.623c0.072-0.522,0.109-1.016,0.109-1.459c0-0.09-0.004-0.167-0.01-0.229
				c-0.448,0.187-0.874,0.358-1.277,0.517c-0.563,0.58-1.064,1.102-1.499,1.557c-0.511,0.543-0.954,0.988-1.319,1.334
				c-0.469,0.431-0.949,0.896-1.442,1.393C11.972,37.479,12.22,37.435,12.47,37.435z M84.986,45.855
				c0.009,0,0.486,0.252,2.302,0.252c-0.021-0.002,0.149-0.043,0.556-0.244c0.434-0.217,1.013-0.586,1.715-1.094
				c0.021-0.016,0.041-0.029,0.062-0.045c-0.882,0.247-1.795,0.229-2.494-0.068c-0.487-0.226-0.852-0.557-1.098-0.979
				c-0.185-0.277-0.343-0.691-0.597-1.725c-0.214-0.861-0.351-1.312-0.429-1.533c-0.033-0.1-0.058-0.199-0.07-0.303
				c-0.07-0.556-0.156-1.105-0.262-1.646c-0.107-0.574-0.226-1.131-0.349-1.682c-0.094-0.41-0.248-0.521-0.299-0.558
				c-0.184-0.134-0.423-0.198-0.739-0.198c0.013,0.004-0.022,0.033-0.077,0.119c-0.592,0.848-1.517,1.805-2.869,2.99
				c-0.47,0.412-0.881,0.789-1.231,1.131c1.189-0.721,2.243-0.643,3.073,0.422c0.209,0.264,0.43,0.618,0.686,1.104
				c0.153,0.228,0.292,0.43,0.417,0.6c0.218,0.303,0.36,0.532,0.468,0.754c0.026,0.055,0.05,0.111,0.069,0.168
				C84.534,45.398,84.942,45.815,84.986,45.855L84.986,45.855z M43.659,41.343c0.66,0,1.262,0.316,1.693,0.892
				c0.22,0.284,0.433,0.675,0.657,1.216c0.187,0.463,0.356,0.846,0.522,1.166c0.16,0.316,0.259,0.422,0.276,0.439
				c0.245,0.268,0.483,0.426,0.785,0.541c0.35,0.137,0.772,0.205,1.267,0.205c0.404,0,0.743-0.03,1.007-0.09
				c0.221-0.047,0.396-0.113,0.537-0.201c0.238-0.148,0.514-0.229,0.795-0.229c0.424,0,0.964-0.195,1.563-0.564
				c0.56-0.34,1.18-0.819,1.856-1.43c-0.446,0.219-0.936,0.414-1.459,0.576c-0.685,0.215-1.432,0.354-2.282,0.42
				c-0.144,0.014-0.29,0.002-0.431-0.027c-0.514-0.109-0.943-0.225-1.313-0.35c-0.472-0.164-0.794-0.318-1.056-0.506
				c-0.487-0.302-0.862-0.729-1.114-1.271c-0.229-0.487-0.345-1.045-0.345-1.651c0-0.462,0.099-0.896,0.294-1.287
				c0.155-0.327,0.365-0.631,0.61-0.877c0.143-0.14,0.282-0.274,0.419-0.412c-0.555-0.008-1.004-0.187-1.333-0.528
				c-0.223-0.232-0.487-0.642-0.487-1.271c0-0.815,0.389-1.785,1.259-3.138c0.718-1.122,1.622-2.269,2.884-2.269
				c0.649,0,1.218,0.311,1.56,0.853c0.216,0.34,0.326,0.743,0.326,1.193c0,0.021,0,0.045-0.001,0.066
				c0.163-0.313,0.284-0.603,0.361-0.868l0.244-0.871c0.117-0.401,0.208-0.702,0.273-0.913c-0.035-0.217-0.067-0.423-0.098-0.618
				l-0.011-0.063c-0.082-0.311-0.172-0.59-0.267-0.829c-0.071-0.177-0.121-0.242-0.121-0.243c-0.073-0.03-0.269-0.077-0.673-0.077
				c-0.217,0-0.427,0.019-0.624,0.057c-0.12,0.023-0.233,0.048-0.339,0.077c-0.205,0.148-0.409,0.288-0.614,0.414
				c-0.14,0.086-0.271,0.178-0.396,0.271c-0.388,0.476-0.778,0.946-1.168,1.412c-0.399,0.478-0.784,0.919-1.152,1.329
				c-0.407,0.671-0.724,1.251-0.966,1.769c-0.274,0.581-0.487,1.063-0.646,1.448c-0.118,0.333-0.249,0.704-0.365,1.045
				c-0.084,0.238-0.146,0.447-0.189,0.629c-0.024,0.375-0.063,0.742-0.118,1.104l-0.166,1.086c-0.058,0.375-0.255,0.717-0.553,0.951
				c-0.449,0.355-0.829,0.707-1.129,1.043c-0.091,0.104-0.176,0.205-0.254,0.306c0.021,0.037,0.04,0.073,0.059,0.112l0.002,0.004
				C43.378,41.359,43.519,41.343,43.659,41.343z M32.44,38.812c1.244,0,2.516,0.9,4.252,3.01c1.027,1.256,1.98,1.916,2.76,1.916
				c0.035,0,0.234-0.011,0.653-0.229c0.193-0.1,0.401-0.221,0.625-0.367c-0.039-0.092-0.078-0.184-0.118-0.275
				c-1.196-0.175-2.041-1.268-2.335-1.646c-0.634-0.824-1.311-1.986-2.071-3.56c0,0.002,0,0.002,0,0.002
				c-0.001,0-0.09-0.154-0.341-0.432c-0.199-0.217-0.465-0.475-0.785-0.762c-0.23,0.029-0.47,0.094-0.712,0.189
				c-0.389,0.153-0.793,0.393-1.198,0.709c-0.498,0.371-0.938,0.717-1.342,1.049l-1.106,0.916c-0.008,0.012-0.016,0.022-0.023,0.033
				C31.325,38.988,31.895,38.812,32.44,38.812z M144.592,42.119c-0.03,0.026-0.062,0.055-0.094,0.084
				c-0.11,0.1-0.226,0.203-0.346,0.313c0.077-0.062,0.15-0.117,0.221-0.171C144.452,42.261,144.524,42.185,144.592,42.119z
				 M67.43,36.236c0.017,0.041,0.033,0.081,0.05,0.121c0.132-0.158,0.278-0.344,0.441-0.561
				C67.764,35.939,67.601,36.085,67.43,36.236z M72.053,29.932c0.286,0.108,0.498,0.262,0.646,0.4
				c0.42,0.435,0.611,0.926,0.611,1.477c0,0.676-0.225,1.642-1.802,4.075c0.306-0.307,0.631-0.633,0.975-0.977
				c0.462-0.531,0.912-1.068,1.286-1.539c0.414-0.519,0.655-0.875,0.785-1.083c0.059-0.093,0.126-0.179,0.203-0.257l0,0
				c0,0,0.067-0.084,0.129-0.348c0.085-0.357,0.127-0.82,0.127-1.383c0-0.134-0.027-0.301-0.079-0.481
				c-0.064-0.224-0.173-0.501-0.331-0.843c-0.075-0.183-0.137-0.307-0.183-0.389c-0.155,0.029-0.322,0.034-0.484,0.011l0,0
				c-0.008,0-0.017-0.001-0.024-0.002c-0.136,0.077-0.368,0.22-0.731,0.475C72.854,29.294,72.478,29.583,72.053,29.932z"/>
		</g>
	</g>
	<g>
		
			<linearGradient id="SVGID_1_" gradientUnits="userSpaceOnUse" x1="160.5767" y1="-160.687" x2="160.5864" y2="-160.687" gradientTransform="matrix(1 0 0 -1 -106 -130.333)">
			<stop  offset="0" style="stop-color:#001200"/>
			<stop  offset="0.2309" style="stop-color:#011402"/>
			<stop  offset="0.3217" style="stop-color:#051B07"/>
			<stop  offset="0.3878" style="stop-color:#0B2711"/>
			<stop  offset="0.442" style="stop-color:#14381F"/>
			<stop  offset="0.4889" style="stop-color:#1F4F31"/>
			<stop  offset="0.5307" style="stop-color:#2D6B48"/>
			<stop  offset="0.5683" style="stop-color:#3E8C62"/>
			<stop  offset="0.6024" style="stop-color:#51B181"/>
			<stop  offset="0.6059" style="stop-color:#53B584"/>
			<stop  offset="0.6515" style="stop-color:#3FA677"/>
			<stop  offset="0.7547" style="stop-color:#16885E"/>
			<stop  offset="0.8079" style="stop-color:#067D54"/>
			<stop  offset="0.9176" style="stop-color:#026652"/>
			<stop  offset="0.9951" style="stop-color:#005B51"/>
		</linearGradient>
		<path fill="url(#SVGID_1_)" d="M54.576,30.327c0.004,0.019,0.006,0.035,0.01,0.054C54.586,30.348,54.582,30.333,54.576,30.327z"/>
		<path fill="#203027" d="M83.145,26.83c0.277,0,0.555,0.016,0.84,0.042c0.285,0.026,0.582,0.058,0.895,0.095
			c0.11,0.021,0.307-0.032,0.593-0.152c0.285-0.115,0.638-0.325,1.059-0.614c0.403-0.241,0.749-0.51,1.032-0.814
			c0.285-0.305,0.508-0.651,0.674-1.055c0.074-0.189,0.178-0.489,0.316-0.909c0.138-0.426,0.298-0.967,0.482-1.623
			c0.072-0.352,0.164-0.782,0.275-1.298c0-0.346-0.107-0.614-0.316-0.798c-0.213-0.184-0.546-0.272-1.006-0.272
			c-0.385,0-0.727,0.042-1.018,0.12c-0.295,0.084-0.531,0.189-0.715,0.32c-0.424,0.494-0.791,0.935-1.101,1.318
			c-0.515,0.059-1.105,0.499-1.776,1.334c-0.669,0.835-1.004,1.528-1.004,2.08c0,0.625,0.068,1.118,0.205,1.486
			C82.719,26.458,82.907,26.704,83.145,26.83z"/>
		
			<linearGradient id="SVGID_2_" gradientUnits="userSpaceOnUse" x1="112.7407" y1="-169.0679" x2="280.6401" y2="-169.0679" gradientTransform="matrix(1 0 0 -1 -106 -130.333)">
			<stop  offset="0" style="stop-color:#141E18"/>
			<stop  offset="0.257" style="stop-color:#152019"/>
			<stop  offset="0.3495" style="stop-color:#18271E"/>
			<stop  offset="0.4155" style="stop-color:#1D3227"/>
			<stop  offset="0.4689" style="stop-color:#244333"/>
			<stop  offset="0.5146" style="stop-color:#2D5942"/>
			<stop  offset="0.555" style="stop-color:#387556"/>
			<stop  offset="0.5907" style="stop-color:#45946C"/>
			<stop  offset="0.6207" style="stop-color:#53B584"/>
			<stop  offset="0.663" style="stop-color:#3FA677"/>
			<stop  offset="0.7586" style="stop-color:#16885E"/>
			<stop  offset="0.8079" style="stop-color:#067D54"/>
			<stop  offset="0.9176" style="stop-color:#026652"/>
			<stop  offset="0.9951" style="stop-color:#005B51"/>
		</linearGradient>
		<path fill="url(#SVGID_2_)" d="M174.047,42.349c-0.205-0.426-0.379-0.82-0.525-1.182c-0.293,0.235-0.541,0.403-0.74,0.504
			c-0.199,0.104-0.789,0.631-1.765,1.582c-0.384,0.371-0.741,0.656-1.071,0.871c-0.33,0.209-0.613,0.313-0.852,0.313
			c-0.109,0-0.199-0.024-0.262-0.084c-0.063-0.052-0.101-0.125-0.101-0.222c0-0.692,0.287-1.729,0.854-3.094
			c0.566-1.365,0.853-2.414,0.853-3.15c0-1.393-0.185-2.578-0.547-3.551c-0.367-0.971-0.92-1.732-1.654-2.285
			c-0.089-0.073-0.235-0.173-0.44-0.299c-0.399-0.404-0.818-0.788-1.25-1.155c-0.432-0.368-0.957-0.552-1.58-0.552
			c-0.59,0-1.355,0.31-2.301,0.935c-0.946,0.625-1.535,1.166-1.775,1.623l0.277,1.322c-0.383,0.878-1.008,1.828-1.857,2.848
			c-0.852,1.02-1.949,2.08-3.289,3.178c-0.293,0.428-0.588,0.825-0.883,1.215c0.002,0.002,0.002,0.004,0.003,0.006
			c-0.175,0.279-0.46,0.83-0.57,0.902c-0.138,0.094-0.241,0.157-0.315,0.194c-0.131,0.146-0.252,0.293-0.373,0.438
			c-0.114,0.146-0.246,0.301-0.372,0.469c-0.162,0.146-0.325,0.267-0.479,0.357c-0.156,0.094-0.32,0.135-0.482,0.135
			c-0.551,0-0.998-0.229-1.334-0.696c-0.342-0.47-0.5-0.998-0.481-1.586c0-0.843,0.015-1.724,0.058-2.644
			c-0.043-0.604-0.156-1.056-0.361-1.359c-0.201-0.301-0.494-0.452-0.877-0.452c-0.625,0-1.303,0.241-2.039,0.729
			c-0.729,0.482-1.523,1.229-2.363,2.242c-0.168,0.105-0.314,0.199-0.441,0.273c-0.131,0.074-0.258,0.148-0.389,0.221
			c-0.162,0.109-0.445,0.342-0.834,0.699c-0.4,0.357-0.902,0.824-1.529,1.391c-0.535,0.516-1.019,0.926-1.459,1.24
			c-0.44,0.309-0.861,0.529-1.266,0.656l-0.195-0.248c0.537-0.75,0.967-1.354,1.293-1.811c0.336-0.461,0.563-0.757,0.693-0.884
			c1.023-0.897,1.848-1.67,2.463-2.312c0.613-0.641,1.008-1.166,1.197-1.57c0.42-0.311,0.756-0.582,1.014-0.824
			c0.258-0.236,0.432-0.404,0.525-0.492c0.126-0.185,0.283-0.4,0.467-0.637c0.566-0.42,1.066-0.846,1.486-1.275
			c0.42-0.431,0.777-0.842,1.072-1.225c0.535-0.404,1.027-0.771,1.485-1.104c0.294-0.204,0.509-0.451,0.646-0.745
			c0.138-0.294,0.211-0.63,0.211-1.014c0-0.368-0.121-0.656-0.348-0.856c-0.23-0.199-0.582-0.299-1.062-0.299
			c-0.86,0-1.923,0.394-3.177,1.182c-1.256,0.787-2.715,1.969-4.387,3.545c-0.367,0.354-0.709,0.63-1.022,0.842
			c-0.312,0.215-0.563,0.371-0.769,0.481c-0.425,0.368-0.771,0.688-1.045,0.967c-0.273,0.272-0.482,0.504-0.636,0.683
			c-0.272,0.131-0.515,0.278-0.729,0.441c-0.209,0.168-0.379,0.367-0.51,0.609c-0.162,0.293-0.31,0.515-0.436,0.672
			c-0.131,0.156-0.242,0.277-0.332,0.371l-2.504,1.65c-0.184,0.311-0.342,0.572-0.479,0.783c-0.122,0.18-0.212,0.301-0.282,0.381
			c-0.193,0.154-0.392,0.285-0.59,0.387c-0.199,0.099-0.347,0.178-0.437,0.23c-0.457,0.258-0.982,0.477-1.57,0.66
			c-0.588,0.186-1.239,0.301-1.954,0.357c-0.439-0.095-0.818-0.193-1.14-0.304c-0.325-0.11-0.558-0.217-0.703-0.332
			c-0.258-0.146-0.451-0.36-0.595-0.655c-0.137-0.295-0.204-0.636-0.204-1.021c0-0.22,0.047-0.431,0.137-0.619
			c0.095-0.194,0.205-0.356,0.33-0.483c1.522-1.485,2.737-2.805,3.636-3.959c0.897-1.156,1.477-2.176,1.732-3.058l0.247-0.883
			c0.127-0.436,0.227-0.756,0.288-0.961c0.046-0.146,0.074-0.205,0.087-0.189c-0.07-0.42-0.132-0.808-0.181-1.155
			c-0.11-0.425-0.227-0.782-0.348-1.076c-0.12-0.294-0.24-0.51-0.373-0.662c-0.178-0.215-0.415-0.373-0.697-0.467
			c-0.285-0.09-0.656-0.137-1.115-0.137c-0.33,0-0.635,0.031-0.906,0.084c-0.279,0.053-0.525,0.115-0.746,0.194
			c-0.236,0.179-0.473,0.347-0.715,0.493c-0.235,0.147-0.456,0.305-0.661,0.468c-0.42,0.515-0.841,1.024-1.263,1.528
			c-0.424,0.504-0.823,0.966-1.211,1.392c-0.459,0.751-0.836,1.425-1.114,2.033c-0.283,0.604-0.509,1.106-0.677,1.513
			c-0.147,0.403-0.278,0.782-0.399,1.129c-0.114,0.346-0.205,0.65-0.257,0.908c-0.021,0.368-0.059,0.729-0.11,1.088
			c-0.059,0.355-0.114,0.719-0.169,1.086c-0.529,0.422-0.972,0.832-1.316,1.225c-0.349,0.395-0.869,1.203-2.131,2.359
			c-1.511,1.385-3.646,2.33-4.866,2.858c0.268-0.397,0.573-0.86,0.924-1.403c0.936-1.486,1.63-2.826,2.092-4.021
			c0.604-0.935,1.148-1.923,1.633-2.974c0.488-1.043,0.926-2.179,1.309-3.408c0.347-1.086,0.613-2.126,0.799-3.139
			c0.184-1.009,0.271-1.98,0.271-2.916c0-0.272-0.072-0.488-0.22-0.646c-0.147-0.152-0.374-0.236-0.688-0.236
			c-0.311,0-0.588,0.115-0.823,0.347c-0.236,0.23-0.421,0.572-0.548,1.029c-0.094,0.331-0.172,0.678-0.246,1.034
			c-0.073,0.357-0.151,0.709-0.221,1.062l0.221,0.824c-0.184,0.421-0.385,0.846-0.594,1.276c-0.209,0.432-0.389,0.861-0.535,1.281
			c-0.235,0.516-0.426,0.998-0.563,1.461c-0.137,0.455-0.242,0.877-0.314,1.266c-1.119,2.253-2.049,3.943-2.789,5.074
			c-0.744,1.129-1.299,1.691-1.664,1.691c-0.238-0.252-0.394-0.506-0.468-0.74c-0.054-0.223-0.086-0.41-0.097-0.58
			c-0.008-0.168-0.006-0.303,0.015-0.414c0.13-1.87,0.233-3.246,0.315-4.129c0.082-0.877,0.123-1.256,0.123-1.123
			c-0.053-0.133-0.109-0.258-0.166-0.385c-0.053-0.131-0.098-0.277-0.135-0.44c0.147-0.698,0.283-1.381,0.412-2.037
			c0-0.241,0.023-0.431,0.068-0.578c0.045-0.146,0.104-0.247,0.18-0.305c0.201-0.126,0.357-0.283,0.467-0.468
			c0.107-0.184,0.166-0.394,0.166-0.63c0-0.604-0.107-1.065-0.316-1.376c-0.213-0.315-0.557-0.468-1.032-0.468
			c-1.157,0-2.659,2.064-4.511,6.188c-1.855,4.128-2.973,6.192-3.359,6.192l-0.274-0.222c-0.054-0.067-0.108-0.342-0.164-0.81
			c-0.056-0.473-0.119-1.123-0.194-1.971c-0.054-0.787-0.1-1.438-0.136-1.953c-0.037-0.515-0.056-0.897-0.056-1.154
			c0-0.588,0.043-1.424,0.138-2.516c0.093-1.094,0.138-1.896,0.138-2.406c0-0.278-0.068-0.479-0.205-0.609
			c-0.141-0.126-0.337-0.194-0.594-0.194c-0.716,0-1.411,0.341-2.08,1.019c-0.671,0.678-1.346,1.732-2.025,3.167
			c-0.2,0.421-0.463,0.888-0.785,1.401c-0.322,0.515-0.693,1.058-1.116,1.623c-0.494,0.715-0.941,1.293-1.335,1.717
			c-0.395,0.432-0.738,0.73-1.034,0.9c-0.458,0.27-0.831,0.514-1.116,0.713c-0.283,0.2-0.464,0.342-0.537,0.416
			c0.001,0.002,0.002,0.004,0.003,0.006c-0.28,0.227-0.564,0.457-0.854,0.692c-0.302,0.246-0.591,0.494-0.867,0.729
			c-0.367,0.293-0.725,0.498-1.071,0.619c-0.351,0.121-0.689,0.181-1.021,0.181c-0.274,0-0.504-0.043-0.688-0.121
			c-0.181-0.084-0.318-0.216-0.413-0.399c-0.09-0.109-0.227-0.535-0.41-1.281c-0.184-0.74-0.34-1.297-0.467-1.666
			c-0.074-0.588-0.166-1.172-0.277-1.744c-0.109-0.581-0.23-1.154-0.357-1.721c-0.147-0.642-0.441-1.125-0.882-1.444
			c-0.438-0.321-0.98-0.483-1.62-0.483c-0.24,0-0.48,0.068-0.717,0.194c-0.238,0.126-0.451,0.341-0.632,0.63
			c-0.479,0.684-1.342,1.564-2.587,2.656c-1.248,1.095-2.119,1.977-2.615,2.658l-0.082,0.274l-0.166,0.192
			c0.004,0.003,0.006,0.011,0.011,0.013c-0.544,0.416-1.071,0.806-1.579,1.17c-0.515,0.367-1.01,0.699-1.484,0.988
			c-0.717,0.131-1.515,0.25-2.396,0.356c-0.475,0-1.016-0.285-1.621-0.863c-0.607-0.582-0.906-1.075-0.906-1.502
			c0-0.108,0.42-0.606,1.262-1.502c0.845-0.887,2.102-2.164,3.772-3.834c0.548-0.625,1.015-1.182,1.401-1.67
			c0.387-0.482,0.679-0.894,0.882-1.219c0.237-0.241,0.412-0.594,0.521-1.061c0.111-0.468,0.166-1.04,0.166-1.723
			c0-0.273-0.045-0.572-0.137-0.894c-0.092-0.319-0.232-0.672-0.412-1.061c-0.186-0.457-0.391-0.793-0.619-1.003
			s-0.465-0.3-0.705-0.263c-0.217,0-0.379,0.005-0.479,0.016s-0.104,0.016-0.015,0.016c-0.182-0.021-0.356-0.031-0.521-0.031
			c-0.259,0.079-0.694,0.331-1.308,0.762c-0.615,0.431-1.391,1.056-2.326,1.88c-0.824,0.735-1.521,1.365-2.09,1.886
			c-0.568,0.525-1.01,0.972-1.322,1.334c-0.237,0.131-0.467,0.263-0.687,0.399c-0.22,0.135-0.441,0.252-0.661,0.346
			c-0.147-0.073-0.301-0.311-0.467-0.703c-0.164-0.394-0.32-0.951-0.469-1.665c-0.108-0.641-0.274-1.129-0.494-1.46
			c-0.221-0.331-0.496-0.493-0.826-0.493c-0.127,0-0.289,0.063-0.48,0.178c-0.195,0.121-0.418,0.3-0.675,0.541
			c-0.513,0.421-0.884,0.883-1.114,1.387c-0.229,0.504-0.345,1.061-0.345,1.665c0,0.404,0.175,0.987,0.523,1.75
			c0.349,0.76,0.522,1.313,0.522,1.658c0,0.227-0.244,0.557-0.73,0.993c-0.483,0.44-1.214,0.972-2.184,1.597
			c-0.518,0.348-1.039,0.684-1.572,1.004c-0.531,0.32-1.072,0.656-1.623,1.008c0.003,0.005,0.004,0.009,0.007,0.015
			c-0.194,0.153-0.389,0.283-0.583,0.386c-0.203,0.1-0.349,0.18-0.441,0.229c-0.459,0.258-0.98,0.479-1.568,0.661
			c-0.588,0.187-1.238,0.302-1.953,0.357c-0.439-0.094-0.821-0.193-1.144-0.303c-0.321-0.111-0.556-0.217-0.702-0.332
			c-0.256-0.146-0.453-0.363-0.59-0.656c-0.138-0.295-0.205-0.635-0.205-1.02c0-0.221,0.043-0.43,0.137-0.619
			c0.093-0.195,0.201-0.357,0.328-0.484c1.525-1.484,2.735-2.805,3.634-3.959c0.899-1.156,1.478-2.175,1.733-3.058l0.248-0.882
			c0.127-0.437,0.225-0.756,0.289-0.962c0.046-0.146,0.075-0.206,0.088-0.189c-0.07-0.419-0.131-0.808-0.186-1.154
			c-0.109-0.426-0.227-0.783-0.343-1.076c-0.119-0.295-0.244-0.511-0.374-0.662c-0.182-0.216-0.416-0.373-0.701-0.468
			c-0.283-0.089-0.654-0.137-1.113-0.137c-0.328,0-0.633,0.031-0.907,0.084c-0.274,0.053-0.523,0.116-0.743,0.194
			c-0.24,0.179-0.478,0.347-0.716,0.494c-0.237,0.146-0.458,0.305-0.661,0.467c-0.42,0.516-0.842,1.024-1.264,1.528
			c-0.422,0.505-0.826,0.967-1.21,1.393c-0.46,0.751-0.831,1.423-1.116,2.032c-0.285,0.604-0.508,1.106-0.675,1.513
			c-0.146,0.404-0.278,0.782-0.397,1.129c-0.121,0.348-0.207,0.651-0.261,0.908c-0.021,0.368-0.056,0.73-0.11,1.087
			c-0.057,0.356-0.111,0.722-0.167,1.089c-0.531,0.42-0.97,0.829-1.319,1.223c-0.348,0.396-0.634,0.783-0.854,1.172
			c0.003,0.005,0.004,0.009,0.007,0.015c-0.084,0.063-0.169,0.121-0.255,0.164c-0.092,0.043-0.182,0.069-0.274,0.069
			c-0.421,0-0.911-0.362-1.472-1.088c-0.558-0.726-1.195-1.822-1.907-3.293c-0.113-0.217-0.304-0.479-0.579-0.783
			c-0.274-0.299-0.625-0.635-1.044-1.004c-0.093-0.072-0.185-0.137-0.274-0.188c-0.093-0.059-0.186-0.084-0.275-0.084
			c-0.513,0-1.036,0.104-1.567,0.314c-0.531,0.211-1.055,0.521-1.567,0.918c-0.494,0.369-0.954,0.73-1.375,1.078
			c-0.42,0.347-0.843,0.697-1.262,1.045c-0.258,0.367-0.484,0.666-0.674,0.908c-0.193,0.235-0.363,0.42-0.51,0.547
			c-0.219-0.105-0.33-0.227-0.33-0.357c0-0.104,0.008-0.227,0.027-0.355c0.018-0.127,0.064-0.283,0.137-0.469
			c0.404-0.949,0.688-1.947,0.852-2.982c0.166-1.034,0.248-2.116,0.248-3.235c0-0.771-0.123-1.35-0.369-1.743
			c-0.248-0.394-0.639-0.594-1.17-0.594c-0.494,0-1.154,0.299-1.981,0.893c-0.825,0.6-1.786,1.502-2.888,2.71
			c-1.283,1.412-2.32,2.516-3.111,3.303c-0.787,0.787-1.318,1.246-1.596,1.377c-0.127,0-0.219-0.03-0.275-0.096
			c-0.053-0.066-0.082-0.162-0.082-0.289c0.111-0.461,0.249-0.938,0.413-1.434c0.147-0.619,0.263-1.232,0.345-1.826
			c0.082-0.595,0.123-1.15,0.123-1.666c0-0.604-0.119-1.066-0.357-1.392c-0.238-0.32-0.605-0.483-1.1-0.483
			c-0.791,0.331-1.516,0.631-2.176,0.882c-0.661,0.678-1.242,1.282-1.738,1.801c-0.494,0.525-0.917,0.951-1.266,1.281
			c-0.682,0.627-1.401,1.334-2.164,2.133c-0.762,0.799-1.547,1.701-2.355,2.711c-0.184,0.259-0.35,0.494-0.494,0.703
			c-0.148,0.211-0.277,0.379-0.389,0.511c0.296,0.604,0.533,1.106,0.717,1.514c0.182,0.404,0.312,0.74,0.385,1.015
			c0.111-0.127,0.212-0.258,0.305-0.396c0.092-0.14,0.164-0.285,0.219-0.433c0.533-0.51,0.984-0.961,1.352-1.344
			c0.369-0.389,0.682-0.727,0.94-1.02c0.388-0.535,0.731-0.926,1.036-1.172c0.303-0.246,0.566-0.373,0.785-0.373
			c0.129,0,0.234,0.043,0.316,0.127c0.082,0.083,0.125,0.189,0.125,0.314c0,0.795-0.328,2.145-0.98,4.061
			c-0.65,1.916-0.979,3.178-0.979,3.781c0,0.258,0.143,0.451,0.428,0.578c0.283,0.131,0.702,0.194,1.254,0.194
			c0.184,0,0.602-0.308,1.254-0.92c0.65-0.614,1.526-1.563,2.628-2.849c0.695-0.771,1.379-1.539,2.05-2.299
			c0.668-0.762,1.325-1.508,1.967-2.242c0.587-0.441,1.014-0.777,1.278-1.021c0.267-0.235,0.509-0.479,0.729-0.714
			c0.205-0.184,0.382-0.32,0.538-0.398c0.155-0.084,0.299-0.127,0.426-0.127c0.148,0,0.275,0.059,0.387,0.168
			c0.109,0.109,0.166,0.264,0.166,0.469c-0.166,1.154-0.301,2.078-0.4,2.777c-0.101,0.699-0.179,1.166-0.234,1.402
			c-0.018,0.184-0.1,0.504-0.246,0.967c-0.149,0.455-0.34,1.072-0.58,1.842c-0.181,0.605-0.328,1.131-0.439,1.582
			c-0.111,0.445-0.164,0.81-0.164,1.088c0,0.236,0.035,0.445,0.109,0.619c0.073,0.172,0.184,0.289,0.33,0.342
			c0.457,0.058,0.824,0.084,1.102,0.084c0.549,0,1.932-1.407,4.15-4.223c2.217-2.82,3.803-4.229,4.758-4.229
			c0.713,0,1.745,0.824,3.094,2.463c1.346,1.645,2.652,2.463,3.918,2.463c0.383,0,0.833-0.131,1.346-0.398
			c0.516-0.262,1.1-0.651,1.762-1.17c-0.195-0.521-0.428-1.076-0.679-1.645c0.108,0.229,0.208,0.443,0.294,0.631
			c0.182,0.404,0.312,0.74,0.385,1.014c0.219-0.272,0.422-0.479,0.604-0.621c0.183-0.137,0.35-0.205,0.496-0.205
			c0.184,0,0.35,0.101,0.495,0.293c0.147,0.191,0.304,0.488,0.47,0.89c0.201,0.5,0.392,0.926,0.576,1.28
			c0.184,0.363,0.367,0.632,0.551,0.814c0.348,0.383,0.783,0.678,1.307,0.877c0.522,0.205,1.124,0.305,1.803,0.305
			c0.514,0,0.958-0.041,1.334-0.125c0.373-0.08,0.711-0.211,1.005-0.395c0.714,0,1.499-0.262,2.351-0.787
			c0.854-0.521,1.804-1.299,2.85-2.326c-0.108-0.311-0.256-0.68-0.44-1.098c-0.085-0.197-0.179-0.408-0.276-0.631
			c0.125,0.264,0.236,0.504,0.332,0.715c0.182,0.404,0.312,0.74,0.385,1.014c0.365-0.311,0.7-0.574,1.004-0.783
			c0.303-0.211,0.564-0.369,0.785-0.483c0.622-0.582,1.151-1.082,1.58-1.496c0.434-0.416,0.785-0.782,1.061-1.114
			c0.238-0.221,0.441-0.418,0.605-0.594c0.164-0.172,0.301-0.314,0.414-0.425l0.357-0.11c0.42,0.625,0.773,1.209,1.059,1.749
			c0.283,0.541,0.509,1.052,0.675,1.522c0,0.48-0.868,1.492-2.602,3.041c-1.733,1.556-2.599,2.531-2.599,2.933
			c0,0.183,0.049,0.32,0.151,0.396c0.099,0.086,0.242,0.129,0.425,0.129h0.248c0.552-0.295,1.027-0.547,1.432-0.758
			c0.402-0.209,0.751-0.383,1.045-0.51c0.219-0.236,0.426-0.461,0.619-0.672c0.191-0.215,0.371-0.42,0.537-0.619
			c0.328-0.348,0.633-0.641,0.907-0.867c0.274-0.229,0.505-0.43,0.688-0.594l0.14-0.084l0.19,0.084l2.835,2.805
			c0.184,0.131,0.443,0.242,0.784,0.33c0.339,0.096,0.775,0.137,1.307,0.137c0.294,0,0.591-0.041,0.895-0.137
			c0.304-0.088,0.618-0.221,0.948-0.383c0.258-0.131,0.533-0.268,0.826-0.424c0.293-0.158,0.568-0.301,0.827-0.426
			c0.769-0.316,1.387-0.605,1.854-0.867c0.47-0.268,0.796-0.494,0.979-0.678c0.291-0.236,0.539-0.457,0.742-0.662
			c0.201-0.199,0.367-0.346,0.497-0.439c-0.003-0.008-0.007-0.016-0.009-0.021c0.707-0.776,1.304-1.358,1.795-1.75
			c0.497-0.396,0.891-0.595,1.187-0.595c0.108,0,0.246,0.105,0.41,0.316c0.166,0.209,0.358,0.529,0.577,0.951
			c0.184,0.271,0.35,0.514,0.496,0.713c0.147,0.205,0.258,0.377,0.33,0.525c0.605,1.76,1.154,2.832,1.651,3.219
			c0.495,0.385,1.577,0.578,3.245,0.578c0.277,0,0.68-0.137,1.211-0.4c0.533-0.266,1.174-0.676,1.929-1.223
			c0.677-0.494,1.262-0.93,1.745-1.309c0.486-0.377,0.877-0.713,1.17-1.006l-0.006-0.017c0.241-0.299,0.631-0.627,1.178-0.989
			c0.57-0.378,0.974-0.703,1.214-0.979c0.31-0.366,0.591-0.688,0.839-0.961c0.248-0.276,0.453-0.504,0.621-0.688
			c0.128-0.146,0.268-0.283,0.413-0.414c0.147-0.128,0.312-0.248,0.497-0.357c0.568,3.449,1,6.07,1.294,7.855
			c0.294,1.787,0.515,2.752,0.663,2.904l0.467,0.494c0.148,0.074,0.271,0.115,0.371,0.125c0.104,0.006,0.208,0.012,0.316,0.012
			c0.386,0,0.73-0.063,1.034-0.189c0.302-0.131,0.564-0.326,0.784-0.582c0.147-0.33,0.305-0.651,0.481-0.977
			c0.173-0.32,0.335-0.646,0.48-0.977l0.909-1.734c0.145-0.252,0.252-0.504,0.315-0.74c0.065-0.242,0.106-0.451,0.123-0.637
			c0.44-0.75,0.835-1.443,1.187-2.09c0.291-0.604,0.535-1.033,0.728-1.291s0.335-0.383,0.427-0.383l0.138,0.219
			c0,0.164-0.048,0.4-0.138,0.711c-0.092,0.314-0.137,0.582-0.137,0.803c0,2.127,0.178,3.723,0.537,4.789
			c0.356,1.061,0.873,1.592,1.553,1.592c0.531,0,1.053-0.152,1.565-0.451c0.378-0.225,0.749-0.549,1.116-0.926
			c-0.152,0.312-0.264,0.57-0.222,0.664c0.179,0.404,6.854-2.828,8.37-3.859c0.943-0.643,1.072-0.862,1.258-1.004
			c0.184-0.139,0.352-0.205,0.492-0.205c0.184,0,0.352,0.099,0.499,0.293c0.147,0.189,0.3,0.488,0.468,0.89
			c0.199,0.498,0.395,0.924,0.577,1.28c0.185,0.361,0.362,0.632,0.548,0.814c0.352,0.383,0.787,0.678,1.313,0.879
			c0.52,0.205,1.117,0.303,1.801,0.303c0.509,0,0.956-0.041,1.334-0.125c0.373-0.078,0.709-0.211,1.003-0.396
			c0.716,0,1.497-0.262,2.353-0.786c0.84-0.511,1.768-1.271,2.789-2.271c0,0.002,0.002,0.006,0.002,0.008
			c0,0.152-0.017,0.34-0.053,0.582c-0.422,0.42-0.736,0.855-0.951,1.303c-0.209,0.451-0.314,0.924-0.314,1.418
			c0,0.898,0.21,1.564,0.631,1.996c0.426,0.432,1.076,0.646,1.958,0.646c0.127,0,0.332-0.06,0.604-0.18
			c0.271-0.121,0.604-0.277,0.986-0.478c0.609-0.339,1.15-0.656,1.639-0.968c0.49-0.311,0.914-0.625,1.281-0.936
			c0.186-0.184,0.494-0.488,0.937-0.908c0.44-0.422,0.981-0.967,1.622-1.623c0.479-0.385,0.894-0.715,1.255-0.994
			c0.354-0.271,0.651-0.498,0.889-0.686c0.152-0.164,0.283-0.295,0.39-0.4c0.108-0.1,0.209-0.194,0.305-0.289
			c0.146,0.185,0.24,0.363,0.287,0.541c0.043,0.174,0.07,0.342,0.07,0.504c0.108,1.382,0.481,2.406,1.129,3.084
			c0.641,0.679,1.555,1.019,2.75,1.019c0.512,0,1.024-0.104,1.541-0.313c0.514-0.211,1.043-0.531,1.596-0.951
			c0.457-0.367,0.893-0.756,1.309-1.166c0.408-0.414,1.057-1.396,1.479-1.783c0.162-0.18,0.283-0.348,0.355-0.496
			c0.073-0.141,0.127-0.256,0.17-0.33c0.602-0.404,1.09-0.777,1.453-1.123c0.367-0.348,0.635-0.662,0.799-0.939
			c0.272-0.143,0.625-0.426,1.045-0.853c0.42-0.421,0.897-0.961,1.435-1.622c0.493-0.605,0.981-1.107,1.454-1.514
			c0.479-0.404,0.92-0.714,1.322-0.936c0.605,0.074,1.058,0.362,1.361,0.877c0.305,0.516,0.452,1.262,0.452,2.232
			c0,0.787-0.101,1.676-0.315,2.669c-0.209,0.986-0.515,2.063-0.92,3.22c-0.094,0.258-0.203,0.51-0.33,0.756
			c-0.131,0.246-0.248,0.488-0.356,0.729c-0.147,0.312-0.263,0.601-0.347,0.865c-0.08,0.264-0.121,0.5-0.121,0.7
			c0,0.515,0.193,0.888,0.576,1.117c0.385,0.228,0.963,0.342,1.734,0.342c0.479-0.146,0.896-0.342,1.266-0.577
			c1.396-0.841,2.59-1.593,3.588-2.242c1.002-0.651,1.816-1.203,2.437-1.666c0.295-0.256,0.547-0.481,0.757-0.688
			c0.215-0.199,0.399-0.373,0.567-0.522C174.44,43.22,174.247,42.769,174.047,42.349z M47.691,36.335
			c-0.045-0.047-0.069-0.121-0.069-0.23c0-0.499,0.341-1.271,1.021-2.327c0.676-1.056,1.218-1.58,1.622-1.58
			c0.128,0,0.224,0.047,0.29,0.152c0.063,0.099,0.096,0.23,0.096,0.394c0,0.263-0.055,0.515-0.166,0.771
			c-0.109,0.258-0.275,0.516-0.496,0.771c-0.184,0.2-0.372,0.409-0.563,0.621c-0.193,0.209-0.391,0.408-0.594,0.592
			c-0.107,0.18-0.229,0.379-0.356,0.59c-0.127,0.209-0.293,0.313-0.494,0.313C47.834,36.404,47.737,36.382,47.691,36.335z
			 M67.213,38.61c-0.127,0-0.266-0.101-0.412-0.294c-0.148-0.189-0.311-0.499-0.495-0.92c-0.166-0.348-0.294-0.65-0.386-0.908
			c-0.09-0.257-0.119-0.479-0.082-0.66v-0.189c0.68-0.588,1.26-1.113,1.748-1.57c0.486-0.457,0.893-0.846,1.223-1.154
			c0.222-0.126,0.418-0.237,0.594-0.332c0.174-0.09,0.326-0.163,0.455-0.221c0.254-0.236,0.465-0.446,0.631-0.63
			c0.146-0.168,0.279-0.278,0.398-0.347c0.119-0.063,0.234-0.095,0.345-0.095c0.201,0,0.347,0.048,0.441,0.137
			c0.091,0.095,0.138,0.221,0.138,0.383c0,0.609-0.598,1.813-1.789,3.608C68.827,37.212,67.892,38.279,67.213,38.61z M76.681,41.363
			c0.054,0.09,0.099,0.189,0.136,0.299c0.088,0.264,0.174,0.5,0.258,0.723c-0.178-0.37-0.354-0.766-0.531-1.178
			C76.592,41.253,76.641,41.296,76.681,41.363z M126.256,36.88c-0.047-0.047-0.067-0.121-0.067-0.229
			c0-0.499,0.341-1.271,1.015-2.327c0.683-1.056,1.223-1.581,1.627-1.581c0.127,0,0.221,0.047,0.289,0.152
			c0.063,0.101,0.096,0.229,0.096,0.394c0,0.264-0.055,0.517-0.164,0.772c-0.11,0.257-0.277,0.515-0.497,0.771
			c-0.181,0.201-0.369,0.41-0.563,0.621c-0.195,0.209-0.389,0.409-0.594,0.594c-0.109,0.179-0.23,0.377-0.357,0.588
			c-0.125,0.209-0.295,0.314-0.494,0.314C126.398,36.951,126.304,36.927,126.256,36.88z"/>
	</g>
	<g>
		<g>
			<g>
				<path fill="#FFFFFF" d="M186.402,57.845c-0.353,0-0.702-0.004-1.055-0.006H185.2c-0.541-0.002-0.99-0.28-1.232-0.764
					c-0.164-0.33-0.301-0.595-0.43-0.83c-0.3-0.545-0.149-0.986-0.033-1.203c0.033-0.063,0.084-0.14,0.152-0.217
					c-0.611-0.195-1.091-0.634-1.367-1.263c-0.459-1.042-0.854-2.086-1.182-2.974l-0.023-0.063c-0.362-0.982-0.738-2-1.027-3.05
					c-0.742-2.687-1.248-4.819-1.622-6.837c-0.502,0.734-0.81,1.378-0.978,2.029c-0.379,1.463-0.113,2.647,0.832,3.729
					c0.322,0.367,0.694,0.69,1.154,1.063c0.446,0.363,0.545,1.006,0.229,1.486c-0.313,0.479-0.943,0.643-1.453,0.377
					c-0.512-0.269-1.02-0.605-1.547-1.035c-1.204-0.979-2.027-2.054-2.514-3.287c-0.619-1.564-0.602-3.242,0.053-4.986
					c0.539-1.439,1.402-2.775,2.713-4.207c1.486-1.624,3.293-3.113,5.681-4.69c2.541-1.678,5.377-3.201,8.922-4.789
					c0.53-0.238,1.069-0.464,1.591-0.682c0.342-0.144,0.682-0.287,1.021-0.434c0.198-0.085,0.401-0.13,0.603-0.13
					c0.352,0,0.68,0.13,0.969,0.386c0.519,0.455,1.152,0.705,1.793,0.705c0.606,0,1.188-0.218,1.679-0.631
					c0.879-0.742,1.161-1.642,0.864-2.751c-0.287-1.073-0.965-1.697-2.075-1.91c-0.173-0.033-0.349-0.05-0.521-0.05
					c-1.269,0-2.322,0.903-2.563,2.195c-0.073,0.399-0.312,0.929-1.028,1.174c-2.074,0.708-4.161,1.59-6.195,2.62
					c-1.76,0.889-3.44,1.864-5.002,2.898c-1.117,0.741-2.238,1.555-3.334,2.422c-0.058,0.045-0.111,0.083-0.177,0.127l-0.052,0.036
					c-0.326,0.226-0.748,0.262-1.107,0.095c-0.361-0.167-0.607-0.514-0.645-0.91c-0.039-0.408-0.049-0.791-0.059-1.16
					c-0.004-0.161-0.008-0.32-0.015-0.48c-0.022-0.524-0.026-1.041-0.021-1.558c-0.506,0.27-1.022,0.568-1.561,0.902
					c-1.416,0.885-2.621,1.786-3.682,2.75c-0.338,0.306-0.678,0.37-0.906,0.37c-0.298,0-0.581-0.104-0.846-0.309
					c-1.312-1.027-2.324-2.263-3.063-3.225c-1.197-1.563-2.249-3.308-3.211-5.333c-0.271-0.572-0.15-1.19,0.32-1.612
					c0.417-0.374,0.826-0.75,1.236-1.126l0.103-0.095c0.101-0.09,0.401-0.367,0.871-0.367c0.097,0,0.2,0.013,0.304,0.041
					c0.098-0.523,0.385-0.986,0.844-1.354c1.855-1.484,3.84-2.981,5.896-4.451c2.172-1.551,4.127-2.872,5.979-4.04
					c0.338-0.212,0.797-0.456,1.357-0.456c0.131,0,0.254,0.013,0.373,0.036c0.001-0.013,0.001-0.025,0.002-0.037
					c0.02-0.243,0.133-0.698,0.686-1.002c0.826-0.459,1.525-0.813,2.196-1.112c0.188-0.084,0.382-0.127,0.575-0.127
					c0.213,0,0.537,0.054,0.857,0.317c1.244,1.019,2.69,1.591,4.43,1.752c1.594,0.148,3.104-0.091,4.494-0.709
					c0.974-0.432,1.75-1.008,2.375-1.763c0.355-0.43,0.779-0.52,1.072-0.52c0.101,0,0.198,0.01,0.305,0.03
					c2.586,0.516,5.216,1.338,7.816,2.443c2.444,1.039,4.887,2.343,7.461,3.985c0.645,0.41,1.266,0.836,1.842,1.236
					c0.494,0.342,0.811,0.779,0.938,1.27c0.132-0.042,0.259-0.056,0.367-0.056c0.284,0,0.55,0.094,0.794,0.28
					c0.482,0.368,1.009,0.761,1.604,1.2c0.459,0.338,0.736,0.989,0.323,1.685c-0.715,1.242-1.421,2.474-2.125,3.705
					c-0.786,1.378-1.571,2.755-2.35,4.136c-0.359,0.634-0.921,0.703-1.144,0.703c-0.183,0-0.363-0.038-0.557-0.116
					c-1.723-0.704-3.416-1.39-5.127-2.021c0.301,0.972,0.609,1.929,0.906,2.848c0.121,0.373,0.248,0.744,0.377,1.114
					c0.137,0.397,0.273,0.794,0.402,1.194c0.406,1.263,0.868,2.487,1.436,3.938c0.193,0.496,0.152,1.188-0.542,1.649
					c-2.152,1.429-4.554,2.75-7.343,4.041c-1.601,0.74-3.307,1.459-5.373,2.261c-0.588,0.229-1.141,0.116-1.6-0.304
					c-0.783-0.719-1.631-0.901-2.634-0.58c-0.981,0.316-1.567,0.979-1.79,2.027c-0.146,0.688,0.014,1.43,0.438,2.029
					c0.429,0.605,1.076,1.005,1.779,1.1c0.131,0.017,0.262,0.025,0.391,0.025c1.269,0,2.309-0.846,2.591-2.105
					c0.166-0.75,0.676-1.055,1.073-1.176c2.338-0.724,4.732-1.691,7.117-2.881c3.57-1.781,6.59-3.753,9.229-6.027
					c1.334-1.148,2.418-2.265,3.313-3.409c0.963-1.225,1.592-2.304,1.986-3.393c0.002-0.007,0.003-0.013,0.008-0.021
					c0.07-0.187,0.172-0.306,0.213-0.357c0.293-0.378,0.797-0.534,1.25-0.381c0.451,0.152,0.764,0.568,0.767,1.046
					c0.003,0.391-0.062,0.719-0.113,0.983l-0.022,0.116c-0.31,1.645-0.967,3.289-2.01,5.025c-1.424,2.368-3.307,4.552-5.748,6.658
					c0.797,1.375,1.571,2.47,2.416,3.415c0.438,0.486,0.479,1.134,0.106,1.688c-1.238,1.834-2.841,3.443-4.899,4.924
					c-2.055,1.477-4.441,2.728-7.3,3.824c-2.677,1.027-5.534,1.813-8.739,2.399c-2.408,0.438-4.885,0.721-7.359,0.831
					C187.84,57.833,187.213,57.845,186.402,57.845z M209.808,46.764c0.312,0,0.616,0.13,0.834,0.37
					c0.319,0.357,0.379,0.881,0.144,1.301c-0.207,0.363-0.482,0.529-0.601,0.6c-1.001,0.635-2.063,1.23-3.261,1.824
					c-2.293,1.143-4.758,2.139-7.33,2.967c1.441-0.391,2.813-0.834,4.134-1.342c2.676-1.027,4.899-2.189,6.794-3.554
					c1.637-1.175,2.941-2.433,3.977-3.827c-0.9-1.088-1.733-2.344-2.59-3.896c-0.346-0.621-0.218-1.297,0.336-1.756
					c0.799-0.662,1.533-1.332,2.211-2.01c-2.394,1.863-5.064,3.523-8.119,5.047c-2.373,1.182-4.758,2.159-7.101,2.903
					c-0.627,2.075-2.502,3.493-4.681,3.493c-0.227,0-0.457-0.014-0.686-0.045c-1.32-0.176-2.527-0.914-3.313-2.026
					c-0.783-1.108-1.076-2.487-0.801-3.784c0.394-1.852,1.533-3.131,3.297-3.697c0.535-0.172,1.072-0.26,1.591-0.26
					c1.058,0,2.033,0.348,2.905,1.035c1.847-0.723,3.396-1.377,4.854-2.053c2.44-1.131,4.567-2.281,6.48-3.508
					c-0.422-1.094-0.85-2.244-1.223-3.4c-0.125-0.386-0.258-0.769-0.389-1.151c-0.134-0.385-0.268-0.769-0.391-1.155
					c-0.473-1.455-0.971-3.006-1.426-4.566c-0.392-0.853,0.09-1.386,0.246-1.527c0.225-0.205,0.519-0.317,0.824-0.317
					c0.301,0,0.528,0.106,0.65,0.162l0.012,0.005c2.088,0.716,4.119,1.523,6.173,2.359c0.22-0.384,0.437-0.768,0.655-1.152
					c-0.188,0.151-0.422,0.241-0.672,0.248c-0.438,0.012-0.836-0.228-1.032-0.616c-0.235-0.469-0.138-0.879-0.104-1.014
					c0.455-2.257,1.076-4.233,1.897-6.033c0.005-0.008,0.009-0.017,0.013-0.024c-0.006-0.003-0.012-0.006-0.015-0.01
					c-0.558-0.387-1.158-0.798-1.771-1.188c-2.471-1.576-4.804-2.822-7.133-3.812c-2.307-0.979-4.631-1.723-6.922-2.213
					c-0.783,0.839-1.744,1.513-2.861,2.008c-1.74,0.774-3.637,1.076-5.609,0.894c-1.973-0.183-3.723-0.826-5.208-1.915
					c-0.082,0.041-0.168,0.083-0.254,0.125c0.694,0.49,1.429,0.895,2.188,1.208c1.514,0.625,3.075,0.942,4.646,0.942
					c0.847,0,1.716-0.092,2.584-0.273c0.229-0.049,0.467-0.114,0.718-0.183c0.128-0.035,0.257-0.07,0.389-0.104
					c0.424-0.109,0.873,0.038,1.148,0.376c0.275,0.34,0.329,0.812,0.136,1.203c-0.2,0.406-0.53,0.573-0.641,0.628l0.011-0.006
					c-0.521,0.296-1.102,0.543-1.729,0.731c-1.809,0.545-3.748,0.677-5.789,0.393c-2.555-0.356-4.903-1.307-6.987-2.827
					c-0.06-0.043-0.103-0.073-0.136-0.092c-0.035,0.017-0.084,0.044-0.15,0.086c-1.816,1.146-3.736,2.443-5.872,3.969
					c-2.022,1.445-3.975,2.917-5.8,4.376c-0.02,0.015-0.031,0.027-0.041,0.037c0.002,0.016,0.005,0.043,0.014,0.08
					c0.553,2.332,1.348,4.564,2.367,6.635c0.25,0.442,0.225,0.946-0.072,1.357c-0.188,0.259-0.476,0.424-0.791,0.457
					c0.176,0.179,0.356,0.354,0.549,0.526c1.013-0.863,2.141-1.679,3.422-2.479c1.121-0.7,2.181-1.265,3.232-1.725
					c0.107-0.054,0.323-0.161,0.615-0.161c0.32,0,0.619,0.127,0.844,0.358c0.24,0.25,0.354,0.577,0.338,0.971
					c-0.031,0.832-0.059,1.65-0.043,2.461c0.639-0.469,1.284-0.919,1.93-1.346c1.633-1.082,3.391-2.1,5.226-3.029
					c2.013-1.017,4.071-1.898,6.128-2.619c0.582-2.146,2.448-3.61,4.672-3.61c0.313,0,0.631,0.03,0.941,0.09
					c1.951,0.374,3.309,1.628,3.816,3.529c0.522,1.949-0.039,3.741-1.584,5.043c-0.9,0.758-1.979,1.159-3.123,1.159
					c-1.027,0-2.041-0.339-2.896-0.963c-0.206,0.088-0.416,0.175-0.622,0.261c-0.508,0.213-1.033,0.435-1.539,0.661
					c-3.433,1.538-6.168,3.003-8.605,4.613c-2.092,1.382-3.691,2.679-5.006,4.06c0.248-0.053,0.436-0.029,0.629,0.033
					c0.369,0.125,0.789,0.482,0.813,1.101c0.063,0.354,0.124,0.702,0.187,1.055l0.091,0.519c0.366,2.092,0.88,4.291,1.663,7.125
					c0.266,0.959,0.607,1.889,0.972,2.871l0.022,0.063c0.316,0.854,0.695,1.858,1.129,2.847c0.009,0.016,0.015,0.027,0.021,0.036
					c0.015,0.003,0.038,0.005,0.072,0.005h0.036c1.1-0.052,2.273-0.136,3.697-0.266c1.906-0.176,3.744-0.416,5.471-0.717
					c2.557-0.442,4.894-0.977,7.145-1.627c2.956-0.854,5.607-1.844,8.106-3.028c0.103-0.047,0.206-0.095,0.321-0.144l0.154-0.065
					C209.506,46.794,209.657,46.764,209.808,46.764z M216.935,18.404c-0.802,1.25-1.533,2.597-2.177,4.016
					c-0.057,0.123-0.108,0.247-0.163,0.372c0.245-0.435,0.493-0.868,0.741-1.302c0.57-0.999,1.145-1.998,1.719-2.997
					C217.013,18.462,216.974,18.433,216.935,18.404z"/>
			</g>
		</g>
		<g>
			<circle fill="none" stroke="#FFFFFF" stroke-width="0.5" stroke-miterlimit="10" cx="197.592" cy="23.517" r="1.968"/>
			<circle fill="none" stroke="#FFFFFF" stroke-width="0.5" stroke-miterlimit="10" cx="194.605" cy="44.013" r="1.968"/>
			
				<linearGradient id="SVGID_3_" gradientUnits="userSpaceOnUse" x1="270.9644" y1="-162.6641" x2="326.9858" y2="-162.6641" gradientTransform="matrix(1 0 0 -1 -106 -130.333)">
				<stop  offset="0" style="stop-color:#53B584"/>
				<stop  offset="0.119" style="stop-color:#3FA677"/>
				<stop  offset="0.3883" style="stop-color:#16885E"/>
				<stop  offset="0.5271" style="stop-color:#067D54"/>
				<stop  offset="0.8015" style="stop-color:#026652"/>
				<stop  offset="0.9951" style="stop-color:#005B51"/>
			</linearGradient>
			<path fill="url(#SVGID_3_)" d="M178.739,48.335c-0.484-0.254-0.933-0.566-1.359-0.912c-0.948-0.771-1.726-1.682-2.178-2.83
				c-0.553-1.395-0.459-2.795,0.061-4.18c0.548-1.463,1.445-2.705,2.492-3.846c1.608-1.76,3.483-3.201,5.469-4.512
				c2.777-1.835,5.73-3.342,8.764-4.701c0.86-0.385,1.734-0.736,2.598-1.11c0.153-0.066,0.258-0.046,0.386,0.067
				c1.442,1.27,3.469,1.327,4.935,0.09c1.217-1.026,1.635-2.369,1.225-3.897c-0.399-1.497-1.424-2.428-2.945-2.72
				c-2.086-0.399-4.008,0.952-4.396,3.039c-0.033,0.187-0.123,0.263-0.287,0.319c-2.176,0.743-4.289,1.643-6.342,2.681
				c-1.76,0.891-3.467,1.874-5.111,2.963c-1.174,0.777-2.31,1.605-3.411,2.479c-0.05,0.038-0.103,0.071-0.173,0.12
				c-0.051-0.544-0.047-1.063-0.067-1.583c-0.043-1.037-0.01-2.072,0.03-3.108c0.008-0.256-0.112-0.149-0.215-0.105
				c-1.08,0.469-2.108,1.033-3.105,1.655c-1.361,0.85-2.656,1.79-3.844,2.872c-0.117,0.107-0.188,0.098-0.311,0.005
				c-1.104-0.866-2.014-1.917-2.861-3.024c-1.223-1.593-2.227-3.319-3.088-5.132c-0.063-0.128-0.051-0.204,0.056-0.298
				c0.455-0.406,0.901-0.818,1.351-1.23c0.094-0.084,0.145-0.12,0.2,0.043c0.749,2.15,1.921,4.069,3.25,5.9
				c0.183,0.251,0.372,0.496,0.569,0.754c0.061-0.086,0.011-0.132-0.012-0.175c-1.09-2.206-1.901-4.509-2.467-6.903
				c-0.123-0.518,0.002-0.918,0.418-1.25c1.907-1.526,3.859-2.994,5.848-4.414c1.939-1.386,3.908-2.731,5.925-4.003
				c0.623-0.393,0.958-0.382,1.546,0.048c1.939,1.415,4.1,2.29,6.479,2.622c1.797,0.25,3.568,0.17,5.313-0.356
				c0.522-0.157,1.024-0.362,1.499-0.633c0.061-0.035,0.137-0.057,0.178-0.144c-0.394,0.104-0.773,0.218-1.156,0.299
				c-2.703,0.565-5.334,0.325-7.887-0.729c-1.285-0.532-2.441-1.267-3.488-2.178c-0.049-0.043-0.095-0.09-0.146-0.13
				c-0.117-0.091-0.113-0.149,0.023-0.227c0.691-0.382,1.393-0.747,2.113-1.07c0.105-0.047,0.178-0.039,0.27,0.036
				c1.466,1.201,3.158,1.827,5.033,2c1.75,0.162,3.441-0.085,5.054-0.801c1.079-0.48,2.022-1.156,2.778-2.073
				c0.084-0.101,0.158-0.134,0.295-0.105c2.617,0.522,5.146,1.333,7.601,2.375c2.549,1.084,4.966,2.411,7.298,3.898
				c0.61,0.389,1.209,0.799,1.805,1.211c0.533,0.369,0.651,0.835,0.383,1.42c-0.848,1.855-1.418,3.797-1.816,5.794
				c-0.018,0.08-0.055,0.163,0.005,0.284c0.147-0.342,0.282-0.662,0.425-0.975c0.793-1.746,1.719-3.416,2.811-4.996
				c0.074-0.107,0.125-0.158,0.253-0.063c0.534,0.408,1.075,0.811,1.618,1.21c0.115,0.085,0.057,0.154,0.01,0.238
				c-0.708,1.232-1.416,2.463-2.118,3.697c-0.786,1.379-1.573,2.757-2.354,4.14c-0.078,0.139-0.145,0.165-0.301,0.1
				c-2.269-0.926-4.539-1.843-6.856-2.637c-0.112-0.039-0.261-0.146-0.341-0.072c-0.088,0.079,0.025,0.223,0.061,0.336
				c0.449,1.537,0.936,3.061,1.43,4.584c0.25,0.771,0.53,1.535,0.777,2.307c0.438,1.353,0.941,2.678,1.459,4
				c0.064,0.164,0.005,0.229-0.117,0.311c-2.289,1.52-4.705,2.805-7.193,3.958c-1.744,0.808-3.519,1.538-5.309,2.231
				c-0.183,0.07-0.295,0.047-0.437-0.084c-1.084-0.995-2.354-1.264-3.735-0.819c-1.384,0.444-2.238,1.431-2.542,2.86
				c-0.442,2.091,1.052,4.188,3.166,4.47c2.002,0.267,3.776-0.97,4.222-2.942c0.041-0.188,0.116-0.293,0.311-0.354
				c2.514-0.775,4.938-1.775,7.287-2.948c3.391-1.69,6.582-3.7,9.459-6.181c1.259-1.086,2.438-2.256,3.465-3.565
				c0.891-1.134,1.664-2.338,2.158-3.704c0.007-0.018,0.021-0.032,0.062-0.082c0.005,0.325-0.062,0.602-0.114,0.88
				c-0.315,1.675-1,3.205-1.871,4.657c-1.59,2.646-3.67,4.858-6.035,6.822c-0.137,0.115-0.159,0.191-0.07,0.354
				c0.829,1.502,1.752,2.938,2.898,4.219c0.106,0.119,0.097,0.195,0.015,0.316c-1.244,1.844-2.827,3.35-4.624,4.641
				c-2.175,1.563-4.557,2.732-7.049,3.688c-2.768,1.063-5.625,1.812-8.538,2.343c-2.384,0.438-4.788,0.707-7.21,0.815
				c-1.059,0.047-2.116,0.038-3.174,0.032c-0.12-0.002-0.186-0.039-0.236-0.145c-0.146-0.291-0.295-0.58-0.449-0.867
				c-0.078-0.141-0.027-0.17,0.107-0.181c0.73-0.058,1.459-0.112,2.188-0.183c1.661-0.16,3.309-0.41,4.947-0.707
				c2.313-0.416,4.59-0.979,6.835-1.672c2.69-0.832,5.306-1.854,7.83-3.109c1.078-0.535,2.129-1.115,3.146-1.764
				c0.076-0.049,0.164-0.084,0.234-0.209c-0.172,0.074-0.311,0.129-0.443,0.193c-2.67,1.268-5.438,2.272-8.274,3.094
				c-2.392,0.69-4.813,1.229-7.265,1.654c-1.842,0.319-3.695,0.557-5.56,0.727c-1.249,0.115-2.498,0.211-3.75,0.27
				c-0.565,0.023-0.976-0.191-1.202-0.709c-0.421-0.955-0.795-1.93-1.154-2.91c-0.371-0.998-0.741-1.996-1.024-3.023
				c-0.66-2.387-1.259-4.788-1.688-7.229c-0.095-0.55-0.19-1.099-0.287-1.646c-0.012-0.055,0.016-0.133-0.047-0.154
				c-0.074-0.023-0.113,0.055-0.156,0.098c-0.381,0.381-0.728,0.789-1.051,1.217c-0.674,0.891-1.252,1.838-1.533,2.929
				c-0.457,1.762-0.143,3.356,1.076,4.749C177.838,47.583,178.282,47.962,178.739,48.335z"/>
			<circle fill="#53B584" cx="197.592" cy="23.517" r="1.968"/>
			<circle fill="#005B51" cx="194.605" cy="44.013" r="1.968"/>
		</g>
	</g>
</g>
<g>
	<path fill="#FFFFFF" d="M231.652,38.248c0.087-0.101,0.191-0.222,0.314-0.366c0.122-0.144,0.277-0.317,0.465-0.519
		c0.071-0.203,0.138-0.453,0.202-0.753c0.061-0.3,0.112-0.651,0.156-1.056c0.05-0.412,0.106-0.77,0.167-1.077
		c0.06-0.306,0.118-0.554,0.168-0.741c0.325-1.017,0.576-1.805,0.758-2.364c0.179-0.559,0.284-0.89,0.313-0.991
		c0.238-0.657,0.49-1.243,0.753-1.758c0.262-0.516,0.528-0.966,0.797-1.348c0.063-0.072,0.132-0.15,0.204-0.232
		c0.072-0.083,0.155-0.172,0.248-0.265c0.269-0.123,0.517-0.242,0.748-0.357c0.13-0.058,0.261-0.105,0.395-0.141
		c0.133-0.036,0.266-0.054,0.396-0.054c0.202,0,0.356,0.096,0.465,0.287c0.108,0.191,0.161,0.478,0.161,0.861
		c0,0.238-0.031,0.502-0.097,0.795c-0.064,0.292-0.154,0.611-0.27,0.958c-0.173,0.49-0.307,0.882-0.4,1.174
		c-0.095,0.293-0.151,0.475-0.174,0.547c-0.028,0.151-0.099,0.343-0.205,0.573c-0.109,0.231-0.253,0.513-0.433,0.845
		c-0.226,0.425-0.399,0.754-0.524,0.985c-0.128,0.23-0.201,0.367-0.223,0.41c-0.051,0.051-0.104,0.104-0.156,0.158
		c-0.055,0.053-0.111,0.109-0.168,0.168v0.248c-0.037,0.086-0.072,0.148-0.109,0.184c-0.123,0.238-0.285,0.534-0.493,0.889
		c-0.205,0.353-0.459,0.757-0.762,1.211c-0.173,0.238-0.304,0.447-0.39,0.629c-0.087,0.179-0.129,0.335-0.129,0.465v0.952
		c0.035,0.188,0.074,0.372,0.117,0.557c0.044,0.185,0.086,0.364,0.13,0.537c0.038,0.23,0.105,0.404,0.206,0.524
		c0.102,0.119,0.217,0.178,0.347,0.178c0.289,0,0.528-0.07,0.72-0.212c0.19-0.139,0.334-0.355,0.427-0.644
		c-0.193-0.078-0.344-0.17-0.449-0.274c-0.104-0.105-0.156-0.216-0.156-0.331c0.036-0.072,0.066-0.15,0.092-0.237
		s0.053-0.177,0.082-0.271c0.007-0.05,0.02-0.101,0.037-0.151c0.018-0.05,0.031-0.115,0.037-0.194
		c0.332-0.606,0.635-1.062,0.909-1.368c0.274-0.308,0.52-0.461,0.736-0.461c0.052,0,0.134,0.01,0.25,0.027
		c0.114,0.018,0.202,0.026,0.259,0.026c0.044,0,0.111-0.012,0.207-0.038c0.093-0.024,0.161-0.037,0.205-0.037
		c0.122,0,0.208,0.041,0.259,0.124s0.076,0.196,0.076,0.341c0,0.311-0.09,0.646-0.271,1.008c-0.181,0.36-0.27,0.565-0.27,0.615
		c0,0.044,0.028,0.092,0.087,0.141c0.042-0.015,0.086-0.035,0.135-0.063c0.046-0.029,0.091-0.066,0.135-0.11
		c0.028,0.096,0.073,0.203,0.134,0.326c0.063,0.122,0.13,0.263,0.202,0.422c0.034,0.051,0.061,0.095,0.074,0.136
		c0.015,0.04,0.021,0.078,0.021,0.112c-0.303,0.313-0.569,0.548-0.8,0.716c-0.23,0.164-0.426,0.255-0.585,0.27
		c-0.051,0-0.111-0.001-0.183-0.004c-0.072-0.005-0.159-0.011-0.26-0.018c-0.102,0.123-0.223,0.263-0.363,0.422
		c-0.142,0.158-0.298,0.347-0.471,0.562c-0.072,0.054-0.161,0.118-0.271,0.202c-0.106,0.082-0.23,0.186-0.367,0.308
		c-0.21,0.21-0.417,0.362-0.622,0.461c-0.206,0.098-0.413,0.146-0.622,0.146c-0.094,0-0.187-0.013-0.276-0.039
		c-0.091-0.024-0.192-0.072-0.309-0.145c-0.087-0.044-0.179-0.104-0.277-0.179c-0.095-0.074-0.202-0.164-0.317-0.265
		c-0.144-0.44-0.249-0.849-0.314-1.224c-0.065-0.376-0.098-0.732-0.098-1.071c0-0.058-0.007-0.107-0.015-0.147
		c-0.012-0.037-0.028-0.072-0.049-0.101l-0.098-0.033l-0.076,0.033l-0.108,0.106c-0.059-0.158-0.122-0.32-0.194-0.486
		S231.739,38.421,231.652,38.248z M236.663,29.451c0-0.036-0.003-0.066-0.016-0.092c-0.012-0.025-0.031-0.049-0.06-0.07
		c-0.044-0.008-0.093,0.042-0.15,0.146c-0.059,0.105-0.112,0.254-0.163,0.449c-0.029,0.145-0.094,0.314-0.195,0.509
		c-0.101,0.195-0.231,0.425-0.39,0.692c-0.138,0.231-0.271,0.489-0.401,0.773c-0.129,0.286-0.259,0.594-0.39,0.926
		c-0.164,0.389-0.288,0.732-0.366,1.028c-0.081,0.296-0.12,0.533-0.12,0.715l0.021,0.096c0.058-0.027,0.154-0.168,0.286-0.422
		c0.134-0.252,0.31-0.616,0.525-1.092c0.202-0.419,0.352-0.748,0.45-0.985s0.156-0.397,0.179-0.476
		c0.058-0.195,0.125-0.422,0.205-0.682c0.079-0.26,0.17-0.548,0.271-0.866c0.072-0.123,0.133-0.227,0.183-0.313
		c0.044-0.058,0.077-0.115,0.097-0.173C236.654,29.555,236.663,29.501,236.663,29.451z"/>
	<path fill="#FFFFFF" d="M238.125,38.248c0.164-0.173,0.419-0.38,0.762-0.626c0.344-0.245,0.598-0.446,0.764-0.606
		c0.108-0.13,0.25-0.287,0.423-0.471c0.173-0.185,0.381-0.402,0.619-0.654c0.146-0.131,0.286-0.231,0.422-0.304
		c0.139-0.072,0.276-0.108,0.413-0.108c0.173,0,0.31,0.043,0.407,0.131c0.096,0.086,0.145,0.223,0.145,0.41
		c0,0.281-0.106,0.736-0.323,1.363c-0.217,0.629-0.326,1.105-0.326,1.429c0,0.072,0.018,0.124,0.049,0.153
		c0.033,0.028,0.071,0.043,0.115,0.043l0.052-0.012c0.139-0.087,0.299-0.196,0.482-0.329c0.185-0.134,0.393-0.299,0.623-0.493
		c0.188-0.173,0.421-0.401,0.698-0.682c0.277-0.283,0.604-0.606,0.979-0.975c0.143-0.115,0.309-0.264,0.493-0.443
		c0.183-0.181,0.39-0.396,0.62-0.649c0.095-0.13,0.227-0.231,0.396-0.303c0.17-0.072,0.378-0.108,0.623-0.108
		c0.165,0,0.29,0.031,0.372,0.092c0.084,0.063,0.124,0.153,0.124,0.276c0,0.05-0.004,0.099-0.014,0.146
		c-0.012,0.047-0.021,0.092-0.028,0.135c-0.05,0.217-0.127,0.482-0.227,0.797c-0.102,0.313-0.225,0.683-0.369,1.109
		c-0.123,0.266-0.251,0.585-0.384,0.957c-0.132,0.373-0.276,0.781-0.427,1.228l0.074,0.098c0.151-0.072,0.376-0.243,0.676-0.514
		c0.297-0.271,0.674-0.632,1.127-1.089l0.434,0.996c-0.059,0.058-0.129,0.13-0.212,0.211c-0.082,0.083-0.192,0.173-0.329,0.266
		c-0.771,0.548-1.434,1.092-1.985,1.631c-0.553,0.536-0.989,1.067-1.313,1.595c-0.482,0.795-0.885,1.439-1.207,1.937
		c-0.319,0.498-0.553,0.849-0.697,1.051c-0.497,0.655-0.969,1.143-1.416,1.461c-0.445,0.317-0.884,0.476-1.31,0.476
		c-0.158,0-0.273-0.032-0.346-0.099c-0.072-0.063-0.106-0.164-0.106-0.303c0-0.072,0.017-0.162,0.051-0.27
		c0.038-0.108,0.102-0.224,0.197-0.346c0.136-0.195,0.263-0.397,0.378-0.607l0.322-0.28c0.028-0.095,0.043-0.158,0.043-0.195
		c0.029-0.035,0.07-0.079,0.123-0.13c0.054-0.05,0.118-0.108,0.188-0.173c0.051-0.13,0.188-0.345,0.406-0.646
		c0.219-0.298,0.528-0.683,0.927-1.151c0.295-0.347,0.565-0.654,0.811-0.927c0.245-0.268,0.454-0.498,0.627-0.687
		c0.03-0.058,0.06-0.125,0.092-0.204c0.034-0.08,0.061-0.159,0.082-0.238c0.094-0.188,0.197-0.414,0.307-0.683
		c0.114-0.266,0.249-0.58,0.407-0.941c0.072-0.209,0.133-0.45,0.185-0.719c0.05-0.271,0.098-0.564,0.14-0.883
		c-0.014-0.028-0.023-0.066-0.026-0.112c-0.003-0.047-0.021-0.115-0.049-0.202c-0.13,0.066-0.271,0.163-0.428,0.293
		s-0.323,0.281-0.502,0.455c-0.24,0.31-0.48,0.568-0.727,0.773c-0.245,0.204-0.485,0.363-0.726,0.471
		c-0.158,0.312-0.36,0.538-0.611,0.687c-0.247,0.15-0.534,0.223-0.859,0.223c-0.236,0-0.419-0.056-0.54-0.168
		c-0.124-0.111-0.185-0.283-0.185-0.514c0-0.043,0.005-0.099,0.017-0.161c0.01-0.066,0.026-0.143,0.049-0.229
		c-0.029-0.072-0.065-0.173-0.109-0.304c0.029-0.122,0.055-0.259,0.075-0.41c0-0.217-0.015-0.38-0.049-0.486
		c-0.032-0.11-0.084-0.164-0.156-0.164l-0.042,0.022c-0.08,0.058-0.191,0.145-0.335,0.26c-0.145,0.115-0.317,0.257-0.52,0.421
		c-0.038-0.092-0.081-0.204-0.137-0.335c-0.055-0.129-0.108-0.281-0.167-0.454c-0.014-0.043-0.033-0.082-0.055-0.12
		C238.178,38.3,238.154,38.271,238.125,38.248z"/>
</g>
<g>
	<g>
		<g>
			<path fill="#FFFFFF" d="M277.88,26.908c0.207-0.076,0.383-0.183,0.528-0.325c0.144-0.141,0.26-0.307,0.341-0.499
				c0.084-0.192,0.127-0.402,0.127-0.634c0-0.217-0.042-0.419-0.122-0.608c-0.078-0.187-0.19-0.353-0.337-0.498
				c-0.145-0.145-0.317-0.258-0.52-0.341c-0.205-0.083-0.426-0.125-0.663-0.125h-2.325v3.142h2.292
				C277.448,27.022,277.674,26.985,277.88,26.908z"/>
			<path fill="#FFFFFF" d="M271.193,36.773c-0.146,0-0.262-0.037-0.348-0.111c-0.086-0.078-0.13-0.194-0.13-0.353V21.181
				c0-0.151,0.042-0.273,0.126-0.364c0.082-0.088,0.2-0.135,0.352-0.135h7.195c0.636,0,1.234,0.122,1.798,0.363
				c0.564,0.242,1.057,0.574,1.48,0.997c0.421,0.423,0.756,0.918,1.001,1.485c0.245,0.566,0.368,1.175,0.368,1.825
				c0,0.543-0.084,1.046-0.254,1.513c-0.17,0.466-0.41,0.883-0.72,1.251c0.52,0.477,0.931,1.043,1.234,1.701
				c0.304,0.657,0.456,1.354,0.456,2.093c0,0.487-0.095,0.951-0.235,1.401c2.973-1.433,5.612-2.98,7.747-4.534
				c0.015-0.246,0.022-0.49,0.022-0.735c0-2.461-0.609-4.779-1.677-6.821c3.379-0.182,5.846,0.388,6.724,1.779
				c0.072,0.112,0.128,0.223,0.176,0.341c0.301-0.87,0.276-1.653-0.142-2.31c-0.981-1.551-3.934-2.089-7.928-1.694
				c-2.684-3.648-6.995-6.014-11.87-6.014c-8.127,0-14.717,6.592-14.717,14.718c0,0.815,0.061,1.614,0.188,2.398
				c-2.618,2.326-3.886,4.518-3.236,6.084c0.468-1.337,1.725-2.873,3.602-4.463c0.713,2.524,2.081,4.763,3.907,6.537
				c2.493-0.251,5.389-0.875,8.46-1.826H271.193z"/>
			<path fill="#FFFFFF" d="M278.439,33.404c0.203-0.101,0.38-0.236,0.533-0.406c0.151-0.169,0.27-0.363,0.353-0.58
				c0.083-0.215,0.125-0.438,0.125-0.672c0-0.216-0.042-0.432-0.125-0.649c-0.083-0.216-0.198-0.409-0.347-0.58
				c-0.15-0.169-0.327-0.31-0.533-0.417c-0.206-0.108-0.43-0.164-0.667-0.164h-2.868v3.618h2.868
				C278.015,33.554,278.238,33.505,278.439,33.404z"/>
		</g>
		<g>
			<defs>
				<path id="SVGID_198_" d="M297.192,22.981c-1.143,3.45-7.242,8.253-15.685,11.956c-10.673,4.693-21.039,5.865-23.161,2.618
					c-0.069-0.107-0.133-0.229-0.19-0.349c-0.3,0.911-0.252,1.736,0.19,2.416c1.228,1.876,5.231,2.277,10.453,1.36
					c2.207,1.33,4.796,2.091,7.557,2.091c6.868,0,12.636-4.711,14.259-11.073C295.498,28.623,298.147,25.189,297.192,22.981z"/>
			</defs>
			<use xlink:href="#SVGID_198_"  overflow="visible" fill="#FFFFFF"/>
			<clipPath id="SVGID_5_">
				<use xlink:href="#SVGID_198_"  overflow="visible"/>
			</clipPath>
			<rect x="257.856" y="22.981" clip-path="url(#SVGID_5_)" fill="#FFFFFF" width="40.291" height="20.093"/>
		</g>
	</g>
	<g>
		<g>
			<path fill="#FFFFFF" d="M255.667,45.461c0-0.086,0.022-0.155,0.07-0.204c0.047-0.052,0.114-0.08,0.201-0.08h4.133
				c0.367,0,0.71,0.071,1.034,0.207c0.322,0.138,0.605,0.324,0.849,0.564c0.242,0.237,0.436,0.517,0.574,0.837
				c0.144,0.319,0.213,0.664,0.213,1.031c0,0.303-0.048,0.587-0.146,0.854c-0.099,0.264-0.236,0.498-0.414,0.704
				c0.299,0.271,0.534,0.592,0.707,0.961c0.176,0.372,0.263,0.766,0.263,1.18c0,0.37-0.071,0.723-0.216,1.058
				c-0.146,0.333-0.343,0.623-0.589,0.875c-0.248,0.249-0.534,0.446-0.865,0.595c-0.33,0.146-0.678,0.222-1.043,0.222h-4.5
				c-0.081,0-0.147-0.02-0.198-0.063c-0.049-0.043-0.073-0.111-0.073-0.202V45.461z M260.352,47.871
				c0-0.123-0.024-0.236-0.068-0.344c-0.046-0.105-0.11-0.198-0.193-0.279c-0.083-0.082-0.184-0.145-0.3-0.189
				c-0.117-0.05-0.245-0.075-0.38-0.075h-1.336v1.777h1.316c0.142,0,0.272-0.023,0.39-0.066c0.119-0.043,0.22-0.104,0.302-0.183
				c0.085-0.078,0.149-0.172,0.197-0.282C260.328,48.12,260.352,48.003,260.352,47.871 M260.682,51.425
				c0-0.12-0.024-0.245-0.07-0.367c-0.05-0.121-0.116-0.232-0.2-0.327c-0.086-0.097-0.188-0.172-0.308-0.234
				c-0.117-0.064-0.246-0.095-0.382-0.095h-1.647v2.046h1.647c0.136,0,0.264-0.029,0.38-0.086c0.117-0.058,0.22-0.135,0.306-0.229
				c0.087-0.097,0.154-0.204,0.204-0.329C260.658,51.683,260.682,51.556,260.682,51.425"/>
			<path fill="#FFFFFF" d="M265.069,45.461c0-0.086,0.023-0.155,0.072-0.204c0.047-0.052,0.114-0.08,0.2-0.08h6.174
				c0.091,0,0.163,0.028,0.212,0.084c0.05,0.052,0.075,0.121,0.075,0.211v1.513c0,0.073-0.025,0.136-0.075,0.198
				c-0.049,0.064-0.122,0.094-0.218,0.094h-4.031v1.52h3.109c0.081,0,0.146,0.018,0.197,0.054c0.051,0.035,0.077,0.095,0.077,0.181
				v1.324c0,0.056-0.021,0.111-0.067,0.163c-0.046,0.056-0.113,0.082-0.199,0.082h-3.117v1.564h4.18
				c0.188,0,0.281,0.095,0.281,0.279v1.539c0,0.04-0.016,0.077-0.05,0.109c-0.018,0.114-0.101,0.172-0.255,0.172h-6.293
				c-0.081,0-0.147-0.02-0.199-0.063c-0.049-0.043-0.073-0.111-0.073-0.202V45.461z"/>
		</g>
		<g>
			<defs>
				<path id="SVGID_200_" d="M276.694,46.908h0.859c0.118,0,0.229,0,0.332,0.009c0.103,0.006,0.21,0.013,0.327,0.023
					c0.14,0.02,0.27,0.063,0.386,0.131c0.116,0.073,0.216,0.155,0.298,0.258c0.084,0.102,0.149,0.215,0.193,0.336
					c0.046,0.124,0.067,0.245,0.067,0.369c0,0.129-0.02,0.256-0.061,0.383c-0.042,0.122-0.103,0.234-0.181,0.337
					c-0.077,0.097-0.177,0.183-0.292,0.247c-0.116,0.069-0.247,0.112-0.394,0.125c-0.07,0.013-0.135,0.015-0.191,0.021
					c-0.06,0.002-0.125,0.005-0.2,0.005h-1.145V46.908z M274.559,45.034c-0.091,0-0.159,0.025-0.206,0.082
					c-0.045,0.047-0.069,0.115-0.069,0.199v8.543c0,0.088,0.028,0.154,0.077,0.197c0.048,0.043,0.115,0.063,0.198,0.063h1.849
					c0.191,0,0.286-0.086,0.286-0.26v-2.76h1.01l1.511,2.794c0.016,0.071,0.054,0.125,0.109,0.166c0.056,0.04,0.118,0.06,0.189,0.06
					h2.134c0.075,0,0.136-0.015,0.179-0.052c0.043-0.034,0.064-0.083,0.064-0.152c0-0.054-0.024-0.122-0.069-0.199
					c-0.045-0.075-0.084-0.145-0.11-0.2l-1.601-2.962c0.224-0.129,0.431-0.279,0.619-0.455c0.19-0.177,0.351-0.374,0.488-0.594
					c0.138-0.217,0.244-0.451,0.321-0.704c0.076-0.25,0.115-0.512,0.115-0.791c0-0.408-0.081-0.793-0.24-1.152
					c-0.16-0.361-0.378-0.679-0.656-0.945c-0.277-0.271-0.603-0.483-0.977-0.639c-0.374-0.156-0.774-0.238-1.203-0.238H274.559z"/>
			</defs>
			<use xlink:href="#SVGID_200_"  overflow="visible" fill="#FFFFFF"/>
			<clipPath id="SVGID_6_">
				<use xlink:href="#SVGID_200_"  overflow="visible"/>
			</clipPath>
			<rect x="274.284" y="45.034" clip-path="url(#SVGID_6_)" fill="#FFFFFF" width="7.606" height="9.084"/>
		</g>
		<path fill="#FFFFFF" d="M283.669,45.315c0-0.084,0.022-0.152,0.068-0.204c0.049-0.052,0.116-0.077,0.203-0.077h6.174
			c0.092,0,0.162,0.03,0.21,0.082c0.052,0.054,0.076,0.122,0.076,0.21v1.518c0,0.064-0.024,0.131-0.076,0.193
			c-0.048,0.066-0.12,0.095-0.216,0.095h-4.032v1.52h3.111c0.078,0,0.143,0.02,0.195,0.054c0.052,0.038,0.078,0.099,0.078,0.185
			v1.319c0,0.059-0.024,0.116-0.067,0.168c-0.047,0.054-0.114,0.077-0.2,0.077h-3.117v1.566h4.182c0.186,0,0.279,0.095,0.279,0.282
			v1.538c0,0.039-0.016,0.073-0.049,0.105c-0.018,0.118-0.104,0.172-0.255,0.172h-6.293c-0.083,0-0.15-0.023-0.198-0.063
			c-0.051-0.043-0.073-0.109-0.073-0.201V45.315z"/>
		<path fill="#FFFFFF" d="M292.556,45.315c0-0.084,0.023-0.152,0.067-0.204c0.046-0.052,0.115-0.077,0.205-0.077h3.979
			c0.285,0,0.554,0.041,0.808,0.118c0.253,0.079,0.484,0.187,0.696,0.32c0.213,0.138,0.403,0.301,0.574,0.49
			c0.168,0.188,0.313,0.393,0.432,0.614c0.119,0.22,0.21,0.451,0.271,0.692c0.063,0.245,0.094,0.489,0.094,0.739
			c0,0.365-0.068,0.727-0.202,1.074c-0.134,0.353-0.326,0.662-0.576,0.938c-0.249,0.274-0.547,0.496-0.896,0.666
			c-0.349,0.167-0.733,0.253-1.156,0.258h-1.888v2.914c0,0.174-0.094,0.26-0.284,0.26h-1.85c-0.082,0-0.148-0.023-0.197-0.063
			c-0.051-0.043-0.075-0.109-0.075-0.197V45.315z M297.243,47.996c0-0.121-0.023-0.245-0.067-0.366
			c-0.042-0.122-0.106-0.233-0.189-0.328c-0.082-0.095-0.182-0.175-0.302-0.232c-0.118-0.066-0.252-0.097-0.401-0.097h-1.32v2.046
			h1.32c0.149,0,0.283-0.03,0.403-0.09c0.123-0.061,0.223-0.134,0.304-0.229c0.079-0.094,0.144-0.202,0.186-0.326
			C297.219,48.253,297.243,48.126,297.243,47.996"/>
	</g>
</g>
</svg>
