<?xml version="1.0" encoding="utf-8"?>
<!-- Generator: Adobe Illustrator 16.0.0, SVG Export Plug-In . SVG Version: 6.00 Build 0)  -->
<!DOCTYPE svg PUBLIC "-//W3C//DTD SVG 1.1//EN" "http://www.w3.org/Graphics/SVG/1.1/DTD/svg11.dtd">
<svg version="1.1" id="Layer_1" xmlns="http://www.w3.org/2000/svg" xmlns:xlink="http://www.w3.org/1999/xlink" x="0px" y="0px"
	 width="400px" height="400px" viewBox="0 0 400 400" enable-background="new 0 0 400 400" xml:space="preserve">
<g>
	<g>
		<g>
			<g>
				<path fill="#FFFFFF" d="M118.472,345.248c-1.586,0-2.979-1.107-3.313-2.691c-0.012-0.046-0.031-0.152-0.038-0.198
					c-0.248-1.5,0.523-3.013,1.903-3.657c1.373-0.644,3.011-0.322,4,0.834c0.354,0.412,0.61,0.953,0.741,1.509h0.003h-0.003
					c0.063,0.273,0.098,0.552,0.098,0.818c0,1.735-1.313,3.191-3.038,3.37C118.707,345.241,118.59,345.248,118.472,345.248z
					 M115.086,341.86h3.226H115.086z"/>
			</g>
			<g>
				<path fill="#FFFFFF" d="M187.019,337.545L187.019,337.545c-0.143,0-0.34-0.013-0.518-0.032l0,0
					c-0.676-0.082-1.317-0.148-1.932-0.205c-1.107-0.102-2.221,0.028-3.174-0.477c-1.285-0.685-2.248-1.851-2.857-3.47
					c-0.46-1.238-0.682-2.723-0.682-4.551c0-2.061,0.987-4.288,3.011-6.818c1.614-2.01,3.146-3.273,4.718-3.875
					c0.554-0.676,1.173-1.408,1.854-2.202c0.178-0.209,0.382-0.393,0.604-0.556c0.736-0.522,1.604-0.922,2.654-1.222
					c1.007-0.273,2.076-0.401,3.228-0.401c1.87,0,3.379,0.485,4.484,1.438c1.227,1.079,1.89,2.625,1.89,4.37
					c0,0.24-0.027,0.479-0.077,0.712c-0.246,1.154-0.451,2.116-0.611,2.903c-0.018,0.077-0.036,0.154-0.057,0.233
					c-0.432,1.533-0.807,2.797-1.129,3.79c-0.346,1.05-0.602,1.784-0.784,2.248c-0.547,1.327-1.278,2.477-2.204,3.461
					c-0.838,0.904-1.844,1.702-3.066,2.431c-1.045,0.728-2.012,1.279-2.86,1.623C188.516,337.364,187.758,337.545,187.019,337.545z
					 M184.762,330.522c0.143,0.013,0.284,0.024,0.427,0.037c0.521,0.046,1.063,0.104,1.623,0.168
					c0.037-0.016,0.073-0.029,0.114-0.047c0.25-0.104,0.754-0.349,1.784-1.057c0.833-0.505,1.366-0.924,1.768-1.352
					c0.378-0.406,0.653-0.836,0.873-1.365c0.131-0.338,0.343-0.958,0.627-1.827c0.287-0.884,0.623-2.026,1.015-3.407
					c0.07-0.343,0.149-0.718,0.235-1.13c-0.325,0.033-0.564,0.084-0.728,0.126c-0.124,0.037-0.225,0.07-0.301,0.099
					c-0.775,0.909-1.454,1.729-2.04,2.455c-0.557,0.691-1.364,1.135-2.242,1.238c0.048,0.004-0.581,0.295-1.767,1.771
					c-1.453,1.815-1.521,2.579-1.521,2.588C184.63,329.627,184.693,330.174,184.762,330.522z"/>
			</g>
			<g>
				<path fill="#FFFFFF" d="M223.811,391.05c-0.312,0-0.609-0.014-0.906-0.031c-0.776-0.075-1.432-0.273-2.146-0.626
					c-0.359-0.177-0.687-0.42-0.965-0.711l-1.055-1.116c-0.829-0.852-1.318-1.914-2.379-8.333l-1.847-11.228
					c-0.16,0.185-0.326,0.379-0.496,0.582c-0.802,0.909-1.919,1.826-3.459,2.846c-0.929,0.613-1.436,1.054-1.701,1.328
					c-0.122,0.185-0.263,0.356-0.422,0.516c-0.768,0.768-1.765,1.628-2.964,2.555c-1.103,0.864-2.455,1.87-4.019,3.018
					c-1.924,1.39-3.503,2.387-4.84,3.053c-1.769,0.878-3.077,1.262-4.252,1.262c-4.705,0-7.606-0.618-9.405-2.017
					c-1.709-1.332-3.141-3.908-4.772-8.598c-0.095-0.163-0.226-0.345-0.377-0.556c-0.336-0.459-0.736-1.042-1.179-1.699
					c-0.071-0.105-0.138-0.216-0.196-0.331c-0.034-0.062-0.066-0.123-0.098-0.185c-0.822,0.696-1.832,1.681-3.004,2.956
					c-0.224,0.339-0.509,0.644-0.854,0.895c-0.189,0.138-0.425,0.357-0.717,0.649c-0.487,0.494-1.096,1.036-1.809,1.623
					c-0.638,0.608-1.532,1.227-2.79,1.941c-1.204,0.679-2.697,1.376-4.579,2.148c-0.348,0.181-0.928,0.477-1.544,0.807
					c-0.586,0.313-1.125,0.587-1.638,0.848l-0.308,0.154c-1.022,0.503-1.901,0.855-2.725,1.094c-0.912,0.291-1.933,0.441-2.97,0.441
					c-1.587,0-2.819-0.137-3.871-0.433c-1.112-0.286-2.054-0.705-2.819-1.248c-0.146-0.106-0.287-0.226-0.416-0.349l-4.526-4.478
					c-0.418,0.375-0.879,0.829-1.379,1.363c-0.256,0.317-0.688,0.807-1.146,1.323l-1.442,1.566
					c-0.323,0.348-0.714,0.626-1.152,0.812c-0.601,0.256-1.311,0.613-2.132,1.041c-0.899,0.472-1.964,1.032-3.199,1.694
					c-0.491,0.26-1.038,0.401-1.597,0.401h-0.561c-1.554,0-2.584-0.604-3.168-1.112c-0.459-0.335-1.521-1.438-1.521-3.463
					c0-1.905,1.082-3.843,6.996-9.146c2.684-2.399,3.907-3.759,4.459-4.46c-0.244-0.561-0.523-1.146-0.843-1.751
					c-0.072-0.137-0.146-0.278-0.229-0.419c-0.632,0.723-1.398,1.518-2.325,2.404c-0.968,0.935-2.177,2.077-3.6,3.41
					c-0.224,0.207-0.474,0.388-0.745,0.524c-0.397,0.212-0.867,0.499-1.412,0.878c-0.584,0.401-1.22,0.9-1.912,1.487
					c-2.546,2.492-4.823,4.341-6.957,5.642c-2.104,1.293-4.161,2.043-6.123,2.229c-0.775,0.384-1.618,0.67-2.518,0.86
					c-1.061,0.238-2.287,0.357-3.718,0.357c-1.966,0-3.753-0.31-5.311-0.923c-1.646-0.626-3.078-1.597-4.223-2.862
					c-0.564-0.552-1.177-1.438-1.756-2.581c-0.348-0.675-0.711-1.456-1.098-2.374c-1.59,1.231-2.995,2.148-4.284,2.807
					c-1.636,0.851-3.141,1.271-4.576,1.271c-3.914,0-7.772-2.29-11.471-6.803c-2.586-3.142-3.937-4.028-4.399-4.267
					c-0.665,0.296-2.935,1.689-8.048,8.197c-7.911,10.036-10.056,10.835-12.039,10.835c-0.795,0-1.773-0.075-2.911-0.217
					c-0.246-0.035-0.491-0.093-0.724-0.176c-1.217-0.438-2.184-1.372-2.717-2.639c-0.342-0.798-0.518-1.716-0.518-2.718
					c0-0.935,0.153-2.007,0.473-3.277c0.259-1.059,0.607-2.299,1.032-3.724l0.271-0.864c0.427-1.377,0.781-2.506,1.066-3.38
					c0.345-1.094,0.402-1.446,0.406-1.482c0.016-0.101,0.048-0.326,0.072-0.423c0.115-0.485,0.267-1.443,0.474-2.872l0.114-0.785
					c-0.418,0.331-0.909,0.71-1.496,1.155l-4.215,4.805c-1.528,1.729-3.078,3.472-4.66,5.224c-2.545,2.969-4.564,5.152-6.123,6.626
					c-2.075,1.95-3.507,3.004-5.16,3.004c-1.799,0-3.153-0.242-4.263-0.759c-1.809-0.798-2.925-2.443-2.925-4.376
					c0-1.204,0.271-3.389,2.39-9.631c0.05-0.149,0.102-0.295,0.148-0.437c-0.642,0.653-1.368,1.381-2.188,2.171
					c-0.153,0.309-0.326,0.604-0.514,0.882c-0.282,0.419-0.593,0.825-0.938,1.218c-0.819,0.948-2.091,1.367-3.313,1.081
					c-1.22-0.278-2.187-1.205-2.514-2.413c-0.079-0.296-0.265-0.843-0.689-1.778c-0.404-0.899-0.929-2.007-1.575-3.331
					c-0.586-1.208-0.407-2.646,0.457-3.67c0.196-0.234,0.425-0.534,0.688-0.909l1.125-1.597c1.991-2.497,3.846-4.633,5.637-6.512
					c1.751-1.831,3.449-3.503,5.051-4.972c0.712-0.675,1.621-1.593,2.684-2.722c1.145-1.198,2.466-2.572,3.969-4.112
					c0.343-0.353,0.761-0.626,1.222-0.798c1.459-0.557,3.061-1.223,4.811-1.952c0.416-0.175,0.859-0.263,1.309-0.263
					c2.175,0,4.023,0.871,5.202,2.457c0.987,1.346,1.477,3.077,1.477,5.171c0,1.006-0.061,2.077-0.183,3.193
					c1.104-1.178,2.347-2.519,3.736-4.052c2.674-2.932,4.973-5.084,7.037-6.584c2.537-1.822,4.586-2.665,6.468-2.665
					c2.364,0,4.32,1.037,5.507,2.925c0.914,1.46,1.356,3.338,1.356,5.744c0,2.457-0.166,4.857-0.496,7.143
					c0.518-0.401,1.05-0.808,1.604-1.223c1.366-1.067,2.839-1.923,4.314-2.506c1.597-0.631,3.207-0.948,4.79-0.948
					c0.841,0,1.672,0.238,2.409,0.697c0.239,0.137,0.584,0.37,0.932,0.644c1.183,1.033,2.063,1.884,2.754,2.634
					c0.819,0.909,1.407,1.717,1.814,2.488c1.542,3.181,2.871,5.483,3.992,6.944c0.077,0.102,0.15,0.189,0.22,0.273
					c0.306-0.393,0.633-0.794,0.989-1.195c0.687-0.772,1.477-1.549,2.364-2.313l0.186-1.195c0.104-0.684,0.172-1.394,0.213-2.113
					c0.011-0.172,0.034-0.34,0.067-0.507c0.153-0.746,0.394-1.579,0.707-2.475c0.269-0.781,0.573-1.65,0.908-2.581
					c0.449-1.099,0.976-2.294,1.647-3.719c0.681-1.456,1.563-3.066,2.694-4.913c0.107-0.179,0.234-0.346,0.372-0.498
					c0.841-0.934,1.728-1.943,2.649-3.051c0.946-1.129,1.889-2.263,2.828-3.419c0.15-0.188,0.325-0.357,0.515-0.508
					c0.561-0.447,1.173-0.887,1.828-1.29c0.456-0.282,0.909-0.606,1.373-0.95c0.271-0.203,0.568-0.362,0.888-0.475
					c0.644-0.228,1.355-0.417,2.175-0.576c2.164-0.416,4.563-0.304,6.218,0.217c1.295,0.428,2.341,1.131,3.16,2.108
					c0.529,0.613,0.992,1.412,1.394,2.406c0.341,0.863,0.649,1.818,0.916,2.856c0.026,0.106,0.047,0.208,0.063,0.313l0.048,0.309
					c0.086,0.539,0.176,1.123,0.277,1.738c0.117,0.342,0.179,0.708,0.179,1.092c0,0.651-0.183,1.26-0.502,1.776
					c-0.142,0.465-0.318,1.043-0.527,1.769l-0.552,1.964c-0.709,2.452-2.182,5.082-4.505,8.068c-2.118,2.727-4.984,5.85-8.518,9.291
					c-0.026,0.428,0.023,0.728,0.118,0.931c0.146,0.079,0.235,0.154,0.371,0.261c0.063,0.026,0.3,0.105,0.589,0.207
					c0.447,0.149,1.021,0.309,1.693,0.459c1.188-0.119,2.255-0.327,3.177-0.613c1.093-0.34,2.069-0.75,2.897-1.214
					c0.251-0.141,0.631-0.348,1.166-0.608c0.099-0.053,0.232-0.141,0.384-0.242c0.172-0.177,0.368-0.336,0.588-0.477
					c1.27-0.808,2.513-1.584,3.737-2.32c1.161-0.697,2.293-1.426,3.416-2.18c2.116-1.363,3.623-2.462,4.532-3.296
					c0.149-0.132,0.276-0.251,0.378-0.349c-0.127-0.37-0.337-0.931-0.703-1.725c-1.017-2.224-1.491-3.926-1.491-5.364
					c0-1.849,0.364-3.587,1.082-5.166c0.737-1.61,1.898-3.07,3.45-4.346c0.58-0.556,1.255-1.09,1.891-1.482
					c1.027-0.62,1.953-0.911,2.87-0.911c1.896,0,3.558,0.934,4.685,2.623c0.777,1.167,1.311,2.676,1.638,4.61
					c0.075,0.353,0.146,0.673,0.218,0.962c0.646-0.676,1.411-1.421,2.287-2.232c1.306-1.195,2.892-2.627,4.765-4.297
					c2.194-1.933,4.061-3.441,5.567-4.496c1.729-1.213,2.934-1.888,3.905-2.184c0.632-0.194,1.285-0.163,1.998-0.11
					c0.268-0.02,0.631-0.035,1.088-0.037c0.145-0.014,0.291-0.02,0.434-0.02c0.914,0,2.292,0.26,3.645,1.506
					c0.893,0.818,1.627,1.957,2.246,3.485c0.439,0.944,0.804,1.886,1.048,2.733c0.293,1.025,0.44,2.016,0.44,2.953
					c0,1.824-0.152,3.355-0.468,4.677c-0.342,1.476-0.937,2.72-1.769,3.677c-0.542,0.843-1.23,1.782-2.048,2.806
					c-0.895,1.13-1.984,2.427-3.263,3.887c-3.983,3.992-6.751,6.807-8.612,8.766c-0.607,0.64-1.059,1.134-1.394,1.509
					c0.128,0.146,0.287,0.31,0.481,0.494c0.704,0.671,1.141,0.904,1.316,0.979c1.502-0.186,2.902-0.393,4.182-0.613
					c0.843-0.529,1.716-1.125,2.617-1.769c0.929-0.667,1.893-1.372,2.887-2.122c0.108-0.3,0.255-0.583,0.442-0.839
					c1.268-1.742,3.363-3.882,6.415-6.556c2.607-2.285,4.392-4.103,5.304-5.399c0.635-1.023,1.55-1.905,2.616-2.471
					c1.032-0.551,2.114-0.834,3.202-0.834c2.176,0,4.081,0.587,5.663,1.743c1.655,1.204,2.769,2.969,3.291,5.236
					c0.3,1.337,0.58,2.669,0.836,4.023c0.239,1.235,0.444,2.515,0.612,3.803c0.297,0.913,0.634,2.131,1.025,3.71
					c0.169,0.697,0.3,1.169,0.395,1.482c0.294-0.026,0.604-0.093,0.929-0.207c0.412-0.142,0.899-0.433,1.409-0.843
					c0.558-0.48,1.233-1.055,1.934-1.628l1.682-1.363c0.227-0.225,0.62-0.573,1.641-1.292c0.713-0.503,1.626-1.09,2.747-1.756
					c0.183-0.106,0.659-0.415,1.567-1.408c0.777-0.838,1.689-2.016,2.727-3.52c0.943-1.267,1.741-2.418,2.437-3.534
					c0.669-1.067,1.201-2.016,1.585-2.823c1.716-3.62,3.427-6.263,5.225-8.082c2.164-2.195,4.559-3.307,7.106-3.307
					c1.773,0,2.939,0.71,3.603,1.304c0.771,0.734,1.591,1.933,1.591,3.899c0,1.271-0.108,3.194-0.325,5.723
					c-0.194,2.258-0.298,4.12-0.298,5.395c0,0.525,0.042,1.311,0.117,2.369l0.136,1.938c0.754-1.575,1.65-3.512,2.72-5.881
					c5.095-11.347,8.941-15.979,13.278-15.979c2.975,0,4.498,1.598,5.139,2.548c0.859,1.279,1.296,2.963,1.296,5.005
					c0,1.13-0.282,2.18-0.84,3.133c-0.318,0.533-0.702,1.01-1.154,1.434c-0.004,0.186-0.024,0.375-0.061,0.561
					c-0.239,1.226-0.492,2.492-0.759,3.785c0.069,0.154,0.162,0.361,0.253,0.582c0.203,0.441,0.318,0.931,0.318,1.442
					c0,0.278-0.034,0.552-0.097,0.812c-0.034,0.318-0.1,1.02-0.196,2.043c-0.112,1.183-0.235,2.766-0.385,4.747
					c1.258-2.162,2.717-4.91,4.362-8.206c0.177-0.852,0.406-1.747,0.701-2.727c0.327-1.098,0.777-2.28,1.368-3.595
					c0.375-1.048,0.816-2.094,1.311-3.11c0.277-0.564,0.547-1.13,0.803-1.688l-0.189-0.695c-0.133-0.498-0.146-1.017-0.049-1.521
					c0.105-0.547,0.221-1.09,0.335-1.639l0.168-0.806c0.181-0.88,0.379-1.742,0.613-2.569c0.44-1.586,1.16-2.879,2.131-3.827
					c1.164-1.139,2.625-1.745,4.226-1.745c2.043,0,3.296,0.852,3.993,1.564c0.684,0.736,1.446,1.949,1.446,3.815
					c0,2.329-0.225,4.752-0.67,7.195c-0.437,2.396-1.059,4.854-1.91,7.514c-0.896,2.871-1.941,5.606-3.11,8.108
					c-1.076,2.333-2.329,4.637-3.728,6.824c-0.142,0.362-0.296,0.732-0.455,1.104c1.518-1.47,2.409-2.604,3.084-3.459
					c0.305-0.389,0.564-0.71,0.79-0.971c0.661-0.75,1.455-1.526,2.36-2.308c0.065-0.41,0.132-0.815,0.193-1.217
					c0.098-0.653,0.168-1.377,0.217-2.113c0.009-0.154,0.026-0.313,0.057-0.464c0.137-0.67,0.354-1.455,0.688-2.452l0.146-0.429
					c0.243-0.692,0.503-1.434,0.79-2.214c0.45-1.095,0.979-2.281,1.641-3.697c0.631-1.374,1.491-2.947,2.696-4.914
					c0.109-0.186,0.238-0.357,0.384-0.519c0.851-0.931,1.725-1.941,2.651-3.042c0.935-1.121,1.879-2.264,2.818-3.415
					c0.15-0.188,0.327-0.357,0.517-0.509c0.561-0.446,1.16-0.876,1.804-1.277c0.499-0.3,0.932-0.618,1.372-0.948
					c0.273-0.206,0.574-0.369,0.896-0.483c0.648-0.231,1.368-0.422,2.202-0.578c0.847-0.163,1.751-0.249,2.678-0.249
					c1.385,0,2.545,0.152,3.538,0.468c1.283,0.423,2.36,1.155,3.163,2.126c0.503,0.576,0.953,1.348,1.367,2.374
					c0.331,0.807,0.636,1.742,0.927,2.862c0.031,0.119,0.058,0.245,0.075,0.371c0.088,0.61,0.189,1.279,0.309,1.998
					c0.114,0.342,0.177,0.708,0.177,1.09c0,0.645-0.177,1.244-0.49,1.758c-0.137,0.439-0.317,1.037-0.533,1.789l-0.552,1.959
					c-0.71,2.457-2.184,5.087-4.5,8.068c-2.117,2.727-4.901,5.758-8.506,9.278c0.005-0.005,0.009-0.009,0.009-0.009
					c0.005,0-0.035,0.057-0.088,0.167c0.035,0.282,0.084,0.587,0.181,0.799c0.146,0.084,0.229,0.142,0.362,0.247
					c0.07,0.026,0.3,0.105,0.582,0.198c0.468,0.159,1.037,0.318,1.707,0.473c1.191-0.124,2.259-0.331,3.177-0.618
					c1.116-0.349,2.091-0.754,2.898-1.209c0.198-0.119,0.6-0.335,1.151-0.608c0.128-0.066,0.282-0.163,0.445-0.278
					c0.058-0.088,0.133-0.189,0.217-0.313c0.251-0.397,0.582-0.949,0.97-1.598c0.265-0.445,0.622-0.82,1.055-1.107l5.316-3.503
					c0.105-0.118,0.221-0.246,0.349-0.401c0.065-0.083,0.295-0.396,0.621-0.987c0.49-0.905,1.17-1.717,1.999-2.387
					c0.534-0.406,1.081-0.759,1.646-1.068c0.322-0.357,0.706-0.768,1.169-1.227c0.64-0.652,1.486-1.442,2.528-2.342
					c0.189-0.164,0.396-0.305,0.613-0.424c0.379-0.203,0.842-0.498,1.411-0.892c0.613-0.414,1.235-0.926,1.893-1.56
					c4.006-3.773,7.416-6.526,10.456-8.433c3.414-2.144,6.353-3.185,8.978-3.185c1.905,0,3.454,0.505,4.605,1.5
					c1.274,1.125,1.959,2.711,1.959,4.495c0,1.341-0.265,2.59-0.79,3.719c-0.569,1.218-1.442,2.232-2.599,3.04
					c-0.864,0.626-1.84,1.354-2.894,2.148c-0.697,0.873-1.5,1.773-2.392,2.687c-0.048,0.053-0.102,0.105-0.154,0.159
					c2.312-0.226,4.39,0.626,5.634,2.483c0.803,1.187,1.244,2.691,1.381,4.721c0.009,0.132,0.014,0.26,0.004,0.393
					c-0.088,2.024-0.123,3.966-0.123,5.814c-0.018,0.688,0.119,1.143,0.437,1.583c0,0,0.018,0.019,0.04,0.04
					c0.105-0.132,0.212-0.26,0.313-0.388l0.277-0.34c0.357-0.441,0.657-0.803,0.988-1.169c0.252-0.282,0.547-0.517,0.883-0.702
					c0.088-0.149,0.181-0.317,0.273-0.48c0.11-0.186,0.216-0.371,0.313-0.538c0.097-0.194,0.211-0.38,0.344-0.556
					c0.635-0.834,1.271-1.694,1.901-2.612c0.181-0.26,0.396-0.498,0.644-0.696c2.851-2.339,5.197-4.602,6.976-6.729
					c1.411-1.693,2.501-3.265,3.251-4.689l-0.397-1.861c-0.158-0.774-0.048-1.579,0.322-2.278c0.839-1.586,2.471-3.148,5.136-4.91
					c2.722-1.798,5.033-2.672,7.067-2.672c2.228,0,4.173,0.692,5.77,2.059c0.993,0.845,1.897,1.674,2.749,2.521
					c0.463,0.294,0.799,0.541,1.027,0.727c2.057,1.541,3.693,3.785,4.752,6.579c0.966,2.586,1.456,5.683,1.456,9.216
					c0,1.836-0.534,4.147-1.633,7.028c1.12-0.997,1.584-1.293,1.945-1.482c0.154-0.079,0.481-0.256,1.13-0.781
					c0.834-0.675,1.937-0.913,2.974-0.644c1.036,0.269,1.888,1.01,2.294,2.003c0.309,0.759,0.67,1.588,1.098,2.479
					c0.49,1.032,0.962,2.126,1.412,3.277c0.512,1.311,0.154,2.802-0.891,3.745c-0.313,0.282-0.653,0.601-1.033,0.958l-0.207,0.189
					c-0.463,0.45-1.076,1.006-1.8,1.632c-0.062,0.058-0.124,0.106-0.189,0.155c-1.363,1.019-3.115,2.219-5.683,3.891
					c-2.51,1.637-5.271,3.361-8.21,5.126c-1.015,0.657-2.259,1.227-3.608,1.646c-0.322,0.102-0.657,0.146-0.997,0.146
					c-2.369,0-4.209-0.401-5.629-1.235c-1.933-1.169-2.974-3.097-2.974-5.448c0-0.789,0.141-1.649,0.423-2.571
					c0.247-0.795,0.569-1.602,0.962-2.422c0.243-0.548,0.543-1.161,0.874-1.783c0.198-0.383,0.388-0.82,0.551-1.271
					c0.839-2.396,1.5-4.698,1.946-6.82c0.428-1.963,0.64-3.745,0.64-5.32c0-1.844-0.278-2.753-0.464-3.154
					c-0.33,0.247-0.684,0.521-1.041,0.825c-0.926,0.799-1.893,1.805-2.854,2.978c-1.262,1.554-2.431,2.877-3.463,3.909
					c-0.852,0.869-1.628,1.539-2.352,2.029c-0.489,0.671-1.111,1.358-1.884,2.087c-0.776,0.741-1.756,1.526-2.981,2.387
					c-0.278,0.556-0.724,1.19-1.302,1.835c-0.07,0.075-0.146,0.141-0.216,0.216c-0.301,0.273-0.979,1.16-1.43,1.743
					c-0.627,0.815-1.222,1.592-1.791,2.17c-1.046,1.032-2.122,1.994-3.243,2.895c-1.597,1.213-3.026,2.06-4.446,2.646
					c-1.579,0.636-3.181,0.962-4.765,0.962c-3.645,0-6.564-1.129-8.673-3.357c-1.342-1.407-2.308-3.242-2.89-5.483
					c-0.64,0.498-1.346,1.059-2.131,1.694c-1.421,1.451-2.625,2.66-3.609,3.6c-0.971,0.927-1.649,1.593-2.056,1.998
					c-0.07,0.071-0.141,0.138-0.212,0.199c-0.983,0.825-2.077,1.628-3.26,2.378c-1.156,0.736-2.439,1.491-3.882,2.289
					c-1.011,0.529-1.827,0.913-2.493,1.209c-1.081,0.477-1.945,0.697-2.744,0.697c-2.92,0-5.223-0.83-6.833-2.471
					c-1.311-1.346-2.092-3.15-2.325-5.387c-1.495,0.715-2.96,1.143-4.372,1.275c-0.78,0.384-1.628,0.675-2.523,0.864
					c-1.032,0.229-2.298,0.354-3.71,0.354c-1.998,0-3.736-0.301-5.312-0.923c-1.624-0.617-3.058-1.579-4.213-2.841
					c-0.569-0.556-1.165-1.421-1.765-2.594c-0.389-0.759-0.781-1.61-1.165-2.528c-0.37,0.278-0.812,0.596-1.346,0.962
					c-2.399,1.633-17.189,9.384-20.599,9.384c-0.141,0-0.273-0.009-0.406-0.022c-0.034,0.022-0.065,0.04-0.099,0.058
					c-1.718,0.997-3.479,1.495-5.268,1.495c-1.77,0-4.992-0.768-6.72-5.902c-0.302-0.892-0.552-1.897-0.753-3.026
					c-0.088,0.168-0.179,0.34-0.275,0.508l-1.942,3.71c-0.353,0.794-0.741,1.57-1.157,2.343c-0.361,0.661-0.679,1.31-0.978,1.976
					c-0.134,0.296-0.307,0.574-0.518,0.821c-0.828,0.97-1.839,1.72-2.997,2.219C226.354,390.815,225.13,391.05,223.811,391.05z
					 M216.781,358.545c0.49,0,0.98,0.105,1.437,0.317c1.012,0.477,1.725,1.416,1.908,2.519l2.923,17.744
					c0.52,3.172,0.838,4.562,0.997,5.144c0.313-0.021,0.578-0.075,0.794-0.163c0.081-0.04,0.165-0.084,0.247-0.146
					c0.293-0.626,0.602-1.244,0.939-1.866c0.343-0.635,0.671-1.288,0.964-1.954c0.032-0.07,0.064-0.142,0.1-0.207l2.054-3.913
					c0.3-0.534,0.401-0.839,0.439-0.984c0.089-0.326,0.151-0.608,0.175-0.86c0.045-0.494,0.198-0.979,0.452-1.407
					c0.345-0.591,0.679-1.164,0.998-1.725c-0.683,0.454-1.321,0.551-2.054,0.551c-0.772,0-1.522-0.265-2.123-0.745l-0.619-0.498
					c-0.206-0.168-0.393-0.357-0.554-0.565c-0.644-0.829-0.854-1.791-1.057-3.507c-0.131-1.09-0.275-2.594-0.449-4.553l-0.313-4.474
					c-0.093-1.262-0.135-2.21-0.135-2.846c0-1.486,0.108-3.498,0.324-5.973c0.099-1.156,0.166-2.087,0.211-2.837
					c-0.201,0.159-0.407,0.349-0.614,0.561c-1.239,1.253-2.56,3.344-3.923,6.225c-0.507,1.063-1.148,2.21-1.963,3.512
					c-0.557,0.896-1.166,1.795-1.817,2.713C216.341,358.566,216.563,358.545,216.781,358.545z M303.256,372.794
					c0.022,0.15,0.031,0.305,0.031,0.455c0,0.472-0.04,1.063-0.154,1.817c-0.106,0.719-0.441,1.385-0.958,1.901
					c-0.661,0.657-1.164,1.332-1.486,2.007c-0.247,0.534-0.379,1.116-0.379,1.738c0,1.23,0.237,1.91,0.458,2.136
					c0.093,0.093,0.49,0.401,1.734,0.437c0.079-0.031,0.167-0.066,0.269-0.11c0.552-0.247,1.24-0.573,2.029-0.988
					c1.235-0.684,2.4-1.367,3.45-2.034c0.883-0.564,1.698-1.151,2.422-1.756c0.437-0.432,1.121-1.103,2.061-2.002
					c0.432-0.415,0.908-0.878,1.429-1.395c-1.208,0.812-2.347,1.372-3.489,1.729c-1.337,0.423-2.797-0.031-3.666-1.134l-0.441-0.556
					c-0.935-1.183-0.975-2.846-0.097-4.072l2.911-4.085c1.068-1.461,1.545-2.052,1.99-2.479c2.369-2.082,4.169-3.771,5.457-5.117
					c1.535-1.606,1.985-2.427,2.082-2.639c0.243-0.512,0.604-0.957,1.059-1.292c0.843-0.618,1.509-1.156,1.981-1.602
					c0.414-0.38,0.71-0.662,0.922-0.865c0.278-0.388,0.6-0.824,0.962-1.297c0.189-0.238,0.414-0.459,0.657-0.64
					c1.165-0.864,2.157-1.712,2.951-2.527c0.834-0.852,1.562-1.686,2.166-2.467c0.186-0.24,0.401-0.454,0.64-0.635
					c1.227-0.929,2.36-1.771,3.41-2.532c0.3-0.21,0.354-0.326,0.38-0.377c0.009-0.018,0.018-0.038,0.026-0.056
					c-0.852,0.084-2.448,0.508-5.038,2.131c-2.62,1.646-5.779,4.204-9.379,7.605c-0.922,0.883-1.854,1.646-2.749,2.246
					c-0.631,0.432-1.187,0.789-1.663,1.063c-0.763,0.666-1.394,1.253-1.901,1.773c-0.569,0.561-0.983,1.02-1.283,1.372
					c-0.305,0.354-0.68,0.645-1.104,0.848c-0.401,0.189-0.759,0.41-1.067,0.64c-0.058,0.048-0.146,0.149-0.221,0.291
					c-0.45,0.816-0.891,1.491-1.319,2.024c-0.401,0.477-0.705,0.808-0.948,1.068c-0.177,0.181-0.37,0.344-0.582,0.48l-5.008,3.3
					c-0.277,0.459-0.524,0.864-0.75,1.209c-0.428,0.635-0.723,1.015-0.952,1.274c-0.049,0.054-0.102,0.11-0.154,0.159
					c0.428,0.005,0.859,0.093,1.271,0.265C302.33,370.58,303.102,371.607,303.256,372.794z M368.362,381.251
					c0.256,0.062,0.666,0.128,1.271,0.154c0.574-0.207,1.081-0.458,1.549-0.759c2.1-1.262,4.063-2.479,5.898-3.644
					c-1.395-0.014-2.32-0.596-2.85-1.085c-0.79-0.645-1.319-1.778-1.319-2.991c0-2.061,0.697-4.694,2.192-8.29
					c1.447-3.484,1.663-5.139,1.663-5.814c0-2.722-0.344-5.021-1.019-6.829c-0.601-1.579-1.452-2.779-2.599-3.64
					c-0.243-0.193-0.459-0.326-0.732-0.498c-0.234-0.142-0.445-0.313-0.64-0.508c-0.794-0.803-1.646-1.592-2.607-2.408
					c-0.256-0.221-0.613-0.439-1.372-0.439c-0.102,0-1.055,0.042-3.331,1.551c-1.111,0.737-1.809,1.297-2.236,1.694l0.305,1.438
					c0.146,0.692,0.07,1.407-0.212,2.056c-0.389,0.882-0.865,1.795-1.434,2.73c0.053-0.049,0.105-0.093,0.158-0.141
					c1.244-1.055,2.44-1.893,3.564-2.511c0.618-0.335,1.333-0.472,2.039-0.388c2.422,0.295,4.354,1.548,5.58,3.617
					c1.002,1.698,1.491,3.908,1.491,6.771c0,2.056-0.265,4.328-0.794,6.741c-0.503,2.391-1.239,4.972-2.188,7.672
					c-0.273,0.754-0.578,1.451-0.926,2.131c-0.287,0.538-0.521,1.019-0.737,1.5c-0.286,0.608-0.489,1.111-0.635,1.579
					C368.402,381.066,368.38,381.167,368.362,381.251z M238.42,362.59c1.168,0,2.252,0.601,2.871,1.589l0.312,0.494
					c0.337,0.542,0.518,1.164,0.518,1.8c0,0.701-0.138,1.486-0.445,2.55c-0.169,0.582-0.175,0.838-0.175,0.869
					c0,5.506,0.563,8.333,1.038,9.736c0.237,0.71,0.453,1.09,0.584,1.274c0.494-0.048,1.001-0.229,1.546-0.547
					c0.477-0.282,1.091-0.803,1.8-1.526c0.754-0.771,1.777-1.111,2.813-1.001c-0.425-1.023-0.325-2.215,0.32-3.177
					c0.136-0.203,0.272-0.41,0.415-0.622c-1.466,0.724-3.352,0.622-4.483-0.573c-0.883-0.931-1.495-1.933-1.827-2.978
					c-0.022-0.075-0.046-0.15-0.061-0.221c-0.17-0.711-0.271-1.324-0.307-1.893c-0.023-0.455-0.032-0.984,0.044-1.535
					c0.292-4.183,0.524-7.271,0.71-9.256c0.072-0.785,0.126-1.346,0.167-1.747c-0.225-0.556-0.378-1.046-0.502-1.593
					c-0.108-0.477-0.112-0.971-0.011-1.451c0.31-1.456,0.594-2.881,0.865-4.257c0.022-0.729,0.121-1.368,0.296-1.938
					c0.14-0.454,0.323-0.864,0.546-1.23c-1.219,1.595-3.078,4.605-5.615,10.253c-1.402,3.123-2.575,5.643-3.568,7.672
					C236.836,362.886,237.555,362.59,238.42,362.59z M51.423,369.226c-0.088,0.64-0.296,1.451-0.668,2.629
					c-0.287,0.878-0.628,1.977-1.046,3.317l-0.261,0.829c-0.362,1.223-0.672,2.316-0.909,3.27c1.075-1.015,3.049-3.137,6.509-7.526
					c1.649-2.1,3.143-3.86,4.505-5.312c-0.559,0.026-1.114-0.084-1.632-0.335c-2.4-1.156-2.662-3.084-2.662-3.856
					c0-0.384,0.026-0.824,0.1-1.306c0.069-0.516,0.234-1.099,0.506-1.791c0.833-1.963,1.401-3.962,1.731-6.035
					c0.344-2.144,0.518-4.425,0.518-6.776c0-0.975-0.108-1.544-0.198-1.846c-0.346,0.093-1.08,0.393-2.391,1.334
					c-1.648,1.198-3.673,3.106-5.994,5.651c-1.057,1.165-2.032,2.229-2.932,3.194c1.703-0.587,3.63-0.212,4.926,1.076
					c0.635,0.631,1.379,1.738,1.379,3.463c0,0.159-0.013,0.322-0.037,0.481l-0.9,6.269
					C51.688,367.901,51.524,368.767,51.423,369.226z M329.338,372.026c0.189,2.255,0.732,3.869,1.614,4.791
					c0.3,0.317,1.178,1.249,3.763,1.249c0.715,0,1.438-0.15,2.206-0.459c0.839-0.345,1.791-0.922,2.823-1.707
					c0.273-0.221,0.552-0.455,0.834-0.693c-2.594,0.397-5.047-0.768-6.6-2.925c-1.2-1.646-1.787-3.556-1.721-5.66
					c-0.004-1.786,0.026-3.759,0.119-5.814c-0.021-0.273-0.053-0.489-0.084-0.666c-0.596,0.154-1.292,0.49-2.051,0.993
					c-1.381,0.913-2.97,2.435-4.606,4.402c-0.229,0.273-0.498,0.516-0.803,0.706l-0.216,0.137c-0.079,0.048-0.159,0.102-0.238,0.146
					c0.317-0.07,0.64-0.098,0.971-0.079c0.962,0.057,1.844,0.521,2.443,1.271c0.622,0.78,1.055,1.609,1.275,2.47
					C329.24,370.901,329.324,371.475,329.338,372.026z M271.25,367.857c1.482,0,2.846,0.711,3.824,1.999
					c0.485,0.626,0.949,1.481,1.479,2.748c0.428,1.063,0.82,1.928,1.195,2.655c0.375,0.741,0.582,0.953,0.604,0.976
					c0.561,0.608,1.107,0.966,1.791,1.227c0.794,0.317,1.743,0.463,2.858,0.463c0.909,0,1.677-0.066,2.272-0.198
					c0.498-0.106,0.891-0.256,1.213-0.459c0.538-0.331,1.16-0.517,1.796-0.517c0.971,0,2.161-0.428,3.538-1.279
					c1.239-0.75,2.638-1.83,4.173-3.216c-1.01,0.494-2.108,0.927-3.282,1.293c-1.544,0.485-3.229,0.798-5.152,0.953
					c-0.34,0.026-0.662,0.004-0.988-0.066c-1.155-0.247-2.122-0.508-2.956-0.79c-1.023-0.349-1.769-0.706-2.373-1.129
					c-1.081-0.667-1.924-1.619-2.51-2.828c-0.539-1.169-0.799-2.422-0.799-3.785c0-0.993,0.221-1.98,0.635-2.854
					c0.384-0.794,0.848-1.465,1.39-2.016c0.331-0.322,0.648-0.636,0.962-0.949c-1.204-0.018-2.192-0.396-2.934-1.12
					c-0.547-0.547-1.169-1.474-1.169-2.942c0-1.836,0.869-4.015,2.819-7.076c1.646-2.55,3.705-5.14,6.533-5.14
					c1.456,0,2.73,0.694,3.507,1.908c0.499,0.782,0.75,1.696,0.75,2.715c0,0.053,0,0.106-0.004,0.159
					c0.37-0.711,0.648-1.368,0.82-1.973l0.552-1.961c0.247-0.854,0.445-1.5,0.587-1.965l0.026-0.088
					c-0.089-0.552-0.163-1.077-0.238-1.566c-0.194-0.724-0.389-1.335-0.587-1.815c-0.181-0.439-0.287-0.582-0.291-0.587
					c-0.163-0.068-0.601-0.174-1.518-0.174c-0.494,0-0.967,0.044-1.403,0.128c-0.277,0.053-0.529,0.11-0.768,0.172
					c-0.472,0.342-0.944,0.661-1.425,0.953c-0.282,0.179-0.578,0.384-0.864,0.6c-0.878,1.069-1.752,2.131-2.63,3.181
					c-0.913,1.088-1.777,2.082-2.611,3.009c-0.971,1.61-1.659,2.876-2.166,3.966c-0.622,1.342-1.112,2.436-1.479,3.313
					c-0.22,0.608-0.467,1.319-0.696,1.98l-0.137,0.384c-0.168,0.503-0.318,0.979-0.415,1.403c-0.053,0.834-0.142,1.654-0.261,2.471
					c-0.141,0.851-0.26,1.649-0.379,2.461c-0.128,0.852-0.573,1.628-1.249,2.162c-1.045,0.829-1.896,1.619-2.536,2.347
					c-0.159,0.186-0.335,0.41-0.552,0.684c-0.097,0.119-0.198,0.247-0.309,0.389C270.346,367.924,270.796,367.857,271.25,367.857z
					 M150.756,377.184c0.102,0.044,0.278,0.106,0.547,0.177c0.356,0.102,0.948,0.198,2.096,0.198c0.349,0,0.678-0.049,1.001-0.149
					c0.515-0.15,1.037-0.366,1.667-0.676l0.273-0.141c0.472-0.238,0.969-0.49,1.49-0.768c0.693-0.375,1.357-0.715,1.981-1.02
					c0.119-0.048,0.237-0.097,0.354-0.149c-1.283,0.211-2.668,0.405-4.13,0.582c-2.109,0.27-4.234-0.785-6.407-2.858
					c-2.085-1.999-3.095-3.909-3.095-5.846c0-0.936,0.26-1.642,1.137-2.767c-0.224,0.045-0.447,0.066-0.678,0.066
					c-0.967,0-2.384-0.349-3.637-2.012c-0.468-0.6-0.948-1.465-1.516-2.757c-0.387-0.808-0.719-1.602-0.96-2.276
					c-0.356-1.023-0.483-1.985-0.382-2.877v-0.181c0-0.516,0.118-1.019,0.334-1.474c-1.314-0.732-2.021-2.095-2.491-3.211
					c-0.461-1.104-0.869-2.537-1.256-4.388c-0.055-0.32-0.111-0.594-0.165-0.829c-0.793,0.69-1.268,1.285-1.545,1.893
					c-0.319,0.694-0.473,1.467-0.473,2.354c0,0.021,0.025,0.684,0.877,2.541c1.028,2.245,1.486,3.834,1.486,5.157
					c0,0.587-0.122,1.138-0.328,1.646c0.618,0.247,1.166,0.675,1.554,1.257c1.018,1.518,1.886,2.952,2.578,4.262
					c0.713,1.363,1.292,2.674,1.724,3.896c0.129,0.362,0.192,0.741,0.192,1.125c0,0.645-0.123,1.306-0.483,2.087
					c0.234,0.049,0.465,0.119,0.688,0.216l0.429,0.189c0.383,0.164,0.732,0.402,1.027,0.697L150.756,377.184z M23.348,357.795
					c1.198,0,2.313,0.463,3.139,1.306c0.8,0.812,1.247,1.91,1.247,3.079c0,2.201-0.761,5.462-2.396,10.262
					c-0.788,2.316-1.271,3.943-1.564,5.073c0.14-0.128,0.291-0.265,0.457-0.424c1.36-1.283,3.275-3.361,5.688-6.167
					c1.616-1.796,3.153-3.525,4.66-5.228l2.259-2.577c-0.145,0.018-0.291,0.031-0.436,0.031c-1.712,0-2.72-0.855-3.167-1.367
					c-0.714-0.904-1.027-1.854-1.027-2.89c0-0.265,0.03-0.534,0.095-0.794c0.262-1.086,0.587-2.22,0.964-3.366
					c0.289-1.231,0.518-2.467,0.685-3.666c0.162-1.183,0.246-2.294,0.246-3.296c0-0.203-0.009-0.377-0.021-0.521
					c-1.013,0.424-1.975,0.812-2.886,1.169c-1.271,1.311-2.403,2.488-3.386,3.517c-1.153,1.226-2.154,2.231-2.979,3.013
					c-1.06,0.971-2.145,2.021-3.257,3.146C22.223,357.892,22.782,357.795,23.348,357.795z M187.142,376.813
					c0.021,0,1.099,0.568,5.2,0.568c-0.048-0.004,0.336-0.097,1.256-0.551c0.979-0.49,2.288-1.323,3.874-2.471
					c0.047-0.035,0.093-0.066,0.14-0.102c-1.993,0.556-4.054,0.517-5.634-0.154c-1.1-0.512-1.924-1.258-2.48-2.21
					c-0.418-0.627-0.773-1.563-1.348-3.896c-0.484-1.946-0.793-2.965-0.969-3.464c-0.074-0.225-0.132-0.449-0.158-0.684
					c-0.159-1.257-0.353-2.497-0.592-3.719c-0.242-1.297-0.511-2.555-0.789-3.799c-0.212-0.926-0.559-1.178-0.675-1.262
					c-0.416-0.3-0.955-0.445-1.669-0.445c0.029,0.009-0.05,0.075-0.174,0.27c-1.338,1.914-3.427,4.076-6.48,6.754
					c-1.062,0.931-1.99,1.782-2.781,2.555c2.686-1.628,5.067-1.452,6.942,0.953c0.472,0.595,0.971,1.394,1.549,2.492
					c0.346,0.512,0.66,0.971,0.942,1.354c0.492,0.684,0.813,1.2,1.057,1.702c0.059,0.124,0.112,0.252,0.155,0.38
					C186.121,375.781,187.042,376.721,187.142,376.813L187.142,376.813z M93.795,366.622c1.49,0,2.851,0.715,3.824,2.012
					c0.496,0.645,0.979,1.526,1.483,2.749c0.422,1.045,0.805,1.91,1.179,2.634c0.362,0.714,0.586,0.952,0.624,0.992
					c0.553,0.604,1.091,0.962,1.772,1.222c0.791,0.31,1.744,0.464,2.862,0.464c0.913,0,1.679-0.071,2.275-0.203
					c0.498-0.106,0.895-0.256,1.212-0.454c0.538-0.336,1.161-0.517,1.797-0.517c0.957,0,2.177-0.441,3.53-1.274
					c1.264-0.769,2.665-1.854,4.192-3.229c-1.009,0.494-2.114,0.935-3.296,1.301c-1.547,0.485-3.234,0.799-5.155,0.949
					c-0.325,0.03-0.654,0.004-0.974-0.063c-1.16-0.247-2.13-0.507-2.966-0.789c-1.065-0.371-1.793-0.72-2.384-1.143
					c-1.101-0.685-1.948-1.646-2.518-2.872c-0.517-1.104-0.778-2.36-0.778-3.732c0-1.041,0.223-2.021,0.664-2.907
					c0.35-0.736,0.824-1.425,1.378-1.98c0.322-0.313,0.637-0.618,0.946-0.932c-1.255-0.018-2.268-0.419-3.012-1.19
					c-0.504-0.525-1.1-1.451-1.1-2.872c0-1.84,0.878-4.032,2.844-7.085c1.622-2.535,3.664-5.127,6.515-5.127
					c1.466,0,2.751,0.702,3.522,1.926c0.489,0.771,0.737,1.679,0.737,2.695c0,0.047,0,0.102-0.002,0.148
					c0.368-0.706,0.642-1.361,0.814-1.959l0.552-1.968c0.265-0.906,0.47-1.586,0.616-2.063c-0.078-0.491-0.151-0.955-0.221-1.396
					l-0.025-0.142c-0.185-0.704-0.388-1.335-0.604-1.875c-0.159-0.399-0.273-0.545-0.273-0.547c-0.164-0.068-0.607-0.175-1.52-0.175
					c-0.489,0-0.964,0.042-1.409,0.129c-0.271,0.053-0.526,0.107-0.766,0.174c-0.463,0.335-0.924,0.65-1.388,0.936
					c-0.315,0.193-0.612,0.401-0.895,0.613c-0.875,1.074-1.757,2.135-2.638,3.189c-0.901,1.078-1.771,2.073-2.602,3
					c-0.92,1.518-1.636,2.827-2.182,3.996c-0.619,1.311-1.101,2.4-1.459,3.27c-0.268,0.754-0.563,1.593-0.825,2.36
					c-0.189,0.538-0.33,1.01-0.427,1.42c-0.055,0.848-0.143,1.677-0.268,2.497l-0.374,2.453c-0.131,0.847-0.576,1.619-1.249,2.148
					c-1.015,0.803-1.873,1.597-2.55,2.355c-0.206,0.234-0.398,0.464-0.574,0.688c0.047,0.084,0.09,0.168,0.133,0.256l0.005,0.009
					C93.16,366.657,93.479,366.622,93.795,366.622z M68.454,360.905c2.81,0,5.683,2.033,9.604,6.798
					c2.319,2.837,4.473,4.328,6.235,4.328c0.078,0,0.528-0.026,1.475-0.517c0.436-0.225,0.905-0.498,1.411-0.829
					c-0.088-0.207-0.176-0.415-0.267-0.622c-2.701-0.397-4.61-2.863-5.274-3.719c-1.432-1.862-2.961-4.487-4.677-8.038
					c0,0.004,0,0.004,0,0.004c-0.003,0-0.203-0.349-0.771-0.975c-0.449-0.49-1.051-1.072-1.773-1.721
					c-0.52,0.066-1.062,0.212-1.607,0.428c-0.879,0.345-1.791,0.887-2.707,1.602c-1.125,0.838-2.118,1.619-3.03,2.369l-2.498,2.069
					c-0.02,0.026-0.037,0.048-0.052,0.075C65.936,361.302,67.223,360.905,68.454,360.905z M321.776,368.374
					c-0.066,0.057-0.137,0.123-0.212,0.189c-0.247,0.225-0.508,0.459-0.781,0.706c0.177-0.137,0.34-0.265,0.499-0.384
					C321.458,368.695,321.622,368.523,321.776,368.374z M147.488,355.086c0.037,0.093,0.073,0.181,0.112,0.273
					c0.298-0.357,0.627-0.776,0.996-1.266C148.242,354.415,147.874,354.746,147.488,355.086z M157.93,340.846
					c0.646,0.244,1.124,0.591,1.46,0.904c0.948,0.983,1.379,2.091,1.379,3.335c0,1.526-0.508,3.71-4.07,9.207
					c0.691-0.692,1.426-1.43,2.202-2.206c1.044-1.2,2.061-2.413,2.905-3.477c0.936-1.173,1.479-1.976,1.773-2.448
					c0.133-0.212,0.285-0.405,0.458-0.582l0,0c0,0,0.152-0.189,0.292-0.785c0.192-0.806,0.287-1.854,0.287-3.124
					c0-0.302-0.062-0.679-0.179-1.085c-0.145-0.507-0.391-1.134-0.748-1.905c-0.17-0.413-0.31-0.693-0.413-0.879
					c-0.35,0.066-0.728,0.078-1.094,0.024l0,0c-0.018,0-0.038-0.002-0.054-0.004c-0.308,0.174-0.832,0.496-1.651,1.074
					C159.739,339.405,158.89,340.058,157.93,340.846z"/>
			</g>
		</g>
		<g>
			
				<linearGradient id="SVGID_1_" gradientUnits="userSpaceOnUse" x1="224.4541" y1="-135.7993" x2="224.4754" y2="-135.7993" gradientTransform="matrix(1 0 0 -1 -106 206)">
				<stop  offset="0" style="stop-color:#001200"/>
				<stop  offset="0.2309" style="stop-color:#011402"/>
				<stop  offset="0.3217" style="stop-color:#051B07"/>
				<stop  offset="0.3878" style="stop-color:#0B2711"/>
				<stop  offset="0.442" style="stop-color:#14381F"/>
				<stop  offset="0.4889" style="stop-color:#1F4F31"/>
				<stop  offset="0.5307" style="stop-color:#2D6B48"/>
				<stop  offset="0.5683" style="stop-color:#3E8C62"/>
				<stop  offset="0.6024" style="stop-color:#51B181"/>
				<stop  offset="0.6059" style="stop-color:#53B584"/>
				<stop  offset="0.6515" style="stop-color:#3FA677"/>
				<stop  offset="0.7547" style="stop-color:#16885E"/>
				<stop  offset="0.8079" style="stop-color:#067D54"/>
				<stop  offset="0.9176" style="stop-color:#026652"/>
				<stop  offset="0.9951" style="stop-color:#005B51"/>
			</linearGradient>
			<path fill="url(#SVGID_1_)" d="M118.454,341.738c0.009,0.042,0.013,0.077,0.021,0.122
				C118.476,341.785,118.467,341.752,118.454,341.738z"/>
			<path fill="#203027" d="M182.983,333.84c0.626,0,1.254,0.035,1.897,0.095s1.314,0.13,2.021,0.214
				c0.249,0.049,0.693-0.07,1.34-0.344c0.644-0.259,1.44-0.732,2.393-1.386c0.909-0.545,1.69-1.151,2.33-1.84
				c0.645-0.688,1.147-1.469,1.522-2.382c0.167-0.428,0.402-1.105,0.714-2.054c0.312-0.962,0.673-2.184,1.089-3.666
				c0.162-0.794,0.371-1.767,0.621-2.932c0-0.78-0.241-1.385-0.714-1.802c-0.48-0.417-1.232-0.615-2.272-0.615
				c-0.869,0-1.642,0.097-2.299,0.271c-0.667,0.19-1.2,0.429-1.615,0.724c-0.958,1.116-1.787,2.111-2.487,2.976
				c-1.163,0.135-2.496,1.13-4.012,3.014c-1.511,1.888-2.268,3.452-2.268,4.698c0,1.412,0.153,2.527,0.464,3.357
				C182.021,332.999,182.446,333.555,182.983,333.84z"/>
			
				<linearGradient id="SVGID_2_" gradientUnits="userSpaceOnUse" x1="116.4063" y1="-154.731" x2="495.6484" y2="-154.731" gradientTransform="matrix(1 0 0 -1 -106 206)">
				<stop  offset="0" style="stop-color:#141E18"/>
				<stop  offset="0.257" style="stop-color:#152019"/>
				<stop  offset="0.3495" style="stop-color:#18271E"/>
				<stop  offset="0.4155" style="stop-color:#1D3227"/>
				<stop  offset="0.4689" style="stop-color:#244333"/>
				<stop  offset="0.5146" style="stop-color:#2D5942"/>
				<stop  offset="0.555" style="stop-color:#387556"/>
				<stop  offset="0.5907" style="stop-color:#45946C"/>
				<stop  offset="0.6207" style="stop-color:#53B584"/>
				<stop  offset="0.663" style="stop-color:#3FA677"/>
				<stop  offset="0.7586" style="stop-color:#16885E"/>
				<stop  offset="0.8079" style="stop-color:#067D54"/>
				<stop  offset="0.9176" style="stop-color:#026652"/>
				<stop  offset="0.9951" style="stop-color:#005B51"/>
			</linearGradient>
			<path fill="url(#SVGID_2_)" d="M388.308,368.895c-0.463-0.962-0.856-1.854-1.187-2.669c-0.662,0.529-1.223,0.908-1.672,1.138
				c-0.45,0.234-1.783,1.425-3.984,3.573c-0.869,0.839-1.676,1.482-2.422,1.968c-0.745,0.473-1.385,0.706-1.923,0.706
				c-0.247,0-0.45-0.053-0.592-0.189c-0.141-0.115-0.225-0.282-0.225-0.499c0-1.565,0.648-3.904,1.928-6.987
				c1.279-3.084,1.928-5.453,1.928-7.116c0-3.146-0.419-5.823-1.235-8.021c-0.829-2.192-2.078-3.913-3.736-5.161
				c-0.203-0.164-0.534-0.391-0.997-0.676c-0.9-0.913-1.849-1.779-2.823-2.606c-0.976-0.834-2.162-1.249-3.569-1.249
				c-1.332,0-3.062,0.701-5.197,2.113c-2.135,1.412-3.467,2.634-4.01,3.666l0.627,2.986c-0.865,1.981-2.276,4.13-4.196,6.433
				c-1.923,2.303-4.402,4.698-7.429,7.178c-0.662,0.966-1.328,1.861-1.994,2.744c0.005,0.004,0.005,0.009,0.009,0.013
				c-0.396,0.631-1.041,1.875-1.288,2.038c-0.313,0.212-0.547,0.354-0.715,0.438c-0.296,0.33-0.569,0.661-0.843,0.992
				c-0.256,0.331-0.556,0.68-0.838,1.059c-0.366,0.331-0.736,0.601-1.085,0.808c-0.354,0.212-0.724,0.305-1.09,0.305
				c-1.244,0-2.255-0.521-3.014-1.575c-0.771-1.059-1.129-2.255-1.085-3.582c0-1.901,0.031-3.892,0.128-5.97
				c-0.097-1.362-0.353-2.386-0.816-3.07c-0.454-0.679-1.116-1.023-1.98-1.023c-1.412,0-2.942,0.547-4.605,1.65
				c-1.646,1.09-3.441,2.774-5.338,5.064c-0.38,0.238-0.711,0.45-0.997,0.617c-0.296,0.168-0.583,0.336-0.878,0.499
				c-0.366,0.247-1.006,0.771-1.884,1.579c-0.904,0.808-2.038,1.861-3.454,3.141c-1.209,1.165-2.299,2.092-3.296,2.802
				c-0.992,0.697-1.945,1.195-2.858,1.482l-0.441-0.561c1.213-1.693,2.184-3.057,2.92-4.089c0.759-1.042,1.271-1.712,1.566-1.999
				c2.312-2.024,4.174-3.771,5.563-5.219c1.385-1.447,2.276-2.634,2.704-3.547c0.948-0.701,1.707-1.314,2.29-1.862
				c0.582-0.533,0.975-0.913,1.187-1.111c0.286-0.419,0.64-0.904,1.054-1.438c1.279-0.948,2.409-1.91,3.357-2.88
				c0.949-0.976,1.756-1.902,2.422-2.767c1.209-0.913,2.321-1.742,3.357-2.495c0.662-0.461,1.147-1.019,1.456-1.683
				c0.313-0.664,0.477-1.423,0.477-2.29c0-0.831-0.273-1.482-0.785-1.932c-0.521-0.45-1.315-0.678-2.396-0.678
				c-1.946,0-4.346,0.89-7.178,2.672c-2.837,1.777-6.133,4.446-9.909,8.007c-0.829,0.799-1.601,1.421-2.307,1.901
				c-0.706,0.485-1.275,0.838-1.738,1.085c-0.957,0.834-1.738,1.558-2.36,2.184c-0.617,0.618-1.09,1.139-1.434,1.544
				c-0.618,0.296-1.165,0.627-1.65,0.997c-0.472,0.38-0.855,0.83-1.151,1.377c-0.366,0.661-0.696,1.16-0.983,1.518
				c-0.296,0.353-0.547,0.626-0.75,0.838l-5.656,3.728c-0.414,0.702-0.771,1.293-1.08,1.77c-0.278,0.406-0.481,0.68-0.64,0.86
				c-0.438,0.349-0.883,0.644-1.333,0.873c-0.449,0.221-0.78,0.401-0.983,0.521c-1.032,0.583-2.219,1.077-3.547,1.491
				c-1.328,0.42-2.802,0.68-4.416,0.808c-0.993-0.216-1.849-0.437-2.572-0.688c-0.736-0.247-1.262-0.489-1.588-0.75
				c-0.582-0.326-1.02-0.812-1.346-1.478c-0.309-0.666-0.459-1.438-0.459-2.308c0-0.494,0.106-0.97,0.31-1.398
				c0.211-0.437,0.463-0.803,0.745-1.089c3.437-3.357,6.181-6.336,8.21-8.942c2.029-2.612,3.335-4.915,3.913-6.909l0.561-1.994
				c0.286-0.983,0.512-1.707,0.648-2.17c0.105-0.329,0.167-0.464,0.198-0.426c-0.159-0.949-0.3-1.824-0.41-2.609
				c-0.247-0.96-0.512-1.765-0.785-2.432c-0.27-0.663-0.543-1.151-0.843-1.495c-0.401-0.485-0.936-0.843-1.575-1.055
				c-0.644-0.202-1.482-0.309-2.519-0.309c-0.746,0-1.434,0.07-2.047,0.189c-0.631,0.119-1.188,0.261-1.686,0.438
				c-0.534,0.405-1.067,0.785-1.614,1.116c-0.529,0.33-1.028,0.688-1.491,1.054c-0.949,1.165-1.901,2.314-2.854,3.454
				c-0.957,1.139-1.857,2.18-2.735,3.142c-1.037,1.698-1.888,3.221-2.515,4.593c-0.64,1.367-1.151,2.501-1.531,3.419
				c-0.33,0.908-0.626,1.765-0.899,2.55c-0.261,0.78-0.463,1.469-0.582,2.051c-0.049,0.83-0.133,1.646-0.247,2.458
				c-0.133,0.803-0.261,1.623-0.384,2.452c-1.196,0.953-2.193,1.88-2.974,2.767c-0.785,0.891-1.963,2.718-4.813,5.329
				c-3.41,3.128-8.236,5.263-10.989,6.454c0.604-0.896,1.293-1.941,2.087-3.167c2.113-3.357,3.684-6.384,4.725-9.084
				c1.363-2.108,2.594-4.341,3.688-6.715c1.103-2.355,2.091-4.923,2.955-7.698c0.786-2.452,1.386-4.804,1.805-7.091
				c0.415-2.279,0.613-4.472,0.613-6.587c0-0.615-0.163-1.103-0.494-1.458c-0.335-0.344-0.847-0.534-1.558-0.534
				c-0.701,0-1.327,0.261-1.856,0.783c-0.534,0.519-0.953,1.29-1.24,2.323c-0.212,0.75-0.388,1.532-0.556,2.338
				c-0.163,0.805-0.34,1.602-0.499,2.397l0.499,1.861c-0.415,0.951-0.869,1.911-1.341,2.884c-0.473,0.975-0.878,1.945-1.209,2.894
				c-0.529,1.165-0.962,2.255-1.271,3.3c-0.309,1.028-0.547,1.98-0.71,2.859c-2.528,5.086-4.628,8.906-6.298,11.461
				c-1.68,2.55-2.934,3.82-3.759,3.82c-0.537-0.569-0.889-1.143-1.057-1.672c-0.122-0.503-0.194-0.927-0.22-1.311
				c-0.018-0.379-0.013-0.684,0.034-0.935c0.294-4.227,0.526-7.333,0.712-9.326c0.185-1.981,0.277-2.837,0.277-2.537
				c-0.12-0.3-0.246-0.582-0.375-0.869c-0.119-0.296-0.222-0.626-0.304-0.997c0.332-1.575,0.639-3.119,0.93-4.602
				c0-0.542,0.052-0.97,0.154-1.306c0.102-0.328,0.234-0.556,0.405-0.688c0.455-0.282,0.807-0.64,1.056-1.056
				c0.242-0.415,0.375-0.89,0.375-1.423c0-1.363-0.241-2.404-0.714-3.108c-0.481-0.712-1.258-1.057-2.331-1.057
				c-2.614,0-6.007,4.663-10.189,13.977c-4.19,9.325-6.715,13.989-7.587,13.989l-0.619-0.504c-0.122-0.149-0.243-0.771-0.37-1.826
				c-0.127-1.067-0.27-2.536-0.438-4.451c-0.122-1.777-0.226-3.247-0.308-4.411c-0.082-1.165-0.125-2.029-0.125-2.607
				c0-1.328,0.097-3.216,0.311-5.683c0.211-2.471,0.313-4.283,0.313-5.435c0-0.627-0.153-1.081-0.464-1.377
				c-0.318-0.282-0.761-0.437-1.341-0.437c-1.618,0-3.188,0.77-4.698,2.303c-1.517,1.531-3.041,3.913-4.575,7.151
				c-0.451,0.953-1.045,2.007-1.772,3.168c-0.728,1.16-1.564,2.387-2.521,3.666c-1.115,1.614-2.126,2.92-3.016,3.878
				c-0.893,0.975-1.667,1.649-2.335,2.033c-1.034,0.608-1.877,1.16-2.521,1.61c-0.64,0.45-1.048,0.772-1.213,0.939
				c0.002,0.005,0.004,0.009,0.007,0.014c-0.632,0.512-1.274,1.032-1.93,1.562c-0.682,0.556-1.334,1.116-1.957,1.649
				c-0.829,0.662-1.638,1.125-2.42,1.399c-0.793,0.273-1.556,0.405-2.306,0.405c-0.619,0-1.139-0.097-1.555-0.273
				c-0.408-0.189-0.718-0.485-0.933-0.9c-0.203-0.247-0.512-1.208-0.926-2.894c-0.415-1.672-0.769-2.93-1.055-3.763
				c-0.167-1.328-0.375-2.647-0.626-3.94c-0.246-1.314-0.52-2.606-0.806-3.887c-0.332-1.451-0.996-2.541-1.992-3.264
				c-0.989-0.724-2.214-1.09-3.659-1.09c-0.543,0-1.084,0.154-1.62,0.437c-0.537,0.287-1.019,0.772-1.428,1.425
				c-1.082,1.544-3.03,3.534-5.843,6c-2.819,2.471-4.787,4.465-5.907,6.004l-0.186,0.618l-0.375,0.437
				c0.01,0.004,0.015,0.021,0.025,0.026c-1.229,0.939-2.419,1.822-3.566,2.643c-1.164,0.829-2.281,1.579-3.352,2.232
				c-1.619,0.296-3.423,0.564-5.412,0.808c-1.073,0-2.295-0.645-3.662-1.95c-1.371-1.314-2.046-2.431-2.046-3.393
				c0-0.247,0.949-1.372,2.851-3.393c1.909-2.003,4.748-4.888,8.52-8.66c1.238-1.411,2.293-2.669,3.165-3.771
				c0.874-1.09,1.533-2.021,1.992-2.753c0.535-0.545,0.931-1.342,1.177-2.398c0.25-1.057,0.375-2.349,0.375-3.891
				c0-0.615-0.102-1.293-0.31-2.019c-0.208-0.721-0.524-1.518-0.932-2.397c-0.419-1.032-0.882-1.791-1.396-2.266
				c-0.516-0.474-1.052-0.677-1.593-0.596c-0.49,0-0.856,0.014-1.082,0.038c-0.227,0.024-0.235,0.037-0.034,0.037
				c-0.411-0.048-0.805-0.07-1.177-0.07c-0.585,0.177-1.567,0.745-2.955,1.721c-1.389,0.973-3.141,2.384-5.253,4.246
				c-1.861,1.661-3.436,3.084-4.722,4.259c-1.282,1.188-2.28,2.197-2.985,3.014c-0.535,0.296-1.055,0.596-1.552,0.904
				c-0.497,0.305-0.996,0.569-1.493,0.781c-0.332-0.168-0.68-0.702-1.055-1.589c-0.37-0.891-0.723-2.148-1.06-3.763
				c-0.244-1.447-0.619-2.55-1.115-3.296c-0.5-0.75-1.121-1.116-1.866-1.116c-0.287,0-0.653,0.144-1.084,0.404
				c-0.44,0.271-0.944,0.677-1.524,1.222c-1.159,0.951-1.997,1.994-2.517,3.133c-0.518,1.138-0.779,2.397-0.779,3.761
				c0,0.913,0.396,2.228,1.182,3.952c0.787,1.717,1.179,2.965,1.179,3.746c0,0.512-0.551,1.257-1.648,2.241
				c-1.092,0.997-2.743,2.196-4.934,3.608c-1.17,0.785-2.347,1.544-3.551,2.268c-1.199,0.724-2.421,1.482-3.666,2.276
				c0.008,0.009,0.01,0.018,0.017,0.031c-0.438,0.348-0.88,0.64-1.317,0.873c-0.459,0.225-0.788,0.406-0.996,0.517
				c-1.036,0.582-2.213,1.085-3.542,1.495c-1.328,0.419-2.796,0.68-4.411,0.808c-0.991-0.212-1.854-0.438-2.584-0.685
				c-0.726-0.251-1.256-0.489-1.586-0.75c-0.578-0.33-1.023-0.82-1.332-1.481c-0.313-0.667-0.463-1.435-0.463-2.304
				c0-0.498,0.097-0.97,0.309-1.398c0.211-0.44,0.454-0.807,0.741-1.094c3.444-3.353,6.177-6.335,8.209-8.942
				c2.03-2.611,3.338-4.914,3.914-6.908l0.561-1.992c0.286-0.986,0.508-1.707,0.652-2.173c0.104-0.331,0.169-0.465,0.198-0.428
				c-0.158-0.944-0.295-1.824-0.42-2.605c-0.246-0.961-0.513-1.769-0.775-2.431c-0.268-0.666-0.55-1.153-0.845-1.495
				c-0.41-0.487-0.938-0.841-1.583-1.057c-0.64-0.201-1.478-0.309-2.515-0.309c-0.739,0-1.429,0.07-2.048,0.189
				c-0.618,0.119-1.181,0.261-1.679,0.437c-0.541,0.406-1.079,0.785-1.616,1.116c-0.536,0.331-1.035,0.688-1.494,1.055
				c-0.948,1.167-1.901,2.313-2.854,3.452c-0.953,1.141-1.865,2.186-2.733,3.147c-1.039,1.694-1.877,3.214-2.521,4.588
				c-0.644,1.368-1.147,2.502-1.525,3.419c-0.329,0.913-0.627,1.765-0.896,2.55c-0.272,0.785-0.468,1.47-0.589,2.052
				c-0.047,0.829-0.127,1.649-0.248,2.453c-0.129,0.807-0.251,1.632-0.377,2.462c-1.2,0.948-2.191,1.87-2.98,2.761
				c-0.786,0.892-1.432,1.77-1.929,2.647c0.007,0.009,0.009,0.018,0.017,0.031c-0.189,0.146-0.383,0.273-0.577,0.37
				c-0.207,0.097-0.41,0.159-0.618,0.159c-0.951,0-2.059-0.821-3.325-2.458c-1.26-1.641-2.699-4.115-4.308-7.438
				c-0.254-0.49-0.687-1.085-1.308-1.77c-0.619-0.675-1.412-1.434-2.358-2.268c-0.209-0.163-0.418-0.309-0.618-0.423
				c-0.211-0.133-0.42-0.189-0.621-0.189c-1.159,0-2.341,0.233-3.539,0.71c-1.2,0.477-2.384,1.173-3.54,2.073
				c-1.115,0.834-2.155,1.65-3.106,2.436c-0.948,0.78-1.903,1.574-2.85,2.359c-0.584,0.83-1.094,1.505-1.523,2.052
				c-0.436,0.529-0.819,0.948-1.151,1.235c-0.495-0.238-0.745-0.512-0.745-0.808c0-0.233,0.018-0.512,0.061-0.803
				c0.041-0.286,0.145-0.64,0.31-1.059c0.912-2.145,1.555-4.398,1.925-6.736c0.375-2.339,0.561-4.782,0.561-7.311
				c0-1.74-0.278-3.048-0.834-3.935c-0.561-0.892-1.443-1.342-2.643-1.342c-1.116,0-2.607,0.676-4.475,2.017
				c-1.864,1.354-4.034,3.393-6.523,6.123c-2.897,3.189-5.24,5.683-7.026,7.46c-1.778,1.778-2.978,2.814-3.605,3.11
				c-0.287,0-0.494-0.07-0.621-0.216c-0.12-0.15-0.186-0.366-0.186-0.653c0.25-1.041,0.563-2.122,0.934-3.238
				c0.331-1.398,0.593-2.783,0.778-4.125c0.186-1.345,0.277-2.598,0.277-3.763c0-1.365-0.268-2.409-0.806-3.146
				c-0.537-0.724-1.366-1.09-2.485-1.09c-1.786,0.746-3.423,1.425-4.914,1.992c-1.493,1.53-2.806,2.896-3.925,4.069
				c-1.116,1.187-2.071,2.148-2.86,2.895c-1.541,1.416-3.164,3.013-4.888,4.817c-1.722,1.804-3.494,3.843-5.319,6.123
				c-0.416,0.582-0.791,1.116-1.116,1.588c-0.334,0.477-0.626,0.856-0.879,1.151c0.669,1.368,1.204,2.502,1.62,3.42
				c0.411,0.913,0.704,1.672,0.869,2.294c0.251-0.287,0.479-0.583,0.689-0.896c0.207-0.313,0.37-0.645,0.495-0.976
				c1.203-1.151,2.222-2.17,3.053-3.035c0.834-0.878,1.54-1.641,2.124-2.303c0.876-1.209,1.651-2.091,2.339-2.647
				c0.686-0.556,1.278-0.842,1.773-0.842c0.291,0,0.528,0.097,0.714,0.286c0.186,0.186,0.282,0.429,0.282,0.711
				c0,1.795-0.741,4.844-2.214,9.171c-1.468,4.328-2.211,7.178-2.211,8.541c0,0.583,0.323,1.02,0.968,1.307
				c0.638,0.295,1.584,0.437,2.832,0.437c0.416,0,1.359-0.692,2.832-2.078c1.468-1.386,3.446-3.529,5.936-6.433
				c1.569-1.742,3.115-3.476,4.632-5.192c1.509-1.72,2.992-3.405,4.442-5.064c1.325-0.997,2.29-1.756,2.886-2.307
				c0.604-0.529,1.15-1.081,1.646-1.61c0.464-0.415,0.864-0.724,1.216-0.9c0.351-0.189,0.675-0.286,0.963-0.286
				c0.334,0,0.621,0.132,0.873,0.379c0.246,0.247,0.375,0.596,0.375,1.059c-0.375,2.607-0.679,4.694-0.903,6.273
				c-0.228,1.579-0.404,2.634-0.528,3.168c-0.04,0.414-0.226,1.138-0.556,2.184c-0.336,1.028-0.768,2.422-1.311,4.16
				c-0.408,1.367-0.74,2.554-0.991,3.573c-0.25,1.006-0.37,1.826-0.37,2.457c0,0.534,0.079,1.006,0.246,1.398
				c0.165,0.389,0.415,0.653,0.745,0.772c1.032,0.128,1.861,0.189,2.489,0.189c1.239,0,4.364-3.181,9.374-9.538
				c5.008-6.37,8.59-9.551,10.747-9.551c1.61,0,3.941,1.861,6.988,5.563c3.041,3.714,5.99,5.563,8.85,5.563
				c0.866,0,1.882-0.296,3.041-0.899c1.165-0.592,2.484-1.474,3.979-2.643c-0.44-1.179-0.967-2.432-1.533-3.715
				c0.243,0.516,0.47,1.001,0.664,1.425c0.411,0.913,0.704,1.672,0.869,2.29c0.495-0.618,0.953-1.081,1.364-1.403
				c0.413-0.309,0.79-0.463,1.12-0.463c0.416,0,0.791,0.225,1.118,0.661c0.332,0.433,0.688,1.104,1.062,2.008
				c0.454,1.129,0.886,2.091,1.301,2.894c0.416,0.82,0.83,1.425,1.245,1.84c0.785,0.864,1.769,1.531,2.952,1.98
				c1.179,0.464,2.538,0.688,4.072,0.688c1.162,0,2.164-0.093,3.014-0.282c0.843-0.181,1.605-0.477,2.27-0.892
				c1.612,0,3.386-0.591,5.311-1.777c1.929-1.178,4.075-2.934,6.438-5.254c-0.243-0.702-0.578-1.536-0.993-2.479
				c-0.192-0.446-0.405-0.922-0.625-1.425c0.282,0.595,0.534,1.138,0.75,1.614c0.412,0.913,0.705,1.672,0.87,2.29
				c0.824-0.702,1.581-1.298,2.268-1.77c0.686-0.477,1.274-0.834,1.773-1.094c1.405-1.314,2.6-2.444,3.569-3.38
				c0.979-0.939,1.772-1.765,2.396-2.515c0.538-0.498,0.997-0.943,1.367-1.341c0.37-0.388,0.68-0.71,0.935-0.962l0.808-0.247
				c0.948,1.412,1.746,2.731,2.391,3.948c0.64,1.223,1.15,2.378,1.525,3.441c0,1.085-1.961,3.37-5.877,6.869
				c-3.914,3.512-5.871,5.717-5.871,6.621c0,0.415,0.11,0.724,0.341,0.896c0.224,0.193,0.547,0.291,0.961,0.291h0.56
				c1.247-0.666,2.319-1.235,3.234-1.712c0.908-0.472,1.696-0.864,2.361-1.151c0.494-0.534,0.962-1.041,1.397-1.518
				c0.431-0.485,0.838-0.948,1.213-1.398c0.741-0.785,1.43-1.447,2.049-1.959c0.619-0.521,1.141-0.971,1.555-1.341l0.315-0.19
				l0.429,0.19l6.404,6.335c0.415,0.295,1.001,0.547,1.771,0.745c0.766,0.217,1.75,0.31,2.952,0.31c0.664,0,1.335-0.093,2.021-0.31
				c0.687-0.198,1.396-0.498,2.141-0.864c0.584-0.296,1.205-0.604,1.866-0.957c0.662-0.357,1.283-0.68,1.868-0.962
				c1.737-0.715,3.133-1.368,4.188-1.959c1.061-0.604,1.798-1.116,2.211-1.531c0.657-0.533,1.218-1.032,1.676-1.495
				c0.454-0.45,0.829-0.781,1.122-0.992c-0.006-0.018-0.016-0.036-0.02-0.049c1.597-1.752,2.944-3.066,4.055-3.953
				c1.122-0.891,2.013-1.341,2.681-1.341c0.244,0,0.556,0.238,0.926,0.715c0.375,0.472,0.81,1.195,1.304,2.148
				c0.415,0.613,0.79,1.16,1.12,1.61c0.332,0.463,0.582,0.852,0.745,1.187c1.367,3.975,2.606,6.396,3.729,7.271
				c1.118,0.869,3.563,1.306,7.33,1.306c0.625,0,1.536-0.309,2.734-0.904c1.205-0.601,2.651-1.526,4.358-2.762
				c1.528-1.116,2.85-2.101,3.94-2.956c1.098-0.852,1.98-1.61,2.644-2.271l-0.015-0.04c0.545-0.675,1.426-1.416,2.661-2.232
				c1.287-0.855,2.2-1.588,2.742-2.21c0.7-0.83,1.334-1.553,1.895-2.171c0.561-0.626,1.023-1.138,1.403-1.553
				c0.289-0.331,0.605-0.64,0.933-0.936c0.332-0.291,0.705-0.56,1.123-0.807c1.282,7.79,2.259,13.711,2.923,17.743
				c0.664,4.036,1.163,6.216,1.497,6.56l1.055,1.116c0.334,0.168,0.612,0.261,0.838,0.283c0.235,0.013,0.47,0.026,0.714,0.026
				c0.872,0,1.648-0.142,2.336-0.429c0.682-0.295,1.273-0.736,1.771-1.314c0.332-0.745,0.689-1.474,1.087-2.206
				c0.391-0.723,0.757-1.46,1.084-2.205l2.053-3.918c0.328-0.569,0.569-1.138,0.712-1.672c0.146-0.547,0.239-1.019,0.277-1.438
				c0.994-1.693,1.886-3.26,2.682-4.72c0.657-1.363,1.209-2.334,1.645-2.916c0.436-0.583,0.756-0.865,0.965-0.865l0.311,0.494
				c0,0.371-0.107,0.904-0.311,1.605c-0.209,0.711-0.311,1.315-0.311,1.813c0,4.805,0.403,8.408,1.214,10.817
				c0.804,2.396,1.972,3.596,3.507,3.596c1.2,0,2.379-0.345,3.535-1.02c0.854-0.507,1.691-1.239,2.521-2.091
				c-0.344,0.701-0.597,1.288-0.502,1.5c0.404,0.913,15.481-6.388,18.904-8.718c2.131-1.451,2.422-1.949,2.842-2.268
				c0.414-0.313,0.794-0.463,1.111-0.463c0.415,0,0.794,0.221,1.129,0.662c0.331,0.428,0.676,1.103,1.055,2.007
				c0.45,1.125,0.892,2.087,1.306,2.895c0.415,0.815,0.816,1.425,1.235,1.839c0.794,0.865,1.778,1.531,2.965,1.985
				c1.174,0.464,2.523,0.684,4.067,0.684c1.151,0,2.162-0.092,3.014-0.282c0.842-0.176,1.601-0.477,2.268-0.896
				c1.614,0,3.379-0.591,5.312-1.773c1.896-1.155,3.992-2.872,6.3-5.131c0,0.005,0.004,0.014,0.004,0.018
				c0,0.345-0.035,0.768-0.119,1.315c-0.953,0.948-1.663,1.932-2.148,2.942c-0.472,1.019-0.71,2.087-0.71,3.203
				c0,2.029,0.477,3.533,1.425,4.508c0.962,0.976,2.431,1.461,4.425,1.461c0.287,0,0.75-0.137,1.363-0.406
				c0.613-0.273,1.363-0.626,2.228-1.081c1.377-0.763,2.599-1.482,3.701-2.184c1.107-0.701,2.065-1.411,2.895-2.113
				c0.419-0.414,1.116-1.103,2.117-2.051c0.993-0.953,2.215-2.185,3.662-3.666c1.08-0.869,2.021-1.615,2.836-2.246
				c0.799-0.613,1.47-1.125,2.008-1.548c0.344-0.371,0.64-0.667,0.878-0.904c0.247-0.226,0.472-0.441,0.688-0.653
				c0.33,0.415,0.542,0.82,0.648,1.222c0.097,0.393,0.158,0.772,0.158,1.139c0.247,3.119,1.09,5.435,2.55,6.966
				c1.447,1.53,3.512,2.298,6.212,2.298c1.156,0,2.316-0.233,3.48-0.705c1.16-0.477,2.356-1.2,3.604-2.148
				c1.032-0.83,2.017-1.708,2.956-2.634c0.922-0.936,2.387-3.154,3.34-4.028c0.366-0.405,0.64-0.785,0.803-1.12
				c0.167-0.317,0.286-0.578,0.384-0.746c1.358-0.913,2.462-1.756,3.282-2.536c0.829-0.785,1.434-1.496,1.804-2.122
				c0.618-0.322,1.412-0.962,2.36-1.928c0.949-0.948,2.029-2.171,3.243-3.662c1.111-1.367,2.214-2.501,3.282-3.419
				c1.08-0.913,2.077-1.614,2.986-2.113c1.367,0.168,2.391,0.816,3.075,1.981c0.688,1.164,1.023,2.85,1.023,5.042
				c0,1.778-0.229,3.785-0.715,6.026c-0.472,2.228-1.16,4.663-2.078,7.274c-0.212,0.583-0.459,1.151-0.745,1.708
				c-0.296,0.556-0.561,1.103-0.803,1.646c-0.336,0.705-0.596,1.358-0.786,1.954c-0.181,0.596-0.273,1.129-0.273,1.584
				c0,1.16,0.438,2.003,1.302,2.523c0.869,0.512,2.175,0.771,3.918,0.771c1.08-0.331,2.024-0.771,2.858-1.306
				c3.154-1.896,5.85-3.596,8.104-5.064c2.263-1.469,4.103-2.718,5.505-3.763c0.667-0.578,1.235-1.086,1.708-1.554
				c0.485-0.449,0.904-0.842,1.283-1.182C389.194,370.862,388.758,369.843,388.308,368.895z M102.902,355.311
				c-0.102-0.105-0.156-0.273-0.156-0.521c0-1.129,0.771-2.872,2.307-5.258c1.526-2.383,2.751-3.567,3.664-3.567
				c0.289,0,0.505,0.106,0.654,0.342c0.143,0.226,0.217,0.521,0.217,0.892c0,0.596-0.124,1.164-0.375,1.742
				c-0.246,0.583-0.621,1.165-1.121,1.743c-0.414,0.449-0.839,0.922-1.271,1.402c-0.436,0.473-0.882,0.922-1.341,1.337
				c-0.241,0.406-0.518,0.855-0.804,1.332c-0.287,0.473-0.662,0.706-1.116,0.706C103.226,355.466,103.006,355.417,102.902,355.311z
				 M146.997,360.446c-0.287,0-0.601-0.226-0.931-0.662c-0.334-0.428-0.701-1.129-1.117-2.078c-0.375-0.785-0.664-1.469-0.873-2.051
				c-0.202-0.583-0.269-1.081-0.185-1.491v-0.428c1.536-1.328,2.847-2.515,3.948-3.547c1.098-1.032,2.017-1.91,2.763-2.607
				c0.501-0.287,0.944-0.536,1.341-0.75c0.394-0.203,0.737-0.368,1.028-0.499c0.573-0.533,1.05-1.008,1.425-1.425
				c0.33-0.379,0.631-0.626,0.9-0.783c0.268-0.143,0.528-0.214,0.778-0.214c0.454,0,0.784,0.108,0.996,0.31
				c0.206,0.216,0.312,0.498,0.312,0.864c0,1.376-1.351,4.099-4.041,8.152C150.644,357.292,148.531,359.7,146.997,360.446z
				 M168.384,366.666c0.121,0.203,0.223,0.429,0.307,0.676c0.198,0.596,0.394,1.129,0.583,1.632c-0.402-0.838-0.8-1.729-1.2-2.66
				C168.182,366.42,168.293,366.517,168.384,366.666z M280.359,356.542c-0.105-0.106-0.149-0.273-0.149-0.521
				c0-1.125,0.768-2.868,2.289-5.255c1.545-2.387,2.762-3.571,3.675-3.571c0.287,0,0.499,0.106,0.653,0.343
				c0.142,0.229,0.216,0.521,0.216,0.891c0,0.596-0.123,1.165-0.37,1.743c-0.247,0.582-0.626,1.164-1.12,1.742
				c-0.411,0.454-0.834,0.927-1.275,1.403c-0.441,0.472-0.878,0.922-1.341,1.341c-0.247,0.401-0.521,0.852-0.808,1.328
				c-0.282,0.472-0.666,0.71-1.116,0.71C280.682,356.7,280.47,356.647,280.359,356.542z"/>
		</g>
	</g>
	<g>
		<g>
			<g>
				<path fill="#FFFFFF" d="M165.37,297.56c-1.864,0-3.708-0.021-5.561-0.03h-0.783c-2.853-0.011-5.222-1.484-6.498-4.028
					c-0.866-1.739-1.587-3.141-2.266-4.376c-1.576-2.873-0.783-5.201-0.176-6.345c0.176-0.329,0.443-0.74,0.803-1.143
					c-3.223-1.03-5.747-3.348-7.208-6.663c-2.42-5.489-4.5-10.999-6.231-15.675l-0.123-0.329
					c-1.906-5.181-3.894-10.547-5.417-16.088c-3.914-14.16-6.581-25.405-8.548-36.045c-2.647,3.873-4.274,7.261-5.16,10.701
					c-1.998,7.713-0.597,13.954,4.388,19.66c1.699,1.936,3.667,3.646,6.086,5.612c2.358,1.915,2.874,5.304,1.205,7.837
					c-1.647,2.523-4.974,3.389-7.662,1.988c-2.699-1.422-5.376-3.193-8.157-5.458c-6.344-5.171-10.69-10.835-13.254-17.333
					c-3.265-8.25-3.172-17.097,0.278-26.293c2.842-7.59,7.395-14.635,14.305-22.183c7.837-8.569,17.363-16.417,29.958-24.733
					c13.398-8.846,28.353-16.879,47.044-25.252c2.792-1.257,5.635-2.446,8.384-3.595c1.802-0.762,3.595-1.514,5.387-2.291
					c1.04-0.448,2.111-0.685,3.172-0.685c1.854,0,3.584,0.685,5.108,2.039c2.739,2.394,6.076,3.712,9.454,3.712
					c3.203,0,6.261-1.148,8.856-3.326c4.635-3.914,6.118-8.656,4.553-14.505c-1.515-5.655-5.089-8.95-10.938-10.073
					c-0.917-0.175-1.844-0.262-2.75-0.262c-6.684,0-12.245,4.763-13.512,11.57c-0.393,2.106-1.647,4.902-5.428,6.195
					c-10.937,3.733-21.936,8.383-32.667,13.815c-9.28,4.686-18.136,9.825-26.375,15.284c-5.891,3.903-11.803,8.197-17.58,12.77
					c-0.298,0.237-0.587,0.433-0.927,0.669l-0.278,0.186c-1.72,1.195-3.944,1.38-5.839,0.505c-1.906-0.886-3.203-2.709-3.398-4.799
					c-0.207-2.153-0.258-4.171-0.31-6.118c-0.021-0.85-0.041-1.688-0.072-2.533c-0.124-2.76-0.144-5.489-0.113-8.213
					c-2.667,1.426-5.386,2.991-8.229,4.752c-7.466,4.67-13.82,9.423-19.413,14.5c-1.781,1.617-3.573,1.957-4.778,1.957
					c-1.565,0-3.059-0.551-4.459-1.632c-6.911-5.413-12.256-11.931-16.148-17.003c-6.313-8.244-11.854-17.441-16.931-28.121
					c-1.432-3.018-0.793-6.277,1.688-8.501c2.204-1.972,4.357-3.955,6.52-5.937l0.545-0.5c0.525-0.479,2.111-1.937,4.593-1.937
					c0.505,0,1.05,0.067,1.597,0.216c0.515-2.755,2.029-5.201,4.449-7.142c9.783-7.822,20.247-15.716,31.091-23.471
					c11.453-8.177,21.761-15.139,31.524-21.297c1.782-1.123,4.202-2.404,7.158-2.404c0.69,0,1.338,0.066,1.966,0.19
					c0.01-0.072,0.01-0.134,0.01-0.196c0.104-1.282,0.701-3.681,3.615-5.283c4.357-2.42,8.043-4.29,11.586-5.865
					c0.989-0.442,2.008-0.669,3.028-0.669c1.122,0,2.832,0.283,4.521,1.673c6.561,5.371,14.192,8.383,23.358,9.238
					c8.403,0.777,16.364-0.484,23.696-3.739c5.14-2.281,9.229-5.314,12.524-9.3c1.874-2.266,4.109-2.739,5.654-2.739
					c0.535,0,1.05,0.052,1.606,0.154c13.635,2.724,27.508,7.055,41.215,12.884c12.894,5.479,25.768,12.358,39.341,21.015
					c3.399,2.158,6.674,4.408,9.712,6.514c2.605,1.802,4.273,4.109,4.954,6.7c0.689-0.222,1.359-0.293,1.936-0.293
					c1.494,0,2.894,0.494,4.182,1.473c2.544,1.941,5.324,4.016,8.455,6.328c2.421,1.782,3.883,5.217,1.71,8.883
					c-3.771,6.55-7.498,13.048-11.205,19.537c-4.151,7.271-8.29,14.531-12.39,21.813c-1.895,3.341-4.861,3.707-6.035,3.707
					c-0.958,0-1.915-0.206-2.935-0.613c-9.084-3.712-18.013-7.327-27.034-10.654c1.586,5.118,3.213,10.165,4.778,15.016
					c0.638,1.967,1.308,3.924,1.987,5.871c0.721,2.095,1.442,4.191,2.122,6.297c2.143,6.658,4.583,13.116,7.569,20.763
					c1.02,2.616,0.803,6.272-2.853,8.702c-11.35,7.528-24.017,14.501-38.724,21.309c-8.434,3.903-17.436,7.692-28.331,11.915
					c-3.101,1.216-6.015,0.618-8.435-1.597c-4.13-3.789-8.6-4.758-13.883-3.059c-5.181,1.669-8.271,5.16-9.444,10.69
					c-0.772,3.625,0.072,7.539,2.308,10.7c2.265,3.192,5.674,5.294,9.381,5.798c0.69,0.082,1.381,0.135,2.061,0.135
					c6.694,0,12.174-4.459,13.666-11.103c0.876-3.955,3.563-5.562,5.654-6.199c12.327-3.821,24.954-8.919,37.528-15.191
					c18.826-9.392,34.747-19.793,48.661-31.782c7.034-6.055,12.75-11.941,17.467-17.976c5.077-6.458,8.394-12.147,10.474-17.889
					c0.011-0.042,0.021-0.072,0.041-0.108c0.372-0.984,0.907-1.611,1.123-1.879c1.545-1.998,4.201-2.817,6.591-2.008
					c2.38,0.798,4.027,2.992,4.048,5.51c0.01,2.065-0.329,3.795-0.597,5.186l-0.125,0.612c-1.627,8.672-5.097,17.344-10.597,26.494
					c-7.508,12.492-17.437,24.006-30.31,35.108c4.202,7.25,8.291,13.027,12.74,18.012c2.307,2.564,2.534,5.974,0.566,8.898
					c-6.529,9.67-14.984,18.156-25.839,25.963c-10.835,7.786-23.42,14.377-38.487,20.165c-14.119,5.417-29.187,9.558-46.087,12.646
					c-12.697,2.317-25.757,3.801-38.806,4.388C172.95,297.497,169.645,297.56,165.37,297.56z M288.79,239.124
					c1.638,0,3.244,0.69,4.398,1.958c1.678,1.884,1.997,4.644,0.752,6.858c-1.093,1.915-2.545,2.79-3.163,3.162
					c-5.283,3.346-10.885,6.487-17.198,9.618c-12.091,6.024-25.088,11.276-38.65,15.644c7.601-2.06,14.829-4.397,21.802-7.075
					c14.108-5.417,25.829-11.545,35.818-18.744c8.631-6.188,15.51-12.82,20.969-20.174c-4.748-5.736-9.136-12.358-13.656-20.547
					c-1.823-3.274-1.143-6.838,1.771-9.258c4.212-3.491,8.085-7.024,11.657-10.597c-12.615,9.825-26.703,18.578-42.811,26.611
					c-12.514,6.231-25.089,11.381-37.437,15.304c-3.306,10.948-13.192,18.426-24.686,18.426c-1.194,0-2.41-0.073-3.615-0.237
					c-6.962-0.928-13.326-4.82-17.466-10.69c-4.131-5.839-5.676-13.11-4.223-19.948c2.08-9.764,8.085-16.51,17.384-19.495
					c2.822-0.907,5.654-1.37,8.394-1.37c5.571,0,10.721,1.833,15.313,5.458c9.744-3.81,17.91-7.261,25.593-10.824
					c12.873-5.963,24.089-12.029,34.171-18.497c-2.224-5.767-4.479-11.833-6.446-17.936c-0.659-2.034-1.359-4.052-2.05-6.065
					c-0.7-2.029-1.41-4.058-2.06-6.092c-2.492-7.673-5.118-15.85-7.519-24.073c-2.059-4.501,0.474-7.313,1.298-8.053
					c1.185-1.082,2.74-1.669,4.347-1.669c1.586,0,2.791,0.556,3.429,0.85l0.062,0.026c11.01,3.779,21.721,8.033,32.555,12.44
					c1.154-2.023,2.297-4.047,3.45-6.076c-0.988,0.798-2.225,1.272-3.543,1.308c-2.307,0.062-4.408-1.2-5.438-3.244
					c-1.247-2.477-0.731-4.634-0.557-5.35c2.399-11.9,5.676-22.323,10.011-31.808c0.021-0.046,0.041-0.093,0.062-0.128
					c-0.031-0.016-0.062-0.036-0.072-0.057c-2.945-2.039-6.106-4.202-9.34-6.261c-13.028-8.311-25.325-14.882-37.611-20.103
					c-12.163-5.16-24.419-9.083-36.499-11.669c-4.13,4.429-9.196,7.982-15.087,10.587c-9.176,4.084-19.177,5.674-29.578,4.717
					c-10.402-0.968-19.629-4.356-27.457-10.098c-0.432,0.217-0.885,0.438-1.339,0.659c3.656,2.585,7.529,4.722,11.535,6.37
					c7.98,3.295,16.221,4.964,24.5,4.964c4.459,0,9.043-0.484,13.625-1.437c1.206-0.257,2.463-0.603,3.78-0.963
					c0.68-0.185,1.359-0.371,2.05-0.551c2.234-0.571,4.604,0.201,6.056,1.982c1.451,1.792,1.74,4.279,0.72,6.344
					c-1.061,2.142-2.8,3.023-3.377,3.311l0.052-0.031c-2.75,1.561-5.809,2.863-9.114,3.856c-9.537,2.874-19.764,3.569-30.525,2.07
					c-13.472-1.875-25.85-6.89-36.839-14.908c-0.319-0.227-0.545-0.386-0.72-0.484c-0.186,0.087-0.443,0.232-0.793,0.453
					c-9.578,6.041-19.702,12.878-30.958,20.932c-10.669,7.616-20.958,15.376-30.587,23.069c-0.103,0.083-0.165,0.145-0.216,0.196
					c0.01,0.082,0.031,0.227,0.072,0.422c2.915,12.297,7.106,24.068,12.482,34.985c1.318,2.333,1.185,4.99-0.381,7.157
					c-0.989,1.365-2.502,2.235-4.171,2.411c0.927,0.942,1.885,1.864,2.894,2.77c5.345-4.547,11.288-8.852,18.043-13.069
					c5.912-3.692,11.503-6.673,17.044-9.093c0.566-0.289,1.709-0.85,3.244-0.85c1.689,0,3.265,0.669,4.449,1.89
					c1.267,1.318,1.875,3.038,1.782,5.119c-0.165,4.387-0.309,8.702-0.227,12.976c3.368-2.472,6.777-4.851,10.175-7.096
					c8.61-5.706,17.878-11.077,27.559-15.973c10.608-5.366,21.463-10.01,32.309-13.811c3.067-11.318,12.914-19.037,24.634-19.037
					c1.658,0,3.326,0.16,4.964,0.479c10.289,1.967,17.446,8.579,20.124,18.604c2.76,10.279-0.207,19.727-8.353,26.592
					c-4.748,4-10.432,6.112-16.468,6.112c-5.417,0-10.763-1.787-15.263-5.077c-1.092,0.463-2.193,0.922-3.285,1.375
					c-2.677,1.123-5.448,2.291-8.115,3.486c-18.095,8.109-32.523,15.834-45.376,24.325c-11.03,7.287-19.465,14.125-26.396,21.406
					c1.308-0.278,2.297-0.154,3.316,0.175c1.946,0.659,4.161,2.543,4.294,5.798c0.33,1.874,0.649,3.707,0.979,5.562l0.484,2.739
					c1.926,11.03,4.634,22.626,8.764,37.569c1.401,5.058,3.203,9.959,5.129,15.14l0.113,0.329c1.669,4.512,3.667,9.806,5.953,15.017
					c0.051,0.082,0.082,0.144,0.113,0.185c0.073,0.021,0.196,0.03,0.382,0.03h0.186c5.798-0.277,11.987-0.72,19.495-1.399
					c10.051-0.928,19.742-2.193,28.847-3.779c13.48-2.338,25.809-5.15,37.672-8.579c15.593-4.501,29.568-9.723,42.75-15.974
					c0.535-0.247,1.081-0.494,1.689-0.752l0.813-0.35C287.194,239.29,287.987,239.124,288.79,239.124z M326.37,89.582
					c-4.232,6.591-8.085,13.697-11.483,21.179c-0.299,0.649-0.566,1.303-0.854,1.962c1.287-2.296,2.596-4.577,3.903-6.864
					c3.007-5.268,6.035-10.536,9.063-15.804C326.782,89.891,326.576,89.736,326.37,89.582z"/>
			</g>
		</g>
		<g>
			<path fill="none" stroke="#FFFFFF" stroke-width="0.5" stroke-miterlimit="10" d="M224.371,106.168
				c5.727,0,10.382,4.65,10.382,10.376c0,5.736-4.655,10.381-10.382,10.381c-5.736,0-10.38-4.645-10.38-10.381
				C213.991,110.818,218.635,106.168,224.371,106.168z"/>
			<path fill="none" stroke="#FFFFFF" stroke-width="0.5" stroke-miterlimit="10" d="M208.625,214.242
				c5.726,0,10.371,4.646,10.371,10.382c0,5.726-4.646,10.37-10.371,10.37c-5.736,0-10.381-4.645-10.381-10.37
				C198.244,218.888,202.889,214.242,208.625,214.242z"/>
			
				<linearGradient id="SVGID_3_" gradientUnits="userSpaceOnUse" x1="158.3267" y1="42.9775" x2="453.7314" y2="42.9775" gradientTransform="matrix(1 0 0 -1 -106 206)">
				<stop  offset="0" style="stop-color:#53B584"/>
				<stop  offset="0.119" style="stop-color:#3FA677"/>
				<stop  offset="0.3883" style="stop-color:#16885E"/>
				<stop  offset="0.5271" style="stop-color:#067D54"/>
				<stop  offset="0.8015" style="stop-color:#026652"/>
				<stop  offset="0.9951" style="stop-color:#005B51"/>
			</linearGradient>
			<path fill="url(#SVGID_3_)" d="M124.958,247.415c-2.554-1.339-4.913-2.987-7.168-4.81c-4.995-4.067-9.094-8.868-11.483-14.924
				c-2.915-7.353-2.42-14.736,0.319-22.039c2.894-7.713,7.621-14.263,13.141-20.277c8.486-9.279,18.374-16.879,28.837-23.795
				c14.644-9.671,30.216-17.622,46.209-24.789c4.542-2.029,9.146-3.878,13.697-5.85c0.813-0.35,1.359-0.242,2.04,0.351
				c7.6,6.699,18.289,7.003,26.014,0.473c6.416-5.407,8.62-12.487,6.457-20.545c-2.102-7.895-7.507-12.802-15.53-14.341
				c-10.999-2.106-21.133,5.021-23.182,16.025c-0.176,0.983-0.649,1.385-1.515,1.684c-11.473,3.913-22.615,8.661-33.439,14.135
				c-9.28,4.696-18.28,9.881-26.952,15.623c-6.189,4.094-12.173,8.46-17.981,13.074c-0.268,0.196-0.546,0.371-0.917,0.628
				c-0.268-2.868-0.247-5.608-0.35-8.347c-0.227-5.463-0.051-10.922,0.154-16.391c0.041-1.349-0.587-0.783-1.132-0.551
				c-5.696,2.477-11.113,5.448-16.375,8.728c-7.178,4.48-14.006,9.439-20.268,15.145c-0.617,0.561-0.988,0.515-1.637,0.025
				c-5.819-4.567-10.618-10.108-15.087-15.942c-6.447-8.404-11.741-17.508-16.283-27.065c-0.33-0.674-0.268-1.071,0.299-1.571
				c2.399-2.137,4.748-4.309,7.116-6.482c0.495-0.443,0.762-0.639,1.061,0.226c3.944,11.334,10.124,21.452,17.137,31.107
				c0.958,1.324,1.957,2.616,2.997,3.976c0.319-0.453,0.062-0.695-0.062-0.922c-5.747-11.633-10.021-23.774-13.007-36.396
				c-0.649-2.734,0.01-4.84,2.204-6.591c10.062-8.048,20.35-15.788,30.834-23.275c10.227-7.313,20.608-14.403,31.246-21.112
				c3.286-2.07,5.047-2.014,8.147,0.257c10.227,7.456,21.617,12.07,34.161,13.821c9.475,1.318,18.816,0.896,28.023-1.875
				c2.749-0.829,5.396-1.911,7.898-3.337c0.319-0.185,0.722-0.298,0.937-0.762c-2.07,0.546-4.077,1.154-6.097,1.576
				c-14.253,2.981-28.125,1.715-41.585-3.841c-6.777-2.807-12.873-6.685-18.395-11.483c-0.257-0.227-0.493-0.474-0.772-0.69
				c-0.618-0.473-0.597-0.782,0.125-1.194c3.646-2.014,7.343-3.94,11.144-5.645c0.556-0.247,0.937-0.206,1.421,0.191
				c7.733,6.333,16.652,9.635,26.539,10.546c9.228,0.855,18.146-0.448,26.654-4.223c5.684-2.528,10.658-6.091,14.644-10.932
				c0.443-0.53,0.835-0.706,1.555-0.551c13.801,2.755,27.138,7.028,40.083,12.523c13.439,5.716,26.18,12.714,38.477,20.551
				c3.223,2.049,6.375,4.212,9.516,6.385c2.812,1.946,3.439,4.408,2.019,7.486c-4.47,9.784-7.478,20.021-9.578,30.557
				c-0.092,0.422-0.288,0.854,0.031,1.493c0.772-1.803,1.483-3.492,2.235-5.139c4.181-9.207,9.063-18.013,14.819-26.344
				c0.392-0.567,0.659-0.834,1.34-0.33c2.811,2.153,5.663,4.274,8.526,6.375c0.607,0.453,0.299,0.813,0.051,1.256
				c-3.728,6.499-7.466,12.987-11.163,19.496c-4.15,7.271-8.301,14.537-12.421,21.833c-0.411,0.731-0.762,0.865-1.586,0.525
				c-11.956-4.882-23.934-9.722-36.147-13.903c-0.598-0.207-1.381-0.772-1.802-0.381c-0.464,0.412,0.133,1.174,0.318,1.771
				c2.369,8.105,4.934,16.138,7.539,24.171c1.318,4.069,2.801,8.095,4.099,12.163c2.307,7.137,4.964,14.125,7.693,21.097
				c0.34,0.865,0.031,1.205-0.618,1.638c-12.07,8.012-24.81,14.789-37.93,20.865c-9.197,4.264-18.549,8.114-27.992,11.771
				c-0.958,0.371-1.556,0.248-2.297-0.443c-5.716-5.252-12.42-6.662-19.701-4.324c-7.292,2.348-11.803,7.549-13.398,15.087
				c-2.338,11.02,5.54,22.081,16.694,23.563c10.556,1.412,19.907-5.107,22.255-15.51c0.216-0.999,0.618-1.545,1.638-1.864
				c13.254-4.089,26.035-9.361,38.424-15.55c17.879-8.908,34.708-19.506,49.877-32.586c6.644-5.726,12.853-11.895,18.271-18.8
				c4.696-5.983,8.773-12.327,11.379-19.531c0.041-0.098,0.114-0.17,0.331-0.433c0.021,1.715-0.331,3.172-0.608,4.64
				c-1.658,8.831-5.273,16.9-9.865,24.557c-8.384,13.955-19.352,25.613-31.824,35.974c-0.72,0.607-0.834,1.009-0.37,1.863
				c4.377,7.921,9.237,15.489,15.283,22.246c0.565,0.629,0.515,1.029,0.082,1.669c-6.561,9.722-14.912,17.661-24.387,24.469
				c-11.463,8.239-24.027,14.408-37.168,19.444c-14.594,5.612-29.66,9.557-45.017,12.358c-12.574,2.307-25.252,3.728-38.022,4.294
				c-5.582,0.247-11.153,0.206-16.735,0.176c-0.629-0.011-0.979-0.207-1.247-0.763c-0.772-1.534-1.555-3.058-2.369-4.572
				c-0.412-0.741-0.145-0.896,0.566-0.958c3.852-0.299,7.693-0.587,11.535-0.957c8.764-0.846,17.445-2.163,26.086-3.729
				c12.194-2.193,24.203-5.159,36.046-8.815c14.182-4.388,27.971-9.784,41.287-16.396c5.686-2.821,11.227-5.88,16.581-9.299
				c0.402-0.258,0.866-0.443,1.236-1.102c-0.906,0.391-1.638,0.679-2.338,1.019c-14.079,6.685-28.672,11.978-43.625,16.313
				c-12.616,3.635-25.387,6.478-38.312,8.723c-9.712,1.679-19.485,2.936-29.311,3.831c-6.591,0.608-13.171,1.113-19.773,1.422
				c-2.987,0.123-5.149-1.01-6.344-3.738c-2.215-5.037-4.192-10.176-6.087-15.346c-1.956-5.263-3.903-10.525-5.396-15.942
				c-3.481-12.585-6.643-25.252-8.908-38.115c-0.495-2.904-0.999-5.798-1.514-8.682c-0.062-0.288,0.083-0.701-0.247-0.813
				c-0.392-0.124-0.597,0.289-0.824,0.515c-2.009,2.008-3.831,4.16-5.541,6.416c-3.554,4.697-6.602,9.691-8.085,15.438
				c-2.41,9.289-0.752,17.704,5.674,25.047C120.211,243.449,122.548,245.447,124.958,247.415z"/>
			<path fill="#53B584" d="M224.371,106.168c5.727,0,10.382,4.65,10.382,10.376c0,5.736-4.655,10.381-10.382,10.381
				c-5.736,0-10.38-4.645-10.38-10.381C213.991,110.818,218.635,106.168,224.371,106.168z"/>
			<path fill="#005B51" d="M208.625,214.242c5.726,0,10.371,4.646,10.371,10.382c0,5.726-4.646,10.37-10.371,10.37
				c-5.736,0-10.381-4.645-10.381-10.37C198.244,218.888,202.889,214.242,208.625,214.242z"/>
		</g>
	</g>
</g>
</svg>
