<?xml version="1.0" encoding="utf-8"?>
<!-- Generator: Adobe Illustrator 16.0.0, SVG Export Plug-In . SVG Version: 6.00 Build 0)  -->
<!DOCTYPE svg PUBLIC "-//W3C//DTD SVG 1.1//EN" "http://www.w3.org/Graphics/SVG/1.1/DTD/svg11.dtd">
<svg version="1.1" id="Layer_1" xmlns="http://www.w3.org/2000/svg" xmlns:xlink="http://www.w3.org/1999/xlink" x="0px" y="0px"
	 width="79.583px" height="64.667px" viewBox="223.5 0 79.583 64.667" enable-background="new 223.5 0 79.583 64.667"
	 xml:space="preserve">
<g>
	<path fill="#FFFFFF" d="M231.652,38.248c0.087-0.101,0.191-0.222,0.314-0.366c0.122-0.144,0.277-0.317,0.465-0.519
		c0.071-0.203,0.138-0.453,0.202-0.753c0.061-0.3,0.112-0.651,0.156-1.056c0.05-0.412,0.106-0.77,0.167-1.077
		c0.06-0.306,0.118-0.554,0.168-0.741c0.325-1.017,0.576-1.805,0.758-2.364c0.179-0.559,0.284-0.89,0.313-0.991
		c0.238-0.657,0.49-1.243,0.753-1.758c0.262-0.516,0.528-0.966,0.797-1.348c0.063-0.072,0.132-0.15,0.204-0.232
		c0.072-0.083,0.155-0.172,0.248-0.265c0.269-0.123,0.517-0.242,0.748-0.357c0.13-0.058,0.261-0.105,0.395-0.141
		c0.133-0.036,0.266-0.054,0.396-0.054c0.202,0,0.356,0.096,0.465,0.287c0.108,0.191,0.161,0.478,0.161,0.861
		c0,0.238-0.031,0.502-0.097,0.795c-0.064,0.292-0.154,0.611-0.27,0.958c-0.173,0.49-0.307,0.882-0.4,1.174
		c-0.095,0.293-0.151,0.475-0.174,0.547c-0.028,0.151-0.099,0.343-0.205,0.573c-0.109,0.231-0.253,0.513-0.433,0.845
		c-0.226,0.425-0.399,0.754-0.524,0.985c-0.128,0.23-0.201,0.367-0.223,0.41c-0.051,0.051-0.104,0.104-0.156,0.158
		c-0.055,0.053-0.111,0.109-0.168,0.168v0.248c-0.037,0.086-0.072,0.148-0.109,0.184c-0.123,0.238-0.285,0.534-0.493,0.889
		c-0.205,0.353-0.459,0.757-0.762,1.211c-0.173,0.238-0.304,0.447-0.39,0.629c-0.087,0.179-0.129,0.335-0.129,0.465v0.952
		c0.035,0.188,0.074,0.372,0.117,0.557c0.044,0.185,0.086,0.364,0.13,0.537c0.038,0.23,0.105,0.404,0.206,0.524
		c0.102,0.119,0.217,0.178,0.347,0.178c0.289,0,0.528-0.07,0.72-0.212c0.19-0.139,0.334-0.355,0.427-0.644
		c-0.193-0.078-0.344-0.17-0.449-0.274c-0.104-0.105-0.156-0.216-0.156-0.331c0.036-0.072,0.066-0.15,0.092-0.237
		s0.053-0.177,0.082-0.271c0.007-0.05,0.02-0.101,0.037-0.151c0.018-0.05,0.031-0.115,0.037-0.194
		c0.332-0.606,0.635-1.062,0.909-1.368c0.274-0.308,0.52-0.461,0.736-0.461c0.052,0,0.134,0.01,0.25,0.027
		c0.114,0.018,0.202,0.026,0.259,0.026c0.044,0,0.111-0.012,0.207-0.038c0.093-0.024,0.161-0.037,0.205-0.037
		c0.122,0,0.208,0.041,0.259,0.124s0.076,0.196,0.076,0.341c0,0.311-0.09,0.646-0.271,1.008c-0.181,0.36-0.27,0.565-0.27,0.615
		c0,0.044,0.028,0.092,0.087,0.141c0.042-0.015,0.086-0.035,0.135-0.063c0.046-0.029,0.091-0.066,0.135-0.11
		c0.028,0.096,0.073,0.203,0.134,0.326c0.063,0.122,0.13,0.263,0.202,0.422c0.034,0.051,0.061,0.095,0.074,0.136
		c0.015,0.04,0.021,0.078,0.021,0.112c-0.303,0.313-0.569,0.548-0.8,0.716c-0.23,0.164-0.426,0.255-0.585,0.27
		c-0.051,0-0.111-0.001-0.183-0.004c-0.072-0.005-0.159-0.011-0.26-0.018c-0.102,0.123-0.223,0.263-0.363,0.422
		c-0.142,0.158-0.298,0.347-0.471,0.562c-0.072,0.054-0.161,0.118-0.271,0.202c-0.106,0.082-0.23,0.186-0.367,0.308
		c-0.21,0.21-0.417,0.362-0.622,0.461c-0.206,0.098-0.413,0.146-0.622,0.146c-0.094,0-0.187-0.013-0.276-0.039
		c-0.091-0.024-0.192-0.072-0.309-0.145c-0.087-0.044-0.179-0.104-0.277-0.179c-0.095-0.074-0.202-0.164-0.317-0.265
		c-0.144-0.44-0.249-0.849-0.314-1.224c-0.065-0.376-0.098-0.732-0.098-1.071c0-0.058-0.007-0.107-0.015-0.147
		c-0.012-0.037-0.028-0.072-0.049-0.101l-0.098-0.033l-0.076,0.033l-0.108,0.106c-0.059-0.158-0.122-0.32-0.194-0.486
		S231.739,38.421,231.652,38.248z M236.663,29.451c0-0.036-0.003-0.066-0.016-0.092c-0.012-0.025-0.031-0.049-0.06-0.07
		c-0.044-0.008-0.093,0.042-0.15,0.146c-0.059,0.105-0.112,0.254-0.163,0.449c-0.029,0.145-0.094,0.314-0.195,0.509
		c-0.101,0.195-0.231,0.425-0.39,0.692c-0.138,0.231-0.271,0.489-0.401,0.773c-0.129,0.286-0.259,0.594-0.39,0.926
		c-0.164,0.389-0.288,0.732-0.366,1.028c-0.081,0.296-0.12,0.533-0.12,0.715l0.021,0.096c0.058-0.027,0.154-0.168,0.286-0.422
		c0.134-0.252,0.31-0.616,0.525-1.092c0.202-0.419,0.352-0.748,0.45-0.985s0.156-0.397,0.179-0.476
		c0.058-0.195,0.125-0.422,0.205-0.682c0.079-0.26,0.17-0.548,0.271-0.866c0.072-0.123,0.133-0.227,0.183-0.313
		c0.044-0.058,0.077-0.115,0.097-0.173C236.654,29.555,236.663,29.501,236.663,29.451z"/>
	<path fill="#FFFFFF" d="M238.125,38.248c0.164-0.173,0.419-0.38,0.762-0.626c0.344-0.245,0.598-0.446,0.764-0.606
		c0.108-0.13,0.25-0.287,0.423-0.471c0.173-0.185,0.381-0.402,0.619-0.654c0.146-0.131,0.286-0.231,0.422-0.304
		c0.139-0.072,0.276-0.108,0.413-0.108c0.173,0,0.31,0.043,0.407,0.131c0.096,0.086,0.145,0.223,0.145,0.41
		c0,0.281-0.106,0.736-0.323,1.363c-0.217,0.629-0.326,1.105-0.326,1.429c0,0.072,0.018,0.124,0.049,0.153
		c0.033,0.028,0.071,0.043,0.115,0.043l0.052-0.012c0.139-0.087,0.299-0.196,0.482-0.329c0.185-0.134,0.393-0.299,0.623-0.493
		c0.188-0.173,0.421-0.401,0.698-0.682c0.277-0.283,0.604-0.606,0.979-0.975c0.143-0.115,0.309-0.264,0.493-0.443
		c0.183-0.181,0.39-0.396,0.62-0.649c0.095-0.13,0.227-0.231,0.396-0.303c0.17-0.072,0.378-0.108,0.623-0.108
		c0.165,0,0.29,0.031,0.372,0.092c0.084,0.063,0.124,0.153,0.124,0.276c0,0.05-0.004,0.099-0.014,0.146
		c-0.012,0.047-0.021,0.092-0.028,0.135c-0.05,0.217-0.127,0.482-0.227,0.797c-0.102,0.313-0.225,0.683-0.369,1.109
		c-0.123,0.266-0.251,0.585-0.384,0.957c-0.132,0.373-0.276,0.781-0.427,1.228l0.074,0.098c0.151-0.072,0.376-0.243,0.676-0.514
		c0.297-0.271,0.674-0.632,1.127-1.089l0.434,0.996c-0.059,0.058-0.129,0.13-0.212,0.211c-0.082,0.083-0.192,0.173-0.329,0.266
		c-0.771,0.548-1.434,1.092-1.985,1.631c-0.553,0.536-0.989,1.067-1.313,1.595c-0.482,0.795-0.885,1.439-1.207,1.937
		c-0.319,0.498-0.553,0.849-0.697,1.051c-0.497,0.655-0.969,1.143-1.416,1.461c-0.445,0.317-0.884,0.476-1.31,0.476
		c-0.158,0-0.273-0.032-0.346-0.099c-0.072-0.063-0.106-0.164-0.106-0.303c0-0.072,0.017-0.162,0.051-0.27
		c0.038-0.108,0.102-0.224,0.197-0.346c0.136-0.195,0.263-0.397,0.378-0.607l0.322-0.28c0.028-0.095,0.043-0.158,0.043-0.195
		c0.029-0.035,0.07-0.079,0.123-0.13c0.054-0.05,0.118-0.108,0.188-0.173c0.051-0.13,0.188-0.345,0.406-0.646
		c0.219-0.298,0.528-0.683,0.927-1.151c0.295-0.347,0.565-0.654,0.811-0.927c0.245-0.268,0.454-0.498,0.627-0.687
		c0.03-0.058,0.06-0.125,0.092-0.204c0.034-0.08,0.061-0.159,0.082-0.238c0.094-0.188,0.197-0.414,0.307-0.683
		c0.114-0.266,0.249-0.58,0.407-0.941c0.072-0.209,0.133-0.45,0.185-0.719c0.05-0.271,0.098-0.564,0.14-0.883
		c-0.014-0.028-0.023-0.066-0.026-0.112c-0.003-0.047-0.021-0.115-0.049-0.202c-0.13,0.066-0.271,0.163-0.428,0.293
		s-0.323,0.281-0.502,0.455c-0.24,0.31-0.48,0.568-0.727,0.773c-0.245,0.204-0.485,0.363-0.726,0.471
		c-0.158,0.312-0.36,0.538-0.611,0.687c-0.247,0.15-0.534,0.223-0.859,0.223c-0.236,0-0.419-0.056-0.54-0.168
		c-0.124-0.111-0.185-0.283-0.185-0.514c0-0.043,0.005-0.099,0.017-0.161c0.01-0.066,0.026-0.143,0.049-0.229
		c-0.029-0.072-0.065-0.173-0.109-0.304c0.029-0.122,0.055-0.259,0.075-0.41c0-0.217-0.015-0.38-0.049-0.486
		c-0.032-0.11-0.084-0.164-0.156-0.164l-0.042,0.022c-0.08,0.058-0.191,0.145-0.335,0.26c-0.145,0.115-0.317,0.257-0.52,0.421
		c-0.038-0.092-0.081-0.204-0.137-0.335c-0.055-0.129-0.108-0.281-0.167-0.454c-0.014-0.043-0.033-0.082-0.055-0.12
		C238.178,38.3,238.154,38.271,238.125,38.248z"/>
</g>
<g>
	<g>
		<g>
			<path fill="#FFFFFF" d="M277.88,26.908c0.207-0.076,0.383-0.183,0.528-0.325c0.144-0.141,0.26-0.307,0.341-0.499
				c0.084-0.192,0.127-0.402,0.127-0.634c0-0.217-0.042-0.419-0.122-0.608c-0.078-0.187-0.19-0.353-0.337-0.498
				c-0.145-0.145-0.317-0.258-0.52-0.341c-0.205-0.083-0.426-0.125-0.663-0.125h-2.325v3.142h2.292
				C277.448,27.022,277.674,26.985,277.88,26.908z"/>
			<path fill="#FFFFFF" d="M271.193,36.773c-0.146,0-0.262-0.037-0.348-0.111c-0.086-0.078-0.13-0.194-0.13-0.353V21.181
				c0-0.151,0.042-0.273,0.126-0.364c0.082-0.088,0.2-0.135,0.352-0.135h7.195c0.636,0,1.234,0.122,1.798,0.363
				c0.564,0.242,1.057,0.574,1.48,0.997c0.421,0.423,0.756,0.918,1.001,1.485c0.245,0.566,0.368,1.175,0.368,1.825
				c0,0.543-0.084,1.046-0.254,1.513c-0.17,0.466-0.41,0.883-0.72,1.251c0.52,0.477,0.931,1.043,1.234,1.701
				c0.304,0.657,0.456,1.354,0.456,2.093c0,0.487-0.095,0.951-0.235,1.401c2.973-1.433,5.612-2.98,7.747-4.534
				c0.015-0.246,0.022-0.49,0.022-0.735c0-2.461-0.609-4.779-1.677-6.821c3.379-0.182,5.846,0.388,6.724,1.779
				c0.072,0.112,0.128,0.223,0.176,0.341c0.301-0.87,0.276-1.653-0.142-2.31c-0.981-1.551-3.934-2.089-7.928-1.694
				c-2.684-3.648-6.995-6.014-11.87-6.014c-8.127,0-14.717,6.592-14.717,14.718c0,0.815,0.061,1.614,0.188,2.398
				c-2.618,2.326-3.886,4.518-3.236,6.084c0.468-1.337,1.725-2.873,3.602-4.463c0.713,2.524,2.081,4.763,3.907,6.537
				c2.493-0.251,5.389-0.875,8.46-1.826H271.193z"/>
			<path fill="#FFFFFF" d="M278.439,33.404c0.203-0.101,0.38-0.236,0.533-0.406c0.151-0.169,0.27-0.363,0.353-0.58
				c0.083-0.215,0.125-0.438,0.125-0.672c0-0.216-0.042-0.432-0.125-0.649c-0.083-0.216-0.198-0.409-0.347-0.58
				c-0.15-0.169-0.327-0.31-0.533-0.417c-0.206-0.108-0.43-0.164-0.667-0.164h-2.868v3.618h2.868
				C278.015,33.554,278.238,33.505,278.439,33.404z"/>
		</g>
		<g>
			<defs>
				<path id="SVGID_198_" d="M297.192,22.981c-1.143,3.45-7.242,8.253-15.685,11.956c-10.673,4.693-21.039,5.865-23.161,2.618
					c-0.069-0.107-0.133-0.229-0.19-0.349c-0.3,0.911-0.252,1.736,0.19,2.416c1.228,1.876,5.231,2.277,10.453,1.36
					c2.207,1.33,4.796,2.091,7.557,2.091c6.868,0,12.636-4.711,14.259-11.073C295.498,28.623,298.147,25.189,297.192,22.981z"/>
			</defs>
			<use xlink:href="#SVGID_198_"  overflow="visible" fill="#FFFFFF"/>
			<clipPath id="SVGID_1_">
				<use xlink:href="#SVGID_198_"  overflow="visible"/>
			</clipPath>
			<rect x="257.856" y="22.981" clip-path="url(#SVGID_1_)" fill="#FFFFFF" width="40.291" height="20.093"/>
		</g>
	</g>
	<g>
		<g>
			<path fill="#FFFFFF" d="M255.667,45.461c0-0.086,0.022-0.155,0.07-0.204c0.047-0.052,0.114-0.08,0.201-0.08h4.133
				c0.367,0,0.71,0.071,1.034,0.207c0.322,0.138,0.605,0.324,0.849,0.564c0.242,0.237,0.436,0.517,0.574,0.837
				c0.144,0.319,0.213,0.664,0.213,1.031c0,0.303-0.048,0.587-0.146,0.854c-0.099,0.264-0.236,0.498-0.414,0.704
				c0.299,0.271,0.534,0.592,0.707,0.961c0.176,0.372,0.263,0.766,0.263,1.18c0,0.37-0.071,0.723-0.216,1.058
				c-0.146,0.333-0.343,0.623-0.589,0.875c-0.248,0.249-0.534,0.446-0.865,0.595c-0.33,0.146-0.678,0.222-1.043,0.222h-4.5
				c-0.081,0-0.147-0.02-0.198-0.063c-0.049-0.043-0.073-0.111-0.073-0.202V45.461z M260.352,47.871
				c0-0.123-0.024-0.236-0.068-0.344c-0.046-0.105-0.11-0.198-0.193-0.279c-0.083-0.082-0.184-0.145-0.3-0.189
				c-0.117-0.05-0.245-0.075-0.38-0.075h-1.336v1.777h1.316c0.142,0,0.272-0.023,0.39-0.066c0.119-0.043,0.22-0.104,0.302-0.183
				c0.085-0.078,0.149-0.172,0.197-0.282C260.328,48.12,260.352,48.003,260.352,47.871 M260.682,51.425
				c0-0.12-0.024-0.245-0.07-0.367c-0.05-0.121-0.116-0.232-0.2-0.327c-0.086-0.097-0.188-0.172-0.308-0.234
				c-0.117-0.064-0.246-0.095-0.382-0.095h-1.647v2.046h1.647c0.136,0,0.264-0.029,0.38-0.086c0.117-0.058,0.22-0.135,0.306-0.229
				c0.087-0.097,0.154-0.204,0.204-0.329C260.658,51.683,260.682,51.556,260.682,51.425"/>
			<path fill="#FFFFFF" d="M265.069,45.461c0-0.086,0.023-0.155,0.072-0.204c0.047-0.052,0.114-0.08,0.2-0.08h6.174
				c0.091,0,0.163,0.028,0.212,0.084c0.05,0.052,0.075,0.121,0.075,0.211v1.513c0,0.073-0.025,0.136-0.075,0.198
				c-0.049,0.064-0.122,0.094-0.218,0.094h-4.031v1.52h3.109c0.081,0,0.146,0.018,0.197,0.054c0.051,0.035,0.077,0.095,0.077,0.181
				v1.324c0,0.056-0.021,0.111-0.067,0.163c-0.046,0.056-0.113,0.082-0.199,0.082h-3.117v1.564h4.18
				c0.188,0,0.281,0.095,0.281,0.279v1.539c0,0.04-0.016,0.077-0.05,0.109c-0.018,0.114-0.101,0.172-0.255,0.172h-6.293
				c-0.081,0-0.147-0.02-0.199-0.063c-0.049-0.043-0.073-0.111-0.073-0.202V45.461z"/>
		</g>
		<g>
			<defs>
				<path id="SVGID_200_" d="M276.694,46.908h0.859c0.118,0,0.229,0,0.332,0.009c0.103,0.006,0.21,0.013,0.327,0.023
					c0.14,0.02,0.27,0.063,0.386,0.131c0.116,0.073,0.216,0.155,0.298,0.258c0.084,0.102,0.149,0.215,0.193,0.336
					c0.046,0.124,0.067,0.245,0.067,0.369c0,0.129-0.02,0.256-0.061,0.383c-0.042,0.122-0.103,0.234-0.181,0.337
					c-0.077,0.097-0.177,0.183-0.292,0.247c-0.116,0.069-0.247,0.112-0.394,0.125c-0.07,0.013-0.135,0.015-0.191,0.021
					c-0.06,0.002-0.125,0.005-0.2,0.005h-1.145V46.908z M274.559,45.034c-0.091,0-0.159,0.025-0.206,0.082
					c-0.045,0.047-0.069,0.115-0.069,0.199v8.543c0,0.088,0.028,0.154,0.077,0.197c0.048,0.043,0.115,0.063,0.198,0.063h1.849
					c0.191,0,0.286-0.086,0.286-0.26v-2.76h1.01l1.511,2.794c0.016,0.071,0.054,0.125,0.109,0.166c0.056,0.04,0.118,0.06,0.189,0.06
					h2.134c0.075,0,0.136-0.015,0.179-0.052c0.043-0.034,0.064-0.083,0.064-0.152c0-0.054-0.024-0.122-0.069-0.199
					c-0.045-0.075-0.084-0.145-0.11-0.2l-1.601-2.962c0.224-0.129,0.431-0.279,0.619-0.455c0.19-0.177,0.351-0.374,0.488-0.594
					c0.138-0.217,0.244-0.451,0.321-0.704c0.076-0.25,0.115-0.512,0.115-0.791c0-0.408-0.081-0.793-0.24-1.152
					c-0.16-0.361-0.378-0.679-0.656-0.945c-0.277-0.271-0.603-0.483-0.977-0.639c-0.374-0.156-0.774-0.238-1.203-0.238H274.559z"/>
			</defs>
			<use xlink:href="#SVGID_200_"  overflow="visible" fill="#FFFFFF"/>
			<clipPath id="SVGID_2_">
				<use xlink:href="#SVGID_200_"  overflow="visible"/>
			</clipPath>
			<rect x="274.284" y="45.034" clip-path="url(#SVGID_2_)" fill="#FFFFFF" width="7.606" height="9.084"/>
		</g>
		<path fill="#FFFFFF" d="M283.669,45.315c0-0.084,0.022-0.152,0.068-0.204c0.049-0.052,0.116-0.077,0.203-0.077h6.174
			c0.092,0,0.162,0.03,0.21,0.082c0.052,0.054,0.076,0.122,0.076,0.21v1.518c0,0.064-0.024,0.131-0.076,0.193
			c-0.048,0.066-0.12,0.095-0.216,0.095h-4.032v1.52h3.111c0.078,0,0.143,0.02,0.195,0.054c0.052,0.038,0.078,0.099,0.078,0.185
			v1.319c0,0.059-0.024,0.116-0.067,0.168c-0.047,0.054-0.114,0.077-0.2,0.077h-3.117v1.566h4.182c0.186,0,0.279,0.095,0.279,0.282
			v1.538c0,0.039-0.016,0.073-0.049,0.105c-0.018,0.118-0.104,0.172-0.255,0.172h-6.293c-0.083,0-0.15-0.023-0.198-0.063
			c-0.051-0.043-0.073-0.109-0.073-0.201V45.315z"/>
		<path fill="#FFFFFF" d="M292.556,45.315c0-0.084,0.023-0.152,0.067-0.204c0.046-0.052,0.115-0.077,0.205-0.077h3.979
			c0.285,0,0.554,0.041,0.808,0.118c0.253,0.079,0.484,0.187,0.696,0.32c0.213,0.138,0.403,0.301,0.574,0.49
			c0.168,0.188,0.313,0.393,0.432,0.614c0.119,0.22,0.21,0.451,0.271,0.692c0.063,0.245,0.094,0.489,0.094,0.739
			c0,0.365-0.068,0.727-0.202,1.074c-0.134,0.353-0.326,0.662-0.576,0.938c-0.249,0.274-0.547,0.496-0.896,0.666
			c-0.349,0.167-0.733,0.253-1.156,0.258h-1.888v2.914c0,0.174-0.094,0.26-0.284,0.26h-1.85c-0.082,0-0.148-0.023-0.197-0.063
			c-0.051-0.043-0.075-0.109-0.075-0.197V45.315z M297.243,47.996c0-0.121-0.023-0.245-0.067-0.366
			c-0.042-0.122-0.106-0.233-0.189-0.328c-0.082-0.095-0.182-0.175-0.302-0.232c-0.118-0.066-0.252-0.097-0.401-0.097h-1.32v2.046
			h1.32c0.149,0,0.283-0.03,0.403-0.09c0.123-0.061,0.223-0.134,0.304-0.229c0.079-0.094,0.144-0.202,0.186-0.326
			C297.219,48.253,297.243,48.126,297.243,47.996"/>
	</g>
</g>
</svg>
