<?xml version="1.0" encoding="utf-8"?>
<!-- Generator: Adobe Illustrator 16.0.0, SVG Export Plug-In . SVG Version: 6.00 Build 0)  -->
<!DOCTYPE svg PUBLIC "-//W3C//DTD SVG 1.1//EN" "http://www.w3.org/Graphics/SVG/1.1/DTD/svg11.dtd">
<svg version="1.1" id="Layer_1" xmlns="http://www.w3.org/2000/svg" xmlns:xlink="http://www.w3.org/1999/xlink" x="0px" y="0px"
	 width="400px" height="400px" viewBox="0 0 400 400" enable-background="new 0 0 400 400" xml:space="preserve">
<linearGradient id="SVGID_1_" gradientUnits="userSpaceOnUse" x1="0" y1="200" x2="400" y2="200">
	<stop  offset="0" style="stop-color:#53B584"/>
	<stop  offset="0.119" style="stop-color:#3FA677"/>
	<stop  offset="0.3883" style="stop-color:#16885E"/>
	<stop  offset="0.5271" style="stop-color:#067D54"/>
	<stop  offset="0.8015" style="stop-color:#026652"/>
	<stop  offset="0.9951" style="stop-color:#005B51"/>
</linearGradient>
<rect fill="url(#SVGID_1_)" width="400" height="400"/>
<g>
	<path fill="#FFFFFF" stroke="#FFFFFF" stroke-width="0.5" stroke-miterlimit="10" d="M232.139,124.939
		c7.561,0,13.706,6.139,13.706,13.698c0,7.573-6.146,13.705-13.706,13.705c-7.574,0-13.705-6.132-13.705-13.705
		C218.434,131.079,224.564,124.939,232.139,124.939z"/>
	<path fill="#FFFFFF" stroke="#FFFFFF" stroke-width="0.5" stroke-miterlimit="10" d="M211.351,267.624
		c7.559,0,13.691,6.13,13.691,13.704c0,7.56-6.133,13.691-13.691,13.691c-7.574,0-13.707-6.132-13.707-13.691
		C197.644,273.754,203.776,267.624,211.351,267.624z"/>
	<path fill="#FFFFFF" d="M100.891,311.418c-3.374-1.767-6.486-3.943-9.464-6.35c-6.595-5.37-12.006-11.708-15.16-19.703
		c-3.849-9.707-3.196-19.456,0.42-29.096c3.821-10.185,10.062-18.832,17.35-26.772c11.204-12.25,24.257-22.283,38.071-31.415
		c19.334-12.767,39.893-23.264,61.007-32.727c5.997-2.679,12.075-5.12,18.083-7.723c1.075-0.461,1.795-0.32,2.694,0.463
		c10.031,8.845,24.145,9.246,34.344,0.624c8.471-7.138,11.38-16.485,8.524-27.125c-2.773-10.423-9.91-16.901-20.503-18.933
		c-14.522-2.781-27.9,6.628-30.605,21.156c-0.232,1.298-0.857,1.828-1.999,2.223c-15.147,5.166-29.858,11.435-44.148,18.661
		c-12.251,6.2-24.135,13.045-35.584,20.626c-8.17,5.404-16.07,11.169-23.739,17.26c-0.354,0.26-0.721,0.49-1.21,0.829
		c-0.353-3.785-0.326-7.403-0.461-11.02c-0.3-7.213-0.068-14.419,0.204-21.639c0.053-1.781-0.776-1.033-1.495-0.727
		c-7.52,3.27-14.671,7.192-21.62,11.523c-9.477,5.915-18.491,12.461-26.758,19.994c-0.814,0.74-1.305,0.68-2.162,0.033
		c-7.682-6.03-14.018-13.345-19.918-21.047c-8.51-11.096-15.5-23.115-21.497-35.732c-0.435-0.89-0.354-1.413,0.396-2.073
		c3.167-2.822,6.266-5.689,9.395-8.559c0.653-0.585,1.006-0.843,1.401,0.298c5.207,14.964,13.364,28.322,22.625,41.069
		c1.263,1.748,2.583,3.455,3.957,5.249c0.421-0.598,0.082-0.918-0.083-1.217c-7.586-15.358-13.229-31.388-17.172-48.05
		c-0.857-3.61,0.014-6.391,2.91-8.702c13.283-10.626,26.867-20.845,40.707-30.729c13.504-9.654,27.208-19.015,41.253-27.873
		c4.337-2.732,6.662-2.659,10.756,0.34c13.501,9.843,28.539,15.935,45.1,18.247c12.507,1.74,24.841,1.183,36.997-2.476
		c3.63-1.094,7.124-2.522,10.429-4.405c0.421-0.245,0.952-0.395,1.235-1.005c-2.732,0.72-5.381,1.522-8.049,2.079
		c-18.817,3.937-37.131,2.265-54.903-5.071c-8.947-3.705-16.995-8.825-24.284-15.161c-0.34-0.299-0.65-0.625-1.019-0.911
		c-0.817-0.625-0.79-1.033,0.163-1.577c4.813-2.659,9.694-5.202,14.713-7.452c0.732-0.327,1.236-0.272,1.875,0.251
		c10.21,8.363,21.986,12.721,35.037,13.924c12.182,1.129,23.958-0.591,35.191-5.575c7.503-3.337,14.07-8.042,19.332-14.433
		c0.586-0.699,1.103-0.932,2.053-0.727c18.219,3.636,35.829,9.28,52.919,16.534c17.742,7.545,34.563,16.785,50.797,27.132
		c4.255,2.705,8.417,5.561,12.563,8.43c3.712,2.569,4.54,5.819,2.664,9.884c-5.9,12.917-9.872,26.432-12.645,40.342
		c-0.121,0.557-0.381,1.128,0.042,1.971c1.019-2.379,1.958-4.609,2.951-6.785c5.519-12.155,11.966-23.781,19.564-34.78
		c0.517-0.749,0.869-1.102,1.768-0.435c3.711,2.842,7.478,5.642,11.258,8.417c0.802,0.598,0.395,1.074,0.066,1.659
		c-4.921,8.578-9.857,17.145-14.736,25.738c-5.48,9.598-10.96,19.191-16.4,28.824c-0.542,0.966-1.005,1.143-2.093,0.694
		c-15.784-6.445-31.598-12.835-47.723-18.355c-0.789-0.272-1.822-1.019-2.379-0.503c-0.613,0.544,0.176,1.551,0.42,2.338
		c3.128,10.701,6.514,21.306,9.954,31.912c1.74,5.372,3.697,10.688,5.411,16.058c3.045,9.423,6.553,18.647,10.157,27.854
		c0.448,1.142,0.041,1.59-0.816,2.161c-15.937,10.578-32.754,19.524-50.077,27.547c-12.141,5.629-24.487,10.714-36.956,15.54
		c-1.265,0.49-2.054,0.328-3.031-0.586c-7.545-6.934-16.396-8.795-26.01-5.708c-9.627,3.1-15.583,9.966-17.69,19.918
		c-3.086,14.55,7.314,29.151,22.042,31.109c13.936,1.864,26.282-6.744,29.38-20.477c0.286-1.318,0.817-2.04,2.163-2.462
		c17.498-5.398,34.372-12.358,50.729-20.527c23.604-11.762,45.822-25.754,65.85-43.021c8.77-7.56,16.966-15.706,24.119-24.821
		c6.201-7.899,11.582-16.274,15.023-25.786c0.055-0.13,0.151-0.224,0.437-0.571c0.027,2.263-0.437,4.188-0.802,6.125
		c-2.189,11.659-6.964,22.312-13.025,32.421c-11.068,18.424-25.548,33.814-42.015,47.493c-0.951,0.803-1.101,1.332-0.488,2.46
		c5.778,10.457,12.194,20.45,20.177,29.371c0.745,0.83,0.68,1.359,0.107,2.203c-8.661,12.834-19.686,23.315-32.195,32.305
		c-15.133,10.877-31.722,19.021-49.069,25.669c-19.267,7.409-39.158,12.617-59.433,16.316c-16.601,3.045-33.338,4.923-50.198,5.671
		c-7.369,0.323-14.726,0.271-22.094,0.23c-0.83-0.014-1.292-0.273-1.646-1.008c-1.02-2.025-2.054-4.037-3.128-6.034
		c-0.543-0.979-0.19-1.185,0.748-1.267c5.085-0.394,10.157-0.774,15.229-1.264c11.57-1.115,23.032-2.854,34.44-4.923
		c16.1-2.895,31.954-6.811,47.589-11.637c18.724-5.793,36.928-12.918,54.508-21.648c7.507-3.725,14.822-7.763,21.891-12.275
		c0.532-0.342,1.144-0.585,1.633-1.455c-1.196,0.517-2.163,0.896-3.087,1.346c-18.587,8.824-37.854,15.813-57.596,21.538
		c-16.655,4.796-33.514,8.552-50.578,11.514c-12.824,2.218-25.726,3.877-38.698,5.06c-8.702,0.802-17.388,1.471-26.105,1.876
		c-3.943,0.165-6.798-1.333-8.374-4.935c-2.925-6.65-5.536-13.435-8.037-20.259c-2.582-6.948-5.152-13.897-7.123-21.048
		c-4.597-16.615-8.77-33.34-11.762-50.321c-0.653-3.835-1.318-7.655-1.998-11.462c-0.082-0.382,0.108-0.927-0.327-1.075
		c-0.517-0.164-0.787,0.381-1.087,0.681c-2.652,2.65-5.058,5.492-7.314,8.47c-4.692,6.201-8.717,12.794-10.675,20.381
		c-3.181,12.266-0.992,23.374,7.492,33.068C94.623,306.184,97.708,308.82,100.891,311.418z"/>
	<path fill="#FFFFFF" d="M232.139,124.939c7.561,0,13.706,6.139,13.706,13.698c0,7.573-6.146,13.705-13.706,13.705
		c-7.574,0-13.705-6.132-13.705-13.705C218.434,131.079,224.564,124.939,232.139,124.939z"/>
	<path fill="#FFFFFF" d="M211.351,267.624c7.559,0,13.691,6.13,13.691,13.704c0,7.56-6.133,13.691-13.691,13.691
		c-7.574,0-13.707-6.132-13.707-13.691C197.644,273.754,203.776,267.624,211.351,267.624z"/>
</g>
</svg>
