<?xml version="1.0" encoding="utf-8"?>
<!-- Generator: Adobe Illustrator 16.0.0, SVG Export Plug-In . SVG Version: 6.00 Build 0)  -->
<!DOCTYPE svg PUBLIC "-//W3C//DTD SVG 1.1//EN" "http://www.w3.org/Graphics/SVG/1.1/DTD/svg11.dtd">
<svg version="1.1" id="Layer_1" xmlns="http://www.w3.org/2000/svg" xmlns:xlink="http://www.w3.org/1999/xlink" x="0px" y="0px"
	 width="227.333px" height="64.667px" viewBox="0 0 227.333 64.667" enable-background="new 0 0 227.333 64.667"
	 xml:space="preserve">
<g>
	<g>
		<path fill="#FFFFFF" d="M54.576,30.327c0.004,0.019,0.006,0.035,0.01,0.054C54.586,30.348,54.582,30.333,54.576,30.327z"/>
		<path fill="#FFFFFF" d="M83.145,26.83c0.277,0,0.555,0.016,0.84,0.042s0.582,0.058,0.895,0.095
			c0.11,0.021,0.307-0.032,0.593-0.152c0.285-0.115,0.638-0.325,1.059-0.614c0.403-0.241,0.749-0.51,1.032-0.814
			c0.285-0.305,0.508-0.651,0.674-1.055c0.074-0.189,0.178-0.489,0.316-0.909c0.138-0.426,0.298-0.967,0.482-1.623
			c0.072-0.352,0.164-0.782,0.275-1.298c0-0.346-0.107-0.614-0.316-0.798c-0.213-0.184-0.546-0.272-1.006-0.272
			c-0.385,0-0.727,0.042-1.018,0.12c-0.295,0.084-0.531,0.189-0.715,0.32c-0.424,0.494-0.791,0.935-1.101,1.318
			c-0.515,0.059-1.105,0.499-1.776,1.334c-0.669,0.835-1.004,1.528-1.004,2.08c0,0.625,0.068,1.118,0.205,1.486
			C82.719,26.458,82.907,26.704,83.145,26.83z"/>
		<path fill="#FFFFFF" d="M174.047,42.349c-0.205-0.426-0.378-0.82-0.525-1.182c-0.293,0.236-0.541,0.404-0.74,0.504
			c-0.199,0.105-0.789,0.631-1.765,1.582c-0.384,0.371-0.741,0.656-1.071,0.871c-0.331,0.209-0.614,0.314-0.852,0.314
			c-0.109,0-0.199-0.025-0.262-0.084c-0.063-0.051-0.1-0.125-0.1-0.221c0-0.693,0.287-1.729,0.855-3.094
			c0.566-1.365,0.852-2.415,0.852-3.151c0-1.392-0.184-2.578-0.547-3.55c-0.367-0.972-0.92-1.733-1.654-2.285
			c-0.089-0.073-0.236-0.173-0.441-0.299c-0.399-0.404-0.818-0.788-1.25-1.155c-0.431-0.368-0.956-0.552-1.58-0.552
			c-0.59,0-1.355,0.31-2.301,0.935s-1.534,1.166-1.775,1.623l0.278,1.323c-0.384,0.877-1.009,1.828-1.858,2.847
			c-0.852,1.02-1.949,2.08-3.289,3.178c-0.293,0.427-0.588,0.825-0.883,1.214c0.002,0.002,0.002,0.004,0.003,0.006
			c-0.175,0.279-0.46,0.83-0.57,0.902c-0.138,0.094-0.242,0.158-0.315,0.195c-0.132,0.146-0.252,0.293-0.373,0.439
			c-0.115,0.146-0.247,0.301-0.373,0.469c-0.162,0.146-0.325,0.266-0.479,0.357c-0.156,0.094-0.32,0.135-0.482,0.135
			c-0.551,0-0.998-0.23-1.334-0.697c-0.342-0.469-0.5-0.998-0.482-1.586c0-0.842,0.015-1.724,0.057-2.644
			c-0.042-0.603-0.156-1.055-0.361-1.359c-0.201-0.3-0.494-0.452-0.877-0.452c-0.625,0-1.303,0.242-2.039,0.73
			c-0.729,0.482-1.523,1.229-2.363,2.242c-0.168,0.105-0.314,0.199-0.441,0.273c-0.131,0.074-0.258,0.148-0.389,0.221
			c-0.162,0.109-0.445,0.342-0.834,0.699c-0.4,0.357-0.903,0.824-1.529,1.391c-0.535,0.516-1.019,0.926-1.459,1.24
			c-0.441,0.309-0.862,0.529-1.266,0.656l-0.195-0.248c0.536-0.75,0.967-1.354,1.292-1.811c0.337-0.461,0.563-0.756,0.694-0.883
			c1.023-0.898,1.848-1.67,2.463-2.312c0.613-0.641,1.008-1.166,1.197-1.57c0.42-0.31,0.756-0.582,1.014-0.824
			c0.258-0.236,0.431-0.404,0.525-0.493c0.126-0.184,0.283-0.399,0.467-0.636c0.566-0.42,1.066-0.846,1.486-1.276
			s0.777-0.841,1.072-1.224c0.535-0.404,1.028-0.771,1.486-1.104c0.294-0.204,0.508-0.451,0.646-0.745
			c0.137-0.294,0.21-0.63,0.21-1.014c0-0.368-0.121-0.656-0.348-0.856c-0.23-0.199-0.582-0.299-1.061-0.299
			c-0.86,0-1.922,0.394-3.177,1.182c-1.255,0.787-2.715,1.969-4.386,3.545c-0.367,0.353-0.709,0.63-1.023,0.841
			c-0.311,0.215-0.563,0.372-0.768,0.482c-0.425,0.368-0.771,0.688-1.045,0.967c-0.273,0.272-0.482,0.504-0.636,0.683
			c-0.272,0.131-0.515,0.278-0.729,0.441c-0.21,0.168-0.379,0.367-0.51,0.609c-0.162,0.293-0.31,0.515-0.436,0.672
			c-0.131,0.157-0.242,0.278-0.332,0.372l-2.504,1.65c-0.184,0.311-0.342,0.572-0.479,0.783c-0.122,0.18-0.212,0.301-0.283,0.381
			c-0.193,0.154-0.391,0.285-0.589,0.387c-0.2,0.098-0.347,0.178-0.437,0.23c-0.457,0.258-0.982,0.477-1.57,0.66
			c-0.588,0.186-1.24,0.301-1.954,0.357c-0.44-0.094-0.819-0.193-1.14-0.303c-0.325-0.111-0.557-0.217-0.703-0.332
			c-0.258-0.146-0.451-0.361-0.594-0.656c-0.137-0.295-0.205-0.635-0.205-1.02c0-0.219,0.047-0.43,0.137-0.619
			c0.095-0.195,0.205-0.357,0.33-0.484c1.523-1.485,2.737-2.804,3.636-3.959c0.897-1.156,1.476-2.175,1.732-3.057l0.247-0.883
			c0.127-0.436,0.227-0.756,0.289-0.961c0.045-0.146,0.073-0.205,0.086-0.189c-0.07-0.42-0.131-0.808-0.181-1.155
			c-0.11-0.425-0.226-0.782-0.347-1.076c-0.12-0.294-0.241-0.51-0.373-0.662c-0.178-0.215-0.415-0.373-0.698-0.467
			c-0.284-0.09-0.656-0.137-1.114-0.137c-0.33,0-0.635,0.031-0.907,0.084c-0.279,0.053-0.525,0.115-0.746,0.194
			c-0.237,0.179-0.473,0.347-0.715,0.493c-0.235,0.147-0.456,0.305-0.661,0.468c-0.42,0.515-0.841,1.024-1.262,1.528
			c-0.424,0.504-0.824,0.966-1.212,1.392c-0.458,0.751-0.835,1.424-1.114,2.033c-0.283,0.604-0.508,1.107-0.677,1.512
			c-0.147,0.404-0.278,0.783-0.399,1.13c-0.115,0.346-0.205,0.65-0.257,0.908c-0.022,0.368-0.059,0.729-0.11,1.087
			c-0.059,0.356-0.115,0.72-0.169,1.087c-0.53,0.421-0.972,0.831-1.317,1.224c-0.348,0.395-0.869,1.203-2.131,2.359
			c-1.51,1.385-3.646,2.33-4.865,2.859c0.268-0.398,0.572-0.861,0.924-1.404c0.936-1.486,1.63-2.826,2.092-4.02
			c0.604-0.935,1.149-1.922,1.633-2.973c0.488-1.044,0.925-2.179,1.308-3.408c0.347-1.087,0.614-2.127,0.799-3.14
			c0.184-1.009,0.272-1.98,0.272-2.916c0-0.272-0.073-0.488-0.22-0.646c-0.147-0.152-0.374-0.236-0.688-0.236
			c-0.311,0-0.588,0.115-0.824,0.347c-0.236,0.23-0.42,0.572-0.547,1.029c-0.094,0.331-0.173,0.678-0.246,1.034
			c-0.074,0.357-0.152,0.709-0.221,1.062l0.221,0.824c-0.184,0.421-0.385,0.846-0.594,1.276c-0.21,0.431-0.389,0.861-0.536,1.281
			c-0.235,0.516-0.425,0.998-0.562,1.461c-0.137,0.456-0.242,0.877-0.315,1.266c-1.118,2.253-2.048,3.943-2.788,5.074
			c-0.744,1.129-1.299,1.691-1.664,1.691c-0.238-0.252-0.394-0.506-0.468-0.74c-0.054-0.223-0.086-0.41-0.097-0.58
			c-0.008-0.168-0.006-0.303,0.015-0.414c0.13-1.87,0.233-3.246,0.315-4.128c0.082-0.878,0.123-1.256,0.123-1.124
			c-0.053-0.132-0.109-0.258-0.166-0.384c-0.053-0.131-0.098-0.278-0.135-0.441c0.147-0.698,0.283-1.381,0.412-2.037
			c0-0.242,0.023-0.431,0.068-0.578c0.045-0.146,0.104-0.247,0.18-0.305c0.201-0.126,0.357-0.283,0.467-0.468
			c0.107-0.184,0.166-0.394,0.166-0.63c0-0.604-0.107-1.065-0.316-1.376c-0.213-0.315-0.557-0.468-1.032-0.468
			c-1.157,0-2.659,2.064-4.511,6.188c-1.855,4.128-2.973,6.192-3.359,6.192l-0.274-0.221c-0.054-0.068-0.108-0.342-0.164-0.809
			c-0.056-0.473-0.119-1.124-0.194-1.971c-0.054-0.788-0.1-1.438-0.136-1.953c-0.037-0.515-0.056-0.898-0.056-1.155
			c0-0.588,0.043-1.423,0.138-2.516c0.093-1.093,0.138-1.896,0.138-2.405c0-0.278-0.068-0.479-0.205-0.609
			c-0.141-0.126-0.337-0.194-0.594-0.194c-0.716,0-1.411,0.341-2.08,1.019c-0.671,0.678-1.346,1.733-2.025,3.167
			c-0.2,0.421-0.463,0.888-0.785,1.402s-0.693,1.057-1.116,1.622c-0.494,0.715-0.941,1.293-1.335,1.718
			c-0.395,0.431-0.738,0.73-1.034,0.899c-0.458,0.271-0.831,0.514-1.116,0.713c-0.283,0.201-0.464,0.342-0.537,0.416
			c0.001,0.002,0.002,0.004,0.003,0.006c-0.28,0.227-0.564,0.457-0.854,0.693c-0.302,0.246-0.591,0.494-0.867,0.73
			c-0.367,0.293-0.725,0.498-1.071,0.619c-0.351,0.121-0.689,0.18-1.021,0.18c-0.274,0-0.504-0.043-0.688-0.121
			c-0.181-0.084-0.318-0.215-0.413-0.4c-0.09-0.109-0.227-0.535-0.41-1.281c-0.184-0.74-0.34-1.297-0.467-1.665
			c-0.074-0.588-0.166-1.172-0.277-1.744c-0.109-0.582-0.23-1.155-0.357-1.722c-0.147-0.641-0.441-1.125-0.882-1.444
			c-0.438-0.321-0.98-0.483-1.62-0.483c-0.24,0-0.48,0.068-0.717,0.194c-0.238,0.126-0.451,0.341-0.632,0.63
			c-0.479,0.683-1.342,1.565-2.587,2.657c-1.248,1.094-2.119,1.976-2.615,2.657l-0.082,0.275l-0.166,0.193
			c0.004,0.002,0.006,0.01,0.011,0.012c-0.544,0.416-1.071,0.805-1.579,1.17c-0.515,0.367-1.01,0.699-1.484,0.988
			c-0.717,0.131-1.515,0.25-2.396,0.357c-0.475,0-1.016-0.285-1.621-0.863c-0.607-0.582-0.906-1.076-0.906-1.502
			c0-0.109,0.42-0.607,1.262-1.502c0.845-0.888,2.102-2.164,3.772-3.834c0.548-0.625,1.015-1.182,1.401-1.67
			c0.387-0.483,0.679-0.894,0.882-1.219c0.237-0.241,0.412-0.594,0.521-1.061c0.111-0.468,0.166-1.04,0.166-1.723
			c0-0.273-0.045-0.572-0.137-0.894c-0.092-0.319-0.232-0.672-0.412-1.061c-0.186-0.457-0.391-0.793-0.619-1.003
			s-0.465-0.3-0.705-0.263c-0.217,0-0.379,0.005-0.479,0.016s-0.104,0.016-0.015,0.016c-0.182-0.021-0.356-0.031-0.521-0.031
			c-0.259,0.079-0.694,0.331-1.308,0.762c-0.615,0.431-1.391,1.056-2.326,1.88c-0.824,0.735-1.521,1.365-2.09,1.886
			c-0.568,0.525-1.01,0.972-1.322,1.334c-0.237,0.131-0.467,0.263-0.687,0.399c-0.22,0.136-0.441,0.252-0.661,0.347
			c-0.147-0.074-0.301-0.311-0.467-0.704c-0.164-0.394-0.32-0.951-0.469-1.665c-0.108-0.641-0.274-1.129-0.494-1.46
			c-0.221-0.331-0.496-0.493-0.826-0.493c-0.127,0-0.289,0.063-0.48,0.178c-0.195,0.121-0.418,0.3-0.675,0.541
			c-0.513,0.421-0.884,0.883-1.114,1.387c-0.229,0.504-0.345,1.061-0.345,1.665c0,0.404,0.175,0.987,0.523,1.749
			c0.349,0.761,0.522,1.313,0.522,1.659c0,0.227-0.244,0.557-0.73,0.993c-0.483,0.441-1.214,0.971-2.184,1.597
			c-0.518,0.347-1.039,0.683-1.572,1.004c-0.531,0.32-1.072,0.656-1.623,1.008c0.003,0.004,0.004,0.008,0.007,0.014
			c-0.194,0.154-0.389,0.283-0.583,0.385c-0.203,0.1-0.349,0.18-0.441,0.23c-0.459,0.258-0.98,0.479-1.568,0.662
			c-0.588,0.186-1.238,0.301-1.953,0.357c-0.439-0.094-0.821-0.193-1.144-0.303c-0.321-0.111-0.556-0.217-0.702-0.332
			c-0.256-0.146-0.453-0.363-0.59-0.656c-0.138-0.295-0.205-0.635-0.205-1.02c0-0.221,0.043-0.43,0.137-0.619
			c0.093-0.195,0.201-0.357,0.328-0.484c1.525-1.485,2.735-2.805,3.634-3.96s1.478-2.174,1.733-3.057l0.248-0.882
			c0.127-0.437,0.225-0.756,0.289-0.962c0.046-0.146,0.075-0.206,0.088-0.189c-0.07-0.419-0.131-0.808-0.186-1.154
			c-0.109-0.426-0.227-0.783-0.343-1.076c-0.119-0.295-0.244-0.511-0.374-0.662c-0.182-0.216-0.416-0.373-0.701-0.468
			c-0.283-0.089-0.654-0.137-1.113-0.137c-0.328,0-0.633,0.031-0.907,0.084s-0.523,0.116-0.743,0.194
			c-0.24,0.179-0.478,0.347-0.716,0.494c-0.237,0.146-0.458,0.305-0.661,0.467c-0.42,0.516-0.842,1.024-1.264,1.528
			c-0.422,0.505-0.826,0.967-1.21,1.393c-0.46,0.751-0.831,1.423-1.116,2.032c-0.285,0.604-0.508,1.107-0.675,1.513
			c-0.146,0.404-0.278,0.782-0.397,1.129c-0.121,0.347-0.207,0.651-0.261,0.908c-0.021,0.368-0.056,0.73-0.11,1.087
			c-0.057,0.357-0.111,0.721-0.167,1.088c-0.531,0.42-0.97,0.83-1.319,1.224c-0.348,0.395-0.634,0.783-0.854,1.172
			c0.003,0.004,0.004,0.008,0.007,0.014c-0.084,0.063-0.169,0.121-0.255,0.164c-0.092,0.043-0.182,0.07-0.274,0.07
			c-0.421,0-0.911-0.363-1.472-1.088c-0.558-0.726-1.195-1.823-1.907-3.294c-0.113-0.216-0.304-0.479-0.579-0.783
			c-0.274-0.299-0.625-0.635-1.044-1.003c-0.093-0.073-0.185-0.137-0.274-0.188c-0.093-0.058-0.186-0.084-0.275-0.084
			c-0.513,0-1.036,0.104-1.567,0.314c-0.531,0.211-1.055,0.521-1.567,0.919c-0.494,0.368-0.954,0.73-1.375,1.077
			c-0.42,0.347-0.843,0.698-1.262,1.045c-0.258,0.367-0.484,0.667-0.674,0.909c-0.193,0.235-0.363,0.42-0.51,0.546
			c-0.219-0.105-0.33-0.226-0.33-0.357c0-0.104,0.008-0.226,0.027-0.356c0.018-0.127,0.064-0.283,0.137-0.468
			c0.404-0.95,0.688-1.948,0.852-2.983c0.166-1.034,0.248-2.116,0.248-3.235c0-0.771-0.123-1.35-0.369-1.743
			c-0.248-0.394-0.639-0.594-1.17-0.594c-0.494,0-1.154,0.299-1.981,0.893c-0.825,0.6-1.786,1.502-2.888,2.71
			c-1.283,1.413-2.32,2.516-3.111,3.303c-0.787,0.788-1.318,1.246-1.596,1.377c-0.127,0-0.219-0.03-0.275-0.095
			c-0.053-0.067-0.082-0.163-0.082-0.289c0.111-0.461,0.249-0.939,0.413-1.434c0.147-0.619,0.263-1.233,0.345-1.827
			s0.123-1.15,0.123-1.665c0-0.604-0.119-1.066-0.357-1.392c-0.238-0.32-0.605-0.483-1.1-0.483
			c-0.791,0.331-1.516,0.631-2.176,0.882c-0.661,0.678-1.242,1.282-1.738,1.802c-0.494,0.525-0.917,0.951-1.266,1.281
			c-0.682,0.626-1.401,1.334-2.164,2.133c-0.762,0.798-1.547,1.701-2.355,2.71c-0.184,0.259-0.35,0.495-0.494,0.704
			c-0.148,0.211-0.277,0.379-0.389,0.51c0.296,0.604,0.533,1.107,0.717,1.514c0.182,0.404,0.312,0.74,0.385,1.014
			c0.111-0.127,0.212-0.258,0.305-0.395c0.092-0.139,0.164-0.285,0.219-0.432c0.533-0.51,0.984-0.961,1.352-1.344
			c0.369-0.389,0.682-0.727,0.94-1.02c0.388-0.535,0.731-0.925,1.036-1.172c0.303-0.246,0.566-0.373,0.785-0.373
			c0.129,0,0.234,0.043,0.316,0.127c0.082,0.083,0.125,0.189,0.125,0.314c0,0.795-0.328,2.145-0.98,4.061
			c-0.65,1.916-0.979,3.178-0.979,3.781c0,0.258,0.143,0.451,0.428,0.578c0.283,0.131,0.702,0.195,1.254,0.195
			c0.184,0,0.602-0.307,1.254-0.92c0.65-0.615,1.526-1.564,2.628-2.848c0.695-0.771,1.379-1.539,2.05-2.299
			c0.668-0.762,1.325-1.508,1.967-2.243c0.587-0.441,1.014-0.777,1.278-1.02c0.267-0.236,0.509-0.479,0.729-0.714
			c0.205-0.184,0.382-0.32,0.538-0.399c0.155-0.084,0.299-0.126,0.426-0.126c0.148,0,0.275,0.058,0.387,0.168
			c0.109,0.109,0.166,0.263,0.166,0.468c-0.166,1.155-0.301,2.079-0.4,2.778c-0.101,0.699-0.179,1.166-0.234,1.402
			c-0.018,0.184-0.1,0.504-0.246,0.967c-0.149,0.455-0.34,1.072-0.58,1.842c-0.181,0.605-0.328,1.131-0.439,1.582
			c-0.111,0.445-0.164,0.809-0.164,1.088c0,0.236,0.035,0.445,0.109,0.619c0.073,0.172,0.184,0.289,0.33,0.342
			c0.457,0.057,0.824,0.084,1.102,0.084c0.549,0,1.932-1.408,4.15-4.223c2.217-2.82,3.803-4.229,4.758-4.229
			c0.713,0,1.745,0.824,3.094,2.463c1.346,1.645,2.652,2.463,3.918,2.463c0.383,0,0.833-0.131,1.346-0.398
			c0.516-0.262,1.1-0.652,1.762-1.17c-0.195-0.521-0.428-1.076-0.679-1.645c0.108,0.229,0.208,0.443,0.294,0.631
			c0.182,0.404,0.312,0.74,0.385,1.014c0.219-0.273,0.422-0.479,0.604-0.621c0.183-0.137,0.35-0.205,0.496-0.205
			c0.184,0,0.35,0.1,0.495,0.293c0.147,0.191,0.304,0.488,0.47,0.889c0.201,0.5,0.392,0.926,0.576,1.281
			c0.184,0.363,0.367,0.631,0.551,0.814c0.348,0.383,0.783,0.678,1.307,0.877c0.522,0.205,1.124,0.305,1.803,0.305
			c0.514,0,0.958-0.041,1.334-0.125c0.373-0.08,0.711-0.211,1.005-0.395c0.714,0,1.499-0.262,2.351-0.787
			c0.854-0.521,1.804-1.299,2.85-2.326c-0.108-0.311-0.256-0.68-0.44-1.098c-0.085-0.197-0.179-0.408-0.276-0.631
			c0.125,0.264,0.236,0.504,0.332,0.715c0.182,0.404,0.312,0.74,0.385,1.014c0.365-0.311,0.7-0.574,1.004-0.783
			c0.303-0.211,0.564-0.369,0.785-0.484c0.622-0.582,1.151-1.082,1.58-1.496c0.434-0.416,0.785-0.783,1.061-1.114
			c0.238-0.221,0.441-0.419,0.605-0.594c0.164-0.172,0.301-0.314,0.414-0.425l0.357-0.11c0.42,0.625,0.773,1.208,1.059,1.749
			c0.283,0.541,0.509,1.051,0.675,1.523c0,0.479-0.868,1.492-2.602,3.041c-1.733,1.555-2.599,2.531-2.599,2.932
			c0,0.182,0.049,0.32,0.151,0.396c0.099,0.086,0.242,0.129,0.425,0.129h0.248c0.552-0.295,1.027-0.547,1.432-0.758
			c0.402-0.209,0.751-0.383,1.045-0.51c0.219-0.236,0.426-0.461,0.619-0.672c0.191-0.215,0.371-0.42,0.537-0.619
			c0.328-0.348,0.633-0.641,0.907-0.867c0.274-0.23,0.505-0.43,0.688-0.594l0.14-0.084l0.19,0.084l2.835,2.805
			c0.184,0.131,0.443,0.242,0.784,0.33c0.339,0.096,0.775,0.137,1.307,0.137c0.294,0,0.591-0.041,0.895-0.137
			c0.304-0.088,0.618-0.221,0.948-0.383c0.258-0.131,0.533-0.268,0.826-0.424c0.293-0.158,0.568-0.301,0.827-0.426
			c0.769-0.316,1.387-0.605,1.854-0.867c0.47-0.268,0.796-0.494,0.979-0.678c0.291-0.236,0.539-0.457,0.742-0.662
			c0.201-0.199,0.367-0.346,0.497-0.439c-0.003-0.008-0.007-0.016-0.009-0.021c0.707-0.777,1.304-1.359,1.795-1.75
			c0.497-0.395,0.891-0.594,1.187-0.594c0.108,0,0.246,0.105,0.41,0.316c0.166,0.209,0.358,0.529,0.577,0.951
			c0.184,0.271,0.35,0.514,0.496,0.713c0.147,0.205,0.258,0.377,0.33,0.525c0.605,1.76,1.154,2.832,1.651,3.219
			c0.495,0.385,1.577,0.578,3.245,0.578c0.277,0,0.68-0.137,1.211-0.4c0.533-0.266,1.174-0.676,1.929-1.223
			c0.677-0.494,1.262-0.93,1.745-1.309c0.486-0.377,0.877-0.713,1.17-1.006l-0.006-0.016c0.241-0.299,0.631-0.627,1.178-0.99
			c0.57-0.377,0.974-0.703,1.214-0.977c0.31-0.367,0.591-0.688,0.839-0.961c0.248-0.277,0.453-0.504,0.621-0.688
			c0.128-0.147,0.268-0.284,0.413-0.415c0.147-0.127,0.312-0.248,0.497-0.357c0.568,3.45,1,6.071,1.294,7.856
			c0.294,1.787,0.515,2.752,0.663,2.904l0.467,0.494c0.148,0.074,0.271,0.115,0.371,0.125c0.104,0.006,0.208,0.012,0.316,0.012
			c0.386,0,0.73-0.063,1.034-0.189c0.302-0.131,0.564-0.326,0.784-0.582c0.147-0.33,0.305-0.652,0.481-0.977
			c0.173-0.32,0.335-0.646,0.48-0.977l0.909-1.734c0.145-0.252,0.252-0.504,0.315-0.74c0.065-0.242,0.106-0.451,0.123-0.637
			c0.44-0.75,0.835-1.443,1.187-2.09c0.291-0.604,0.535-1.033,0.728-1.291s0.335-0.383,0.427-0.383l0.138,0.219
			c0,0.164-0.048,0.4-0.138,0.711c-0.092,0.314-0.137,0.582-0.137,0.803c0,2.127,0.178,3.723,0.537,4.789
			c0.356,1.061,0.873,1.592,1.553,1.592c0.531,0,1.053-0.152,1.565-0.451c0.378-0.225,0.749-0.549,1.116-0.926
			c-0.152,0.311-0.264,0.57-0.222,0.664c0.179,0.404,6.854-2.828,8.37-3.859c0.943-0.643,1.072-0.863,1.257-1.004
			c0.184-0.139,0.353-0.205,0.493-0.205c0.184,0,0.352,0.098,0.499,0.293c0.147,0.189,0.3,0.488,0.468,0.889
			c0.199,0.498,0.394,0.924,0.577,1.281c0.184,0.361,0.362,0.631,0.547,0.813c0.353,0.383,0.788,0.678,1.313,0.879
			c0.52,0.205,1.117,0.303,1.801,0.303c0.509,0,0.956-0.041,1.334-0.125c0.373-0.078,0.709-0.211,1.003-0.395
			c0.715,0,1.497-0.262,2.353-0.787c0.84-0.51,1.767-1.271,2.789-2.271c0,0.002,0.001,0.006,0.001,0.008
			c0,0.152-0.016,0.34-0.052,0.582c-0.422,0.42-0.736,0.855-0.951,1.303c-0.209,0.451-0.315,0.924-0.315,1.418
			c0,0.898,0.21,1.564,0.631,1.996c0.425,0.432,1.076,0.646,1.958,0.646c0.127,0,0.332-0.059,0.604-0.18s0.604-0.277,0.987-0.477
			c0.609-0.338,1.15-0.656,1.639-0.967s0.914-0.625,1.281-0.936c0.185-0.184,0.494-0.488,0.936-0.908
			c0.441-0.422,0.981-0.967,1.623-1.623c0.478-0.385,0.893-0.715,1.254-0.994c0.354-0.271,0.652-0.498,0.889-0.686
			c0.152-0.164,0.283-0.295,0.389-0.4c0.109-0.1,0.209-0.195,0.305-0.289c0.146,0.184,0.241,0.363,0.288,0.541
			c0.042,0.174,0.069,0.342,0.069,0.504c0.109,1.381,0.482,2.406,1.129,3.084c0.641,0.678,1.555,1.018,2.751,1.018
			c0.511,0,1.024-0.105,1.54-0.314c0.514-0.211,1.044-0.531,1.596-0.951c0.457-0.367,0.893-0.756,1.309-1.166
			c0.408-0.414,1.057-1.396,1.478-1.783c0.162-0.18,0.283-0.348,0.356-0.496c0.073-0.141,0.127-0.256,0.169-0.33
			c0.603-0.404,1.091-0.777,1.454-1.123c0.367-0.348,0.635-0.662,0.799-0.939c0.272-0.143,0.624-0.426,1.045-0.853
			c0.42-0.421,0.897-0.961,1.434-1.623c0.494-0.604,0.982-1.107,1.455-1.513c0.478-0.404,0.919-0.714,1.322-0.935
			c0.605,0.074,1.057,0.362,1.361,0.877s0.452,1.261,0.452,2.232c0,0.787-0.101,1.675-0.316,2.669
			c-0.209,0.986-0.514,2.063-0.919,3.219c-0.094,0.258-0.204,0.51-0.33,0.756c-0.131,0.246-0.248,0.488-0.357,0.73
			c-0.147,0.311-0.262,0.6-0.346,0.865c-0.08,0.264-0.121,0.5-0.121,0.701c0,0.514,0.193,0.887,0.576,1.117
			c0.385,0.227,0.962,0.342,1.734,0.342c0.479-0.146,0.897-0.342,1.266-0.578c1.396-0.84,2.59-1.592,3.588-2.242
			c1.002-0.652,1.816-1.203,2.436-1.666c0.295-0.256,0.547-0.482,0.757-0.688c0.214-0.199,0.399-0.373,0.567-0.523
			C174.44,43.22,174.246,42.769,174.047,42.349z M47.691,36.335c-0.045-0.047-0.069-0.12-0.069-0.23
			c0-0.499,0.341-1.271,1.021-2.327c0.676-1.056,1.218-1.58,1.622-1.58c0.128,0,0.224,0.047,0.29,0.152
			c0.063,0.099,0.096,0.23,0.096,0.394c0,0.263-0.055,0.515-0.166,0.771c-0.109,0.258-0.275,0.516-0.496,0.772
			c-0.184,0.2-0.372,0.409-0.563,0.62c-0.193,0.209-0.391,0.409-0.594,0.593c-0.107,0.179-0.229,0.378-0.356,0.589
			c-0.127,0.21-0.293,0.314-0.494,0.314C47.834,36.404,47.737,36.383,47.691,36.335z M67.213,38.61c-0.127,0-0.266-0.1-0.412-0.294
			c-0.148-0.189-0.311-0.499-0.495-0.92c-0.166-0.347-0.294-0.65-0.386-0.908c-0.09-0.257-0.119-0.478-0.082-0.661v-0.189
			c0.68-0.588,1.26-1.113,1.748-1.57c0.486-0.457,0.893-0.846,1.223-1.155c0.222-0.126,0.418-0.236,0.594-0.331
			c0.174-0.09,0.326-0.163,0.455-0.221c0.254-0.236,0.465-0.446,0.631-0.63c0.146-0.168,0.279-0.278,0.398-0.347
			c0.119-0.063,0.234-0.095,0.345-0.095c0.201,0,0.347,0.048,0.441,0.137c0.091,0.095,0.138,0.221,0.138,0.383
			c0,0.609-0.598,1.813-1.789,3.608C68.827,37.212,67.892,38.279,67.213,38.61z M76.681,41.363c0.054,0.09,0.099,0.189,0.136,0.299
			c0.088,0.264,0.174,0.5,0.258,0.723c-0.178-0.371-0.354-0.766-0.531-1.178C76.592,41.253,76.641,41.296,76.681,41.363z
			 M126.256,36.881c-0.047-0.047-0.067-0.121-0.067-0.23c0-0.499,0.341-1.271,1.014-2.327c0.683-1.056,1.224-1.581,1.628-1.581
			c0.126,0,0.221,0.047,0.288,0.152c0.063,0.1,0.096,0.23,0.096,0.394c0,0.263-0.054,0.516-0.163,0.772
			c-0.111,0.257-0.278,0.515-0.498,0.771c-0.18,0.2-0.369,0.41-0.563,0.62c-0.195,0.21-0.389,0.41-0.594,0.594
			c-0.11,0.179-0.231,0.378-0.357,0.588s-0.295,0.315-0.494,0.315C126.398,36.95,126.304,36.928,126.256,36.881z"/>
	</g>
	<g>
		<g>
			<circle fill="#FFFFFF" stroke="#FFFFFF" stroke-width="0.5" stroke-miterlimit="10" cx="197.592" cy="23.517" r="1.968"/>
			<circle fill="#FFFFFF" stroke="#FFFFFF" stroke-width="0.5" stroke-miterlimit="10" cx="194.605" cy="44.013" r="1.968"/>
			<path fill-rule="evenodd" clip-rule="evenodd" fill="#FFFFFF" d="M178.739,48.335c-0.485-0.254-0.933-0.566-1.359-0.912
				c-0.949-0.771-1.726-1.682-2.178-2.829c-0.553-1.396-0.459-2.796,0.06-4.181c0.548-1.463,1.445-2.704,2.492-3.845
				c1.609-1.76,3.484-3.202,5.469-4.512c2.777-1.835,5.73-3.342,8.764-4.701c0.86-0.385,1.734-0.736,2.598-1.11
				c0.153-0.066,0.257-0.046,0.385,0.067c1.443,1.27,3.469,1.327,4.935,0.09c1.217-1.026,1.635-2.369,1.225-3.897
				c-0.4-1.497-1.425-2.428-2.946-2.72c-2.086-0.399-4.007,0.952-4.396,3.039c-0.033,0.187-0.123,0.263-0.288,0.319
				c-2.176,0.743-4.288,1.643-6.341,2.681c-1.76,0.891-3.467,1.874-5.112,2.963c-1.173,0.777-2.309,1.605-3.411,2.479
				c-0.049,0.038-0.103,0.071-0.172,0.12c-0.051-0.544-0.047-1.064-0.068-1.583c-0.043-1.037-0.01-2.072,0.03-3.108
				c0.008-0.256-0.112-0.149-0.214-0.105c-1.08,0.469-2.109,1.033-3.106,1.655c-1.361,0.85-2.656,1.79-3.844,2.872
				c-0.117,0.107-0.188,0.098-0.31,0.005c-1.104-0.866-2.014-1.917-2.861-3.024c-1.223-1.593-2.228-3.319-3.089-5.132
				c-0.062-0.128-0.05-0.204,0.056-0.298c0.455-0.406,0.902-0.818,1.351-1.23c0.093-0.084,0.144-0.12,0.2,0.043
				c0.749,2.15,1.921,4.069,3.25,5.9c0.183,0.251,0.372,0.496,0.569,0.754c0.061-0.086,0.011-0.132-0.012-0.175
				c-1.089-2.206-1.901-4.509-2.466-6.903c-0.123-0.518,0.002-0.918,0.417-1.25c1.908-1.526,3.86-2.994,5.848-4.414
				c1.94-1.386,3.908-2.731,5.925-4.003c0.623-0.393,0.958-0.382,1.546,0.048c1.939,1.415,4.1,2.29,6.479,2.622
				c1.797,0.25,3.568,0.17,5.313-0.356c0.522-0.157,1.024-0.362,1.499-0.633c0.061-0.035,0.136-0.057,0.177-0.144
				c-0.393,0.103-0.772,0.218-1.156,0.299c-2.703,0.565-5.333,0.325-7.886-0.729c-1.286-0.532-2.442-1.267-3.488-2.178
				c-0.05-0.043-0.095-0.09-0.147-0.13c-0.117-0.091-0.114-0.149,0.024-0.227c0.691-0.382,1.392-0.747,2.112-1.07
				c0.106-0.047,0.179-0.039,0.271,0.036c1.465,1.201,3.158,1.827,5.032,2c1.75,0.162,3.442-0.085,5.054-0.801
				c1.08-0.48,2.022-1.156,2.779-2.073c0.084-0.101,0.158-0.134,0.294-0.105c2.618,0.522,5.146,1.333,7.601,2.375
				c2.549,1.084,4.966,2.411,7.298,3.898c0.61,0.389,1.209,0.799,1.804,1.211c0.533,0.369,0.652,0.835,0.384,1.42
				c-0.849,1.855-1.418,3.797-1.817,5.794c-0.018,0.08-0.055,0.163,0.005,0.284c0.148-0.342,0.282-0.662,0.424-0.975
				c0.794-1.746,1.72-3.416,2.811-4.996c0.075-0.107,0.125-0.158,0.253-0.063c0.535,0.408,1.076,0.811,1.618,1.21
				c0.116,0.085,0.057,0.154,0.01,0.238c-0.708,1.232-1.416,2.463-2.118,3.697c-0.787,1.379-1.573,2.757-2.354,4.14
				c-0.079,0.139-0.145,0.165-0.302,0.1c-2.268-0.926-4.538-1.843-6.856-2.637c-0.112-0.039-0.26-0.146-0.341-0.072
				c-0.088,0.079,0.026,0.223,0.061,0.336c0.449,1.537,0.936,3.061,1.429,4.584c0.251,0.771,0.531,1.535,0.778,2.307
				c0.438,1.353,0.942,2.678,1.459,4c0.064,0.164,0.005,0.229-0.118,0.311c-2.288,1.519-4.704,2.805-7.193,3.958
				c-1.744,0.808-3.518,1.538-5.308,2.231c-0.183,0.071-0.295,0.047-0.437-0.084c-1.084-0.995-2.355-1.264-3.735-0.819
				c-1.384,0.444-2.238,1.431-2.542,2.86c-0.442,2.091,1.052,4.189,3.166,4.47c2.002,0.267,3.777-0.969,4.222-2.943
				c0.041-0.188,0.116-0.292,0.31-0.353c2.514-0.776,4.938-1.776,7.287-2.948c3.391-1.691,6.582-3.7,9.459-6.181
				c1.259-1.086,2.437-2.255,3.465-3.565c0.89-1.134,1.664-2.338,2.158-3.704c0.007-0.018,0.021-0.032,0.062-0.082
				c0.004,0.325-0.062,0.602-0.114,0.88c-0.316,1.675-1,3.205-1.871,4.657c-1.59,2.646-3.671,4.858-6.035,6.822
				c-0.137,0.115-0.16,0.191-0.071,0.354c0.829,1.502,1.752,2.938,2.899,4.219c0.106,0.119,0.096,0.195,0.014,0.315
				c-1.244,1.844-2.827,3.35-4.624,4.642c-2.175,1.563-4.556,2.732-7.049,3.688c-2.768,1.064-5.625,1.811-8.538,2.343
				c-2.384,0.437-4.788,0.707-7.21,0.815c-1.058,0.047-2.116,0.038-3.174,0.033c-0.12-0.002-0.185-0.04-0.236-0.145
				c-0.146-0.291-0.295-0.581-0.449-0.867c-0.079-0.141-0.028-0.17,0.107-0.181c0.73-0.057,1.459-0.112,2.188-0.183
				c1.661-0.16,3.308-0.41,4.947-0.706c2.312-0.417,4.59-0.979,6.835-1.673c2.691-0.831,5.306-1.854,7.83-3.109
				c1.078-0.535,2.129-1.116,3.146-1.763c0.076-0.05,0.164-0.085,0.234-0.21c-0.172,0.074-0.31,0.13-0.444,0.194
				c-2.67,1.267-5.437,2.272-8.274,3.093c-2.391,0.691-4.814,1.229-7.264,1.654c-1.843,0.32-3.696,0.557-5.56,0.728
				c-1.249,0.115-2.498,0.21-3.75,0.269c-0.566,0.023-0.975-0.192-1.203-0.709c-0.42-0.955-0.794-1.93-1.154-2.91
				c-0.371-0.998-0.741-1.996-1.024-3.023c-0.66-2.387-1.259-4.789-1.688-7.23c-0.095-0.549-0.191-1.098-0.288-1.646
				c-0.011-0.054,0.016-0.133-0.046-0.154c-0.074-0.023-0.114,0.055-0.157,0.098c-0.381,0.381-0.727,0.789-1.051,1.217
				c-0.673,0.89-1.252,1.838-1.533,2.928c-0.456,1.762-0.142,3.357,1.076,4.749C177.838,47.583,178.281,47.962,178.739,48.335z"/>
			<circle fill-rule="evenodd" clip-rule="evenodd" fill="#FFFFFF" cx="197.592" cy="23.517" r="1.968"/>
			<circle fill-rule="evenodd" clip-rule="evenodd" fill="#FFFFFF" cx="194.605" cy="44.013" r="1.968"/>
		</g>
	</g>
</g>
</svg>
