<?xml version="1.0" encoding="utf-8"?>
<!-- Generator: Adobe Illustrator 16.0.0, SVG Export Plug-In . SVG Version: 6.00 Build 0)  -->
<!DOCTYPE svg PUBLIC "-//W3C//DTD SVG 1.1//EN" "http://www.w3.org/Graphics/SVG/1.1/DTD/svg11.dtd">
<svg version="1.1" id="Layer_1" xmlns="http://www.w3.org/2000/svg" xmlns:xlink="http://www.w3.org/1999/xlink" x="0px" y="0px"
	 width="227.333px" height="64.667px" viewBox="0 0 227.333 64.667" enable-background="new 0 0 227.333 64.667"
	 xml:space="preserve">
<g>
	<g>
		<g>
			<path fill="#FFFFFF" d="M54.584,31.881c-0.702,0-1.319-0.491-1.467-1.191c-0.005-0.021-0.014-0.068-0.017-0.089
				c-0.11-0.664,0.232-1.334,0.843-1.619c0.608-0.285,1.333-0.142,1.771,0.37c0.156,0.182,0.27,0.422,0.328,0.668l0.001,0l-0.001,0
				c0.028,0.121,0.043,0.244,0.043,0.362c0,0.769-0.581,1.413-1.345,1.492C54.688,31.878,54.636,31.881,54.584,31.881z
				 M53.085,30.381h1.428H53.085z"/>
		</g>
		<g>
			<path fill="#FFFFFF" d="M84.931,28.471L84.931,28.471c-0.063,0-0.15-0.006-0.229-0.015v0c-0.299-0.036-0.583-0.065-0.855-0.091
				c-0.49-0.045-0.983,0.013-1.405-0.211c-0.569-0.302-0.995-0.819-1.265-1.536c-0.204-0.548-0.302-1.205-0.302-2.015
				c0-0.911,0.437-1.898,1.333-3.018c0.715-0.89,1.393-1.449,2.089-1.716c0.245-0.298,0.519-0.623,0.82-0.975
				c0.079-0.092,0.169-0.174,0.268-0.245c0.326-0.232,0.71-0.409,1.175-0.542c0.446-0.12,0.919-0.177,1.429-0.177
				c0.828,0,1.496,0.214,1.985,0.637c0.543,0.477,0.837,1.161,0.837,1.934c0,0.106-0.012,0.212-0.034,0.316
				c-0.109,0.51-0.2,0.936-0.271,1.284c-0.008,0.035-0.016,0.069-0.025,0.104c-0.191,0.679-0.357,1.238-0.5,1.678
				c-0.153,0.464-0.266,0.79-0.347,0.995c-0.242,0.588-0.566,1.096-0.976,1.532c-0.371,0.4-0.816,0.754-1.357,1.077
				c-0.463,0.322-0.891,0.566-1.267,0.718C85.594,28.39,85.259,28.471,84.931,28.471z M83.932,25.362
				c0.063,0.005,0.126,0.01,0.189,0.016c0.231,0.021,0.471,0.046,0.719,0.074c0.016-0.006,0.032-0.013,0.05-0.021
				c0.111-0.045,0.334-0.154,0.79-0.467c0.369-0.224,0.605-0.409,0.783-0.599c0.167-0.179,0.289-0.37,0.386-0.604
				c0.058-0.15,0.152-0.424,0.278-0.809c0.127-0.392,0.276-0.897,0.449-1.508c0.031-0.152,0.066-0.318,0.104-0.5
				c-0.144,0.014-0.25,0.036-0.322,0.055c-0.055,0.016-0.099,0.031-0.133,0.044c-0.343,0.402-0.644,0.765-0.903,1.087
				c-0.247,0.305-0.604,0.502-0.993,0.548c0.021,0.002-0.257,0.131-0.782,0.784c-0.643,0.803-0.673,1.142-0.673,1.146
				C83.874,24.965,83.902,25.207,83.932,25.362z"/>
		</g>
		<g>
			<path fill="#FFFFFF" d="M101.22,52.158c-0.138,0-0.27-0.006-0.401-0.014c-0.344-0.032-0.634-0.121-0.95-0.277
				c-0.159-0.079-0.304-0.186-0.427-0.314l-0.467-0.494c-0.367-0.378-0.584-0.848-1.053-3.691l-0.818-4.97
				c-0.071,0.083-0.144,0.169-0.219,0.257c-0.355,0.404-0.85,0.809-1.532,1.261c-0.411,0.272-0.635,0.466-0.753,0.587
				c-0.054,0.082-0.116,0.158-0.187,0.229c-0.34,0.34-0.781,0.72-1.312,1.131c-0.488,0.383-1.087,0.829-1.779,1.335
				c-0.852,0.616-1.551,1.057-2.143,1.353c-0.783,0.388-1.362,0.559-1.882,0.559c-2.083,0-3.368-0.275-4.164-0.893
				c-0.757-0.59-1.391-1.73-2.113-3.807c-0.042-0.072-0.1-0.152-0.167-0.246c-0.149-0.204-0.326-0.461-0.522-0.752
				c-0.031-0.047-0.061-0.096-0.087-0.146c-0.015-0.028-0.029-0.056-0.043-0.082c-0.364,0.307-0.811,0.744-1.33,1.307
				c-0.099,0.152-0.225,0.287-0.378,0.397c-0.084,0.061-0.188,0.158-0.317,0.288c-0.216,0.218-0.485,0.459-0.801,0.719
				c-0.282,0.268-0.678,0.542-1.235,0.859c-0.533,0.3-1.194,0.609-2.027,0.951c-0.154,0.079-0.411,0.211-0.684,0.358
				c-0.259,0.138-0.498,0.259-0.725,0.374l-0.136,0.068c-0.453,0.223-0.842,0.379-1.206,0.484c-0.404,0.129-0.856,0.197-1.315,0.197
				c-0.703,0-1.248-0.061-1.714-0.193c-0.492-0.127-0.909-0.311-1.248-0.551c-0.065-0.047-0.127-0.1-0.184-0.156l-2.004-1.982
				c-0.185,0.166-0.389,0.367-0.611,0.604c-0.113,0.14-0.304,0.357-0.507,0.585l-0.639,0.694c-0.143,0.154-0.316,0.277-0.51,0.359
				c-0.266,0.114-0.58,0.272-0.944,0.461c-0.398,0.209-0.869,0.458-1.416,0.75c-0.218,0.116-0.46,0.178-0.707,0.178h-0.248
				c-0.688,0-1.144-0.268-1.403-0.492c-0.203-0.148-0.673-0.636-0.673-1.533c0-0.844,0.479-1.701,3.097-4.049
				c1.188-1.062,1.73-1.664,1.974-1.974c-0.108-0.249-0.232-0.509-0.373-0.776c-0.032-0.061-0.065-0.123-0.101-0.186
				c-0.28,0.321-0.619,0.672-1.03,1.065c-0.428,0.414-0.963,0.92-1.593,1.509c-0.099,0.093-0.21,0.172-0.33,0.234
				c-0.176,0.092-0.384,0.219-0.625,0.387c-0.259,0.179-0.54,0.4-0.847,0.659c-1.127,1.104-2.135,1.921-3.08,2.498
				c-0.931,0.573-1.842,0.905-2.711,0.987c-0.343,0.169-0.716,0.297-1.114,0.381c-0.47,0.105-1.013,0.158-1.646,0.158
				c-0.871,0-1.662-0.138-2.351-0.408c-0.729-0.279-1.363-0.707-1.87-1.268c-0.25-0.244-0.521-0.637-0.777-1.142
				c-0.154-0.299-0.315-0.646-0.486-1.051c-0.704,0.544-1.326,0.951-1.897,1.242c-0.724,0.376-1.39,0.562-2.026,0.562
				c-1.733,0-3.441-1.014-5.078-3.012c-1.145-1.391-1.743-1.783-1.948-1.889c-0.294,0.131-1.299,0.748-3.563,3.629
				c-3.502,4.443-4.452,4.797-5.33,4.797c-0.352,0-0.785-0.033-1.289-0.096c-0.109-0.014-0.217-0.04-0.32-0.078
				c-0.539-0.193-0.967-0.607-1.203-1.167c-0.151-0.354-0.229-0.761-0.229-1.204c0-0.414,0.068-0.889,0.209-1.451
				c0.115-0.468,0.269-1.017,0.457-1.648l0.12-0.383c0.189-0.61,0.346-1.11,0.472-1.496c0.153-0.484,0.178-0.64,0.18-0.656
				c0.007-0.045,0.021-0.145,0.032-0.188c0.051-0.215,0.118-0.639,0.21-1.271l0.05-0.348c-0.185,0.146-0.402,0.314-0.662,0.511
				l-1.866,2.127c-0.677,0.767-1.363,1.538-2.063,2.314c-1.127,1.313-2.021,2.28-2.711,2.933c-0.919,0.863-1.553,1.33-2.285,1.33
				c-0.796,0-1.396-0.107-1.887-0.336c-0.801-0.354-1.295-1.082-1.295-1.938c0-0.533,0.12-1.5,1.058-4.264
				c0.022-0.066,0.045-0.131,0.066-0.193c-0.284,0.29-0.606,0.611-0.969,0.961c-0.068,0.137-0.144,0.268-0.227,0.391
				c-0.125,0.186-0.263,0.365-0.415,0.54c-0.363,0.419-0.926,0.604-1.467,0.478c-0.54-0.123-0.968-0.534-1.113-1.068
				c-0.035-0.131-0.117-0.373-0.305-0.787c-0.179-0.399-0.411-0.889-0.697-1.476c-0.26-0.534-0.181-1.171,0.202-1.625
				c0.087-0.103,0.188-0.235,0.304-0.401l0.498-0.708c0.882-1.105,1.703-2.05,2.496-2.882c0.775-0.811,1.527-1.551,2.236-2.202
				c0.315-0.298,0.718-0.704,1.188-1.204c0.507-0.531,1.092-1.139,1.757-1.821c0.152-0.156,0.337-0.277,0.541-0.354
				c0.646-0.246,1.355-0.54,2.13-0.864c0.184-0.077,0.38-0.116,0.579-0.116c0.963,0,1.781,0.386,2.303,1.088
				c0.437,0.595,0.654,1.362,0.654,2.288c0,0.446-0.027,0.921-0.081,1.415c0.489-0.521,1.039-1.116,1.654-1.794
				c1.184-1.298,2.202-2.251,3.116-2.915c1.123-0.806,2.03-1.179,2.863-1.179c1.047,0,1.913,0.459,2.438,1.294
				c0.405,0.647,0.601,1.478,0.601,2.543c0,1.088-0.074,2.151-0.22,3.163c0.229-0.179,0.465-0.359,0.71-0.542
				c0.605-0.472,1.257-0.851,1.91-1.11c0.707-0.279,1.42-0.42,2.121-0.42c0.372,0,0.74,0.106,1.066,0.309
				c0.106,0.061,0.259,0.164,0.413,0.286c0.523,0.457,0.913,0.833,1.219,1.165c0.363,0.402,0.623,0.76,0.803,1.102
				c0.683,1.408,1.271,2.428,1.768,3.075c0.034,0.044,0.066,0.083,0.097,0.12c0.135-0.174,0.28-0.352,0.438-0.529
				c0.304-0.342,0.654-0.685,1.047-1.023l0.082-0.53c0.046-0.302,0.076-0.616,0.094-0.936c0.005-0.075,0.015-0.149,0.03-0.224
				c0.068-0.33,0.174-0.699,0.313-1.096c0.119-0.346,0.254-0.73,0.402-1.143c0.199-0.486,0.432-1.015,0.729-1.645
				c0.302-0.645,0.692-1.357,1.193-2.175c0.048-0.079,0.104-0.153,0.165-0.221c0.372-0.413,0.765-0.86,1.173-1.35
				c0.419-0.5,0.836-1.003,1.252-1.514c0.067-0.083,0.144-0.158,0.228-0.225c0.248-0.198,0.519-0.392,0.809-0.571
				c0.202-0.125,0.403-0.269,0.608-0.421c0.12-0.089,0.252-0.16,0.393-0.21c0.285-0.101,0.6-0.184,0.963-0.254
				c0.958-0.185,2.02-0.136,2.753,0.095c0.573,0.19,1.036,0.501,1.399,0.933c0.234,0.272,0.439,0.625,0.617,1.066
				c0.151,0.382,0.287,0.805,0.405,1.265c0.012,0.046,0.021,0.092,0.028,0.139l0.021,0.136c0.038,0.239,0.078,0.497,0.123,0.769
				c0.052,0.152,0.079,0.314,0.079,0.484c0,0.288-0.081,0.558-0.222,0.786c-0.063,0.206-0.141,0.462-0.234,0.784l-0.244,0.869
				c-0.314,1.085-0.966,2.25-1.994,3.571c-0.938,1.207-2.207,2.591-3.771,4.114c-0.012,0.19,0.01,0.322,0.052,0.411
				c0.065,0.037,0.104,0.07,0.164,0.117c0.028,0.01,0.133,0.046,0.261,0.09c0.198,0.067,0.452,0.137,0.75,0.205
				c0.526-0.053,0.998-0.145,1.406-0.272c0.484-0.151,0.916-0.333,1.283-0.538c0.111-0.063,0.279-0.154,0.516-0.27
				c0.044-0.023,0.103-0.061,0.17-0.107c0.076-0.078,0.163-0.148,0.26-0.211c0.562-0.357,1.113-0.701,1.655-1.027
				c0.514-0.309,1.015-0.631,1.512-0.965c0.937-0.604,1.604-1.09,2.007-1.458c0.066-0.06,0.122-0.111,0.167-0.155
				c-0.056-0.164-0.149-0.412-0.311-0.764c-0.45-0.984-0.66-1.738-0.66-2.374c0-0.819,0.161-1.588,0.479-2.287
				c0.326-0.713,0.84-1.36,1.527-1.924c0.257-0.246,0.556-0.482,0.837-0.657c0.455-0.274,0.865-0.403,1.271-0.403
				c0.839,0,1.575,0.413,2.074,1.161c0.344,0.517,0.58,1.185,0.725,2.042c0.033,0.156,0.065,0.297,0.096,0.425
				c0.286-0.299,0.625-0.629,1.013-0.988c0.578-0.529,1.28-1.163,2.109-1.903c0.972-0.855,1.798-1.523,2.465-1.99
				c0.765-0.537,1.299-0.835,1.729-0.967c0.28-0.085,0.569-0.072,0.885-0.048c0.118-0.009,0.279-0.016,0.481-0.017
				c0.064-0.006,0.129-0.009,0.192-0.009c0.405,0,1.015,0.116,1.614,0.667c0.395,0.362,0.72,0.867,0.994,1.543
				c0.195,0.418,0.356,0.835,0.464,1.21c0.13,0.454,0.195,0.893,0.195,1.308c0,0.808-0.067,1.485-0.207,2.07
				c-0.151,0.654-0.415,1.203-0.783,1.628c-0.24,0.372-0.545,0.789-0.907,1.241c-0.396,0.5-0.878,1.075-1.444,1.722
				c-1.764,1.767-2.989,3.013-3.813,3.88c-0.269,0.284-0.469,0.502-0.617,0.668c0.057,0.064,0.127,0.137,0.213,0.219
				c0.312,0.297,0.505,0.4,0.583,0.434c0.665-0.083,1.285-0.174,1.851-0.272c0.373-0.235,0.76-0.497,1.159-0.782
				c0.411-0.295,0.838-0.609,1.278-0.941c0.048-0.133,0.113-0.257,0.196-0.371c0.561-0.77,1.489-1.719,2.84-2.902
				c1.154-1.012,1.944-1.816,2.348-2.391c0.281-0.453,0.686-0.844,1.158-1.094c0.457-0.244,0.936-0.368,1.418-0.368
				c0.963,0,1.807,0.26,2.507,0.772c0.733,0.532,1.226,1.313,1.457,2.318c0.133,0.592,0.257,1.182,0.37,1.781
				c0.106,0.547,0.197,1.113,0.271,1.684c0.132,0.403,0.281,0.943,0.454,1.642c0.075,0.308,0.133,0.517,0.175,0.657
				c0.13-0.012,0.267-0.042,0.411-0.092c0.183-0.063,0.398-0.192,0.624-0.373c0.247-0.213,0.546-0.467,0.856-0.721l0.745-0.604
				c0.1-0.099,0.274-0.253,0.726-0.573c0.316-0.221,0.72-0.482,1.216-0.777c0.081-0.047,0.292-0.184,0.694-0.623
				c0.344-0.371,0.748-0.893,1.207-1.558c0.418-0.561,0.771-1.071,1.079-1.565c0.296-0.472,0.532-0.893,0.702-1.25
				c0.759-1.602,1.517-2.772,2.313-3.578c0.958-0.971,2.018-1.463,3.146-1.463c0.785,0,1.301,0.314,1.595,0.577
				c0.341,0.325,0.704,0.855,0.704,1.727c0,0.562-0.048,1.414-0.144,2.533c-0.086,0.999-0.132,1.824-0.132,2.389
				c0,0.232,0.019,0.58,0.052,1.047l0.06,0.858c0.334-0.697,0.731-1.554,1.204-2.604c2.256-5.023,3.959-7.073,5.879-7.073
				c1.317,0,1.991,0.707,2.275,1.128c0.381,0.566,0.573,1.311,0.573,2.215c0,0.5-0.125,0.966-0.371,1.387
				c-0.141,0.237-0.311,0.448-0.511,0.634c-0.002,0.083-0.011,0.167-0.027,0.249c-0.106,0.542-0.218,1.103-0.336,1.676
				c0.031,0.068,0.072,0.16,0.112,0.258c0.09,0.195,0.141,0.412,0.141,0.639c0,0.123-0.015,0.243-0.043,0.358
				c-0.015,0.141-0.044,0.452-0.087,0.905c-0.049,0.524-0.104,1.225-0.17,2.102c0.557-0.957,1.203-2.174,1.931-3.633
				c0.079-0.377,0.181-0.773,0.312-1.207c0.144-0.486,0.342-1.01,0.605-1.593c0.166-0.463,0.36-0.926,0.58-1.376
				c0.122-0.25,0.241-0.5,0.355-0.747l-0.083-0.308c-0.059-0.22-0.066-0.45-0.023-0.674c0.047-0.241,0.098-0.482,0.149-0.725
				l0.075-0.356c0.08-0.39,0.168-0.772,0.271-1.138c0.195-0.703,0.514-1.275,0.943-1.694c0.515-0.505,1.163-0.773,1.871-0.773
				c0.905,0,1.46,0.377,1.767,0.693c0.304,0.326,0.642,0.862,0.642,1.689c0,1.031-0.1,2.103-0.297,3.185
				c-0.193,1.061-0.47,2.149-0.846,3.327c-0.396,1.271-0.859,2.481-1.378,3.589c-0.476,1.034-1.031,2.053-1.649,3.021
				c-0.063,0.161-0.131,0.324-0.202,0.488c0.673-0.65,1.067-1.152,1.366-1.531c0.135-0.172,0.249-0.314,0.35-0.429
				c0.292-0.333,0.643-0.676,1.045-1.022c0.028-0.182,0.057-0.361,0.086-0.539c0.042-0.289,0.073-0.609,0.094-0.936
				c0.004-0.068,0.013-0.137,0.026-0.204c0.06-0.298,0.156-0.644,0.305-1.087l0.065-0.188c0.106-0.307,0.221-0.635,0.348-0.982
				c0.2-0.484,0.434-1.008,0.728-1.635c0.279-0.609,0.66-1.305,1.192-2.177c0.05-0.082,0.106-0.158,0.171-0.229
				c0.376-0.412,0.763-0.859,1.173-1.347c0.414-0.496,0.832-1.001,1.248-1.511c0.067-0.083,0.145-0.159,0.229-0.226
				c0.248-0.197,0.514-0.387,0.799-0.565c0.22-0.133,0.413-0.273,0.608-0.42c0.12-0.091,0.254-0.163,0.396-0.214
				c0.287-0.103,0.605-0.187,0.974-0.256c0.375-0.072,0.776-0.11,1.186-0.11c0.614,0,1.127,0.067,1.566,0.207
				c0.568,0.188,1.046,0.511,1.401,0.941c0.222,0.255,0.421,0.597,0.606,1.051c0.146,0.357,0.281,0.772,0.41,1.267
				c0.014,0.054,0.024,0.109,0.032,0.164c0.039,0.271,0.085,0.567,0.137,0.885c0.052,0.152,0.079,0.314,0.079,0.483
				c0,0.285-0.079,0.551-0.217,0.778c-0.06,0.195-0.141,0.459-0.237,0.792l-0.243,0.868c-0.316,1.087-0.967,2.251-1.992,3.571
				c-0.938,1.207-2.17,2.55-3.767,4.107c0.003-0.002,0.004-0.004,0.004-0.004c0.003,0-0.015,0.027-0.038,0.075
				c0.014,0.126,0.036,0.26,0.08,0.353c0.064,0.037,0.101,0.063,0.16,0.109c0.031,0.012,0.133,0.047,0.258,0.089
				c0.206,0.07,0.459,0.14,0.755,0.209c0.528-0.054,1.001-0.146,1.407-0.273c0.493-0.154,0.925-0.335,1.282-0.536
				c0.088-0.052,0.267-0.149,0.511-0.27c0.057-0.029,0.124-0.071,0.196-0.123c0.027-0.038,0.059-0.084,0.096-0.139
				c0.112-0.174,0.259-0.418,0.431-0.707c0.116-0.197,0.275-0.363,0.466-0.489l2.354-1.552c0.047-0.051,0.098-0.109,0.153-0.177
				c0.03-0.037,0.131-0.175,0.276-0.438c0.216-0.4,0.517-0.76,0.885-1.055c0.237-0.18,0.478-0.336,0.728-0.473
				c0.143-0.158,0.313-0.341,0.517-0.543c0.285-0.29,0.66-0.639,1.121-1.037c0.083-0.072,0.175-0.135,0.271-0.188
				c0.167-0.09,0.372-0.221,0.625-0.395c0.271-0.183,0.547-0.41,0.838-0.69c1.772-1.671,3.283-2.89,4.628-3.733
				c1.512-0.95,2.812-1.411,3.974-1.411c0.845,0,1.531,0.224,2.041,0.664c0.563,0.498,0.867,1.201,0.867,1.991
				c0,0.593-0.118,1.147-0.35,1.646c-0.252,0.539-0.639,0.989-1.15,1.345c-0.384,0.278-0.815,0.6-1.282,0.951
				c-0.309,0.388-0.664,0.787-1.058,1.191c-0.023,0.022-0.046,0.046-0.069,0.069c1.023-0.098,1.944,0.279,2.494,1.1
				c0.355,0.526,0.55,1.191,0.612,2.09c0.004,0.059,0.005,0.115,0.002,0.174c-0.04,0.896-0.055,1.755-0.055,2.574
				c-0.009,0.304,0.052,0.506,0.193,0.701c0,0,0.007,0.008,0.017,0.018c0.047-0.059,0.094-0.116,0.14-0.172l0.122-0.151
				c0.158-0.194,0.291-0.354,0.437-0.517c0.112-0.125,0.244-0.229,0.391-0.311c0.039-0.066,0.081-0.141,0.122-0.212
				c0.048-0.083,0.095-0.165,0.139-0.239c0.042-0.086,0.093-0.167,0.151-0.245c0.281-0.37,0.563-0.751,0.843-1.156
				c0.08-0.116,0.176-0.221,0.285-0.31c1.261-1.034,2.3-2.036,3.088-2.979c0.625-0.749,1.106-1.444,1.438-2.075l-0.174-0.825
				c-0.072-0.342-0.022-0.699,0.142-1.008c0.37-0.702,1.093-1.393,2.274-2.174c1.204-0.796,2.228-1.183,3.128-1.183
				c0.987,0,1.848,0.307,2.555,0.912c0.439,0.374,0.84,0.741,1.217,1.116c0.204,0.13,0.354,0.239,0.454,0.321
				c0.911,0.683,1.636,1.676,2.104,2.913c0.428,1.144,0.644,2.515,0.644,4.08c0,0.813-0.236,1.836-0.722,3.112
				c0.497-0.442,0.702-0.573,0.861-0.657c0.068-0.035,0.213-0.113,0.501-0.346c0.368-0.299,0.856-0.404,1.316-0.285
				c0.459,0.119,0.836,0.447,1.015,0.887c0.137,0.336,0.297,0.703,0.487,1.098c0.217,0.457,0.426,0.942,0.624,1.451
				c0.227,0.58,0.07,1.241-0.394,1.658c-0.138,0.125-0.288,0.266-0.457,0.423l-0.092,0.085c-0.204,0.199-0.477,0.446-0.796,0.723
				c-0.028,0.024-0.056,0.047-0.085,0.068c-0.603,0.451-1.378,0.982-2.516,1.723c-1.111,0.724-2.333,1.488-3.633,2.27
				c-0.451,0.291-1.001,0.543-1.598,0.727c-0.143,0.045-0.292,0.066-0.441,0.066c-1.049,0-1.864-0.179-2.493-0.547
				c-0.855-0.518-1.317-1.371-1.317-2.412c0-0.35,0.063-0.732,0.187-1.139c0.111-0.353,0.253-0.709,0.426-1.072
				c0.109-0.243,0.241-0.514,0.388-0.789c0.087-0.17,0.172-0.365,0.244-0.564c0.371-1.059,0.663-2.079,0.861-3.018
				c0.189-0.87,0.284-1.66,0.284-2.357c0-0.816-0.124-1.219-0.205-1.396c-0.148,0.109-0.303,0.231-0.461,0.366
				c-0.411,0.353-0.839,0.798-1.264,1.317c-0.559,0.689-1.076,1.275-1.533,1.732c-0.377,0.383-0.722,0.68-1.042,0.898
				c-0.217,0.297-0.492,0.602-0.834,0.924c-0.343,0.328-0.778,0.676-1.321,1.057c-0.122,0.246-0.32,0.527-0.576,0.811
				c-0.03,0.033-0.063,0.064-0.095,0.096c-0.132,0.121-0.433,0.513-0.632,0.771c-0.278,0.363-0.541,0.705-0.794,0.962
				c-0.462,0.456-0.94,0.882-1.436,1.28c-0.707,0.539-1.339,0.914-1.967,1.172c-0.701,0.283-1.409,0.426-2.11,0.426
				c-1.614,0-2.906-0.5-3.84-1.486c-0.594-0.622-1.021-1.436-1.28-2.428c-0.282,0.221-0.596,0.47-0.943,0.75
				c-0.629,0.643-1.161,1.178-1.598,1.595c-0.43,0.409-0.73,0.704-0.91,0.884c-0.03,0.031-0.062,0.06-0.094,0.087
				c-0.435,0.366-0.92,0.721-1.443,1.054c-0.512,0.325-1.079,0.66-1.718,1.014c-0.448,0.233-0.809,0.404-1.104,0.535
				c-0.479,0.211-0.862,0.309-1.214,0.309c-1.294,0-2.313-0.369-3.027-1.095c-0.58-0.595-0.925-1.394-1.028-2.384
				c-0.662,0.316-1.311,0.506-1.936,0.564c-0.346,0.17-0.72,0.299-1.117,0.382c-0.458,0.103-1.018,0.157-1.642,0.157
				c-0.886,0-1.655-0.133-2.352-0.408c-0.719-0.273-1.353-0.699-1.866-1.257c-0.252-0.247-0.516-0.629-0.78-1.15
				c-0.173-0.336-0.347-0.712-0.517-1.119c-0.163,0.124-0.358,0.265-0.596,0.427c-1.062,0.722-7.61,4.153-9.119,4.153
				c-0.062,0-0.121-0.003-0.18-0.009c-0.015,0.009-0.029,0.018-0.044,0.026c-0.76,0.441-1.54,0.661-2.332,0.661
				c-0.783,0-2.21-0.339-2.975-2.613c-0.133-0.395-0.244-0.84-0.333-1.34c-0.039,0.074-0.079,0.15-0.122,0.225l-0.86,1.643
				c-0.156,0.35-0.328,0.695-0.512,1.036c-0.16,0.294-0.301,0.581-0.433,0.876c-0.059,0.131-0.136,0.254-0.229,0.363
				c-0.367,0.43-0.814,0.761-1.327,0.982C102.346,52.055,101.804,52.158,101.22,52.158z M98.108,37.767
				c0.217,0,0.434,0.047,0.636,0.141c0.448,0.21,0.764,0.627,0.845,1.115l1.294,7.856c0.23,1.403,0.371,2.019,0.441,2.276
				c0.139-0.008,0.256-0.032,0.352-0.072c0.036-0.016,0.073-0.037,0.109-0.064c0.13-0.277,0.267-0.551,0.416-0.826
				c0.152-0.281,0.297-0.571,0.427-0.865c0.014-0.031,0.028-0.062,0.044-0.092l0.909-1.733c0.133-0.235,0.178-0.37,0.195-0.434
				c0.039-0.146,0.067-0.271,0.077-0.381c0.02-0.22,0.088-0.434,0.2-0.624c0.153-0.262,0.301-0.516,0.442-0.763
				c-0.302,0.201-0.585,0.243-0.909,0.243c-0.342,0-0.674-0.116-0.94-0.33l-0.274-0.221c-0.091-0.074-0.174-0.158-0.245-0.25
				c-0.285-0.367-0.378-0.793-0.468-1.552c-0.058-0.483-0.122-1.149-0.199-2.015l-0.138-1.98c-0.041-0.56-0.06-0.979-0.06-1.26
				c0-0.658,0.048-1.549,0.144-2.646c0.043-0.511,0.073-0.923,0.093-1.255c-0.089,0.071-0.18,0.154-0.272,0.248
				c-0.549,0.555-1.133,1.481-1.737,2.756c-0.224,0.47-0.508,0.979-0.869,1.555c-0.246,0.395-0.516,0.795-0.804,1.2
				C97.913,37.777,98.011,37.767,98.108,37.767z M136.393,44.076c0.009,0.066,0.014,0.135,0.014,0.201
				c0,0.209-0.019,0.47-0.068,0.805c-0.048,0.318-0.196,0.613-0.425,0.841c-0.293,0.292-0.515,0.591-0.657,0.89
				c-0.11,0.236-0.168,0.494-0.168,0.768c0,0.545,0.105,0.847,0.203,0.947c0.04,0.04,0.217,0.176,0.767,0.193
				c0.035-0.014,0.075-0.03,0.118-0.05c0.246-0.108,0.55-0.253,0.9-0.436c0.547-0.303,1.062-0.606,1.526-0.901
				c0.391-0.25,0.752-0.511,1.073-0.777c0.193-0.192,0.496-0.488,0.913-0.887c0.191-0.183,0.401-0.389,0.631-0.618
				c-0.535,0.359-1.039,0.608-1.543,0.767c-0.592,0.186-1.239-0.014-1.624-0.502l-0.195-0.247c-0.414-0.524-0.432-1.259-0.044-1.802
				l1.29-1.809c0.472-0.646,0.683-0.908,0.881-1.098c1.048-0.922,1.845-1.67,2.416-2.266c0.68-0.71,0.878-1.074,0.922-1.168
				c0.106-0.227,0.268-0.423,0.469-0.571c0.372-0.274,0.667-0.513,0.876-0.71c0.183-0.168,0.314-0.293,0.409-0.383
				c0.122-0.172,0.265-0.365,0.426-0.573c0.084-0.107,0.182-0.203,0.291-0.284c0.515-0.382,0.954-0.758,1.306-1.119
				c0.369-0.378,0.691-0.746,0.958-1.092c0.082-0.106,0.178-0.201,0.284-0.281c0.544-0.411,1.045-0.784,1.51-1.121
				c0.133-0.093,0.157-0.145,0.168-0.167c0.004-0.008,0.008-0.017,0.011-0.025c-0.377,0.037-1.084,0.225-2.229,0.944
				c-1.161,0.728-2.559,1.861-4.154,3.366c-0.407,0.391-0.819,0.729-1.217,0.995c-0.278,0.192-0.524,0.349-0.735,0.471
				c-0.338,0.295-0.618,0.555-0.843,0.784c-0.251,0.249-0.434,0.452-0.567,0.608c-0.136,0.157-0.302,0.285-0.489,0.375
				c-0.177,0.085-0.335,0.181-0.472,0.284c-0.026,0.021-0.064,0.066-0.098,0.128c-0.2,0.362-0.395,0.66-0.584,0.896
				c-0.177,0.212-0.312,0.358-0.42,0.473c-0.078,0.08-0.164,0.152-0.258,0.214l-2.217,1.46c-0.122,0.203-0.232,0.383-0.332,0.536
				c-0.189,0.28-0.32,0.448-0.422,0.563c-0.021,0.024-0.045,0.049-0.068,0.071c0.19,0.003,0.381,0.041,0.563,0.117
				C135.983,43.095,136.324,43.551,136.393,44.076z M165.217,47.82c0.114,0.027,0.295,0.057,0.563,0.068
				c0.253-0.092,0.479-0.203,0.686-0.336c0.928-0.559,1.798-1.097,2.611-1.613c-0.617-0.005-1.027-0.264-1.263-0.48
				c-0.349-0.286-0.583-0.787-0.583-1.324c0-0.912,0.309-2.079,0.971-3.67c0.641-1.544,0.736-2.275,0.736-2.574
				c0-1.205-0.152-2.223-0.452-3.025c-0.265-0.699-0.642-1.229-1.15-1.61c-0.108-0.086-0.202-0.145-0.325-0.221
				c-0.103-0.063-0.197-0.138-0.282-0.224c-0.352-0.356-0.729-0.706-1.154-1.067c-0.114-0.097-0.272-0.194-0.608-0.194
				c-0.045,0-0.466,0.019-1.474,0.686c-0.493,0.326-0.801,0.575-0.99,0.751l0.134,0.635c0.064,0.307,0.031,0.624-0.094,0.91
				c-0.171,0.391-0.383,0.795-0.635,1.209c0.023-0.02,0.047-0.04,0.07-0.061c0.552-0.467,1.081-0.839,1.579-1.111
				c0.274-0.15,0.589-0.21,0.902-0.173c1.073,0.132,1.927,0.686,2.47,1.602c0.444,0.751,0.661,1.731,0.661,2.997
				c0,0.91-0.118,1.916-0.351,2.986c-0.224,1.057-0.55,2.201-0.969,3.396c-0.121,0.333-0.257,0.643-0.411,0.943
				c-0.126,0.238-0.229,0.451-0.325,0.664c-0.127,0.269-0.217,0.492-0.282,0.699C165.235,47.738,165.224,47.783,165.217,47.82z
				 M107.688,39.558c0.517,0,0.997,0.266,1.271,0.703l0.138,0.22c0.149,0.239,0.229,0.515,0.229,0.796
				c0,0.311-0.061,0.658-0.197,1.129c-0.075,0.257-0.077,0.372-0.077,0.385c0,2.438,0.249,3.689,0.459,4.311
				c0.105,0.314,0.201,0.482,0.259,0.564c0.219-0.022,0.443-0.102,0.684-0.242c0.211-0.125,0.483-0.355,0.797-0.676
				c0.334-0.342,0.787-0.492,1.245-0.443c-0.188-0.454-0.144-0.982,0.142-1.407c0.06-0.089,0.121-0.181,0.184-0.275
				c-0.649,0.321-1.484,0.275-1.985-0.254c-0.391-0.413-0.662-0.856-0.809-1.319c-0.01-0.033-0.02-0.065-0.027-0.098
				c-0.075-0.313-0.12-0.586-0.136-0.838c-0.01-0.201-0.014-0.435,0.02-0.678c0.129-1.853,0.232-3.219,0.314-4.099
				c0.032-0.347,0.056-0.595,0.074-0.772c-0.099-0.246-0.167-0.464-0.222-0.705c-0.048-0.211-0.05-0.43-0.005-0.643
				c0.137-0.645,0.263-1.276,0.383-1.886c0.01-0.321,0.054-0.604,0.131-0.856c0.062-0.202,0.143-0.383,0.242-0.545
				c-0.54,0.706-1.363,2.039-2.486,4.538c-0.621,1.383-1.14,2.498-1.58,3.396C106.987,39.69,107.305,39.558,107.688,39.558z
				 M24.9,42.496c-0.039,0.283-0.131,0.642-0.296,1.163c-0.127,0.39-0.278,0.876-0.463,1.469l-0.115,0.368
				c-0.161,0.541-0.298,1.026-0.403,1.447c0.476-0.45,1.35-1.388,2.882-3.331c0.73-0.931,1.391-1.71,1.994-2.353
				c-0.247,0.012-0.493-0.037-0.722-0.147c-1.063-0.513-1.179-1.366-1.179-1.708c0-0.17,0.012-0.366,0.044-0.578
				c0.031-0.229,0.104-0.486,0.224-0.793c0.369-0.869,0.621-1.754,0.767-2.672c0.152-0.949,0.229-1.959,0.229-3
				c0-0.432-0.048-0.683-0.088-0.817c-0.153,0.041-0.478,0.174-1.058,0.591c-0.73,0.53-1.626,1.375-2.654,2.501
				c-0.468,0.516-0.9,0.986-1.298,1.414c0.754-0.26,1.607-0.093,2.181,0.477c0.281,0.28,0.61,0.77,0.61,1.533
				c0,0.07-0.005,0.143-0.016,0.213l-0.399,2.776C25.017,41.91,24.945,42.292,24.9,42.496z M147.939,43.737
				c0.085,0.997,0.325,1.712,0.716,2.121c0.132,0.14,0.522,0.552,1.665,0.552c0.317,0,0.637-0.066,0.977-0.204
				c0.371-0.152,0.794-0.407,1.251-0.755c0.121-0.098,0.244-0.201,0.368-0.307c-1.148,0.176-2.234-0.34-2.921-1.295
				c-0.531-0.729-0.791-1.574-0.763-2.506c-0.001-0.791,0.013-1.664,0.053-2.574c-0.01-0.12-0.023-0.217-0.037-0.294
				c-0.264,0.067-0.572,0.216-0.908,0.438c-0.611,0.405-1.315,1.079-2.038,1.95c-0.102,0.122-0.222,0.228-0.356,0.313l-0.097,0.061
				c-0.035,0.021-0.069,0.043-0.104,0.064c0.14-0.032,0.282-0.044,0.43-0.035c0.424,0.025,0.816,0.229,1.081,0.561
				c0.275,0.346,0.466,0.713,0.565,1.094C147.897,43.238,147.934,43.492,147.939,43.737z M122.222,41.89
				c0.658,0,1.26,0.314,1.694,0.886c0.216,0.277,0.421,0.656,0.655,1.216c0.189,0.471,0.363,0.854,0.528,1.176
				c0.167,0.328,0.258,0.422,0.268,0.432c0.248,0.268,0.491,0.428,0.793,0.543c0.351,0.139,0.771,0.205,1.267,0.205
				c0.402,0,0.741-0.029,1.005-0.089c0.221-0.046,0.395-0.112,0.537-0.202c0.238-0.148,0.514-0.229,0.795-0.229
				c0.429,0,0.956-0.189,1.567-0.566c0.549-0.332,1.167-0.811,1.847-1.425c-0.448,0.22-0.933,0.411-1.454,0.573
				c-0.683,0.215-1.429,0.353-2.28,0.422c-0.15,0.012-0.294,0.002-0.437-0.029c-0.513-0.109-0.94-0.225-1.309-0.351
				c-0.454-0.153-0.784-0.311-1.051-0.5c-0.478-0.295-0.851-0.716-1.111-1.252c-0.239-0.517-0.355-1.071-0.355-1.675
				c0-0.439,0.098-0.876,0.283-1.264c0.17-0.352,0.375-0.648,0.614-0.892c0.146-0.142,0.288-0.282,0.427-0.42
				c-0.534-0.007-0.971-0.175-1.3-0.497c-0.242-0.241-0.518-0.652-0.518-1.301c0-0.813,0.385-1.779,1.249-3.134
				c0.729-1.129,1.64-2.275,2.893-2.275c0.644,0,1.209,0.308,1.552,0.845c0.221,0.346,0.332,0.75,0.332,1.202
				c0,0.023,0,0.047-0.001,0.07c0.164-0.314,0.286-0.605,0.363-0.873l0.243-0.868c0.11-0.378,0.197-0.664,0.261-0.87l0.012-0.039
				c-0.039-0.244-0.074-0.476-0.106-0.693c-0.086-0.321-0.173-0.591-0.261-0.804c-0.08-0.195-0.126-0.258-0.128-0.26
				c-0.072-0.03-0.265-0.077-0.671-0.077c-0.219,0-0.428,0.019-0.622,0.057c-0.123,0.023-0.235,0.048-0.34,0.076
				c-0.208,0.151-0.417,0.293-0.63,0.422c-0.126,0.079-0.257,0.169-0.384,0.265c-0.388,0.474-0.775,0.944-1.164,1.409
				c-0.404,0.481-0.786,0.922-1.155,1.332c-0.431,0.712-0.736,1.272-0.959,1.756c-0.277,0.593-0.493,1.077-0.656,1.465
				c-0.096,0.27-0.206,0.584-0.308,0.878l-0.06,0.169c-0.074,0.223-0.14,0.434-0.184,0.621c-0.024,0.37-0.063,0.734-0.115,1.094
				c-0.062,0.377-0.116,0.731-0.169,1.09c-0.056,0.378-0.253,0.721-0.552,0.957c-0.462,0.367-0.84,0.717-1.123,1.039
				c-0.071,0.082-0.149,0.182-0.244,0.303c-0.042,0.053-0.087,0.11-0.136,0.172C121.822,41.919,122.021,41.89,122.222,41.89z
				 M68.877,46.019c0.045,0.02,0.123,0.047,0.242,0.078c0.158,0.045,0.42,0.088,0.928,0.088c0.154,0,0.3-0.021,0.443-0.066
				c0.228-0.067,0.459-0.162,0.738-0.299l0.121-0.062c0.209-0.106,0.429-0.218,0.66-0.341c0.307-0.165,0.601-0.316,0.877-0.451
				c0.053-0.021,0.105-0.043,0.157-0.065c-0.568,0.093-1.181,0.179-1.828,0.257c-0.934,0.12-1.875-0.348-2.837-1.266
				c-0.923-0.885-1.37-1.73-1.37-2.588c0-0.414,0.115-0.727,0.503-1.225c-0.099,0.021-0.198,0.031-0.3,0.031
				c-0.428,0-1.055-0.155-1.61-0.892c-0.207-0.265-0.42-0.647-0.671-1.22c-0.171-0.357-0.318-0.709-0.425-1.008
				c-0.158-0.453-0.214-0.878-0.169-1.273v-0.08c0-0.229,0.052-0.451,0.148-0.652c-0.582-0.326-0.895-0.928-1.103-1.422
				c-0.204-0.489-0.385-1.123-0.556-1.943c-0.024-0.141-0.049-0.262-0.073-0.367c-0.351,0.305-0.561,0.569-0.684,0.838
				c-0.141,0.308-0.209,0.649-0.209,1.042c0,0.01,0.011,0.302,0.388,1.124c0.455,0.994,0.658,1.698,0.658,2.283
				c0,0.261-0.054,0.504-0.145,0.729c0.273,0.109,0.516,0.3,0.688,0.557c0.45,0.671,0.834,1.306,1.141,1.886
				c0.316,0.604,0.572,1.184,0.763,1.725c0.057,0.16,0.085,0.328,0.085,0.498c0,0.285-0.054,0.578-0.214,0.924
				c0.104,0.021,0.206,0.053,0.305,0.096l0.19,0.084c0.169,0.073,0.324,0.178,0.455,0.309L68.877,46.019z M12.47,37.435
				c0.531,0,1.024,0.206,1.39,0.579c0.354,0.358,0.552,0.845,0.552,1.362c0,0.975-0.337,2.418-1.061,4.543
				c-0.349,1.027-0.563,1.747-0.693,2.247c0.062-0.056,0.129-0.118,0.203-0.187c0.602-0.57,1.45-1.49,2.518-2.732
				c0.715-0.795,1.396-1.559,2.063-2.314l1-1.141c-0.064,0.009-0.129,0.014-0.193,0.014c-0.758,0-1.204-0.379-1.402-0.605
				c-0.316-0.4-0.455-0.82-0.455-1.279c0-0.118,0.014-0.236,0.042-0.352c0.116-0.481,0.26-0.982,0.427-1.49
				c0.128-0.545,0.229-1.092,0.303-1.623c0.072-0.523,0.109-1.016,0.109-1.46c0-0.09-0.004-0.166-0.01-0.229
				c-0.448,0.186-0.874,0.359-1.277,0.517c-0.563,0.579-1.064,1.101-1.499,1.557c-0.511,0.542-0.954,0.988-1.319,1.334
				c-0.469,0.43-0.949,0.895-1.442,1.392C11.972,37.479,12.22,37.435,12.47,37.435z M84.986,45.855c0.009,0,0.486,0.252,2.302,0.252
				c-0.021-0.002,0.149-0.043,0.556-0.244c0.434-0.217,1.013-0.586,1.715-1.094c0.021-0.016,0.041-0.03,0.062-0.045
				c-0.882,0.247-1.795,0.229-2.494-0.068c-0.487-0.226-0.852-0.557-1.098-0.979c-0.185-0.277-0.343-0.691-0.597-1.725
				c-0.214-0.861-0.351-1.311-0.429-1.533c-0.033-0.099-0.058-0.199-0.07-0.303c-0.07-0.555-0.156-1.105-0.262-1.646
				c-0.107-0.574-0.226-1.131-0.349-1.681c-0.094-0.41-0.248-0.521-0.299-0.558c-0.184-0.134-0.423-0.198-0.739-0.198
				c0.013,0.003-0.022,0.033-0.077,0.119c-0.592,0.848-1.517,1.805-2.869,2.99c-0.47,0.412-0.881,0.789-1.231,1.131
				c1.189-0.721,2.243-0.643,3.073,0.422c0.209,0.264,0.43,0.618,0.686,1.104c0.153,0.227,0.292,0.429,0.417,0.599
				c0.218,0.303,0.36,0.532,0.468,0.754c0.026,0.055,0.05,0.111,0.069,0.168C84.534,45.398,84.942,45.815,84.986,45.855
				L84.986,45.855z M43.659,41.343c0.66,0,1.262,0.316,1.693,0.892c0.22,0.284,0.433,0.675,0.657,1.216
				c0.187,0.463,0.356,0.846,0.522,1.166c0.16,0.316,0.259,0.422,0.276,0.439c0.245,0.268,0.483,0.426,0.785,0.541
				c0.35,0.137,0.772,0.205,1.267,0.205c0.404,0,0.743-0.03,1.007-0.09c0.221-0.047,0.396-0.113,0.537-0.201
				c0.238-0.148,0.514-0.229,0.795-0.229c0.424,0,0.964-0.195,1.563-0.564c0.56-0.34,1.18-0.819,1.856-1.43
				c-0.446,0.22-0.936,0.414-1.459,0.576c-0.685,0.216-1.432,0.354-2.282,0.42c-0.144,0.014-0.29,0.002-0.431-0.027
				c-0.514-0.109-0.943-0.225-1.313-0.35c-0.472-0.164-0.794-0.317-1.056-0.505c-0.487-0.302-0.862-0.729-1.114-1.271
				c-0.229-0.488-0.345-1.045-0.345-1.652c0-0.462,0.099-0.895,0.294-1.287c0.155-0.328,0.365-0.631,0.61-0.877
				c0.143-0.139,0.282-0.275,0.419-0.412c-0.555-0.008-1.004-0.186-1.333-0.529c-0.223-0.232-0.487-0.641-0.487-1.27
				c0-0.816,0.389-1.785,1.259-3.138c0.718-1.121,1.622-2.269,2.884-2.269c0.649,0,1.218,0.311,1.56,0.853
				c0.216,0.34,0.326,0.743,0.326,1.193c0,0.021,0,0.045-0.001,0.066c0.163-0.313,0.284-0.603,0.361-0.868l0.244-0.871
				c0.117-0.401,0.208-0.702,0.273-0.913c-0.035-0.217-0.067-0.423-0.098-0.618l-0.011-0.063c-0.082-0.311-0.172-0.59-0.267-0.829
				c-0.071-0.177-0.121-0.242-0.121-0.243c-0.073-0.03-0.269-0.077-0.673-0.077c-0.217,0-0.427,0.019-0.624,0.057
				c-0.12,0.023-0.233,0.048-0.339,0.077c-0.205,0.148-0.409,0.288-0.614,0.414c-0.14,0.086-0.271,0.178-0.396,0.271
				c-0.388,0.476-0.778,0.946-1.168,1.412c-0.399,0.478-0.784,0.919-1.152,1.329c-0.407,0.671-0.724,1.251-0.966,1.768
				c-0.274,0.582-0.487,1.063-0.646,1.449c-0.118,0.333-0.249,0.704-0.365,1.045c-0.084,0.238-0.146,0.447-0.189,0.629
				c-0.024,0.375-0.063,0.742-0.118,1.105l-0.166,1.086c-0.058,0.375-0.255,0.716-0.553,0.951c-0.449,0.355-0.829,0.707-1.129,1.043
				c-0.091,0.104-0.176,0.205-0.254,0.305c0.021,0.037,0.04,0.074,0.059,0.113l0.002,0.004
				C43.378,41.359,43.519,41.343,43.659,41.343z M32.44,38.812c1.244,0,2.516,0.9,4.252,3.01c1.027,1.255,1.98,1.916,2.76,1.916
				c0.035,0,0.234-0.011,0.653-0.229c0.193-0.099,0.401-0.221,0.625-0.367c-0.039-0.092-0.078-0.184-0.118-0.275
				c-1.196-0.175-2.041-1.268-2.335-1.646c-0.634-0.824-1.311-1.986-2.071-3.559c0,0.001,0,0.001,0,0.001
				c-0.001,0-0.09-0.153-0.341-0.431c-0.199-0.217-0.465-0.475-0.785-0.762c-0.23,0.03-0.47,0.094-0.712,0.189
				c-0.389,0.154-0.793,0.393-1.198,0.709c-0.498,0.371-0.938,0.718-1.342,1.05l-1.106,0.916c-0.008,0.011-0.016,0.022-0.023,0.032
				C31.325,38.988,31.895,38.812,32.44,38.812z M144.592,42.119c-0.03,0.026-0.061,0.055-0.093,0.084
				c-0.111,0.1-0.226,0.203-0.346,0.313c0.077-0.061,0.15-0.117,0.22-0.171C144.452,42.261,144.524,42.185,144.592,42.119z
				 M67.43,36.236c0.017,0.041,0.033,0.081,0.05,0.121c0.132-0.158,0.278-0.344,0.441-0.561
				C67.764,35.939,67.601,36.085,67.43,36.236z M72.053,29.932c0.286,0.108,0.498,0.262,0.646,0.4
				c0.42,0.435,0.611,0.926,0.611,1.477c0,0.676-0.225,1.642-1.802,4.076c0.306-0.308,0.631-0.633,0.975-0.977
				c0.462-0.531,0.912-1.068,1.286-1.54c0.414-0.518,0.655-0.874,0.785-1.083c0.059-0.093,0.126-0.179,0.203-0.257l0,0
				c0,0,0.067-0.084,0.129-0.348c0.085-0.357,0.127-0.82,0.127-1.383c0-0.134-0.027-0.301-0.079-0.481
				c-0.064-0.224-0.173-0.501-0.331-0.843c-0.075-0.183-0.137-0.307-0.183-0.389c-0.155,0.029-0.322,0.034-0.484,0.011v0
				c-0.008,0-0.017-0.001-0.024-0.002c-0.136,0.077-0.368,0.22-0.731,0.475C72.854,29.294,72.478,29.583,72.053,29.932z"/>
		</g>
	</g>
	<g>
		<linearGradient id="SVGID_1_" gradientUnits="userSpaceOnUse" x1="54.5762" y1="30.3535" x2="54.5859" y2="30.3535">
			<stop  offset="0" style="stop-color:#001200"/>
			<stop  offset="0.2309" style="stop-color:#011402"/>
			<stop  offset="0.3217" style="stop-color:#051B07"/>
			<stop  offset="0.3878" style="stop-color:#0B2711"/>
			<stop  offset="0.442" style="stop-color:#14381F"/>
			<stop  offset="0.4889" style="stop-color:#1F4F31"/>
			<stop  offset="0.5307" style="stop-color:#2D6B48"/>
			<stop  offset="0.5683" style="stop-color:#3E8C62"/>
			<stop  offset="0.6024" style="stop-color:#51B181"/>
			<stop  offset="0.6059" style="stop-color:#53B584"/>
			<stop  offset="0.6515" style="stop-color:#3FA677"/>
			<stop  offset="0.7547" style="stop-color:#16885E"/>
			<stop  offset="0.8079" style="stop-color:#067D54"/>
			<stop  offset="0.9176" style="stop-color:#026652"/>
			<stop  offset="0.9951" style="stop-color:#005B51"/>
		</linearGradient>
		<path fill="url(#SVGID_1_)" d="M54.576,30.327c0.004,0.019,0.006,0.035,0.01,0.054C54.586,30.348,54.582,30.333,54.576,30.327z"/>
		<path fill="#203027" d="M83.145,26.83c0.277,0,0.555,0.016,0.84,0.042s0.582,0.058,0.895,0.095
			c0.11,0.021,0.307-0.032,0.593-0.152c0.285-0.115,0.638-0.325,1.059-0.614c0.403-0.241,0.749-0.51,1.032-0.814
			c0.285-0.305,0.508-0.651,0.674-1.055c0.074-0.189,0.178-0.489,0.316-0.909c0.138-0.426,0.298-0.967,0.482-1.623
			c0.072-0.352,0.164-0.782,0.275-1.298c0-0.346-0.107-0.614-0.316-0.798c-0.213-0.184-0.546-0.272-1.006-0.272
			c-0.385,0-0.727,0.042-1.018,0.12c-0.295,0.084-0.531,0.189-0.715,0.32c-0.424,0.494-0.791,0.935-1.101,1.318
			c-0.515,0.059-1.105,0.499-1.776,1.334c-0.669,0.835-1.004,1.528-1.004,2.08c0,0.625,0.068,1.118,0.205,1.486
			C82.719,26.458,82.907,26.704,83.145,26.83z"/>
		<linearGradient id="SVGID_2_" gradientUnits="userSpaceOnUse" x1="6.7324" y1="38.7437" x2="174.625" y2="38.7437">
			<stop  offset="0" style="stop-color:#141E18"/>
			<stop  offset="0.257" style="stop-color:#152019"/>
			<stop  offset="0.3495" style="stop-color:#18271E"/>
			<stop  offset="0.4155" style="stop-color:#1D3227"/>
			<stop  offset="0.4689" style="stop-color:#244333"/>
			<stop  offset="0.5146" style="stop-color:#2D5942"/>
			<stop  offset="0.555" style="stop-color:#387556"/>
			<stop  offset="0.5907" style="stop-color:#45946C"/>
			<stop  offset="0.6207" style="stop-color:#53B584"/>
			<stop  offset="0.663" style="stop-color:#3FA677"/>
			<stop  offset="0.7586" style="stop-color:#16885E"/>
			<stop  offset="0.8079" style="stop-color:#067D54"/>
			<stop  offset="0.9176" style="stop-color:#026652"/>
			<stop  offset="0.9951" style="stop-color:#005B51"/>
		</linearGradient>
		<path fill="url(#SVGID_2_)" d="M174.047,42.349c-0.205-0.426-0.378-0.82-0.525-1.182c-0.293,0.236-0.541,0.404-0.74,0.504
			c-0.199,0.105-0.789,0.631-1.765,1.582c-0.384,0.371-0.741,0.656-1.071,0.871c-0.331,0.209-0.614,0.314-0.852,0.314
			c-0.109,0-0.199-0.025-0.262-0.084c-0.063-0.051-0.1-0.125-0.1-0.221c0-0.693,0.287-1.729,0.855-3.094
			c0.566-1.365,0.852-2.415,0.852-3.151c0-1.392-0.184-2.578-0.547-3.55c-0.367-0.972-0.92-1.733-1.654-2.285
			c-0.089-0.073-0.236-0.173-0.441-0.299c-0.399-0.404-0.818-0.788-1.25-1.155c-0.431-0.368-0.956-0.552-1.58-0.552
			c-0.59,0-1.355,0.31-2.301,0.935s-1.534,1.166-1.775,1.623l0.278,1.323c-0.384,0.877-1.009,1.828-1.858,2.847
			c-0.852,1.02-1.949,2.08-3.289,3.178c-0.293,0.427-0.588,0.825-0.883,1.214c0.002,0.002,0.002,0.004,0.003,0.006
			c-0.175,0.279-0.46,0.83-0.57,0.902c-0.138,0.094-0.242,0.158-0.315,0.195c-0.132,0.146-0.252,0.293-0.373,0.439
			c-0.115,0.146-0.247,0.301-0.373,0.469c-0.162,0.146-0.325,0.266-0.479,0.357c-0.156,0.094-0.32,0.135-0.482,0.135
			c-0.551,0-0.998-0.23-1.334-0.697c-0.342-0.469-0.5-0.998-0.482-1.586c0-0.842,0.015-1.724,0.057-2.644
			c-0.042-0.603-0.156-1.055-0.361-1.359c-0.201-0.3-0.494-0.452-0.877-0.452c-0.625,0-1.303,0.242-2.039,0.73
			c-0.729,0.482-1.523,1.229-2.363,2.242c-0.168,0.105-0.314,0.199-0.441,0.273c-0.131,0.074-0.258,0.148-0.389,0.221
			c-0.162,0.109-0.445,0.342-0.834,0.699c-0.4,0.357-0.903,0.824-1.529,1.391c-0.535,0.516-1.019,0.926-1.459,1.24
			c-0.441,0.309-0.862,0.529-1.266,0.656l-0.195-0.248c0.536-0.75,0.967-1.354,1.292-1.811c0.337-0.461,0.563-0.756,0.694-0.883
			c1.023-0.898,1.848-1.67,2.463-2.312c0.613-0.641,1.008-1.166,1.197-1.57c0.42-0.31,0.756-0.582,1.014-0.824
			c0.258-0.236,0.431-0.404,0.525-0.493c0.126-0.184,0.283-0.399,0.467-0.636c0.566-0.42,1.066-0.846,1.486-1.276
			s0.777-0.841,1.072-1.224c0.535-0.404,1.028-0.771,1.486-1.104c0.294-0.204,0.508-0.451,0.646-0.745
			c0.137-0.294,0.21-0.63,0.21-1.014c0-0.368-0.121-0.656-0.348-0.856c-0.23-0.199-0.582-0.299-1.061-0.299
			c-0.86,0-1.922,0.394-3.177,1.182c-1.255,0.787-2.715,1.969-4.386,3.545c-0.367,0.353-0.709,0.63-1.023,0.841
			c-0.311,0.215-0.563,0.372-0.768,0.482c-0.425,0.368-0.771,0.688-1.045,0.967c-0.273,0.272-0.482,0.504-0.636,0.683
			c-0.272,0.131-0.515,0.278-0.729,0.441c-0.21,0.168-0.379,0.367-0.51,0.609c-0.162,0.293-0.31,0.515-0.436,0.672
			c-0.131,0.157-0.242,0.278-0.332,0.372l-2.504,1.65c-0.184,0.311-0.342,0.572-0.479,0.783c-0.122,0.18-0.212,0.301-0.283,0.381
			c-0.193,0.154-0.391,0.285-0.589,0.387c-0.2,0.098-0.347,0.178-0.437,0.23c-0.457,0.258-0.982,0.477-1.57,0.66
			c-0.588,0.186-1.24,0.301-1.954,0.357c-0.44-0.094-0.819-0.193-1.14-0.303c-0.325-0.111-0.557-0.217-0.703-0.332
			c-0.258-0.146-0.451-0.361-0.594-0.656c-0.137-0.295-0.205-0.635-0.205-1.02c0-0.219,0.047-0.43,0.137-0.619
			c0.095-0.195,0.205-0.357,0.33-0.484c1.523-1.485,2.737-2.804,3.636-3.959c0.897-1.156,1.476-2.175,1.732-3.057l0.247-0.883
			c0.127-0.436,0.227-0.756,0.289-0.961c0.045-0.146,0.073-0.205,0.086-0.189c-0.07-0.42-0.131-0.808-0.181-1.155
			c-0.11-0.425-0.226-0.782-0.347-1.076c-0.12-0.294-0.241-0.51-0.373-0.662c-0.178-0.215-0.415-0.373-0.698-0.467
			c-0.284-0.09-0.656-0.137-1.114-0.137c-0.33,0-0.635,0.031-0.907,0.084c-0.279,0.053-0.525,0.115-0.746,0.194
			c-0.237,0.179-0.473,0.347-0.715,0.493c-0.235,0.147-0.456,0.305-0.661,0.468c-0.42,0.515-0.841,1.024-1.262,1.528
			c-0.424,0.504-0.824,0.966-1.212,1.392c-0.458,0.751-0.835,1.424-1.114,2.033c-0.283,0.604-0.508,1.107-0.677,1.512
			c-0.147,0.404-0.278,0.783-0.399,1.13c-0.115,0.346-0.205,0.65-0.257,0.908c-0.022,0.368-0.059,0.729-0.11,1.087
			c-0.059,0.356-0.115,0.72-0.169,1.087c-0.53,0.421-0.972,0.831-1.317,1.224c-0.348,0.395-0.869,1.203-2.131,2.359
			c-1.51,1.385-3.646,2.33-4.865,2.859c0.268-0.398,0.572-0.861,0.924-1.404c0.936-1.486,1.63-2.826,2.092-4.02
			c0.604-0.935,1.149-1.922,1.633-2.973c0.488-1.044,0.925-2.179,1.308-3.408c0.347-1.087,0.614-2.127,0.799-3.14
			c0.184-1.009,0.272-1.98,0.272-2.916c0-0.272-0.073-0.488-0.22-0.646c-0.147-0.152-0.374-0.236-0.688-0.236
			c-0.311,0-0.588,0.115-0.824,0.347c-0.236,0.23-0.42,0.572-0.547,1.029c-0.094,0.331-0.173,0.678-0.246,1.034
			c-0.074,0.357-0.152,0.709-0.221,1.062l0.221,0.824c-0.184,0.421-0.385,0.846-0.594,1.276c-0.21,0.431-0.389,0.861-0.536,1.281
			c-0.235,0.516-0.425,0.998-0.562,1.461c-0.137,0.456-0.242,0.877-0.315,1.266c-1.118,2.253-2.048,3.943-2.788,5.074
			c-0.744,1.129-1.299,1.691-1.664,1.691c-0.238-0.252-0.394-0.506-0.468-0.74c-0.054-0.223-0.086-0.41-0.097-0.58
			c-0.008-0.168-0.006-0.303,0.015-0.414c0.13-1.87,0.233-3.246,0.315-4.128c0.082-0.878,0.123-1.256,0.123-1.124
			c-0.053-0.132-0.109-0.258-0.166-0.384c-0.053-0.131-0.098-0.278-0.135-0.441c0.147-0.698,0.283-1.381,0.412-2.037
			c0-0.242,0.023-0.431,0.068-0.578c0.045-0.146,0.104-0.247,0.18-0.305c0.201-0.126,0.357-0.283,0.467-0.468
			c0.107-0.184,0.166-0.394,0.166-0.63c0-0.604-0.107-1.065-0.316-1.376c-0.213-0.315-0.557-0.468-1.032-0.468
			c-1.157,0-2.659,2.064-4.511,6.188c-1.855,4.128-2.973,6.192-3.359,6.192l-0.274-0.221c-0.054-0.068-0.108-0.342-0.164-0.809
			c-0.056-0.473-0.119-1.124-0.194-1.971c-0.054-0.788-0.1-1.438-0.136-1.953c-0.037-0.515-0.056-0.898-0.056-1.155
			c0-0.588,0.043-1.423,0.138-2.516c0.093-1.093,0.138-1.896,0.138-2.405c0-0.278-0.068-0.479-0.205-0.609
			c-0.141-0.126-0.337-0.194-0.594-0.194c-0.716,0-1.411,0.341-2.08,1.019c-0.671,0.678-1.346,1.733-2.025,3.167
			c-0.2,0.421-0.463,0.888-0.785,1.402s-0.693,1.057-1.116,1.622c-0.494,0.715-0.941,1.293-1.335,1.718
			c-0.395,0.431-0.738,0.73-1.034,0.899c-0.458,0.271-0.831,0.514-1.116,0.713c-0.283,0.201-0.464,0.342-0.537,0.416
			c0.001,0.002,0.002,0.004,0.003,0.006c-0.28,0.227-0.564,0.457-0.854,0.693c-0.302,0.246-0.591,0.494-0.867,0.73
			c-0.367,0.293-0.725,0.498-1.071,0.619c-0.351,0.121-0.689,0.18-1.021,0.18c-0.274,0-0.504-0.043-0.688-0.121
			c-0.181-0.084-0.318-0.215-0.413-0.4c-0.09-0.109-0.227-0.535-0.41-1.281c-0.184-0.74-0.34-1.297-0.467-1.665
			c-0.074-0.588-0.166-1.172-0.277-1.744c-0.109-0.582-0.23-1.155-0.357-1.722c-0.147-0.641-0.441-1.125-0.882-1.444
			c-0.438-0.321-0.98-0.483-1.62-0.483c-0.24,0-0.48,0.068-0.717,0.194c-0.238,0.126-0.451,0.341-0.632,0.63
			c-0.479,0.683-1.342,1.565-2.587,2.657c-1.248,1.094-2.119,1.976-2.615,2.657l-0.082,0.275l-0.166,0.193
			c0.004,0.002,0.006,0.01,0.011,0.012c-0.544,0.416-1.071,0.805-1.579,1.17c-0.515,0.367-1.01,0.699-1.484,0.988
			c-0.717,0.131-1.515,0.25-2.396,0.357c-0.475,0-1.016-0.285-1.621-0.863c-0.607-0.582-0.906-1.076-0.906-1.502
			c0-0.109,0.42-0.607,1.262-1.502c0.845-0.888,2.102-2.164,3.772-3.834c0.548-0.625,1.015-1.182,1.401-1.67
			c0.387-0.483,0.679-0.894,0.882-1.219c0.237-0.241,0.412-0.594,0.521-1.061c0.111-0.468,0.166-1.04,0.166-1.723
			c0-0.273-0.045-0.572-0.137-0.894c-0.092-0.319-0.232-0.672-0.412-1.061c-0.186-0.457-0.391-0.793-0.619-1.003
			s-0.465-0.3-0.705-0.263c-0.217,0-0.379,0.005-0.479,0.016s-0.104,0.016-0.015,0.016c-0.182-0.021-0.356-0.031-0.521-0.031
			c-0.259,0.079-0.694,0.331-1.308,0.762c-0.615,0.431-1.391,1.056-2.326,1.88c-0.824,0.735-1.521,1.365-2.09,1.886
			c-0.568,0.525-1.01,0.972-1.322,1.334c-0.237,0.131-0.467,0.263-0.687,0.399c-0.22,0.136-0.441,0.252-0.661,0.347
			c-0.147-0.074-0.301-0.311-0.467-0.704c-0.164-0.394-0.32-0.951-0.469-1.665c-0.108-0.641-0.274-1.129-0.494-1.46
			c-0.221-0.331-0.496-0.493-0.826-0.493c-0.127,0-0.289,0.063-0.48,0.178c-0.195,0.121-0.418,0.3-0.675,0.541
			c-0.513,0.421-0.884,0.883-1.114,1.387c-0.229,0.504-0.345,1.061-0.345,1.665c0,0.404,0.175,0.987,0.523,1.749
			c0.349,0.761,0.522,1.313,0.522,1.659c0,0.227-0.244,0.557-0.73,0.993c-0.483,0.441-1.214,0.971-2.184,1.597
			c-0.518,0.347-1.039,0.683-1.572,1.004c-0.531,0.32-1.072,0.656-1.623,1.008c0.003,0.004,0.004,0.008,0.007,0.014
			c-0.194,0.154-0.389,0.283-0.583,0.385c-0.203,0.1-0.349,0.18-0.441,0.23c-0.459,0.258-0.98,0.479-1.568,0.662
			c-0.588,0.186-1.238,0.301-1.953,0.357c-0.439-0.094-0.821-0.193-1.144-0.303c-0.321-0.111-0.556-0.217-0.702-0.332
			c-0.256-0.146-0.453-0.363-0.59-0.656c-0.138-0.295-0.205-0.635-0.205-1.02c0-0.221,0.043-0.43,0.137-0.619
			c0.093-0.195,0.201-0.357,0.328-0.484c1.525-1.485,2.735-2.805,3.634-3.96s1.478-2.174,1.733-3.057l0.248-0.882
			c0.127-0.437,0.225-0.756,0.289-0.962c0.046-0.146,0.075-0.206,0.088-0.189c-0.07-0.419-0.131-0.808-0.186-1.154
			c-0.109-0.426-0.227-0.783-0.343-1.076c-0.119-0.295-0.244-0.511-0.374-0.662c-0.182-0.216-0.416-0.373-0.701-0.468
			c-0.283-0.089-0.654-0.137-1.113-0.137c-0.328,0-0.633,0.031-0.907,0.084s-0.523,0.116-0.743,0.194
			c-0.24,0.179-0.478,0.347-0.716,0.494c-0.237,0.146-0.458,0.305-0.661,0.467c-0.42,0.516-0.842,1.024-1.264,1.528
			c-0.422,0.505-0.826,0.967-1.21,1.393c-0.46,0.751-0.831,1.423-1.116,2.032c-0.285,0.604-0.508,1.107-0.675,1.513
			c-0.146,0.404-0.278,0.782-0.397,1.129c-0.121,0.347-0.207,0.651-0.261,0.908c-0.021,0.368-0.056,0.73-0.11,1.087
			c-0.057,0.357-0.111,0.721-0.167,1.088c-0.531,0.42-0.97,0.83-1.319,1.224c-0.348,0.395-0.634,0.783-0.854,1.172
			c0.003,0.004,0.004,0.008,0.007,0.014c-0.084,0.063-0.169,0.121-0.255,0.164c-0.092,0.043-0.182,0.07-0.274,0.07
			c-0.421,0-0.911-0.363-1.472-1.088c-0.558-0.726-1.195-1.823-1.907-3.294c-0.113-0.216-0.304-0.479-0.579-0.783
			c-0.274-0.299-0.625-0.635-1.044-1.003c-0.093-0.073-0.185-0.137-0.274-0.188c-0.093-0.058-0.186-0.084-0.275-0.084
			c-0.513,0-1.036,0.104-1.567,0.314c-0.531,0.211-1.055,0.521-1.567,0.919c-0.494,0.368-0.954,0.73-1.375,1.077
			c-0.42,0.347-0.843,0.698-1.262,1.045c-0.258,0.367-0.484,0.667-0.674,0.909c-0.193,0.235-0.363,0.42-0.51,0.546
			c-0.219-0.105-0.33-0.226-0.33-0.357c0-0.104,0.008-0.226,0.027-0.356c0.018-0.127,0.064-0.283,0.137-0.468
			c0.404-0.95,0.688-1.948,0.852-2.983c0.166-1.034,0.248-2.116,0.248-3.235c0-0.771-0.123-1.35-0.369-1.743
			c-0.248-0.394-0.639-0.594-1.17-0.594c-0.494,0-1.154,0.299-1.981,0.893c-0.825,0.6-1.786,1.502-2.888,2.71
			c-1.283,1.413-2.32,2.516-3.111,3.303c-0.787,0.788-1.318,1.246-1.596,1.377c-0.127,0-0.219-0.03-0.275-0.095
			c-0.053-0.067-0.082-0.163-0.082-0.289c0.111-0.461,0.249-0.939,0.413-1.434c0.147-0.619,0.263-1.233,0.345-1.827
			s0.123-1.15,0.123-1.665c0-0.604-0.119-1.066-0.357-1.392c-0.238-0.32-0.605-0.483-1.1-0.483
			c-0.791,0.331-1.516,0.631-2.176,0.882c-0.661,0.678-1.242,1.282-1.738,1.802c-0.494,0.525-0.917,0.951-1.266,1.281
			c-0.682,0.626-1.401,1.334-2.164,2.133c-0.762,0.798-1.547,1.701-2.355,2.71c-0.184,0.259-0.35,0.495-0.494,0.704
			c-0.148,0.211-0.277,0.379-0.389,0.51c0.296,0.604,0.533,1.107,0.717,1.514c0.182,0.404,0.312,0.74,0.385,1.014
			c0.111-0.127,0.212-0.258,0.305-0.395c0.092-0.139,0.164-0.285,0.219-0.432c0.533-0.51,0.984-0.961,1.352-1.344
			c0.369-0.389,0.682-0.727,0.94-1.02c0.388-0.535,0.731-0.925,1.036-1.172c0.303-0.246,0.566-0.373,0.785-0.373
			c0.129,0,0.234,0.043,0.316,0.127c0.082,0.083,0.125,0.189,0.125,0.314c0,0.795-0.328,2.145-0.98,4.061
			c-0.65,1.916-0.979,3.178-0.979,3.781c0,0.258,0.143,0.451,0.428,0.578c0.283,0.131,0.702,0.195,1.254,0.195
			c0.184,0,0.602-0.307,1.254-0.92c0.65-0.615,1.526-1.564,2.628-2.848c0.695-0.771,1.379-1.539,2.05-2.299
			c0.668-0.762,1.325-1.508,1.967-2.243c0.587-0.441,1.014-0.777,1.278-1.02c0.267-0.236,0.509-0.479,0.729-0.714
			c0.205-0.184,0.382-0.32,0.538-0.399c0.155-0.084,0.299-0.126,0.426-0.126c0.148,0,0.275,0.058,0.387,0.168
			c0.109,0.109,0.166,0.263,0.166,0.468c-0.166,1.155-0.301,2.079-0.4,2.778c-0.101,0.699-0.179,1.166-0.234,1.402
			c-0.018,0.184-0.1,0.504-0.246,0.967c-0.149,0.455-0.34,1.072-0.58,1.842c-0.181,0.605-0.328,1.131-0.439,1.582
			c-0.111,0.445-0.164,0.809-0.164,1.088c0,0.236,0.035,0.445,0.109,0.619c0.073,0.172,0.184,0.289,0.33,0.342
			c0.457,0.057,0.824,0.084,1.102,0.084c0.549,0,1.932-1.408,4.15-4.223c2.217-2.82,3.803-4.229,4.758-4.229
			c0.713,0,1.745,0.824,3.094,2.463c1.346,1.645,2.652,2.463,3.918,2.463c0.383,0,0.833-0.131,1.346-0.398
			c0.516-0.262,1.1-0.652,1.762-1.17c-0.195-0.521-0.428-1.076-0.679-1.645c0.108,0.229,0.208,0.443,0.294,0.631
			c0.182,0.404,0.312,0.74,0.385,1.014c0.219-0.273,0.422-0.479,0.604-0.621c0.183-0.137,0.35-0.205,0.496-0.205
			c0.184,0,0.35,0.1,0.495,0.293c0.147,0.191,0.304,0.488,0.47,0.889c0.201,0.5,0.392,0.926,0.576,1.281
			c0.184,0.363,0.367,0.631,0.551,0.814c0.348,0.383,0.783,0.678,1.307,0.877c0.522,0.205,1.124,0.305,1.803,0.305
			c0.514,0,0.958-0.041,1.334-0.125c0.373-0.08,0.711-0.211,1.005-0.395c0.714,0,1.499-0.262,2.351-0.787
			c0.854-0.521,1.804-1.299,2.85-2.326c-0.108-0.311-0.256-0.68-0.44-1.098c-0.085-0.197-0.179-0.408-0.276-0.631
			c0.125,0.264,0.236,0.504,0.332,0.715c0.182,0.404,0.312,0.74,0.385,1.014c0.365-0.311,0.7-0.574,1.004-0.783
			c0.303-0.211,0.564-0.369,0.785-0.484c0.622-0.582,1.151-1.082,1.58-1.496c0.434-0.416,0.785-0.783,1.061-1.114
			c0.238-0.221,0.441-0.419,0.605-0.594c0.164-0.172,0.301-0.314,0.414-0.425l0.357-0.11c0.42,0.625,0.773,1.208,1.059,1.749
			c0.283,0.541,0.509,1.051,0.675,1.523c0,0.479-0.868,1.492-2.602,3.041c-1.733,1.555-2.599,2.531-2.599,2.932
			c0,0.182,0.049,0.32,0.151,0.396c0.099,0.086,0.242,0.129,0.425,0.129h0.248c0.552-0.295,1.027-0.547,1.432-0.758
			c0.402-0.209,0.751-0.383,1.045-0.51c0.219-0.236,0.426-0.461,0.619-0.672c0.191-0.215,0.371-0.42,0.537-0.619
			c0.328-0.348,0.633-0.641,0.907-0.867c0.274-0.23,0.505-0.43,0.688-0.594l0.14-0.084l0.19,0.084l2.835,2.805
			c0.184,0.131,0.443,0.242,0.784,0.33c0.339,0.096,0.775,0.137,1.307,0.137c0.294,0,0.591-0.041,0.895-0.137
			c0.304-0.088,0.618-0.221,0.948-0.383c0.258-0.131,0.533-0.268,0.826-0.424c0.293-0.158,0.568-0.301,0.827-0.426
			c0.769-0.316,1.387-0.605,1.854-0.867c0.47-0.268,0.796-0.494,0.979-0.678c0.291-0.236,0.539-0.457,0.742-0.662
			c0.201-0.199,0.367-0.346,0.497-0.439c-0.003-0.008-0.007-0.016-0.009-0.021c0.707-0.777,1.304-1.359,1.795-1.75
			c0.497-0.395,0.891-0.594,1.187-0.594c0.108,0,0.246,0.105,0.41,0.316c0.166,0.209,0.358,0.529,0.577,0.951
			c0.184,0.271,0.35,0.514,0.496,0.713c0.147,0.205,0.258,0.377,0.33,0.525c0.605,1.76,1.154,2.832,1.651,3.219
			c0.495,0.385,1.577,0.578,3.245,0.578c0.277,0,0.68-0.137,1.211-0.4c0.533-0.266,1.174-0.676,1.929-1.223
			c0.677-0.494,1.262-0.93,1.745-1.309c0.486-0.377,0.877-0.713,1.17-1.006l-0.006-0.016c0.241-0.299,0.631-0.627,1.178-0.99
			c0.57-0.377,0.974-0.703,1.214-0.977c0.31-0.367,0.591-0.688,0.839-0.961c0.248-0.277,0.453-0.504,0.621-0.688
			c0.128-0.147,0.268-0.284,0.413-0.415c0.147-0.127,0.312-0.248,0.497-0.357c0.568,3.45,1,6.071,1.294,7.856
			c0.294,1.787,0.515,2.752,0.663,2.904l0.467,0.494c0.148,0.074,0.271,0.115,0.371,0.125c0.104,0.006,0.208,0.012,0.316,0.012
			c0.386,0,0.73-0.063,1.034-0.189c0.302-0.131,0.564-0.326,0.784-0.582c0.147-0.33,0.305-0.652,0.481-0.977
			c0.173-0.32,0.335-0.646,0.48-0.977l0.909-1.734c0.145-0.252,0.252-0.504,0.315-0.74c0.065-0.242,0.106-0.451,0.123-0.637
			c0.44-0.75,0.835-1.443,1.187-2.09c0.291-0.604,0.535-1.033,0.728-1.291s0.335-0.383,0.427-0.383l0.138,0.219
			c0,0.164-0.048,0.4-0.138,0.711c-0.092,0.314-0.137,0.582-0.137,0.803c0,2.127,0.178,3.723,0.537,4.789
			c0.356,1.061,0.873,1.592,1.553,1.592c0.531,0,1.053-0.152,1.565-0.451c0.378-0.225,0.749-0.549,1.116-0.926
			c-0.152,0.311-0.264,0.57-0.222,0.664c0.179,0.404,6.854-2.828,8.37-3.859c0.943-0.643,1.072-0.863,1.257-1.004
			c0.184-0.139,0.353-0.205,0.493-0.205c0.184,0,0.352,0.098,0.499,0.293c0.147,0.189,0.3,0.488,0.468,0.889
			c0.199,0.498,0.394,0.924,0.577,1.281c0.184,0.361,0.362,0.631,0.547,0.813c0.353,0.383,0.788,0.678,1.313,0.879
			c0.52,0.205,1.117,0.303,1.801,0.303c0.509,0,0.956-0.041,1.334-0.125c0.373-0.078,0.709-0.211,1.003-0.395
			c0.715,0,1.497-0.262,2.353-0.787c0.84-0.51,1.767-1.271,2.789-2.271c0,0.002,0.001,0.006,0.001,0.008
			c0,0.152-0.016,0.34-0.052,0.582c-0.422,0.42-0.736,0.855-0.951,1.303c-0.209,0.451-0.315,0.924-0.315,1.418
			c0,0.898,0.21,1.564,0.631,1.996c0.425,0.432,1.076,0.646,1.958,0.646c0.127,0,0.332-0.059,0.604-0.18s0.604-0.277,0.987-0.477
			c0.609-0.338,1.15-0.656,1.639-0.967s0.914-0.625,1.281-0.936c0.185-0.184,0.494-0.488,0.936-0.908
			c0.441-0.422,0.981-0.967,1.623-1.623c0.478-0.385,0.893-0.715,1.254-0.994c0.354-0.271,0.652-0.498,0.889-0.686
			c0.152-0.164,0.283-0.295,0.389-0.4c0.109-0.1,0.209-0.195,0.305-0.289c0.146,0.184,0.241,0.363,0.288,0.541
			c0.042,0.174,0.069,0.342,0.069,0.504c0.109,1.381,0.482,2.406,1.129,3.084c0.641,0.678,1.555,1.018,2.751,1.018
			c0.511,0,1.024-0.105,1.54-0.314c0.514-0.211,1.044-0.531,1.596-0.951c0.457-0.367,0.893-0.756,1.309-1.166
			c0.408-0.414,1.057-1.396,1.478-1.783c0.162-0.18,0.283-0.348,0.356-0.496c0.073-0.141,0.127-0.256,0.169-0.33
			c0.603-0.404,1.091-0.777,1.454-1.123c0.367-0.348,0.635-0.662,0.799-0.939c0.272-0.143,0.624-0.426,1.045-0.853
			c0.42-0.421,0.897-0.961,1.434-1.623c0.494-0.604,0.982-1.107,1.455-1.513c0.478-0.404,0.919-0.714,1.322-0.935
			c0.605,0.074,1.057,0.362,1.361,0.877s0.452,1.261,0.452,2.232c0,0.787-0.101,1.675-0.316,2.669
			c-0.209,0.986-0.514,2.063-0.919,3.219c-0.094,0.258-0.204,0.51-0.33,0.756c-0.131,0.246-0.248,0.488-0.357,0.73
			c-0.147,0.311-0.262,0.6-0.346,0.865c-0.08,0.264-0.121,0.5-0.121,0.701c0,0.514,0.193,0.887,0.576,1.117
			c0.385,0.227,0.962,0.342,1.734,0.342c0.479-0.146,0.897-0.342,1.266-0.578c1.396-0.84,2.59-1.592,3.588-2.242
			c1.002-0.652,1.816-1.203,2.436-1.666c0.295-0.256,0.547-0.482,0.757-0.688c0.214-0.199,0.399-0.373,0.567-0.523
			C174.44,43.22,174.246,42.769,174.047,42.349z M47.691,36.335c-0.045-0.047-0.069-0.12-0.069-0.23
			c0-0.499,0.341-1.271,1.021-2.327c0.676-1.056,1.218-1.58,1.622-1.58c0.128,0,0.224,0.047,0.29,0.152
			c0.063,0.099,0.096,0.23,0.096,0.394c0,0.263-0.055,0.515-0.166,0.771c-0.109,0.258-0.275,0.516-0.496,0.772
			c-0.184,0.2-0.372,0.409-0.563,0.62c-0.193,0.209-0.391,0.409-0.594,0.593c-0.107,0.179-0.229,0.378-0.356,0.589
			c-0.127,0.21-0.293,0.314-0.494,0.314C47.834,36.404,47.737,36.383,47.691,36.335z M67.213,38.61c-0.127,0-0.266-0.1-0.412-0.294
			c-0.148-0.189-0.311-0.499-0.495-0.92c-0.166-0.347-0.294-0.65-0.386-0.908c-0.09-0.257-0.119-0.478-0.082-0.661v-0.189
			c0.68-0.588,1.26-1.113,1.748-1.57c0.486-0.457,0.893-0.846,1.223-1.155c0.222-0.126,0.418-0.236,0.594-0.331
			c0.174-0.09,0.326-0.163,0.455-0.221c0.254-0.236,0.465-0.446,0.631-0.63c0.146-0.168,0.279-0.278,0.398-0.347
			c0.119-0.063,0.234-0.095,0.345-0.095c0.201,0,0.347,0.048,0.441,0.137c0.091,0.095,0.138,0.221,0.138,0.383
			c0,0.609-0.598,1.813-1.789,3.608C68.827,37.212,67.892,38.279,67.213,38.61z M76.681,41.363c0.054,0.09,0.099,0.189,0.136,0.299
			c0.088,0.264,0.174,0.5,0.258,0.723c-0.178-0.371-0.354-0.766-0.531-1.178C76.592,41.253,76.641,41.296,76.681,41.363z
			 M126.256,36.881c-0.047-0.047-0.067-0.121-0.067-0.23c0-0.499,0.341-1.271,1.014-2.327c0.683-1.056,1.224-1.581,1.628-1.581
			c0.126,0,0.221,0.047,0.288,0.152c0.063,0.1,0.096,0.23,0.096,0.394c0,0.263-0.054,0.516-0.163,0.772
			c-0.111,0.257-0.278,0.515-0.498,0.771c-0.18,0.2-0.369,0.41-0.563,0.62c-0.195,0.21-0.389,0.41-0.594,0.594
			c-0.11,0.179-0.231,0.378-0.357,0.588s-0.295,0.315-0.494,0.315C126.398,36.95,126.304,36.928,126.256,36.881z"/>
	</g>
	<g>
		<g>
			<g>
				<path fill="#FFFFFF" d="M186.402,57.845c-0.352,0-0.703-0.004-1.055-0.005h-0.148c-0.54-0.003-0.99-0.281-1.232-0.765
					c-0.164-0.33-0.301-0.594-0.43-0.829c-0.299-0.545-0.149-0.987-0.033-1.203c0.034-0.063,0.084-0.14,0.152-0.217
					c-0.61-0.196-1.09-0.634-1.367-1.263c-0.459-1.042-0.854-2.086-1.181-2.973l-0.023-0.063c-0.363-0.983-0.739-2-1.028-3.05
					c-0.742-2.686-1.248-4.82-1.622-6.837c-0.502,0.735-0.809,1.378-0.978,2.03c-0.379,1.463-0.113,2.647,0.833,3.729
					c0.322,0.367,0.694,0.691,1.154,1.064c0.446,0.363,0.545,1.005,0.229,1.485c-0.314,0.48-0.944,0.644-1.454,0.377
					c-0.512-0.268-1.019-0.605-1.547-1.035c-1.204-0.979-2.027-2.053-2.514-3.286c-0.618-1.565-0.601-3.243,0.053-4.987
					c0.539-1.439,1.403-2.776,2.713-4.207c1.487-1.624,3.293-3.113,5.681-4.69c2.541-1.678,5.377-3.201,8.922-4.789
					c0.53-0.238,1.069-0.464,1.59-0.682c0.342-0.144,0.683-0.287,1.021-0.434c0.199-0.085,0.402-0.13,0.602-0.13
					c0.353,0,0.68,0.13,0.969,0.386c0.519,0.455,1.153,0.705,1.793,0.705c0.607,0,1.188-0.218,1.679-0.631
					c0.879-0.742,1.162-1.642,0.864-2.751c-0.286-1.073-0.964-1.697-2.075-1.91c-0.172-0.033-0.348-0.05-0.52-0.05
					c-1.269,0-2.323,0.903-2.564,2.195c-0.073,0.399-0.311,0.929-1.028,1.174c-2.075,0.708-4.161,1.59-6.195,2.62
					c-1.76,0.889-3.441,1.864-5.002,2.898c-1.117,0.741-2.239,1.555-3.334,2.422c-0.058,0.045-0.111,0.083-0.177,0.127l-0.052,0.036
					c-0.326,0.226-0.748,0.262-1.108,0.095c-0.361-0.167-0.606-0.514-0.644-0.91c-0.039-0.408-0.049-0.791-0.059-1.16
					c-0.004-0.161-0.007-0.32-0.014-0.48c-0.022-0.524-0.026-1.041-0.02-1.558c-0.507,0.27-1.023,0.568-1.561,0.902
					c-1.416,0.885-2.621,1.786-3.682,2.75c-0.337,0.306-0.678,0.37-0.906,0.37c-0.298,0-0.581-0.104-0.845-0.309
					c-1.312-1.027-2.325-2.263-3.063-3.225c-1.197-1.563-2.249-3.308-3.211-5.333c-0.271-0.572-0.15-1.19,0.32-1.612
					c0.417-0.374,0.827-0.75,1.237-1.126l0.102-0.095c0.1-0.09,0.401-0.367,0.871-0.367c0.097,0,0.2,0.013,0.304,0.041
					c0.098-0.523,0.384-0.986,0.844-1.354c1.855-1.484,3.84-2.981,5.896-4.451c2.172-1.551,4.127-2.872,5.979-4.04
					c0.338-0.212,0.797-0.456,1.357-0.456c0.131,0,0.254,0.013,0.373,0.036c0.001-0.013,0.001-0.025,0.002-0.037
					c0.019-0.243,0.133-0.698,0.685-1.002c0.827-0.459,1.526-0.813,2.197-1.112c0.188-0.084,0.381-0.127,0.575-0.127
					c0.213,0,0.537,0.054,0.857,0.317c1.245,1.019,2.691,1.591,4.43,1.752c1.594,0.148,3.103-0.091,4.495-0.709
					c0.973-0.432,1.749-1.008,2.374-1.763c0.356-0.43,0.78-0.52,1.073-0.52c0.1,0,0.198,0.01,0.304,0.03
					c2.586,0.516,5.216,1.338,7.816,2.443c2.445,1.039,4.887,2.343,7.462,3.985c0.644,0.41,1.265,0.836,1.842,1.236
					c0.493,0.342,0.81,0.779,0.938,1.27c0.132-0.042,0.259-0.056,0.367-0.056c0.284,0,0.55,0.094,0.794,0.28
					c0.483,0.368,1.009,0.761,1.603,1.2c0.459,0.338,0.737,0.989,0.324,1.685c-0.715,1.242-1.421,2.474-2.125,3.705
					c-0.786,1.378-1.571,2.755-2.35,4.136c-0.359,0.634-0.92,0.703-1.143,0.703c-0.183,0-0.364-0.038-0.557-0.116
					c-1.723-0.704-3.416-1.39-5.127-2.021c0.301,0.972,0.609,1.929,0.906,2.848c0.121,0.373,0.249,0.744,0.377,1.114
					c0.137,0.397,0.273,0.794,0.403,1.194c0.406,1.263,0.868,2.487,1.435,3.938c0.193,0.496,0.153,1.189-0.542,1.649
					c-2.152,1.429-4.554,2.751-7.342,4.042c-1.601,0.74-3.307,1.459-5.374,2.26c-0.588,0.229-1.141,0.116-1.599-0.303
					c-0.784-0.72-1.631-0.902-2.634-0.58c-0.982,0.316-1.567,0.979-1.79,2.027c-0.146,0.688,0.014,1.429,0.438,2.029
					c0.428,0.605,1.076,1.005,1.779,1.099c0.131,0.017,0.261,0.026,0.39,0.026c1.269,0,2.309-0.846,2.591-2.105
					c0.166-0.75,0.676-1.055,1.074-1.176c2.338-0.724,4.732-1.692,7.117-2.881c3.57-1.781,6.589-3.753,9.228-6.027
					c1.334-1.149,2.418-2.265,3.313-3.409c0.962-1.225,1.592-2.304,1.986-3.393c0.002-0.007,0.003-0.013,0.007-0.02
					c0.071-0.187,0.172-0.306,0.214-0.357c0.292-0.378,0.796-0.534,1.25-0.381c0.451,0.152,0.763,0.568,0.766,1.046
					c0.003,0.391-0.062,0.719-0.113,0.983l-0.023,0.116c-0.309,1.645-0.967,3.289-2.01,5.025c-1.423,2.368-3.306,4.551-5.747,6.658
					c0.796,1.375,1.571,2.47,2.415,3.415c0.438,0.486,0.48,1.134,0.107,1.687c-1.238,1.834-2.841,3.444-4.9,4.924
					c-2.054,1.477-4.441,2.728-7.299,3.825c-2.677,1.027-5.535,1.813-8.739,2.399c-2.409,0.439-4.885,0.721-7.36,0.831
					C187.84,57.833,187.214,57.845,186.402,57.845z M209.808,46.764c0.311,0,0.617,0.13,0.834,0.37
					c0.32,0.357,0.379,0.881,0.144,1.301c-0.207,0.364-0.483,0.529-0.601,0.6c-1.001,0.635-2.063,1.23-3.26,1.824
					c-2.294,1.142-4.758,2.139-7.331,2.967c1.441-0.391,2.812-0.835,4.134-1.342c2.676-1.027,4.899-2.189,6.794-3.554
					c1.636-1.174,2.942-2.432,3.977-3.827c-0.901-1.088-1.734-2.344-2.591-3.897c-0.345-0.62-0.217-1.296,0.337-1.755
					c0.798-0.662,1.533-1.332,2.21-2.01c-2.393,1.863-5.064,3.523-8.118,5.047c-2.373,1.182-4.759,2.159-7.101,2.903
					c-0.627,2.076-2.502,3.493-4.681,3.493c-0.226,0-0.457-0.014-0.685-0.045c-1.32-0.176-2.528-0.914-3.313-2.026
					c-0.783-1.109-1.076-2.488-0.801-3.784c0.394-1.852,1.533-3.131,3.297-3.697c0.535-0.173,1.072-0.26,1.591-0.26
					c1.058,0,2.033,0.348,2.905,1.035c1.847-0.723,3.397-1.377,4.854-2.053c2.44-1.131,4.567-2.281,6.48-3.507
					c-0.422-1.095-0.849-2.244-1.223-3.401c-0.124-0.386-0.257-0.769-0.388-1.151c-0.134-0.385-0.267-0.769-0.391-1.155
					c-0.472-1.455-0.97-3.006-1.425-4.566c-0.392-0.853,0.089-1.386,0.246-1.527c0.224-0.205,0.518-0.317,0.824-0.317
					c0.3,0,0.528,0.106,0.65,0.162l0.012,0.005c2.088,0.716,4.119,1.523,6.173,2.359c0.22-0.384,0.437-0.768,0.655-1.152
					c-0.188,0.151-0.422,0.241-0.672,0.248c-0.437,0.012-0.836-0.228-1.032-0.616c-0.236-0.469-0.137-0.879-0.104-1.014
					c0.454-2.257,1.075-4.233,1.897-6.033c0.005-0.008,0.009-0.017,0.012-0.024c-0.005-0.003-0.011-0.006-0.014-0.01
					c-0.558-0.387-1.158-0.798-1.77-1.188c-2.471-1.576-4.804-2.822-7.134-3.812c-2.306-0.979-4.63-1.723-6.921-2.213
					c-0.784,0.839-1.745,1.513-2.861,2.008c-1.741,0.774-3.637,1.076-5.61,0.894c-1.972-0.183-3.722-0.826-5.208-1.915
					c-0.082,0.041-0.168,0.083-0.254,0.125c0.695,0.49,1.429,0.895,2.188,1.208c1.514,0.625,3.076,0.942,4.646,0.942
					c0.847,0,1.716-0.092,2.584-0.273c0.229-0.049,0.467-0.114,0.718-0.183c0.128-0.035,0.257-0.07,0.388-0.104
					c0.424-0.109,0.874,0.038,1.149,0.376c0.276,0.34,0.329,0.811,0.136,1.203c-0.2,0.406-0.53,0.573-0.641,0.628l0.011-0.006
					c-0.521,0.296-1.102,0.543-1.728,0.731c-1.809,0.545-3.748,0.677-5.79,0.393c-2.554-0.356-4.903-1.307-6.987-2.827
					c-0.059-0.043-0.103-0.073-0.136-0.092c-0.035,0.017-0.084,0.044-0.15,0.086c-1.816,1.146-3.736,2.443-5.872,3.969
					c-2.023,1.445-3.975,2.917-5.8,4.376c-0.019,0.015-0.031,0.027-0.041,0.037c0.002,0.016,0.005,0.043,0.014,0.08
					c0.552,2.332,1.348,4.564,2.367,6.635c0.25,0.442,0.225,0.946-0.073,1.357c-0.188,0.259-0.475,0.424-0.791,0.457
					c0.176,0.179,0.357,0.354,0.55,0.526c1.012-0.863,2.14-1.679,3.421-2.479c1.122-0.7,2.181-1.265,3.233-1.725
					c0.107-0.054,0.323-0.161,0.615-0.161c0.32,0,0.619,0.127,0.844,0.358c0.24,0.25,0.354,0.577,0.338,0.971
					c-0.031,0.832-0.059,1.65-0.044,2.461c0.639-0.469,1.285-0.919,1.93-1.346c1.633-1.082,3.391-2.1,5.226-3.029
					c2.012-1.017,4.071-1.898,6.128-2.619c0.582-2.146,2.448-3.61,4.672-3.61c0.313,0,0.631,0.03,0.941,0.09
					c1.951,0.374,3.309,1.628,3.816,3.529c0.523,1.949-0.039,3.741-1.584,5.043c-0.9,0.758-1.979,1.159-3.122,1.159
					c-1.028,0-2.042-0.339-2.896-0.963c-0.206,0.088-0.416,0.175-0.622,0.261c-0.508,0.213-1.034,0.435-1.539,0.661
					c-3.433,1.538-6.168,3.003-8.605,4.613c-2.092,1.382-3.692,2.679-5.006,4.06c0.247-0.054,0.435-0.03,0.629,0.033
					c0.368,0.124,0.788,0.482,0.813,1.1c0.064,0.354,0.124,0.703,0.187,1.055l0.09,0.518c0.367,2.092,0.88,4.291,1.663,7.126
					c0.266,0.958,0.608,1.888,0.972,2.87l0.023,0.064c0.316,0.854,0.695,1.859,1.129,2.846c0.008,0.017,0.014,0.028,0.02,0.037
					c0.014,0.002,0.038,0.004,0.072,0.004h0.036c1.1-0.051,2.274-0.135,3.697-0.265c1.907-0.175,3.745-0.416,5.471-0.716
					c2.557-0.443,4.894-0.977,7.145-1.627c2.956-0.854,5.607-1.844,8.106-3.029c0.102-0.047,0.206-0.094,0.322-0.143l0.154-0.066
					C209.506,46.794,209.657,46.764,209.808,46.764z M216.935,18.404c-0.802,1.25-1.533,2.597-2.177,4.016
					c-0.056,0.123-0.108,0.247-0.163,0.372c0.246-0.435,0.494-0.868,0.742-1.302c0.57-0.999,1.144-1.998,1.718-2.997
					C217.013,18.462,216.974,18.433,216.935,18.404z"/>
			</g>
		</g>
		<g>
			<circle fill="none" stroke="#FFFFFF" stroke-width="0.5" stroke-miterlimit="10" cx="197.592" cy="23.517" r="1.968"/>
			<circle fill="none" stroke="#FFFFFF" stroke-width="0.5" stroke-miterlimit="10" cx="194.605" cy="44.013" r="1.968"/>
			<linearGradient id="SVGID_3_" gradientUnits="userSpaceOnUse" x1="164.9619" y1="32.3325" x2="220.9805" y2="32.3325">
				<stop  offset="0" style="stop-color:#53B584"/>
				<stop  offset="0.119" style="stop-color:#3FA677"/>
				<stop  offset="0.3883" style="stop-color:#16885E"/>
				<stop  offset="0.5271" style="stop-color:#067D54"/>
				<stop  offset="0.8015" style="stop-color:#026652"/>
				<stop  offset="0.9951" style="stop-color:#005B51"/>
			</linearGradient>
			<path fill-rule="evenodd" clip-rule="evenodd" fill="url(#SVGID_3_)" d="M178.739,48.335c-0.485-0.254-0.933-0.566-1.359-0.912
				c-0.949-0.771-1.726-1.682-2.178-2.829c-0.553-1.396-0.459-2.796,0.06-4.181c0.548-1.463,1.445-2.704,2.492-3.845
				c1.609-1.76,3.484-3.202,5.469-4.512c2.777-1.835,5.73-3.342,8.764-4.701c0.86-0.385,1.734-0.736,2.598-1.11
				c0.153-0.066,0.257-0.046,0.385,0.067c1.443,1.27,3.469,1.327,4.935,0.09c1.217-1.026,1.635-2.369,1.225-3.897
				c-0.4-1.497-1.425-2.428-2.946-2.72c-2.086-0.399-4.007,0.952-4.396,3.039c-0.033,0.187-0.123,0.263-0.288,0.319
				c-2.176,0.743-4.288,1.643-6.341,2.681c-1.76,0.891-3.467,1.874-5.112,2.963c-1.173,0.777-2.309,1.605-3.411,2.479
				c-0.049,0.038-0.103,0.071-0.172,0.12c-0.051-0.544-0.047-1.064-0.068-1.583c-0.043-1.037-0.01-2.072,0.03-3.108
				c0.008-0.256-0.112-0.149-0.214-0.105c-1.08,0.469-2.109,1.033-3.106,1.655c-1.361,0.85-2.656,1.79-3.844,2.872
				c-0.117,0.107-0.188,0.098-0.31,0.005c-1.104-0.866-2.014-1.917-2.861-3.024c-1.223-1.593-2.228-3.319-3.089-5.132
				c-0.062-0.128-0.05-0.204,0.056-0.298c0.455-0.406,0.902-0.818,1.351-1.23c0.093-0.084,0.144-0.12,0.2,0.043
				c0.749,2.15,1.921,4.069,3.25,5.9c0.183,0.251,0.372,0.496,0.569,0.754c0.061-0.086,0.011-0.132-0.012-0.175
				c-1.089-2.206-1.901-4.509-2.466-6.903c-0.123-0.518,0.002-0.918,0.417-1.25c1.908-1.526,3.86-2.994,5.848-4.414
				c1.94-1.386,3.908-2.731,5.925-4.003c0.623-0.393,0.958-0.382,1.546,0.048c1.939,1.415,4.1,2.29,6.479,2.622
				c1.797,0.25,3.568,0.17,5.313-0.356c0.522-0.157,1.024-0.362,1.499-0.633c0.061-0.035,0.136-0.057,0.177-0.144
				c-0.393,0.103-0.772,0.218-1.156,0.299c-2.703,0.565-5.333,0.325-7.886-0.729c-1.286-0.532-2.442-1.267-3.488-2.178
				c-0.05-0.043-0.095-0.09-0.147-0.13c-0.117-0.091-0.114-0.149,0.024-0.227c0.691-0.382,1.392-0.747,2.112-1.07
				c0.106-0.047,0.179-0.039,0.271,0.036c1.465,1.201,3.158,1.827,5.032,2c1.75,0.162,3.442-0.085,5.054-0.801
				c1.08-0.48,2.022-1.156,2.779-2.073c0.084-0.101,0.158-0.134,0.294-0.105c2.618,0.522,5.146,1.333,7.601,2.375
				c2.549,1.084,4.966,2.411,7.298,3.898c0.61,0.389,1.209,0.799,1.804,1.211c0.533,0.369,0.652,0.835,0.384,1.42
				c-0.849,1.855-1.418,3.797-1.817,5.794c-0.018,0.08-0.055,0.163,0.005,0.284c0.148-0.342,0.282-0.662,0.424-0.975
				c0.794-1.746,1.72-3.416,2.811-4.996c0.075-0.107,0.125-0.158,0.253-0.063c0.535,0.408,1.076,0.811,1.618,1.21
				c0.116,0.085,0.057,0.154,0.01,0.238c-0.708,1.232-1.416,2.463-2.118,3.697c-0.787,1.379-1.573,2.757-2.354,4.14
				c-0.079,0.139-0.145,0.165-0.302,0.1c-2.268-0.926-4.538-1.843-6.856-2.637c-0.112-0.039-0.26-0.146-0.341-0.072
				c-0.088,0.079,0.026,0.223,0.061,0.336c0.449,1.537,0.936,3.061,1.429,4.584c0.251,0.771,0.531,1.535,0.778,2.307
				c0.438,1.353,0.942,2.678,1.459,4c0.064,0.164,0.005,0.229-0.118,0.311c-2.288,1.519-4.704,2.805-7.193,3.958
				c-1.744,0.808-3.518,1.538-5.308,2.231c-0.183,0.071-0.295,0.047-0.437-0.084c-1.084-0.995-2.355-1.264-3.735-0.819
				c-1.384,0.444-2.238,1.431-2.542,2.86c-0.442,2.091,1.052,4.189,3.166,4.47c2.002,0.267,3.777-0.969,4.222-2.943
				c0.041-0.188,0.116-0.292,0.31-0.353c2.514-0.776,4.938-1.776,7.287-2.948c3.391-1.691,6.582-3.7,9.459-6.181
				c1.259-1.086,2.437-2.255,3.465-3.565c0.89-1.134,1.664-2.338,2.158-3.704c0.007-0.018,0.021-0.032,0.062-0.082
				c0.004,0.325-0.062,0.602-0.114,0.88c-0.316,1.675-1,3.205-1.871,4.657c-1.59,2.646-3.671,4.858-6.035,6.822
				c-0.137,0.115-0.16,0.191-0.071,0.354c0.829,1.502,1.752,2.938,2.899,4.219c0.106,0.119,0.096,0.195,0.014,0.315
				c-1.244,1.844-2.827,3.35-4.624,4.642c-2.175,1.563-4.556,2.732-7.049,3.688c-2.768,1.064-5.625,1.811-8.538,2.343
				c-2.384,0.437-4.788,0.707-7.21,0.815c-1.058,0.047-2.116,0.038-3.174,0.033c-0.12-0.002-0.185-0.04-0.236-0.145
				c-0.146-0.291-0.295-0.581-0.449-0.867c-0.079-0.141-0.028-0.17,0.107-0.181c0.73-0.057,1.459-0.112,2.188-0.183
				c1.661-0.16,3.308-0.41,4.947-0.706c2.312-0.417,4.59-0.979,6.835-1.673c2.691-0.831,5.306-1.854,7.83-3.109
				c1.078-0.535,2.129-1.116,3.146-1.763c0.076-0.05,0.164-0.085,0.234-0.21c-0.172,0.074-0.31,0.13-0.444,0.194
				c-2.67,1.267-5.437,2.272-8.274,3.093c-2.391,0.691-4.814,1.229-7.264,1.654c-1.843,0.32-3.696,0.557-5.56,0.728
				c-1.249,0.115-2.498,0.21-3.75,0.269c-0.566,0.023-0.975-0.192-1.203-0.709c-0.42-0.955-0.794-1.93-1.154-2.91
				c-0.371-0.998-0.741-1.996-1.024-3.023c-0.66-2.387-1.259-4.789-1.688-7.23c-0.095-0.549-0.191-1.098-0.288-1.646
				c-0.011-0.054,0.016-0.133-0.046-0.154c-0.074-0.023-0.114,0.055-0.157,0.098c-0.381,0.381-0.727,0.789-1.051,1.217
				c-0.673,0.89-1.252,1.838-1.533,2.928c-0.456,1.762-0.142,3.357,1.076,4.749C177.838,47.583,178.281,47.962,178.739,48.335z"/>
			<circle fill-rule="evenodd" clip-rule="evenodd" fill="#53B584" cx="197.592" cy="23.517" r="1.968"/>
			<circle fill-rule="evenodd" clip-rule="evenodd" fill="#005B51" cx="194.605" cy="44.013" r="1.968"/>
		</g>
	</g>
</g>
</svg>
